<svg width="573" height="515" viewBox="0 0 573 515" fill="none" xmlns="http://www.w3.org/2000/svg">
<path d="M446.923 473L70 255.542L199.662 180.28L223.827 194.218C224.479 201.204 229.37 209.205 235.311 212.644L381.059 296.738L383.704 327.98L395.406 321.21L393.957 304.196L479.094 353.32C480.978 354.406 482.717 354.913 484.311 354.913C485.47 354.913 486.557 354.623 487.463 354.08C487.427 354.117 487.39 354.117 487.354 354.117L494.129 350.171L518.801 364.398C517.641 366.389 516.989 368.995 516.953 372.036C516.917 382.607 524.38 395.494 533.582 400.816C536.227 402.372 538.799 403.132 541.19 403.132C546.95 403.132 550.718 398.39 550.754 391.078C550.754 388.145 550.175 385.032 549.16 381.955L572.129 395.205L446.923 473ZM541.154 402.264C538.944 402.264 536.517 401.503 533.981 400.055C525.032 394.879 517.75 382.317 517.786 372C517.786 369.068 518.402 366.642 519.489 364.76L522.822 366.678C521.373 368.307 520.54 370.733 520.54 373.918C520.503 382.389 526.445 392.67 533.799 396.906C535.937 398.137 537.966 398.752 539.777 398.752C544.161 398.752 547.168 395.277 547.168 389.304C547.168 386.154 546.335 382.715 544.922 379.457L548.037 381.267C549.233 384.561 549.885 387.892 549.885 391.005C549.849 397.956 546.516 402.264 541.154 402.264ZM489.637 351.583C489.745 351.329 489.89 351.076 489.999 350.822C489.926 350.967 489.89 351.112 489.818 351.257V351.293C489.745 351.402 489.709 351.51 489.637 351.583ZM490.397 349.483C490.434 349.374 490.434 349.302 490.47 349.193V349.229C490.434 349.302 490.434 349.41 490.397 349.483Z" fill="url(#paint0_linear_235:42)"/>
<path d="M376.923 514.72L0 297.261L129.662 222L153.827 235.937C154.479 242.924 159.37 250.924 165.311 254.364L311.059 338.458L313.704 369.699L325.406 362.93L323.957 345.915L409.094 395.04C410.978 396.126 412.717 396.633 414.311 396.633C415.47 396.633 416.557 396.343 417.463 395.8C417.427 395.836 417.39 395.836 417.354 395.836L424.129 391.89L448.801 406.117C447.641 408.108 446.989 410.715 446.953 413.756C446.917 424.326 454.38 437.214 463.582 442.535C466.227 444.092 468.799 444.852 471.19 444.852C476.95 444.852 480.718 440.11 480.754 432.797C480.754 429.865 480.175 426.752 479.16 423.675L502.129 436.924L376.923 514.72ZM471.154 443.983C468.944 443.983 466.517 443.223 463.981 441.775C455.032 436.598 447.75 424.037 447.786 413.72C447.786 410.787 448.402 408.362 449.489 406.479L452.822 408.398C451.373 410.027 450.54 412.452 450.54 415.638C450.503 424.109 456.445 434.39 463.799 438.626C465.937 439.857 467.966 440.472 469.777 440.472C474.161 440.472 477.168 436.997 477.168 431.024C477.168 427.874 476.335 424.435 474.922 421.177L478.037 422.987C479.233 426.281 479.885 429.612 479.885 432.725C479.849 439.676 476.516 443.983 471.154 443.983ZM419.637 393.302C419.745 393.049 419.89 392.795 419.999 392.542C419.926 392.687 419.89 392.832 419.818 392.976V393.013C419.745 393.121 419.709 393.23 419.637 393.302ZM420.397 391.203C420.434 391.094 420.434 391.022 420.47 390.913V390.949C420.434 391.022 420.434 391.13 420.397 391.203Z" fill="url(#paint1_linear_235:42)"/>
<path d="M442.286 317.626L442.249 327.762L385.262 360.85L385.298 350.713L442.286 317.626Z" fill="#4881FF"/>
<path d="M385.298 350.75L385.262 360.886L261.758 289.606L261.794 279.47L385.298 350.75Z" fill="#0F4BB7"/>
<path d="M442.286 317.626L385.298 350.714L261.795 279.471L318.782 246.383L442.286 317.626Z" fill="#6A96EF"/>
<path d="M227.595 9.08639C232.341 6.29893 237.123 3.54766 241.905 0.796402C244.006 -0.434426 246.941 -0.253422 250.165 1.59282L235.855 9.88281C232.631 8.03656 229.732 7.85556 227.595 9.08639Z" fill="#85A9FF"/>
<path d="M227.594 9.08621L241.905 0.796226L242.847 0.361816L228.536 8.68801L227.594 9.08621Z" fill="#85A9FF"/>
<path d="M228.536 8.65191L242.847 0.325725L243.644 0.108521L229.333 8.39851L228.536 8.65191Z" fill="#85A9FF"/>
<path d="M229.37 8.43472L243.68 0.144735L244.369 0.0361328L230.022 8.32612L229.37 8.43472Z" fill="#85A9FF"/>
<path d="M230.021 8.32619L244.332 0.0362008L244.911 0L230.601 8.32619H230.021Z" fill="#85A9FF"/>
<path d="M230.638 8.32619L244.912 0L245.455 0.0362008L231.145 8.32619H230.638Z" fill="#85A9FF"/>
<path d="M231.145 8.32612L245.455 0.0361328L245.962 0.0723336L231.652 8.39852L231.145 8.32612Z" fill="#85A9FF"/>
<path d="M231.688 8.36232L245.998 0.0361328L246.506 0.108534L232.195 8.39852L231.688 8.36232Z" fill="#85A9FF"/>
<path d="M232.196 8.47114L246.506 0.181152L246.977 0.289755L232.667 8.57974L232.196 8.47114Z" fill="#85A9FF"/>
<path d="M232.667 8.57942L246.977 0.289429L247.448 0.434232L233.137 8.68802L232.667 8.57942Z" fill="#85A9FF"/>
<path d="M233.137 8.6883L247.448 0.398315L247.919 0.543119L233.608 8.86931L233.137 8.6883Z" fill="#85A9FF"/>
<path d="M233.608 8.86928L247.919 0.543091L248.39 0.724095L234.079 9.01408L233.608 8.86928Z" fill="#85A9FF"/>
<path d="M234.08 9.01386L248.39 0.723877L248.861 0.904881L234.551 9.23107L234.08 9.01386Z" fill="#85A9FF"/>
<path d="M234.55 9.23122L248.86 0.905029L249.331 1.12223L235.021 9.41222L234.55 9.23122Z" fill="#85A9FF"/>
<path d="M235.021 9.44831L249.332 1.15833L249.803 1.41173L235.492 9.73792L235.021 9.44831Z" fill="#85A9FF"/>
<path d="M235.492 9.70192L249.802 1.37573L250.201 1.59294L235.891 9.88292L235.492 9.70192Z" fill="#85A9FF"/>
<path d="M490.76 326.64L490.687 346.659C490.687 347.564 490.615 348.361 490.47 349.121V349.229C490.325 349.953 490.108 350.641 489.818 351.257V351.293C489.564 351.8 489.238 352.27 488.912 352.668L488.622 353.031C488.224 353.429 487.825 353.791 487.354 354.08L501.665 345.754C502.136 345.465 502.57 345.103 502.933 344.704L503.259 344.27L503.657 343.763L504.092 342.967V342.931L504.128 342.894L504.382 342.315L504.563 341.7L504.744 341.12L504.78 340.867V340.795L504.816 340.541L504.889 339.998L504.925 339.455L504.961 338.912V338.369V338.333L505.034 318.314L490.76 326.64Z" fill="#4881FF"/>
<path d="M383.668 327.98L429.86 324.866L393.921 304.159L383.668 327.98Z" fill="#4881FF"/>
<path d="M376.676 245.043L388.341 238.274L395.37 321.174L383.668 327.943L376.676 245.043Z" fill="#85A9FF"/>
<path d="M309.472 206.308L321.174 199.503L388.378 238.274L376.712 245.043L309.472 206.308Z" fill="#85A9FF"/>
<path d="M376.676 245.043L383.668 327.943L304.436 282.258L309.471 206.309L376.676 245.043Z" fill="#AECFFF"/>
<path d="M223.791 172.605L238.101 164.279L505.07 318.314L490.76 326.604L223.791 172.605Z" fill="#DCC9A0"/>
<path d="M234.66 22.6979L248.97 14.408L248.572 158.379L234.261 166.669L234.66 22.6979Z" fill="#584245"/>
<path d="M234.261 166.668L248.572 158.378L492.716 299.236L478.406 307.526L234.261 166.668Z" fill="#62494D"/>
<path d="M490.76 326.64L490.688 346.659C490.688 353.971 485.471 356.976 479.058 353.284L235.275 212.644C228.863 208.951 223.682 199.937 223.718 192.625L223.755 172.605L490.76 326.64Z" fill="#91BDF2"/>
<path d="M478.805 163.555L478.406 307.49L234.261 166.669L234.66 22.698L478.805 163.555Z" fill="#2A3B98"/>
<path d="M478.804 163.555L493.114 155.229L492.716 299.2L478.406 307.49L478.804 163.555Z" fill="#82B3B8"/>
<path d="M234.659 22.6979L248.97 14.408L493.115 155.265L478.804 163.592L234.659 22.6979Z" fill="#92C8CE"/>
<path d="M491.23 170.542L505.541 162.216L505.106 318.314L490.796 326.604L491.23 170.542Z" fill="#4881FF"/>
<path d="M235.891 9.88276L250.201 1.59277L493.984 142.233L479.674 150.523L235.891 9.88276Z" fill="#85A9FF"/>
<path d="M478.406 307.49L478.804 163.555L234.659 22.698L234.261 166.669L478.406 307.49ZM479.674 150.559C486.086 154.252 491.267 163.193 491.23 170.578L490.76 326.64L223.791 172.606L224.225 16.5438C224.261 9.15888 229.442 6.22661 235.855 9.9191L479.674 150.559Z" fill="#AECFFF"/>
<path d="M505.505 162.252V161.709L505.469 161.166L505.433 160.587L505.396 160.008L505.288 159.428V159.392L505.215 158.849L505.07 158.234L504.925 157.618L504.78 157.003L504.636 156.532V156.496L504.599 156.387L504.418 155.808L504.201 155.193L503.983 154.65L503.766 154.071L503.585 153.672L503.549 153.636L503.512 153.528L503.259 152.985L502.969 152.369L502.607 151.681L502.172 150.885L502.136 150.849L502.027 150.668H501.991C501.737 150.197 501.447 149.763 501.121 149.292L500.433 148.315L500.361 148.242L499.89 147.627L499.455 147.084L499.02 146.577L498.585 146.07L498.477 145.998L498.44 145.925L498.114 145.563L497.643 145.093L497.136 144.622L496.629 144.188L496.375 143.971L496.339 143.934L496.122 143.79L495.615 143.391L495.107 143.029L494.6 142.704L494.129 142.414L494.021 142.342L479.71 150.632C480.507 151.102 481.268 151.609 481.993 152.224L482.101 152.297C482.826 152.876 483.514 153.564 484.166 154.252L484.239 154.324C484.927 155.048 485.579 155.808 486.159 156.641L486.195 156.677C486.811 157.473 487.354 158.342 487.898 159.247L487.934 159.32C488.949 161.094 489.782 163.012 490.361 164.931V164.967C490.651 165.908 490.869 166.886 491.014 167.827V167.863C491.158 168.804 491.231 169.746 491.231 170.687L505.505 162.252Z" fill="#85A9FF"/>
<path d="M532.169 379.131L535.466 377.864C534.452 375.258 510.722 314.296 466.124 316.106C443.989 317.011 433.989 298.548 423.411 279.036C413.774 261.298 403.811 242.944 384.03 237.333C365.336 232.047 352.765 202.797 340.556 174.524C326.39 141.618 312.986 110.557 289.691 110.557H289.546C275.634 110.63 267.845 122.359 260.309 133.69C250.238 148.822 239.84 164.497 214.299 156.713L167.709 142.559L166.694 145.962L213.284 160.152C241.325 168.696 252.991 151.175 263.28 135.717C270.634 124.676 277.554 114.214 289.618 114.177H289.727C310.703 114.177 324.253 145.6 337.368 176.008C349.867 205.041 362.8 235.052 383.124 240.808C401.492 246.021 411.093 263.687 420.367 280.81C431.019 300.431 441.924 320.775 466.342 319.726C508.113 318.024 531.916 378.516 532.169 379.131Z" fill="#24B8D1"/>
<path d="M482.464 315.092C479.964 313.644 477.935 314.802 477.935 317.662C477.935 320.522 479.928 324.033 482.464 325.481C484.963 326.929 486.992 325.771 487.028 322.875C486.992 320.051 484.963 316.54 482.464 315.092Z" fill="#1C8EA2"/>
<path d="M482.427 325.481C484.927 326.929 486.956 325.771 486.992 322.875C486.992 320.015 484.963 316.504 482.463 315.055C479.963 313.607 477.935 314.766 477.935 317.626C477.898 320.558 479.927 324.07 482.427 325.481ZM491.484 325.771C491.484 331.527 487.427 333.808 482.391 330.948C477.391 328.088 473.334 321.065 473.37 315.345C473.406 309.589 477.464 307.272 482.463 310.168C487.463 313.028 491.52 320.015 491.484 325.771Z" fill="#09AEBF"/>
<path d="M399.065 244.826C396.565 243.378 394.537 244.536 394.537 247.396C394.537 250.256 396.565 253.768 399.029 255.216C401.529 256.664 403.558 255.505 403.558 252.609C403.558 249.749 401.565 246.238 399.065 244.826Z" fill="#1C8EA2"/>
<path d="M399.029 255.216C401.529 256.664 403.557 255.505 403.557 252.609C403.557 249.749 401.565 246.238 399.065 244.79C396.565 243.342 394.537 244.5 394.537 247.36C394.5 250.256 396.529 253.768 399.029 255.216ZM408.086 255.469C408.086 261.189 403.992 263.506 398.993 260.646C394.029 257.786 389.972 250.763 389.972 245.043C390.008 239.287 394.066 236.971 399.065 239.867C404.065 242.726 408.122 249.713 408.086 255.469Z" fill="#09AEBF"/>
<path d="M295.088 109.326C292.589 107.878 290.56 109.037 290.56 111.897C290.56 114.757 292.589 118.268 295.052 119.716C297.552 121.164 299.581 120.006 299.617 117.146C299.617 114.286 297.588 110.774 295.088 109.326Z" fill="#1C8EA2"/>
<path d="M295.053 119.752C297.553 121.2 299.581 120.042 299.618 117.182C299.618 114.322 297.589 110.811 295.089 109.363C292.589 107.915 290.56 109.073 290.56 111.933C290.524 114.793 292.553 118.304 295.053 119.752ZM304.11 120.006C304.074 125.726 300.016 128.042 295.017 125.183C290.017 122.323 285.996 115.3 285.996 109.58C285.996 103.824 290.089 101.507 295.053 104.403C300.089 107.263 304.146 114.25 304.11 120.006Z" fill="#09AEBF"/>
<path d="M166.694 139.373C164.194 137.925 162.166 139.083 162.129 141.943C162.129 144.803 164.158 148.315 166.622 149.763C169.122 151.211 171.15 150.052 171.187 147.156C171.223 144.333 169.194 140.821 166.694 139.373Z" fill="#1C8EA2"/>
<path d="M166.658 149.763C169.158 151.211 171.187 150.052 171.223 147.156C171.223 144.297 169.194 140.785 166.731 139.337C164.231 137.889 162.202 139.047 162.166 141.907C162.166 144.84 164.158 148.315 166.658 149.763ZM175.752 150.016C175.752 155.736 171.658 158.053 166.658 155.193C161.659 152.297 157.637 145.31 157.637 139.59C157.637 133.834 161.731 131.518 166.731 134.414C171.694 137.31 175.752 144.297 175.752 150.016Z" fill="#09AEBF"/>
<path d="M533.836 376.308C531.336 374.86 529.307 376.018 529.307 378.878C529.307 381.738 531.336 385.249 533.799 386.697C536.299 388.145 538.328 386.987 538.364 384.091C538.364 381.267 536.335 377.756 533.836 376.308Z" fill="#1C8EA2"/>
<path d="M533.8 386.697C536.3 388.145 538.328 386.987 538.365 384.091C538.365 381.231 536.336 377.719 533.836 376.271C531.336 374.823 529.307 375.982 529.307 378.842C529.271 381.774 531.3 385.285 533.8 386.697ZM542.857 386.987C542.857 392.706 538.763 395.023 533.764 392.163C528.764 389.267 524.706 382.281 524.743 376.561C524.779 370.805 528.837 368.488 533.836 371.384C538.836 374.244 542.893 381.231 542.857 386.987Z" fill="#09AEBF"/>
<path d="M179.845 149.907L175.679 148.64C175.534 147.337 175.208 145.998 174.737 144.658L178.976 145.961C179.374 147.265 179.664 148.604 179.845 149.907Z" fill="#55B0E8"/>
<path d="M170.716 156.424C169.484 156.424 168.107 156.026 166.658 155.193C161.659 152.297 157.637 145.31 157.637 139.59C157.637 135.5 159.702 133.183 162.673 133.183C163.905 133.183 165.281 133.581 166.731 134.414C170.209 136.441 173.252 140.459 174.737 144.659C175.208 145.998 175.534 147.337 175.679 148.641C175.715 149.111 175.752 149.582 175.752 150.052C175.715 154.107 173.687 156.424 170.716 156.424ZM163.434 135.536C161.043 135.536 159.376 137.418 159.376 140.713C159.34 145.346 162.637 150.994 166.658 153.311C167.854 153.998 168.941 154.324 169.955 154.324C172.346 154.324 174.013 152.442 174.013 149.147C174.013 144.514 170.752 138.866 166.731 136.55C165.535 135.862 164.412 135.536 163.434 135.536Z" fill="#47ABDF"/>
<path d="M183.323 150.957L182.454 150.704C182.273 149.401 181.983 148.061 181.584 146.722L182.49 147.012C182.889 148.351 183.179 149.654 183.323 150.957Z" fill="#55B0E8"/>
<path d="M168.687 150.378C168.071 150.378 167.383 150.197 166.658 149.763C164.159 148.315 162.13 144.803 162.166 141.943C162.166 139.916 163.217 138.758 164.702 138.758C165.318 138.758 166.006 138.939 166.731 139.373C169.194 140.821 171.223 144.297 171.223 147.156V147.193C171.223 149.22 170.173 150.378 168.687 150.378Z" fill="#70A4ED"/>
<path d="M169.955 154.324C168.977 154.324 167.854 153.998 166.658 153.31C162.637 150.993 159.376 145.346 159.376 140.712C159.376 137.418 161.043 135.536 163.434 135.536C164.412 135.536 165.535 135.861 166.694 136.513C170.716 138.83 173.976 144.477 173.976 149.111C173.976 152.405 172.346 154.324 169.955 154.324ZM162.166 141.943C162.166 144.803 164.195 148.315 166.658 149.763C167.383 150.197 168.071 150.378 168.687 150.378C170.172 150.378 171.187 149.183 171.223 147.156V147.12C171.223 144.26 169.194 140.785 166.731 139.337C166.006 138.902 165.318 138.721 164.702 138.721C163.18 138.758 162.166 139.916 162.166 141.943Z" fill="#6CAAF2"/>
<path d="M166.695 137.889C163.398 136.006 160.717 137.527 160.717 141.292C160.717 145.057 163.361 149.69 166.658 151.573C169.955 153.455 172.636 151.935 172.636 148.17C172.672 144.405 169.991 139.771 166.695 137.889Z" fill="#85A9FF"/>
<path d="M166.694 140.966C164.883 139.916 163.397 140.749 163.397 142.812C163.397 144.876 164.847 147.41 166.658 148.46C168.469 149.509 169.919 148.677 169.955 146.613C169.955 144.55 168.506 142.016 166.694 140.966Z" fill="#6E97EA"/>
<path d="M300.994 132.024C299.183 132.024 297.154 131.445 295.016 130.178C289.908 127.21 285.452 121.309 283.242 115.155C284.365 114.757 285.561 114.467 286.829 114.286C288.242 118.702 291.393 123.047 295.053 125.146C296.502 125.979 297.878 126.377 299.11 126.377C302.081 126.377 304.11 124.024 304.146 119.969C304.146 119.788 304.146 119.607 304.146 119.426C305.595 120.549 307.008 121.852 308.421 123.264C308.131 128.839 305.197 132.024 300.994 132.024ZM307.805 117.761C306.247 116.422 304.653 115.263 302.987 114.286C301.429 110.195 298.494 106.358 295.089 104.403C293.64 103.571 292.263 103.172 291.031 103.172C288.06 103.172 286.032 105.525 286.032 109.58C286.032 109.978 286.068 110.412 286.104 110.811C284.764 111.028 283.496 111.354 282.264 111.752C281.938 110.195 281.757 108.675 281.757 107.191C281.793 101.217 284.764 97.7422 289.147 97.7422C290.959 97.7422 292.987 98.3214 295.125 99.5522C301.103 103.064 306.175 110.521 307.805 117.761Z" fill="#5486EB"/>
<path d="M308.349 123.3C306.972 121.888 305.559 120.585 304.074 119.463C304.001 117.798 303.603 116.024 302.951 114.286C304.617 115.263 306.211 116.422 307.769 117.761C308.131 119.39 308.349 121.019 308.349 122.576C308.385 122.829 308.385 123.047 308.349 123.3ZM283.242 115.155C282.844 114.033 282.518 112.874 282.264 111.752C283.496 111.318 284.764 111.028 286.104 110.811C286.213 111.933 286.467 113.128 286.829 114.286C285.561 114.467 284.365 114.757 283.242 115.155Z" fill="#55B0E8"/>
<path d="M299.11 126.413C297.878 126.413 296.501 126.015 295.052 125.182C291.393 123.083 288.241 118.739 286.828 114.322C286.466 113.164 286.212 111.969 286.104 110.847C286.067 110.412 286.031 110.014 286.031 109.616C286.031 105.525 288.096 103.208 291.031 103.208C292.263 103.208 293.639 103.607 295.088 104.439C298.494 106.394 301.465 110.268 302.986 114.322C303.638 116.06 304.037 117.834 304.109 119.499C304.109 119.68 304.109 119.861 304.109 120.042C304.109 124.06 302.081 126.413 299.11 126.413ZM291.792 105.489C289.401 105.489 287.77 107.372 287.734 110.666C287.734 115.3 290.995 120.947 295.016 123.264C296.212 123.952 297.298 124.277 298.313 124.277C300.704 124.277 302.37 122.395 302.37 119.101C302.37 114.467 299.11 108.82 295.088 106.503C293.893 105.815 292.77 105.489 291.792 105.489Z" fill="#47ABDF"/>
<path d="M302.407 136.332C300.016 136.332 297.48 135.536 294.799 134.015C288.712 130.504 283.387 123.662 280.489 116.386C280.742 116.277 280.96 116.132 281.213 116.024C284.039 123.155 289.22 129.889 295.197 133.328C297.733 134.812 300.161 135.536 302.407 135.536C307.225 135.536 310.45 132.024 311.029 126.232C311.283 126.522 311.5 126.811 311.754 127.101C310.884 132.785 307.406 136.332 302.407 136.332ZM311.79 121.562C311.464 121.237 311.138 120.875 310.848 120.549C309.435 111.1 302.842 100.783 294.908 96.1856C292.372 94.7375 289.944 93.9773 287.734 93.9773C282.372 93.9773 279.003 98.2852 279.003 105.236C279.003 107.589 279.365 110.087 280.09 112.585C279.836 112.693 279.583 112.838 279.329 112.947C278.568 110.34 278.17 107.697 278.17 105.236C278.206 97.9232 281.938 93.1809 287.698 93.1809C290.053 93.1809 292.625 93.9411 295.27 95.4978C303.747 100.385 310.703 111.607 311.79 121.562Z" fill="#5486EB"/>
<path d="M311.718 127.101C311.464 126.811 311.247 126.522 310.993 126.232C311.065 125.617 311.102 124.965 311.102 124.277C311.102 123.083 310.993 121.816 310.812 120.585C311.138 120.911 311.464 121.236 311.754 121.598C311.862 122.503 311.899 123.408 311.899 124.313C311.935 125.255 311.862 126.196 311.718 127.101ZM280.488 116.385C280.054 115.263 279.655 114.141 279.329 112.983C279.583 112.874 279.836 112.729 280.09 112.621C280.416 113.743 280.778 114.901 281.213 116.023C280.959 116.132 280.742 116.241 280.488 116.385Z" fill="#55B0E8"/>
<path d="M299.581 117.073C299.581 116.892 299.581 116.711 299.544 116.53C299.581 116.748 299.581 116.892 299.581 117.073ZM297.733 111.86C296.972 110.811 296.067 109.906 295.088 109.363C296.067 109.906 296.972 110.811 297.733 111.86Z" fill="#719BF7"/>
<path d="M299.581 116.531C299.436 114.974 298.748 113.236 297.734 111.824C298.748 113.272 299.436 114.974 299.581 116.531Z" fill="#72ACF6"/>
<path d="M297.081 120.368C296.465 120.368 295.777 120.187 295.052 119.752C292.589 118.341 290.56 114.829 290.56 111.969V111.933C290.56 109.906 291.574 108.747 293.06 108.747C293.675 108.747 294.364 108.928 295.088 109.363C296.067 109.942 297.009 110.811 297.733 111.861C298.747 113.272 299.436 114.974 299.581 116.567C299.581 116.748 299.617 116.929 299.617 117.11V117.146V117.182C299.581 119.173 298.566 120.368 297.081 120.368Z" fill="#70A4ED"/>
<path d="M298.314 124.277C297.335 124.277 296.212 123.951 295.017 123.264C290.995 120.947 287.735 115.299 287.735 110.666C287.735 107.371 289.401 105.489 291.792 105.489C292.771 105.489 293.894 105.815 295.053 106.503C299.074 108.819 302.371 114.467 302.335 119.101C302.371 122.395 300.705 124.277 298.314 124.277ZM290.524 111.969C290.524 114.829 292.553 118.304 295.017 119.752C295.741 120.187 296.43 120.368 297.046 120.368C298.531 120.368 299.545 119.209 299.582 117.146V117.109V117.073C299.582 116.892 299.582 116.711 299.545 116.53C299.4 114.974 298.712 113.236 297.698 111.824C296.937 110.774 296.031 109.869 295.053 109.326C294.328 108.892 293.64 108.711 293.024 108.711C291.539 108.711 290.524 109.869 290.524 111.897C290.524 111.933 290.524 111.933 290.524 111.969Z" fill="#6CAAF2"/>
<path d="M295.088 107.842C291.792 105.959 289.111 107.48 289.111 111.245C289.111 115.046 291.755 119.643 295.052 121.526C298.349 123.444 301.03 121.888 301.03 118.123C301.03 114.358 298.385 109.761 295.088 107.842Z" fill="#85A9FF"/>
<path d="M295.089 110.955C293.277 109.906 291.828 110.774 291.828 112.838C291.828 114.901 293.277 117.435 295.089 118.485C296.9 119.535 298.386 118.702 298.386 116.603C298.349 114.503 296.9 112.005 295.089 110.955Z" fill="#6E97EA"/>
<path d="M407.724 266.728L390.298 256.664C387.472 252.211 385.697 247.034 385.733 242.401C385.733 242.111 385.733 241.821 385.769 241.568C387.291 242.111 388.74 242.763 390.117 243.487C390.044 243.957 390.008 244.464 390.008 245.007C389.972 250.727 394.029 257.75 399.029 260.61C400.478 261.442 401.891 261.841 403.086 261.841C404.97 261.841 406.492 260.863 407.361 259.125C408.557 260.754 409.68 262.384 410.803 264.121C410.006 265.352 408.956 266.221 407.724 266.728ZM412.252 259.922C410.912 257.967 409.535 256.048 408.05 254.238C407.543 248.772 403.739 242.545 399.065 239.867C397.616 239.034 396.239 238.636 395.007 238.636C393.558 238.636 392.327 239.179 391.457 240.229C389.827 239.396 388.16 238.672 386.385 238.093C387.508 234.835 389.935 233.025 393.087 233.025C394.899 233.025 396.928 233.604 399.065 234.835C406.42 239.07 412.397 249.387 412.361 257.822C412.361 258.546 412.325 259.234 412.252 259.922Z" fill="#5486EB"/>
<path d="M404.97 267.271C403.159 267.271 401.13 266.691 398.992 265.424C395.659 263.506 392.616 260.356 390.297 256.7L407.723 266.764C406.89 267.09 405.984 267.271 404.97 267.271Z" fill="#99BCFF"/>
<path d="M410.766 264.121C409.679 262.42 408.52 260.755 407.325 259.125C407.796 258.148 408.085 256.917 408.085 255.433C408.085 255.035 408.049 254.6 408.013 254.166C409.462 255.976 410.875 257.895 412.216 259.85C411.998 261.587 411.491 262.999 410.766 264.121ZM390.116 243.487C388.703 242.763 387.254 242.111 385.769 241.568C385.841 240.265 386.058 239.07 386.421 238.057C388.196 238.672 389.899 239.396 391.493 240.192C390.768 241.025 390.297 242.147 390.116 243.487Z" fill="#55B0E8"/>
<path d="M403.086 261.877C401.855 261.877 400.478 261.478 399.029 260.646C394.065 257.786 390.008 250.763 390.008 245.043C390.008 244.5 390.044 243.993 390.116 243.523C390.298 242.147 390.805 241.025 391.457 240.229C392.326 239.179 393.558 238.636 395.007 238.636C396.239 238.636 397.616 239.034 399.065 239.867C403.702 242.545 407.542 248.772 408.05 254.238C408.086 254.673 408.122 255.071 408.122 255.505C408.122 256.953 407.869 258.22 407.361 259.198C406.492 260.899 404.97 261.877 403.086 261.877ZM395.804 240.735C393.413 240.735 391.747 242.618 391.747 245.912C391.747 250.546 395.007 256.193 399.029 258.51C400.224 259.198 401.311 259.524 402.326 259.524C404.717 259.524 406.347 257.641 406.383 254.347C406.383 249.713 403.123 244.066 399.101 241.749C397.906 241.061 396.783 240.735 395.804 240.735Z" fill="#47ABDF"/>
<path d="M412.288 269.37L411.564 268.972C412.035 268.574 412.47 268.103 412.868 267.56C413.013 267.814 413.158 268.031 413.303 268.284C413.013 268.646 412.687 269.044 412.288 269.37ZM415.223 264.519C415.042 264.193 414.824 263.904 414.643 263.578C414.933 262.347 415.114 260.972 415.114 259.487C415.151 249.206 407.869 236.608 398.92 231.432C396.384 229.984 393.957 229.223 391.747 229.223C387.327 229.223 384.284 232.156 383.342 237.079C383.088 237.007 382.835 236.898 382.581 236.826C383.632 231.613 387.037 228.427 391.783 228.427C394.174 228.427 396.71 229.187 399.355 230.744C408.557 236.065 415.984 248.953 415.984 259.487C415.911 261.334 415.658 263.035 415.223 264.519ZM386.711 254.6L385.443 253.876C383.378 249.46 382.146 244.79 382.146 240.482V240.446C382.4 240.518 382.69 240.627 382.979 240.699C383.016 245.188 384.429 250.075 386.711 254.6Z" fill="#5486EB"/>
<path d="M406.383 271.578C403.992 271.578 401.456 270.782 398.775 269.262C393.341 266.112 388.486 260.32 385.479 253.876L386.747 254.6C389.718 260.429 394.211 265.641 399.21 268.538C401.746 269.986 404.173 270.746 406.42 270.746C408.485 270.746 410.224 270.13 411.637 268.936L412.361 269.334C410.731 270.782 408.738 271.578 406.383 271.578Z" fill="#99BCFF"/>
<path d="M413.339 268.248C413.194 267.995 413.049 267.777 412.904 267.524C413.701 266.438 414.281 265.135 414.643 263.578C414.824 263.904 415.042 264.193 415.223 264.519C414.788 265.967 414.136 267.234 413.339 268.248ZM382.979 240.699C382.69 240.627 382.436 240.554 382.146 240.446C382.146 239.143 382.291 237.948 382.509 236.826C382.762 236.934 383.016 237.007 383.269 237.079C383.088 238.129 382.979 239.251 382.943 240.482C382.979 240.554 382.979 240.627 382.979 240.699Z" fill="#55B0E8"/>
<path d="M401.819 247.505C401.058 246.383 400.08 245.405 399.065 244.826C400.116 245.405 401.058 246.383 401.819 247.505Z" fill="#719BF7"/>
<path d="M403.558 252.537C403.558 250.908 402.869 249.025 401.819 247.505C402.869 249.025 403.558 250.908 403.558 252.537Z" fill="#72ACF6"/>
<path d="M401.058 255.831C400.442 255.831 399.754 255.65 399.029 255.216C396.565 253.767 394.537 250.292 394.537 247.432V247.396C394.537 245.369 395.551 244.21 397.036 244.21C397.652 244.21 398.341 244.428 399.065 244.826C400.116 245.441 401.058 246.383 401.819 247.505C402.869 249.061 403.558 250.908 403.558 252.537V252.573V252.609C403.558 254.636 402.543 255.831 401.058 255.831Z" fill="#70A4ED"/>
<path d="M402.289 259.524C401.311 259.524 400.188 259.198 398.993 258.51C394.971 256.193 391.711 250.546 391.711 245.912C391.711 242.618 393.377 240.736 395.768 240.736C396.746 240.736 397.87 241.061 399.029 241.749C403.05 244.066 406.347 249.75 406.311 254.347C406.347 257.605 404.681 259.524 402.289 259.524ZM394.5 247.433C394.5 250.293 396.529 253.768 398.993 255.216C399.717 255.65 400.406 255.831 401.021 255.831C402.507 255.831 403.521 254.637 403.521 252.609V252.573V252.537C403.521 250.908 402.833 249.026 401.782 247.505C401.021 246.383 400.043 245.405 399.029 244.826C398.304 244.392 397.616 244.211 397 244.211C395.551 244.175 394.537 245.369 394.5 247.433C394.5 247.397 394.5 247.397 394.5 247.433Z" fill="#6CAAF2"/>
<path d="M399.065 243.089C395.768 241.206 393.087 242.727 393.087 246.492C393.087 250.256 395.732 254.89 399.029 256.773C402.325 258.691 405.006 257.171 405.006 253.37C405.006 249.569 402.362 244.971 399.065 243.089Z" fill="#85A9FF"/>
<path d="M399.065 246.166C397.253 245.116 395.768 245.985 395.768 248.048C395.768 250.112 397.217 252.646 399.029 253.695C400.84 254.745 402.325 253.913 402.325 251.813C402.325 249.75 400.84 247.216 399.065 246.166Z" fill="#6E97EA"/>
<path d="M490.723 337.175L490.759 329.428C491.158 328.595 491.412 327.617 491.448 326.459C492.897 327.328 494.31 328.269 495.723 329.247C495.433 333.446 493.549 336.197 490.723 337.175ZM495.469 324.504C495.324 324.396 495.143 324.287 494.998 324.178L495.397 323.961C495.397 324.142 495.433 324.323 495.469 324.504Z" fill="#6795FF"/>
<path d="M488.368 337.536C486.557 337.536 484.528 336.957 482.391 335.726C476.993 332.613 472.319 326.206 470.254 319.653C471.595 319.726 472.899 319.871 474.167 320.052C475.58 324.468 478.732 328.812 482.391 330.912C483.84 331.744 485.253 332.143 486.448 332.143C488.368 332.143 489.89 331.165 490.723 329.391L490.687 337.138C489.999 337.428 489.202 337.536 488.368 337.536ZM472.826 316.287C471.703 316.178 470.544 316.106 469.385 316.069C469.276 315.418 469.203 314.802 469.167 314.187L472.826 316.287Z" fill="#8BB3F9"/>
<path d="M478.406 307.49L472.826 304.268C473.877 303.616 475.109 303.254 476.485 303.254C477.101 303.254 477.717 303.327 478.406 303.472V307.49Z" fill="#5486EB"/>
<path d="M494.962 324.178C493.658 323.346 492.317 322.585 490.941 321.861C490.904 321.644 490.832 321.463 490.76 321.246L490.796 313.246C493.006 316.54 494.6 320.305 495.361 323.925L494.962 324.178Z" fill="#6795FF"/>
<path d="M490.796 321.282C489.419 316.757 486.231 312.304 482.463 310.132C481.014 309.3 479.637 308.901 478.406 308.901C475.435 308.901 473.37 311.254 473.37 315.309C473.37 315.635 473.37 315.997 473.406 316.359C473.225 316.322 473.008 316.322 472.826 316.286L469.167 314.15C469.131 313.68 469.131 313.173 469.131 312.702C469.131 308.612 470.544 305.679 472.863 304.268L478.442 307.489V303.471C479.71 303.725 481.087 304.268 482.499 305.1C485.651 306.91 488.55 309.843 490.832 313.282L490.796 321.282Z" fill="#99BCFF"/>
<path d="M495.723 329.246C494.346 328.269 492.933 327.328 491.448 326.459C491.448 326.242 491.484 325.988 491.484 325.771C491.484 324.504 491.303 323.201 490.941 321.898C492.318 322.622 493.658 323.382 494.962 324.215C495.143 324.323 495.288 324.432 495.433 324.54C495.651 325.771 495.759 326.966 495.759 328.124C495.759 328.486 495.759 328.884 495.723 329.246ZM474.167 320.051C472.899 319.87 471.559 319.726 470.254 319.653C469.856 318.459 469.566 317.264 469.385 316.069C470.544 316.106 471.703 316.178 472.827 316.287C473.008 316.323 473.225 316.323 473.406 316.359C473.515 317.554 473.768 318.821 474.167 320.051Z" fill="#55B0E8"/>
<path d="M486.485 332.143C485.253 332.143 483.877 331.744 482.427 330.912C478.768 328.812 475.616 324.468 474.204 320.051C473.805 318.821 473.551 317.554 473.443 316.359C473.407 315.997 473.406 315.671 473.406 315.309C473.406 311.255 475.472 308.902 478.442 308.902C479.674 308.902 481.051 309.3 482.5 310.132C486.231 312.304 489.456 316.757 490.833 321.282C490.905 321.499 490.941 321.68 491.014 321.898C491.376 323.201 491.557 324.504 491.557 325.771C491.557 325.988 491.557 326.242 491.521 326.459C491.448 327.617 491.195 328.595 490.833 329.427C489.927 331.201 488.405 332.143 486.485 332.143ZM479.203 311.037C476.812 311.037 475.145 312.92 475.145 316.214C475.145 320.848 478.406 326.495 482.427 328.812C483.587 329.5 484.71 329.826 485.688 329.826C488.079 329.826 489.746 327.943 489.746 324.649C489.782 320.015 486.485 314.368 482.464 312.051C481.304 311.363 480.181 311.037 479.203 311.037Z" fill="#47ABDF"/>
<path d="M490.723 341.844V341.012C495.143 340.577 498.005 336.957 498.44 331.274C498.693 331.491 498.947 331.672 499.201 331.889C498.585 337.645 495.397 341.374 490.723 341.844ZM499.164 327.074C498.875 326.857 498.549 326.64 498.259 326.423C498.078 325.192 497.824 323.961 497.498 322.73L498.222 322.296C498.693 323.889 498.983 325.518 499.164 327.074Z" fill="#6795FF"/>
<path d="M489.782 341.88C487.427 341.88 484.854 341.084 482.173 339.563C475.471 335.69 469.675 327.726 467.066 319.617C467.356 319.617 467.646 319.617 467.899 319.617C470.472 327.472 476.087 335.111 482.572 338.876C485.108 340.36 487.535 341.084 489.782 341.084C490.108 341.084 490.434 341.084 490.723 341.048V341.88C490.434 341.844 490.108 341.88 489.782 341.88ZM466.124 316.069C465.834 314.73 465.689 313.39 465.617 312.087L466.486 312.594C466.559 313.716 466.74 314.874 466.994 316.033C466.668 316.069 466.414 316.069 466.124 316.069Z" fill="#8BB3F9"/>
<path d="M469.095 302.132L468.406 301.734C470.037 299.815 472.355 298.729 475.109 298.729C476.195 298.729 477.282 298.874 478.442 299.2V300.032C477.319 299.706 476.195 299.525 475.145 299.525C472.645 299.562 470.58 300.467 469.095 302.132Z" fill="#5486EB"/>
<path d="M497.498 322.73C496.23 318.06 493.875 313.39 490.796 309.444V308.141C494.165 312.268 496.81 317.264 498.223 322.296L497.498 322.73Z" fill="#6795FF"/>
<path d="M466.45 312.594L465.581 312.087C465.544 311.653 465.544 311.182 465.544 310.748C465.581 306.91 466.595 303.797 468.407 301.698L469.095 302.096C467.356 304.051 466.378 307.019 466.378 310.748C466.378 311.399 466.414 312.015 466.45 312.594ZM490.832 309.445C488.332 306.259 485.434 303.544 482.282 301.734C480.978 300.974 479.674 300.394 478.406 300.032V299.2C479.782 299.598 481.195 300.213 482.681 301.046C485.615 302.747 488.405 305.245 490.796 308.177L490.832 309.445Z" fill="#99BCFF"/>
<path d="M499.201 331.889C498.948 331.672 498.694 331.491 498.44 331.274C498.477 330.803 498.513 330.296 498.513 329.789C498.513 328.667 498.44 327.545 498.259 326.423C498.585 326.64 498.875 326.857 499.165 327.074C499.274 327.979 499.31 328.921 499.31 329.789C499.31 330.513 499.274 331.238 499.201 331.889ZM467.066 319.617C466.704 318.459 466.378 317.264 466.125 316.106C466.414 316.106 466.668 316.069 466.958 316.069C467.211 317.228 467.501 318.422 467.9 319.581C467.61 319.581 467.32 319.581 467.066 319.617Z" fill="#55B0E8"/>
<path d="M486.267 319.689C485.47 317.771 484.057 316.033 482.463 315.092C484.057 315.997 485.47 317.771 486.267 319.689Z" fill="#8DB1FF"/>
<path d="M486.992 322.875C486.992 321.862 486.738 320.74 486.267 319.69C486.738 320.74 486.992 321.862 486.992 322.875Z" fill="#72ACF6"/>
<path d="M484.456 326.133C483.84 326.133 483.152 325.952 482.427 325.518C479.928 324.07 477.935 320.594 477.899 317.734V317.698C477.899 315.671 478.95 314.512 480.399 314.512C481.015 314.512 481.703 314.693 482.427 315.128C484.022 316.033 485.434 317.807 486.232 319.725C486.666 320.775 486.956 321.897 486.956 322.911V322.947C486.992 324.938 485.942 326.133 484.456 326.133Z" fill="#70A4ED"/>
<path d="M485.688 329.826C484.71 329.826 483.587 329.5 482.427 328.812C478.406 326.495 475.109 320.848 475.145 316.214C475.145 312.92 476.812 311.037 479.203 311.037C480.181 311.037 481.304 311.363 482.464 312.051C486.485 314.368 489.782 320.015 489.745 324.649C489.745 327.907 488.115 329.826 485.688 329.826ZM477.935 317.698C477.935 320.558 479.964 324.033 482.464 325.482C483.188 325.916 483.876 326.097 484.492 326.097C485.978 326.097 486.992 324.938 487.028 322.875V322.839C487.028 321.825 486.775 320.703 486.304 319.653C485.507 317.735 484.094 315.961 482.5 315.056C481.775 314.621 481.087 314.44 480.471 314.44C478.949 314.476 477.935 315.635 477.935 317.698Z" fill="#6CAAF2"/>
<path d="M482.464 313.354C479.167 311.472 476.486 312.992 476.486 316.757C476.486 320.522 479.131 325.156 482.427 327.038C485.724 328.957 488.405 327.4 488.405 323.635C488.405 319.87 485.76 315.273 482.464 313.354Z" fill="#85A9FF"/>
<path d="M482.463 316.468C480.652 315.418 479.203 316.25 479.167 318.35C479.167 320.414 480.616 322.948 482.427 323.997C484.238 325.047 485.688 324.215 485.724 322.115C485.724 320.052 484.275 317.517 482.463 316.468Z" fill="#6E97EA"/>
<path d="M544.921 379.457L538.835 375.945C537.422 374.027 535.683 372.398 533.835 371.348C533.328 371.058 532.821 370.805 532.314 370.624C531.481 368.85 530.466 366.823 529.307 364.615C530.72 364.832 532.241 365.411 533.835 366.316C538.473 368.995 542.53 373.99 544.921 379.457ZM527.749 369.574L522.786 366.714C523.474 365.918 524.343 365.339 525.322 364.977C526.227 366.569 527.024 368.126 527.749 369.574Z" fill="url(#paint2_linear_235:42)"/>
<path d="M539.741 398.752C537.929 398.752 535.9 398.173 533.763 396.906C526.409 392.67 520.467 382.353 520.503 373.918C520.503 370.769 521.337 368.307 522.786 366.678L527.749 369.538C527.894 369.828 528.039 370.081 528.148 370.371C526.083 371.095 524.778 373.267 524.742 376.525C524.706 382.245 528.763 389.268 533.763 392.127C535.212 392.96 536.589 393.358 537.821 393.358C540.791 393.358 542.82 391.005 542.856 386.951C542.856 383.331 541.262 379.204 538.835 375.946L544.921 379.457C546.334 382.715 547.168 386.154 547.168 389.304C547.131 395.313 544.124 398.752 539.741 398.752Z" fill="url(#paint3_linear_235:42)"/>
<path d="M532.314 370.624C531.408 370.298 530.575 370.117 529.778 370.117C529.198 370.117 528.655 370.189 528.148 370.37C528.003 370.117 527.894 369.827 527.749 369.538C527.025 368.126 526.227 366.569 525.322 364.94C526.119 364.651 526.952 364.47 527.894 364.47C528.365 364.47 528.836 364.506 529.343 364.578C530.503 366.823 531.481 368.85 532.314 370.624Z" fill="#55B0E8"/>
<path d="M537.857 393.394C536.625 393.394 535.249 392.996 533.8 392.164C528.8 389.268 524.742 382.281 524.779 376.561C524.779 373.303 526.119 371.131 528.184 370.407C528.691 370.226 529.235 370.154 529.814 370.154C530.611 370.154 531.445 370.335 532.35 370.66C532.858 370.841 533.365 371.095 533.872 371.384C535.72 372.434 537.422 374.063 538.871 375.982C541.299 379.24 542.929 383.367 542.893 386.987C542.857 391.041 540.828 393.394 537.857 393.394ZM530.575 372.253C528.184 372.253 526.518 374.136 526.518 377.43C526.481 382.064 529.778 387.711 533.8 390.028C534.959 390.716 536.082 391.041 537.06 391.041C539.451 391.041 541.118 389.159 541.118 385.865C541.118 381.231 537.857 375.584 533.836 373.267C532.676 372.543 531.553 372.253 530.575 372.253Z" fill="#47ABDF"/>
<path d="M549.124 381.882L548.037 381.267C545.32 373.773 539.922 366.57 533.655 362.949C531.408 361.646 529.235 360.922 527.242 360.777C527.097 360.488 526.916 360.234 526.771 359.945C529.054 360.017 531.517 360.777 534.089 362.262C540.719 366.099 546.443 373.882 549.124 381.882ZM519.453 364.76L518.765 364.361C519.779 362.66 521.156 361.357 522.858 360.633C523.003 360.886 523.148 361.103 523.257 361.32C521.663 362.008 520.395 363.167 519.453 364.76Z" fill="url(#paint4_linear_235:42)"/>
<path d="M541.154 403.096C538.799 403.096 536.227 402.336 533.546 400.779C524.344 395.494 516.917 382.57 516.917 372C516.917 368.959 517.569 366.352 518.765 364.361L519.453 364.76C518.366 366.606 517.786 369.067 517.75 372C517.714 382.317 524.996 394.879 533.944 400.055C536.48 401.503 538.908 402.264 541.118 402.264C546.48 402.264 549.849 397.956 549.849 391.005C549.849 387.892 549.197 384.525 548.001 381.267L549.088 381.883C550.102 384.96 550.682 388.073 550.682 391.005C550.682 398.354 546.914 403.096 541.154 403.096Z" fill="url(#paint5_linear_235:42)"/>
<path d="M523.293 361.357C523.148 361.139 523.003 360.886 522.895 360.669C523.982 360.198 525.177 359.945 526.518 359.945C526.626 359.945 526.699 359.945 526.807 359.945C526.952 360.234 527.134 360.524 527.278 360.777C527.025 360.741 526.771 360.741 526.518 360.741C525.322 360.777 524.235 360.958 523.293 361.357Z" fill="#55B0E8"/>
<path d="M538.364 384.091C538.364 381.846 537.096 379.167 535.321 377.466C537.096 379.167 538.328 381.846 538.364 384.091Z" fill="url(#paint6_linear_235:42)"/>
<path d="M535.321 377.466C534.85 376.995 534.343 376.633 533.836 376.307C534.343 376.597 534.85 376.995 535.321 377.466Z" fill="#72ACF6"/>
<path d="M535.828 387.313C535.212 387.313 534.524 387.132 533.799 386.697C531.299 385.249 529.271 381.738 529.307 378.878C529.307 376.851 530.358 375.692 531.807 375.692C532.423 375.692 533.111 375.873 533.835 376.308C534.343 376.597 534.85 376.995 535.321 377.466C537.096 379.167 538.364 381.846 538.364 384.091V384.127C538.328 386.154 537.313 387.349 535.828 387.313Z" fill="#70A4ED"/>
<path d="M537.06 391.005C536.082 391.005 534.959 390.679 533.8 389.991C529.778 387.675 526.518 382.027 526.518 377.394C526.518 374.099 528.184 372.217 530.575 372.217C531.553 372.217 532.676 372.543 533.836 373.23C537.857 375.547 541.118 381.195 541.118 385.828C541.118 389.123 539.487 391.005 537.06 391.005ZM529.307 378.914C529.307 381.774 531.336 385.285 533.8 386.733C534.524 387.168 535.212 387.349 535.828 387.349C537.314 387.349 538.328 386.19 538.364 384.127V384.091C538.364 381.846 537.096 379.167 535.321 377.466C534.85 376.995 534.343 376.633 533.836 376.344C533.111 375.945 532.423 375.728 531.807 375.728C530.322 375.692 529.307 376.887 529.307 378.914Z" fill="#6CAAF2"/>
<path d="M533.835 374.57C530.539 372.687 527.858 374.208 527.858 377.973C527.858 381.774 530.502 386.371 533.799 388.254C537.096 390.172 539.777 388.616 539.777 384.851C539.777 381.086 537.132 376.489 533.835 374.57Z" fill="#85A9FF"/>
<path d="M533.836 377.683C532.024 376.633 530.575 377.466 530.539 379.565C530.539 381.629 531.988 384.163 533.8 385.213C535.611 386.263 537.096 385.43 537.096 383.367C537.096 381.231 535.647 378.733 533.836 377.683Z" fill="#6E97EA"/>
<path d="M173.505 233.857C172.962 233.676 172.418 233.495 171.911 233.423H171.802C171.223 233.351 170.679 233.351 170.136 233.459H170.1C169.556 233.568 168.977 233.749 168.433 234.075L171.078 232.518L178.106 228.427L178.686 228.138L179.229 227.957L179.7 227.848H179.736H179.773L180.316 227.776H180.932L181.367 227.812H181.475H181.584L182.417 227.993L183.106 228.21L183.396 228.319L183.54 228.391C184.084 228.608 184.591 228.862 185.135 229.187C187.707 230.672 190.388 233.097 193.141 235.559C195.894 238.02 198.684 240.482 201.474 242.111C202.09 242.473 202.669 242.763 203.249 243.016L204.155 243.378L204.734 243.559C205.205 243.668 205.64 243.776 206.111 243.849L206.328 243.885C206.799 243.921 207.27 243.957 207.741 243.921C208.683 243.849 209.553 243.668 210.35 243.378L210.603 243.27C211.4 243.016 212.125 242.69 212.813 242.292C209.589 244.138 206.365 246.021 203.176 247.903L202.995 247.976C202.561 248.229 202.126 248.446 201.655 248.627L200.966 248.881L200.713 248.989L200.423 249.098C200.025 249.207 199.59 249.315 199.155 249.388L198.104 249.532H197.923H197.126L196.691 249.496L196.438 249.46L196.257 249.424L195.206 249.207L195.097 249.17L194.482 248.953L193.757 248.7L193.576 248.627C192.996 248.374 192.38 248.084 191.801 247.722C189.011 246.093 186.185 243.632 183.432 241.17C180.678 238.708 177.997 236.283 175.425 234.799C174.846 234.473 174.23 234.183 173.65 233.93L173.505 233.857Z" fill="#EDB93B"/>
<path d="M223.791 236.862L222.849 236.608L222.088 236.464L220.965 236.283L220.53 236.246C220.059 236.21 219.588 236.21 219.117 236.246L218.827 236.283L217.74 236.464L217.414 236.536L216.255 236.934L216.146 236.97C215.675 237.152 215.277 237.369 214.878 237.622L214.987 237.586L222.052 233.495C222.885 233.025 223.718 232.518 224.515 232.047L224.624 231.975L225.747 231.432L225.964 231.359L226.761 231.07L227.015 230.997L227.341 230.925L227.776 230.816L228.464 230.744L228.718 230.708H228.826H229.95L230.131 230.744L230.565 230.78L231.254 230.853L231.725 230.961L232.449 231.106L232.92 231.215L233.427 231.396C233.898 231.54 234.297 231.685 234.768 231.866L235.275 232.047L235.637 232.228C236.579 232.663 237.558 233.133 238.608 233.712C246.506 238.527 256.94 246.274 266.396 251.74C267.7 252.501 268.968 253.188 270.236 253.84L271.25 254.347C272.228 254.854 273.17 255.288 274.112 255.686L274.982 256.085C276.177 256.555 277.337 256.99 278.46 257.279C278.967 257.424 279.438 257.533 279.945 257.641L280.778 257.822C281.503 257.931 282.155 258.003 282.807 258.003H283.097C283.713 258.003 284.329 257.931 284.908 257.822L285.053 257.786C285.669 257.641 286.249 257.424 286.792 257.098L286.72 257.134L277.083 262.745L276.431 263.071L275.706 263.325L275.417 263.18L275.272 263.216L274.909 263.288L273.931 263.397H273.46H273.134H272.772C272.301 263.361 271.794 263.325 271.286 263.252L271.142 263.216L270.308 263.035L269.113 262.782L268.859 262.673C267.772 262.347 266.613 261.949 265.381 261.478L265.2 261.406L264.584 261.116C263.642 260.718 262.664 260.248 261.686 259.777L260.635 259.27C259.403 258.619 258.135 257.931 256.831 257.207C247.376 251.74 236.942 243.993 229.044 239.215C227.993 238.6 227.015 238.129 226.073 237.731L225.204 237.369C224.696 237.152 224.225 236.971 223.791 236.862Z" fill="#EDB93B"/>
<path d="M313.565 208.336L313.203 208.299C312.732 208.227 312.225 208.191 311.754 208.191H311.247C310.812 208.191 310.377 208.227 309.942 208.299L309.471 208.336C308.892 208.444 308.312 208.553 307.769 208.734L307.696 208.77C307.153 208.951 306.609 209.132 306.066 209.386L305.233 209.784L304.218 210.291L313.891 204.679L314.072 204.571L314.942 204.173L315.703 203.774L315.775 203.738C316.21 203.557 316.681 203.412 317.116 203.268L317.442 203.159C317.913 203.014 318.42 202.906 318.927 202.797L319.108 202.761L319.579 202.725L320.412 202.616H320.883H321.427H321.862L322.767 202.725L323.202 202.761H323.347C323.89 202.833 324.434 202.978 325.014 203.123H325.05C325.738 203.34 326.463 203.593 327.187 203.883H327.223C327.912 204.173 328.564 204.535 329.252 204.897C330.122 205.403 330.991 206.019 331.897 206.67L332.658 207.286C333.382 207.865 334.107 208.517 334.868 209.241L335.302 209.639L335.484 209.82C335.991 210.363 336.534 210.942 337.078 211.521L337.73 212.209L337.838 212.318L338.636 213.295C339.034 213.802 339.469 214.273 339.867 214.816L340.012 214.997L340.845 216.119C341.208 216.589 341.57 217.06 341.932 217.567L342.186 217.965C342.548 218.472 342.91 219.015 343.237 219.558L344.07 220.753L344.396 221.259C344.831 221.947 345.265 222.707 345.736 223.431L346.425 224.554C346.678 225.024 346.968 225.495 347.258 225.965C349.323 229.622 351.279 233.206 353.127 236.717L353.67 237.658C353.924 238.129 354.141 238.563 354.359 238.998C358.815 247.469 362.764 255.433 366.35 262.854L366.821 263.795C367.111 264.411 367.401 264.99 367.691 265.605C368.271 266.8 368.814 267.922 369.357 269.081C370.154 270.746 370.915 272.339 371.676 273.932C372.183 275.018 372.69 276.031 373.198 277.081C374.067 278.819 374.864 280.52 375.734 282.222C376.168 283.09 376.603 283.995 377.002 284.828C378.089 286.964 379.103 288.991 380.154 290.982L380.588 291.815C381.639 293.77 382.69 295.616 383.704 297.426C384.392 298.657 385.117 299.815 385.841 300.974L386.494 301.987C387.363 303.399 388.269 304.702 389.174 305.969L389.754 306.802C390.515 307.816 391.276 308.793 392.037 309.734L392.652 310.494C393.631 311.617 394.609 312.703 395.623 313.68C396.384 314.44 397.217 315.092 397.978 315.744L398.992 316.649C400.152 317.554 401.347 318.35 402.579 319.074C403.666 319.689 404.789 320.232 405.912 320.739C406.347 320.92 406.818 321.065 407.289 321.246C407.977 321.499 408.666 321.753 409.39 321.97C410.115 322.151 410.839 322.296 411.6 322.477C412.035 322.549 412.47 322.694 412.904 322.73C414.1 322.911 415.332 323.056 416.636 323.092C417.179 323.128 417.723 323.165 418.302 323.273L418.737 323.346L419.57 323.527L420.331 323.672L420.875 323.852C421.346 323.997 421.853 324.178 422.36 324.359L423.012 324.577L423.374 324.758C424.389 325.192 425.403 325.663 426.454 326.278C429.932 328.269 433.446 331.093 436.924 334.496L437.395 334.93C439.17 336.668 440.945 338.586 442.684 340.577L442.829 340.722L442.865 340.794C444.459 342.641 446.054 344.596 447.648 346.587L447.901 346.912L448.046 347.093C449.749 349.302 451.452 351.582 453.082 353.935L453.263 354.189L453.335 354.297C455.328 357.121 457.248 360.017 459.132 362.949L459.277 363.13L459.458 363.42C461.777 367.04 463.987 370.696 466.124 374.353L466.197 374.425L466.414 374.787C467.718 377.031 468.986 379.276 470.218 381.484L470.399 381.81C471.595 383.946 472.718 386.046 473.841 388.145L474.203 388.797L474.421 389.231C475.145 390.607 475.833 391.946 476.522 393.249C476.739 393.684 476.957 394.118 477.21 394.553C477.717 395.566 478.225 396.544 478.732 397.521L479.348 398.788C479.855 399.802 480.326 400.779 480.797 401.72L481.268 402.662C481.884 403.856 482.427 405.015 482.971 406.101L483.043 406.282C483.369 406.933 483.659 407.585 483.949 408.2L484.275 408.888C484.528 409.431 484.782 409.938 485.036 410.445L485.47 411.386L485.905 412.291C487.861 416.49 489.093 419.278 489.383 419.929L479.746 425.504C479.456 424.817 478.188 421.957 476.16 417.613L475.87 416.961C475.652 416.527 475.435 416.056 475.218 415.585L474.71 414.499L474.095 413.196C473.877 412.725 473.624 412.255 473.406 411.748C472.863 410.626 472.283 409.431 471.667 408.2L471.269 407.404C470.761 406.39 470.254 405.341 469.711 404.255L469.204 403.241C468.588 402.046 467.972 400.815 467.32 399.585L467.066 399.078C466.305 397.594 465.508 396.073 464.675 394.553L464.53 394.263C463.335 392.019 462.103 389.738 460.799 387.421L460.654 387.168C459.422 384.959 458.154 382.715 456.85 380.471L456.56 379.928C454.422 376.271 452.212 372.615 449.894 368.995L449.64 368.597C447.756 365.628 445.8 362.732 443.807 359.909L443.59 359.583C441.923 357.193 440.221 354.913 438.518 352.705L438.083 352.162C436.489 350.134 434.895 348.179 433.265 346.333C431.49 344.27 429.678 342.315 427.867 340.541L427.758 340.432C425.983 338.659 424.171 337.066 422.396 335.654L421.889 335.292C421.128 334.713 420.404 334.134 419.643 333.627C418.737 333.011 417.831 332.432 416.926 331.889C415.911 331.31 414.861 330.803 413.846 330.369L412.832 329.97C412.361 329.789 411.854 329.608 411.346 329.464L410.042 329.138L409.209 328.957C408.521 328.848 407.832 328.74 407.144 328.703C405.912 328.631 404.753 328.522 403.594 328.341L403.449 328.305C403.014 328.233 402.579 328.124 402.181 328.016C401.492 327.871 400.84 327.762 400.188 327.617L399.971 327.545C399.246 327.328 398.558 327.074 397.833 326.821L396.638 326.423L396.493 326.35C395.333 325.88 394.21 325.337 393.16 324.685C391.928 323.961 390.732 323.165 389.537 322.26L388.269 321.137C387.544 320.522 386.856 319.943 386.131 319.291L386.095 319.255C385.189 318.386 384.32 317.481 383.487 316.504L383.161 316.106L382.617 315.454C382.219 314.947 381.784 314.44 381.349 313.897C380.987 313.427 380.625 312.92 380.262 312.413L379.683 311.617L379.248 311.037C378.523 309.988 377.762 308.902 377.038 307.743L376.965 307.598L376.313 306.512C375.697 305.499 375.082 304.521 374.466 303.471L374.248 303.037C373.234 301.299 372.219 299.453 371.205 297.535L371.024 297.209L370.662 296.485C369.647 294.53 368.597 292.503 367.546 290.403C367.147 289.607 366.749 288.774 366.35 287.941C365.445 286.131 364.539 284.285 363.633 282.403L363.271 281.679C363.017 281.136 362.728 280.52 362.474 279.977C361.423 277.805 360.336 275.561 359.25 273.244C358.96 272.665 358.706 272.122 358.416 271.506C357.909 270.42 357.366 269.298 356.822 268.176C355.156 264.737 353.417 261.189 351.605 257.533L351.171 256.628C349.287 252.826 347.222 248.844 345.084 244.826C344.613 243.921 344.142 243.016 343.671 242.111C341.824 238.672 339.903 235.124 337.838 231.504C337.295 230.527 336.752 229.658 336.208 228.789C335.81 228.138 335.447 227.486 335.049 226.907C334.614 226.219 334.179 225.567 333.745 224.916C333.455 224.481 333.129 224.011 332.839 223.576C332.368 222.888 331.897 222.237 331.39 221.585L330.593 220.499C330.158 219.92 329.687 219.377 329.252 218.87L328.419 217.82L327.477 217.205C326.934 216.589 326.39 216.01 325.847 215.467L325.231 214.888C324.506 214.164 323.745 213.512 323.021 212.933L322.296 212.354C321.391 211.666 320.521 211.051 319.652 210.58C318.963 210.182 318.275 209.82 317.587 209.53C316.862 209.205 316.174 208.987 315.485 208.77C314.797 208.553 314.181 208.444 313.565 208.336Z" fill="#466C8D"/>
<path d="M319.615 210.544C297.48 197.765 283.278 240.699 280.67 256.338C278.894 267.198 268.605 264.013 256.759 257.171C247.303 251.704 236.869 243.957 228.971 239.179C211.147 228.898 210.929 248.374 198.141 249.496C196.076 249.677 193.974 248.953 191.837 247.722C189.047 246.093 186.221 243.631 183.468 241.17C180.715 238.708 178.034 236.283 175.462 234.798C170.426 231.902 165.897 232.699 162.492 244.211L479.456 425.649C477.754 421.812 445.727 348.795 416.6 331.961C413.267 330.043 410.006 328.921 406.854 328.74C401.528 328.486 396.964 327.111 392.834 324.721C373.161 313.354 364.213 278.746 337.549 231.649C331.136 220.318 325.122 213.73 319.615 210.544Z" fill="#235278"/>
<path d="M149.341 260.972C147.928 260.393 146.588 259.886 145.283 259.379L144.16 258.944C143.218 258.582 142.276 258.22 141.335 257.895L140.356 257.533C139.161 257.098 138.001 256.7 136.951 256.338L136.697 256.266C135.683 255.904 134.705 255.578 133.763 255.288L132.893 254.999C132.132 254.781 131.408 254.528 130.683 254.311L129.959 254.094C129.053 253.84 128.147 253.587 127.314 253.333C126.372 253.08 125.466 252.863 124.633 252.646L123.872 252.465C123.293 252.32 122.713 252.175 122.17 252.066L121.336 251.885L120.068 251.632L119.307 251.487L118.257 251.306L117.605 251.198L116.953 251.089L116.337 251.017L115.83 250.98L115.286 250.908L114.996 250.872L114.525 250.836L114.344 250.799H113.728L125.104 244.175H125.684H125.72H125.937L126.408 244.211L126.698 244.247L127.278 244.319L127.749 244.356L128.365 244.428L129.017 244.5L129.415 244.573L129.705 244.609L130.756 244.79L131.517 244.935L132.785 245.188L133.618 245.369C134.161 245.478 134.741 245.623 135.357 245.767L136.045 245.948C136.878 246.166 137.82 246.383 138.799 246.636H138.871C139.668 246.853 140.501 247.107 141.371 247.36L142.168 247.577C142.856 247.795 143.544 247.976 144.269 248.229L145.211 248.519C146.117 248.808 147.059 249.098 148.001 249.424L148.363 249.532C149.45 249.894 150.573 250.293 151.732 250.727L152.819 251.125C153.688 251.451 154.594 251.777 155.5 252.139L156.732 252.609C158.036 253.116 159.376 253.659 160.753 254.202C162.275 254.818 163.76 255.324 165.173 255.795L166.332 256.157C167.202 256.41 168.071 256.628 168.905 256.845C169.738 257.062 170.571 257.243 171.404 257.388C172.093 257.496 172.781 257.641 173.433 257.714C173.977 257.786 174.556 257.858 175.1 257.895C175.86 257.967 176.585 258.003 177.31 258.003H178.541C179.338 257.967 180.135 257.895 180.932 257.786L181.766 257.677C182.816 257.496 183.831 257.279 184.773 256.99L185.642 256.664C186.331 256.41 187.019 256.193 187.707 255.904C188.287 255.65 188.867 255.361 189.446 255.035C189.917 254.781 190.388 254.564 190.859 254.311L179.483 260.936L179.157 261.117L178.07 261.66C177.491 261.949 176.911 262.275 176.331 262.528L176.114 262.637C175.534 262.89 174.918 263.071 174.303 263.289L173.397 263.614L173.324 263.651C172.455 263.904 171.549 264.121 170.607 264.266L170.39 264.302L169.52 264.411C168.977 264.483 168.397 264.592 167.818 264.628H167.093C166.695 264.664 166.26 264.628 165.825 264.628H164.666L163.688 264.519C163.144 264.483 162.565 264.411 161.985 264.338L161.043 264.23L159.992 264.013C159.159 263.868 158.326 263.687 157.456 263.47L156.406 263.252C155.935 263.108 155.427 262.963 154.957 262.782L153.761 262.42C152.312 262.094 150.863 261.587 149.341 260.972Z" fill="#752289"/>
<path d="M207.306 242.292L206.763 242.111L206.328 242.002L205.495 241.857L205.133 241.821L204.227 241.785H203.973L202.85 241.93L202.56 242.002L201.655 242.256L201.365 242.364L200.206 242.943L200.314 242.871L204.988 240.156L211.581 236.319L211.69 236.246L212.632 235.776L212.777 235.74L213.031 235.631L213.538 235.45L213.972 235.341L214.262 235.269L214.371 235.305L215.24 235.197H215.313H215.567H216.11L216.472 235.233L216.835 235.269L217.124 235.305L217.668 235.414L218.139 235.522L218.284 235.559L218.646 235.703L219.624 236.029L219.842 236.102L220.059 236.21C220.675 236.464 221.291 236.789 221.943 237.151C222.885 237.694 223.863 238.382 224.841 239.106L225.855 239.903C226.508 240.409 227.16 240.952 227.812 241.532L228.935 242.545C229.587 243.124 230.203 243.74 230.855 244.355L231.942 245.405L232.449 245.912C233.101 246.564 233.79 247.215 234.442 247.903C235.202 248.663 235.963 249.423 236.724 250.147C237.159 250.582 237.63 251.016 238.101 251.451C238.68 252.03 239.26 252.573 239.84 253.116L241.072 254.202C241.724 254.781 242.34 255.288 242.992 255.795L243.97 256.591C244.912 257.315 245.89 257.967 246.832 258.51C247.448 258.872 248.064 259.161 248.643 259.415L249.114 259.596L250.092 259.922L250.563 260.066L250.998 260.175L251.759 260.32L252.121 260.356L252.991 260.392H253.244L254.295 260.247L254.549 260.175L255.382 259.922L255.672 259.813L256.759 259.27L245.383 265.895H245.346L244.441 266.329L244.296 266.402L244.006 266.51L243.608 266.655L243.173 266.764L242.919 266.836L242.81 266.872L241.977 266.981H241.869H241.615H241.144L240.782 266.945L240.419 266.908L240.166 266.872L239.622 266.764L239.188 266.691L239.043 266.655L238.68 266.546L237.702 266.221L237.485 266.148L237.267 266.04C236.652 265.786 236.072 265.497 235.456 265.135C234.514 264.592 233.572 263.94 232.594 263.216L231.58 262.42C230.964 261.913 230.312 261.406 229.696 260.827L228.5 259.741C227.92 259.198 227.305 258.655 226.725 258.075C226.254 257.641 225.819 257.207 225.384 256.736L224.986 256.374C224.37 255.759 223.718 255.143 223.102 254.492C222.233 253.623 221.399 252.79 220.53 251.957L219.552 251.016C218.863 250.365 218.211 249.713 217.523 249.098L216.508 248.193C215.82 247.577 215.168 247.034 214.48 246.491L213.538 245.731C212.56 245.007 211.581 244.319 210.639 243.776C210.024 243.414 209.371 243.125 208.756 242.835L208.321 242.654L207.306 242.292Z" fill="#752289"/>
<path d="M274.873 183.104L286.249 176.479L285.597 176.153L274.221 182.778L274.873 183.104Z" fill="#972CB1"/>
<path d="M274.221 182.778L285.597 176.153L285.017 175.972L273.641 182.597L274.221 182.778Z" fill="#932BAC"/>
<path d="M273.641 182.597L285.017 175.972L284.546 175.863L273.17 182.452L273.641 182.597Z" fill="#902AA8"/>
<path d="M273.17 182.488L284.546 175.9L284.111 175.863L272.736 182.488H273.17Z" fill="#8C29A4"/>
<path d="M272.735 182.452L284.111 175.827H283.676L272.3 182.452H272.735Z" fill="#88289F"/>
<path d="M272.301 182.452L283.677 175.827L283.242 175.864L271.866 182.488L272.301 182.452Z" fill="#84279B"/>
<path d="M271.866 182.488L283.242 175.863L282.771 175.972L271.395 182.561L271.866 182.488Z" fill="#812596"/>
<path d="M271.395 182.597L282.771 176.008L282.264 176.189L270.888 182.778L271.395 182.597Z" fill="#7D2492"/>
<path d="M270.852 182.778L282.227 176.189L281.213 176.696L269.837 183.285L270.852 182.778Z" fill="#79238D"/>
<path d="M269.874 183.285L281.249 176.696H281.213L269.874 183.285Z" fill="#752289"/>
<path d="M304.255 267.741C303.929 266.764 303.639 265.75 303.349 264.773C303.132 264.049 302.914 263.325 302.697 262.601C302.407 261.587 302.117 260.574 301.791 259.524C301.574 258.763 301.356 258.039 301.139 257.243C300.958 256.555 300.741 255.867 300.559 255.18C300.27 254.094 299.944 253.044 299.654 251.958C299.509 251.378 299.328 250.835 299.183 250.256C298.748 248.7 298.35 247.179 297.915 245.623C297.661 244.645 297.371 243.668 297.154 242.727C296.719 241.134 296.284 239.541 295.85 237.984C295.198 235.559 294.546 233.169 293.93 230.816C293.785 230.31 293.676 229.839 293.531 229.332C293.024 227.45 292.517 225.604 292.009 223.757L291.683 222.599C291.394 221.549 291.104 220.499 290.814 219.449C290.669 218.834 290.488 218.255 290.307 217.676C290.053 216.771 289.8 215.902 289.546 214.997C289.329 214.309 289.147 213.585 288.93 212.897C288.713 212.173 288.495 211.449 288.278 210.725C288.024 209.929 287.807 209.132 287.553 208.372C287.372 207.757 287.155 207.177 286.974 206.562C286.72 205.729 286.43 204.897 286.177 204.1L285.851 203.159C285.525 202.254 285.235 201.349 284.909 200.444L284.474 199.249C284.22 198.525 283.931 197.801 283.641 197.113C283.423 196.57 283.206 195.991 282.952 195.484C282.699 194.869 282.481 194.29 282.228 193.747L281.721 192.697C281.358 191.901 280.996 191.14 280.634 190.453L280.597 190.308C280.163 189.475 279.728 188.715 279.293 187.991L279.185 187.774C278.75 187.05 278.279 186.398 277.844 185.819L277.772 185.746L276.793 184.66L276.178 184.045L274.946 183.104L286.322 176.479L287.3 177.167L287.553 177.42L288.205 178.072L288.676 178.542L289.184 179.194L289.22 179.23L289.256 179.266L289.872 180.099L290.488 181.004L290.633 181.221L290.742 181.402L291.14 182.054C291.43 182.525 291.72 183.068 291.973 183.574L292.009 183.683L292.154 183.936C292.372 184.371 292.589 184.805 292.807 185.24L293.205 186.145L293.64 187.122L293.966 187.81L294.401 188.896C294.618 189.439 294.872 190.018 295.089 190.597L295.343 191.213L295.814 192.48C295.995 192.95 296.176 193.457 296.357 193.928C296.611 194.652 296.864 195.448 297.154 196.208C297.299 196.679 297.48 197.113 297.625 197.584L297.734 197.874C297.915 198.417 298.06 198.96 298.241 199.503C298.494 200.263 298.748 201.023 299.002 201.82C299.219 202.471 299.436 203.195 299.618 203.883C299.871 204.679 300.089 205.44 300.342 206.272C300.559 207.032 300.777 207.793 301.03 208.553C301.248 209.349 301.501 210.11 301.719 210.906C301.972 211.775 302.19 212.607 302.443 213.476C302.661 214.2 302.842 214.924 303.059 215.684L303.24 216.3C303.385 216.771 303.494 217.241 303.639 217.712C304.074 219.268 304.508 220.861 304.943 222.454C305.124 223.106 305.269 223.721 305.45 224.373C305.994 226.328 306.501 228.319 307.044 230.346C307.624 232.482 308.204 234.654 308.783 236.79C308.965 237.405 309.109 238.02 309.291 238.636C309.87 240.772 310.45 242.908 311.03 245.007L311.138 245.405C311.645 247.215 312.116 248.989 312.624 250.763C312.769 251.27 312.913 251.777 313.095 252.284C313.457 253.514 313.819 254.781 314.181 256.012C314.363 256.7 314.58 257.352 314.797 258.003C315.123 259.053 315.413 260.103 315.739 261.117C315.957 261.804 316.174 262.528 316.428 263.216C316.717 264.194 317.044 265.171 317.37 266.112C317.623 266.872 317.877 267.596 318.13 268.357C318.384 269.044 318.601 269.769 318.855 270.42C319.145 271.217 319.398 271.977 319.688 272.737C319.942 273.389 320.159 274.004 320.413 274.619C320.63 275.199 320.848 275.778 321.065 276.357C321.536 277.552 322.007 278.71 322.478 279.796C322.695 280.339 322.913 280.846 323.166 281.389C323.384 281.86 323.601 282.366 323.818 282.837C324.144 283.525 324.47 284.213 324.76 284.864L325.34 285.986C325.738 286.783 326.173 287.579 326.572 288.303L326.789 288.702C327.296 289.57 327.803 290.439 328.311 291.199L328.6 291.598C329.108 292.358 329.615 293.046 330.122 293.661L330.376 293.987C330.774 294.457 331.136 294.856 331.571 295.29L332.223 295.942C332.803 296.485 333.383 296.955 333.999 297.354C334.614 297.752 335.23 298.222 335.846 298.729L336.462 299.272L337.585 300.286L337.476 300.467C338.092 301.082 338.672 301.734 339.288 302.385L339.324 302.422C339.868 303.037 340.411 303.689 340.918 304.413L340.954 304.449L341.353 304.992C341.715 305.499 342.114 305.969 342.476 306.512L342.549 306.621C342.838 307.055 343.164 307.526 343.454 307.997L344.106 308.974L344.143 309.083C344.722 309.988 345.302 310.929 345.882 311.906L345.918 311.942L346.026 312.123C346.642 313.173 347.222 314.259 347.802 315.345L348.019 315.707L348.2 316.142C349.07 317.735 349.867 319.4 350.7 321.101L350.809 321.282L350.99 321.68C351.751 323.237 352.475 324.866 353.236 326.495L353.308 326.604C354.105 328.341 354.866 330.115 355.663 331.925L355.736 332.07L355.808 332.215C356.931 334.821 358.054 337.464 359.141 340.071C360.192 342.532 361.206 344.958 362.257 347.347L362.655 348.288C363.344 349.881 364.032 351.438 364.72 352.994L364.902 353.429C365.554 354.84 366.206 356.216 366.822 357.592L367.22 358.461C367.945 359.981 368.706 361.465 369.466 362.913L369.937 363.854C370.372 364.687 370.843 365.483 371.278 366.28L371.713 367.04C372.111 367.692 372.473 368.343 372.872 368.959L373.307 369.683L373.778 370.371C374.14 370.914 374.502 371.457 374.864 371.963L375.263 372.506C375.625 373.013 375.988 373.52 376.35 373.991L376.821 374.57L377.799 375.728L378.777 376.742L379.538 377.502L380.733 378.552L381.349 379.095C381.965 379.566 382.581 380 383.197 380.362C383.704 380.652 384.248 380.941 384.755 381.158L385.371 381.412L386.204 381.701L387.255 381.955L387.581 382.027C388.088 382.1 388.559 382.172 389.066 382.172H389.465C390.225 382.208 390.986 382.281 391.747 382.389L392.037 382.462L392.979 382.643C393.414 382.751 393.884 382.824 394.319 382.932L394.863 383.113C395.442 383.294 396.058 383.511 396.638 383.729L397.58 384.054L397.942 384.236C399.138 384.742 400.333 385.322 401.529 386.009C402.579 386.625 403.594 387.276 404.572 387.964L405.441 388.616C406.13 389.123 406.854 389.629 407.507 390.172L408.557 391.077C409.173 391.584 409.753 392.091 410.332 392.598L411.419 393.612L412.434 394.589L412.796 394.987C414.1 396.29 415.368 397.63 416.564 399.005L416.817 399.259L417.324 399.874C418.303 400.996 419.172 402.083 420.078 403.241L420.513 403.748L420.694 404.001C421.708 405.341 422.686 406.644 423.592 407.911L423.882 408.309L424.244 408.816C425.186 410.228 426.092 411.567 426.925 412.834L426.998 412.979L427.577 413.884C427.831 414.318 428.121 414.753 428.374 415.187L428.954 416.165L429.642 417.323L429.787 417.54C430.041 417.975 430.258 418.373 430.475 418.771L430.657 419.061L431.236 420.147L431.381 420.4L431.816 421.197L432.142 421.812L420.766 428.4L420.513 427.894L420.042 427.061L419.86 426.699L419.353 425.758L419.136 425.36C418.882 424.961 418.629 424.491 418.339 423.984L417.614 422.753L417.035 421.776L416.274 420.581L415.549 419.459C414.752 418.156 413.81 416.78 412.796 415.368L412.289 414.644C411.347 413.341 410.369 411.965 409.318 410.626L408.775 409.938C407.869 408.816 406.963 407.657 405.985 406.535L405.26 405.666C404.065 404.291 402.797 402.951 401.493 401.648C401.022 401.177 400.587 400.743 400.08 400.309L398.993 399.259C398.449 398.752 397.87 398.245 397.29 397.775L396.167 396.833C395.551 396.327 394.899 395.856 394.247 395.385L393.232 394.625C392.254 393.937 391.24 393.286 390.189 392.67C389.03 391.982 387.834 391.403 386.603 390.896C386.168 390.715 385.733 390.534 385.298 390.39C384.719 390.172 384.103 389.955 383.487 389.774C382.871 389.593 382.219 389.448 381.603 389.304L380.661 389.123C379.683 388.978 378.705 388.833 377.69 388.833H377.473L376.241 388.724H376.169L375.843 388.652L374.973 388.471L374.828 388.435L373.995 388.145L373.452 387.964L373.343 387.892C372.799 387.675 372.292 387.421 371.749 387.132C371.097 386.77 370.481 386.335 369.865 385.865L369.321 385.394L368.053 384.308L367.872 384.127L367.365 383.62L366.314 382.498L366.061 382.244L365.445 381.52L364.865 380.796L364.648 380.543L363.923 379.529L363.344 378.733L363.271 378.624L362.583 377.611L361.858 376.525L361.822 376.489L361.532 376.018C361.098 375.33 360.699 374.642 360.264 373.918L360.156 373.773L359.866 373.23C359.395 372.434 358.924 371.601 358.489 370.733L358.235 370.298L358.018 369.864C357.257 368.416 356.497 366.932 355.772 365.375L355.663 365.158L355.41 364.578C354.758 363.203 354.105 361.791 353.453 360.343L353.272 359.945C352.584 358.388 351.895 356.831 351.171 355.202L350.99 354.768L350.772 354.297C349.722 351.872 348.671 349.41 347.62 346.912C346.57 344.415 345.519 341.953 344.432 339.455L343.998 338.478C343.273 336.849 342.585 335.22 341.86 333.591L341.679 333.229C340.991 331.708 340.302 330.26 339.614 328.776L339.215 327.943C338.418 326.314 337.621 324.721 336.788 323.165L336.317 322.224C335.701 321.101 335.085 319.979 334.47 318.893V318.857C333.89 317.879 333.31 316.902 332.694 315.961L332.223 315.201C331.825 314.621 331.463 314.042 331.064 313.499L330.195 312.304L329.47 311.291L329.397 311.255C328.89 310.567 328.347 309.951 327.803 309.336C327.188 308.648 326.572 307.997 325.956 307.345L324.941 306.404L324.181 305.716C323.565 305.209 322.985 304.775 322.333 304.34C321.789 303.978 321.246 303.544 320.703 303.073V302.639L320.123 302.06L319.217 301.118L318.855 300.684L318.638 300.394L318.275 299.996C317.949 299.598 317.659 299.164 317.333 298.729L317.044 298.295L316.826 297.933L316.391 297.317C316.029 296.738 315.667 296.123 315.305 295.507L315.232 295.399L315.123 295.181C314.834 294.675 314.544 294.132 314.218 293.589L313.747 292.647L313.239 291.634L312.841 290.837C312.624 290.403 312.442 289.932 312.225 289.498C312.008 289.027 311.79 288.557 311.573 288.086L311.319 287.507L310.957 286.602C310.45 285.443 309.979 284.249 309.508 283.018L309.182 282.185L308.892 281.353C308.638 280.737 308.421 280.086 308.167 279.47C307.878 278.674 307.588 277.841 307.298 277.045C307.081 276.466 306.863 275.85 306.682 275.235C306.501 274.728 306.32 274.257 306.175 273.751L305.813 272.665C305.523 271.796 305.233 270.891 304.979 270.022C304.762 269.262 304.508 268.501 304.255 267.741Z" fill="#FF65A4"/>
<path d="M274.873 183.104C273.569 182.343 272.228 182.199 270.852 182.778C252.955 190.308 260.092 257.569 245.419 265.895C242.231 267.705 238.898 267.053 235.456 265.062C231.435 262.746 227.269 258.582 223.102 254.419C218.936 250.256 214.734 246.057 210.64 243.704C206.22 241.134 201.909 240.735 197.851 244.754C183.178 259.415 174.157 271.035 149.341 260.935C124.524 250.835 114.199 250.872 113.656 250.872L420.875 428.111C420.223 426.844 407.542 402.372 390.298 392.417C386.312 390.136 382.11 388.652 377.835 388.543C375.77 388.471 373.777 387.892 371.893 386.806C353.018 375.909 342.657 317.59 322.478 304.014C302.008 290.331 290.596 192.154 274.873 183.104Z" fill="#F8A5C7"/>
<path d="M198.177 299.562L197.163 299.128C195.931 298.621 194.627 298.114 193.25 297.643C191.584 297.1 189.845 296.521 187.997 295.942L187.345 295.761C185.642 295.218 183.867 294.675 182.019 294.096L181.476 293.915C179.592 293.335 177.672 292.756 175.715 292.177L174.701 291.887C172.89 291.344 171.078 290.838 169.23 290.295L168.325 290.041C166.368 289.498 164.412 288.919 162.456 288.376L161.296 288.05C159.594 287.58 157.855 287.073 156.188 286.638C155.753 286.53 155.319 286.385 154.884 286.276C153.254 285.806 151.623 285.371 150.029 284.937C149.341 284.756 148.653 284.575 147.964 284.394C146.877 284.104 145.827 283.815 144.776 283.525C135.574 281.027 128.582 279.217 126.77 278.747L126.408 278.638L137.784 272.013C138.291 272.158 141.045 272.846 145.211 273.968L145.718 274.113C146.406 274.294 147.095 274.475 147.819 274.692C148.29 274.801 148.834 274.945 149.341 275.09L149.993 275.235C151.515 275.633 153.072 276.068 154.775 276.502L155.826 276.792C157.058 277.117 158.362 277.48 159.666 277.842C160.137 277.986 160.572 278.095 161.043 278.24C162.818 278.71 164.629 279.217 166.477 279.724L167.274 279.941C169.158 280.484 171.114 280.991 173.034 281.534L173.578 281.679C175.643 282.258 177.744 282.873 179.845 283.453L180.316 283.597C182.309 284.177 184.302 284.756 186.258 285.335L186.91 285.516C188.975 286.132 191.004 286.711 192.96 287.326L193.178 287.399C195.098 287.978 196.982 288.557 198.793 289.136L199.3 289.317C201.148 289.896 202.923 290.476 204.59 291.019C205.604 291.344 206.546 291.706 207.452 292.068L208.213 292.358L208.937 292.648L209.553 292.901C210.386 293.263 211.183 293.625 211.944 293.987L212.814 294.385C213.792 294.856 214.697 295.363 215.531 295.833C218.357 297.462 220.494 299.055 222.305 300.431C224.117 301.843 225.602 303.037 227.051 303.906L228.247 304.522L229.008 304.775L229.334 304.884L230.348 305.065L230.638 305.101L231.58 305.137H231.834L233.029 305.065L233.645 304.92L234.478 304.703C234.949 304.558 235.456 304.377 236 304.16L236.362 304.015C236.978 303.761 237.63 303.436 238.355 303.11C239.152 302.711 239.949 302.349 240.71 302.024L240.855 301.951C241.796 301.553 242.738 301.227 243.68 300.974H243.717C244.441 300.757 245.166 300.612 245.89 300.467L246.144 300.395C246.868 300.286 247.557 300.177 248.245 300.141H248.463H249.042H250.165L250.709 300.177L251.397 300.25L251.977 300.322L253.064 300.539L253.607 300.648L253.824 300.684C254.368 300.829 254.947 301.046 255.491 301.263L255.853 301.372L255.926 301.408C256.65 301.698 257.411 302.06 258.136 302.494C258.896 302.929 259.657 303.472 260.418 304.051L261.143 304.666C261.65 305.101 262.193 305.535 262.7 306.042L263.135 306.404L263.642 306.947L264.476 307.852L264.947 308.359L265.671 309.264L266.178 309.879L266.468 310.205C266.939 310.82 267.41 311.472 267.881 312.124L267.917 312.16L268.171 312.558C268.533 313.101 268.932 313.644 269.294 314.223L269.62 314.766L270.2 315.708L270.779 316.649L271.359 317.662L272.047 318.893L272.41 319.509C272.844 320.305 273.243 321.102 273.678 321.934C274.221 323.056 274.801 324.106 275.38 325.12L275.743 325.699C276.322 326.676 276.866 327.618 277.482 328.523L277.916 329.174C278.46 329.971 278.967 330.695 279.511 331.419L279.837 331.853C280.452 332.686 281.141 333.482 281.757 334.206C282.155 334.641 282.518 335.039 282.916 335.437L283.967 336.523C284.981 337.537 286.032 338.405 287.082 339.238L287.843 339.817C288.894 340.614 289.981 341.338 291.067 341.953C292.154 342.569 293.241 343.075 294.328 343.546L295.27 343.944C296.103 344.27 296.9 344.56 297.734 344.777L298.639 345.03C299.509 345.247 300.342 345.428 301.211 345.573L301.646 345.646C302.661 345.79 303.639 345.899 304.653 345.935L305.378 345.971C306.175 345.971 306.972 345.971 307.733 345.935L308.602 345.863C309.544 345.79 310.486 345.682 311.428 345.537L311.971 345.465H312.008L312.515 345.392H313.058H313.094L313.638 345.428L314.109 345.537L314.254 345.573L314.362 345.609L315.304 345.935L315.341 345.971L316.572 346.587C317.188 346.949 317.877 347.42 318.529 347.963L318.782 348.18C319.398 348.687 320.05 349.266 320.702 349.881L320.884 350.026L321.029 350.207C321.681 350.859 322.369 351.583 323.021 352.343L323.166 352.488L323.347 352.705C323.999 353.465 324.651 354.261 325.304 355.094L325.376 355.203L325.557 355.42C326.318 356.397 327.043 357.411 327.803 358.461L327.84 358.569L327.948 358.714C328.854 359.981 329.723 361.321 330.593 362.66L330.702 362.841L330.81 363.022C331.97 364.796 333.056 366.642 334.143 368.488L334.18 368.561L334.252 368.706C334.94 369.9 335.629 371.131 336.281 372.289L336.643 372.869C337.295 374.027 337.911 375.186 338.527 376.308L338.636 376.489L338.744 376.742C339.179 377.575 339.614 378.407 340.049 379.204L340.157 379.457C340.556 380.217 340.918 380.905 341.244 381.629L341.498 382.1C341.86 382.824 342.186 383.512 342.548 384.2L342.766 384.634C343.056 385.249 343.345 385.829 343.599 386.372L343.671 386.516L343.708 386.589C344.07 387.349 344.396 388.037 344.686 388.688L344.795 388.906C345.084 389.521 345.338 390.064 345.555 390.535L345.592 390.643C346.026 391.621 346.352 392.272 346.425 392.49L335.049 399.078L334.868 398.68L334.578 398.101L334.324 397.521L334.035 396.942C333.854 396.58 333.636 396.146 333.455 395.675L333.201 395.096C332.912 394.553 332.658 393.938 332.332 393.286L332.115 392.779C331.861 392.272 331.607 391.766 331.354 391.222L331.1 390.752C330.774 390.064 330.448 389.376 330.049 388.652L329.796 388.182C329.434 387.494 329.108 386.77 328.709 386.046L328.564 385.756C328.166 384.96 327.731 384.163 327.296 383.331L327.043 382.824C326.463 381.702 325.811 380.579 325.195 379.421L324.941 378.95C324.289 377.756 323.601 376.561 322.912 375.367L322.768 375.113C321.717 373.267 320.558 371.457 319.434 369.647L319.181 369.285C318.311 367.945 317.442 366.606 316.572 365.339L316.391 365.085C315.667 364.036 314.906 363.022 314.181 362.081L313.928 361.719C313.276 360.886 312.624 360.09 311.971 359.33L311.645 358.968C310.993 358.207 310.305 357.52 309.653 356.832L309.327 356.506C308.675 355.891 308.022 355.311 307.407 354.804L307.153 354.587C306.501 354.08 305.813 353.61 305.197 353.212L303.965 352.596L302.878 352.234L302.697 352.198L301.719 352.053H301.682L300.596 352.126L300.378 352.162L300.052 352.198C299.146 352.343 298.204 352.451 297.263 352.524L296.828 352.596H296.393C295.596 352.632 294.835 352.632 294.038 352.632H293.495H293.314C292.335 352.596 291.321 352.488 290.307 352.343H290.234L289.908 352.27C289.039 352.126 288.169 351.945 287.3 351.727L286.974 351.655L286.43 351.474C285.597 351.221 284.764 350.931 283.93 350.641L283.351 350.46L282.988 350.279C281.902 349.809 280.779 349.302 279.692 348.65C278.605 348.035 277.518 347.275 276.467 346.478L275.743 345.935C274.692 345.103 273.641 344.198 272.627 343.22L272.518 343.112L271.468 342.026L270.417 340.903L270.308 340.759C269.729 340.107 269.185 339.419 268.606 338.695L268.461 338.514L268.135 338.08C267.809 337.645 267.483 337.211 267.157 336.74L266.504 335.799L266.106 335.184L265.816 334.713C265.381 334.025 264.947 333.337 264.512 332.613L264.367 332.36L264.041 331.745C263.787 331.274 263.497 330.803 263.244 330.333C262.918 329.753 262.628 329.138 262.338 328.523C261.795 327.437 261.251 326.423 260.708 325.446L260.056 324.251C259.657 323.527 259.259 322.839 258.86 322.188L258.353 321.319C257.846 320.486 257.339 319.726 256.795 319.002L256.614 318.712C256.034 317.916 255.491 317.156 254.911 316.432L254.368 315.78C253.969 315.309 253.571 314.839 253.172 314.404L252.303 313.499L251.397 312.631C250.854 312.124 250.31 311.653 249.803 311.219L249.115 310.639C248.354 310.06 247.593 309.517 246.796 309.083C246.035 308.648 245.274 308.286 244.514 307.961L244.151 307.816C243.535 307.562 242.92 307.345 242.267 307.2L241.724 307.092C241.144 306.947 240.601 306.875 240.058 306.802L239.405 306.73C238.826 306.694 238.246 306.657 237.703 306.694H237.159C235.565 306.766 233.935 307.056 232.305 307.526C231.363 307.78 230.421 308.142 229.479 308.54C228.645 308.866 227.812 309.264 226.979 309.662C226.291 310.024 225.639 310.314 225.023 310.567L224.95 310.603L224.552 310.748C224.044 310.929 223.573 311.146 223.139 311.255L222.958 311.327L222.233 311.508L221.726 311.617L221.581 311.653L220.53 311.762H220.422H220.24H219.625L219.262 311.725L219.009 311.689H218.828L217.994 311.508H217.958L217.777 311.436L216.98 311.182L216.871 311.146L215.676 310.567C214.226 309.734 212.741 308.504 210.93 307.092C209.118 305.68 206.981 304.087 204.155 302.494C203.322 301.987 202.38 301.517 201.402 301.01L200.568 300.612C199.844 300.286 199.047 299.924 198.177 299.562Z" fill="#3963B1"/>
<path d="M246.832 309.082C240.71 305.535 234.188 306.078 226.979 309.734C221.508 312.522 218.646 312.341 215.676 310.603C214.226 309.77 212.741 308.539 210.93 307.128C209.118 305.716 206.981 304.123 204.155 302.53C201.293 300.865 197.779 299.2 193.25 297.679C170.716 290.186 128.654 279.253 126.408 278.674L335.122 399.078C334.252 397.159 317.84 360.56 305.233 353.32C303.603 352.379 302.045 351.944 300.632 352.234C294.074 353.428 286.756 352.741 279.728 348.686C273.46 345.066 267.41 338.731 262.374 328.559C257.339 318.495 252.23 312.196 246.832 309.082Z" fill="#2A3B98"/>
<path d="M217.741 154.795C217.741 154.795 215.313 160.804 222.813 164.822C222.813 164.859 224.769 157.98 217.741 154.795Z" fill="#3D93FF"/>
<path d="M217.052 157.546C217.052 157.546 217.813 155.157 221.472 152.044C225.095 148.93 226.834 149.148 229.805 148.424C232.739 147.7 234.587 147.591 235.42 148.749C236.507 150.306 235.239 153.528 229.37 155.519C223.32 157.582 223.03 163.555 221.907 164.28C220.82 165.04 216.328 158.922 217.052 157.546Z" fill="#FFAA83"/>
<path d="M222.631 157.908C222.994 157.184 225.566 158.559 231.507 156.098C236.108 154.179 231.181 158.885 230.094 159.392C229.008 159.899 221.653 164.279 221.653 164.279C221.653 164.279 221.4 160.406 222.631 157.908Z" fill="#FFAA83"/>
<path d="M153.398 141.654C152.493 137.165 158.217 129.309 164.955 133.183C171.042 136.658 184.229 165.8 189.663 168.334C191.366 169.13 217.74 154.831 217.74 154.831C217.74 154.831 215.567 160.007 222.813 164.858C222.813 164.858 193.286 186.325 185.787 182.09C172.926 174.85 156.043 154.541 153.398 141.654Z" fill="#3D93FF"/>
<path d="M157.818 224.879C157.818 224.879 164.52 235.486 171.259 234.147C177.998 232.844 178.903 231.396 176.041 229.549C173.179 227.739 165.644 222.563 167.093 222.092C168.542 221.621 171.694 222.309 171.368 220.934C171.042 219.558 161.477 217.712 161.477 217.712L154.847 220.934L157.818 224.879Z" fill="#FFAA83"/>
<path d="M153.181 358.46C153.579 358.533 174.194 357.845 169.593 365.338C166.622 370.189 162.492 371.022 159.412 371.131C156.333 371.203 150.681 369.465 149.304 370.334C147.892 371.203 140.936 375.909 136.914 371.203C136.081 370.226 135.574 367.474 136.081 365.737C136.624 363.927 150.899 358.026 153.181 358.46Z" fill="#5BB0FF"/>
<path d="M169.593 365.339C166.622 370.19 162.492 371.022 159.412 371.131C156.333 371.203 150.681 369.466 149.305 370.334C147.892 371.203 140.936 375.909 136.914 371.203C136.48 370.696 136.117 369.647 135.972 368.524C138.762 372.506 145.609 371.42 147.529 370.081C149.667 368.597 152.819 367.836 155.5 368.38C158.181 368.923 164.05 368.271 166.984 365.52C168.759 363.854 168.687 361.936 168.325 360.669C170.136 361.682 170.933 363.13 169.593 365.339Z" fill="#3D93FF"/>
<path d="M142.892 203.63C142.892 203.63 125.43 219.268 138.363 256.085C141.189 264.121 146.768 281.172 144.921 289.57C142.675 299.634 139.414 296.774 137.059 330.151C134.958 359.583 135.356 353.211 134.632 365.158C134.451 368.561 147.348 372.144 149.268 366.859C157.782 343.763 169.593 295.435 167.201 268.755C164.81 242.075 163.253 217.169 163.253 217.169C163.253 217.169 151.261 211.232 142.892 203.63Z" fill="#0E007A"/>
<path d="M192.996 376.416C193.395 376.416 214.516 371.855 211.074 380.434C208.865 385.973 204.771 387.638 201.583 388.29C198.431 388.978 192.344 388.217 191.04 389.376C189.772 390.534 183.396 396.688 178.469 392.562C177.454 391.729 176.44 388.978 176.693 387.059C176.911 385.14 190.569 376.38 192.996 376.416Z" fill="#5BB0FF"/>
<path d="M211.038 380.398C208.828 385.937 204.735 387.602 201.546 388.254C198.395 388.942 192.308 388.181 191.004 389.34C189.736 390.498 183.36 396.652 178.433 392.525C177.889 392.055 177.346 391.077 176.983 389.919C180.534 393.503 187.417 391.114 189.12 389.376C191.076 387.457 194.156 386.082 197.054 386.118C199.916 386.19 205.858 384.416 208.394 381.014C209.951 378.95 209.517 376.995 208.937 375.764C210.966 376.525 212.053 377.9 211.038 380.398Z" fill="#3D93FF"/>
<path d="M149.196 222.164C149.196 222.164 134.705 237.115 160.644 274.945C160.644 274.945 173.216 301.878 172.781 310.458C172.238 320.775 167.963 321.717 172.165 355.456C175.824 384.742 174.303 385.358 176.621 387.783C179.085 390.389 191.403 387.855 191.801 382.642C194.12 354.008 198.721 311.906 196.04 285.262C192.96 254.673 190.714 229.549 190.714 229.549C190.714 229.549 158.724 228.137 149.196 222.164Z" fill="#160F96"/>
<path d="M204.952 167.646C204.952 167.646 210.495 155.012 190.134 142.486C169.81 129.925 156.224 127.391 153.398 139.663C150.573 151.935 151.623 171.23 150.174 176.769C146.66 190.235 145.428 194.217 140.791 200.734C133.002 211.702 131.335 225.676 165.716 235.052C171.73 236.681 192.235 242.509 192.453 227.631C193.069 181.656 199.409 181.8 204.952 167.646Z" fill="white"/>
<path d="M252.918 158.378C252.918 158.378 252.158 164.822 260.454 166.741C260.454 166.741 260.526 159.573 252.918 158.378Z" fill="#3D93FF"/>
<path d="M259.041 166.089C259.041 166.089 261.505 165.474 264.802 162.035C268.135 158.595 268.026 156.858 268.932 153.962C269.837 151.066 270.055 149.219 268.932 148.314C267.446 147.12 264.186 148.206 261.795 153.926C259.367 159.826 253.39 159.754 252.593 160.84C251.759 161.89 257.592 166.741 259.041 166.089Z" fill="#FFAA83"/>
<path d="M259.005 160.514C259.766 160.189 258.534 157.546 261.36 151.79C263.57 147.301 258.534 151.935 257.99 152.985C257.447 154.034 252.592 161.094 252.592 161.094C252.592 161.094 256.433 161.564 259.005 160.514Z" fill="#FFAA83"/>
<path d="M187.417 162.578C185.352 158.487 188.83 149.401 196.329 151.356C203.104 153.13 223.501 177.746 229.406 178.76C231.254 179.085 252.918 158.342 252.918 158.342C252.918 158.342 252.194 163.917 260.454 166.705C260.454 166.705 237.594 195.159 229.261 193.059C214.951 189.511 193.286 174.307 187.417 162.578Z" fill="#5BB0FF"/>
<path d="M191.257 127.246C191.257 127.246 186.258 135.717 189.374 142.703C191.076 146.468 163.832 145.093 169.086 136.513C173.723 128.947 172.672 122.105 168.144 114.829L191.257 127.246Z" fill="#FFAA83"/>
<path d="M188.794 133.653C188.794 133.653 183.251 131.083 180.353 128.404L179.918 128.513L177.599 128.585L172.672 126.087C172.672 126.087 175.824 138.83 188.649 140.387C188.649 140.387 188.106 137.491 188.794 133.653Z" fill="#EF916C"/>
<path d="M199.481 89.7417C199.481 89.7417 203.865 96.4389 204.915 108.421C205.93 120.404 205.93 129.526 199.01 133.146C195.749 134.848 175.135 135.246 171.15 110.593C168.614 94.846 182.562 77.8317 199.481 89.7417Z" fill="#FFAA83"/>
<path d="M203.285 92.2396C208.973 96.1131 213.393 98.3214 201.909 102.195C192.779 105.272 194.047 117.978 190.678 119.607C188.794 120.512 189.663 117.218 186.91 114.648C185.642 113.417 182.309 112.584 181.584 117.689C180.932 122.359 184.736 129.418 182.236 130.576C178.469 132.314 170.39 127.246 167.057 121.924C162.274 114.286 158.796 93.6515 174.846 85.4339C188.613 78.3747 198.72 89.1264 203.285 92.2396Z" fill="#994E17"/>
<defs>
<linearGradient id="paint0_linear_235:42" x1="-614.596" y1="-597.152" x2="1608.04" y2="1598.22" gradientUnits="userSpaceOnUse">
<stop stop-color="#85A9FF"/>
<stop offset="1" stop-color="#1B087C"/>
</linearGradient>
<linearGradient id="paint1_linear_235:42" x1="-684.596" y1="-555.432" x2="1538.04" y2="1639.94" gradientUnits="userSpaceOnUse">
<stop stop-color="#85A9FF"/>
<stop offset="1" stop-color="#1B087C"/>
</linearGradient>
<linearGradient id="paint2_linear_235:42" x1="-532.49" y1="-680.276" x2="1690.15" y2="1515.09" gradientUnits="userSpaceOnUse">
<stop stop-color="#735CBE"/>
<stop offset="1" stop-color="#5259C5"/>
</linearGradient>
<linearGradient id="paint3_linear_235:42" x1="-538.419" y1="-674.278" x2="1684.22" y2="1521.09" gradientUnits="userSpaceOnUse">
<stop stop-color="#6E5BB8"/>
<stop offset="1" stop-color="#5059BE"/>
</linearGradient>
<linearGradient id="paint4_linear_235:42" x1="-531.831" y1="-680.941" x2="1690.8" y2="1514.43" gradientUnits="userSpaceOnUse">
<stop stop-color="#735CBE"/>
<stop offset="1" stop-color="#5259C5"/>
</linearGradient>
<linearGradient id="paint5_linear_235:42" x1="-539.075" y1="-673.61" x2="1683.57" y2="1521.76" gradientUnits="userSpaceOnUse">
<stop stop-color="#6E5BB8"/>
<stop offset="1" stop-color="#5059BE"/>
</linearGradient>
<linearGradient id="paint6_linear_235:42" x1="-535.779" y1="-676.948" x2="1686.87" y2="1518.41" gradientUnits="userSpaceOnUse">
<stop stop-color="#7C8AE3"/>
<stop offset="1" stop-color="#7089E5"/>
</linearGradient>
</defs>
</svg>
