<svg xmlns="http://www.w3.org/2000/svg" xmlns:xlink="http://www.w3.org/1999/xlink" viewBox="0 0 248.16 182.13"><defs><style>.cls-1{fill:#005eb2;}.cls-2{fill:none;}.cls-3{fill:#d3ddf3;}.cls-4{fill:#004e89;}.cls-5{clip-path:url(#clip-path);}.cls-6{clip-path:url(#clip-path-2);}.cls-7{clip-path:url(#clip-path-3);}.cls-8{clip-path:url(#clip-path-4);}.cls-9{clip-path:url(#clip-path-5);}.cls-10{clip-path:url(#clip-path-6);}.cls-11{fill:url(#linear-gradient);}.cls-12{clip-path:url(#clip-path-7);}.cls-13{fill:url(#radial-gradient);}.cls-14{fill:#75d2e7;}.cls-15{clip-path:url(#clip-path-8);}.cls-16{clip-path:url(#clip-path-9);}.cls-17{fill:url(#linear-gradient-2);}.cls-18{clip-path:url(#clip-path-10);}.cls-19{fill:url(#radial-gradient-3);}.cls-20{fill:#7ad3e5;}.cls-21{clip-path:url(#clip-path-11);}.cls-22{clip-path:url(#clip-path-12);}.cls-23{fill:url(#radial-gradient-5);}.cls-24{clip-path:url(#clip-path-13);}.cls-25{fill:url(#linear-gradient-3);}.cls-26{fill:#6fd1f3;}.cls-27{clip-path:url(#clip-path-14);}.cls-28{clip-path:url(#clip-path-15);}.cls-29{fill:#70d1f2;}.cls-30{clip-path:url(#clip-path-16);}.cls-31{fill:#75d2f1;}.cls-32{fill:#7ed5ef;}.cls-33{clip-path:url(#clip-path-17);}.cls-34{fill:#8cdaed;}.cls-35{fill:#9adeea;}.cls-36{fill:#ace3ea;}.cls-37{clip-path:url(#clip-path-18);}.cls-38{clip-path:url(#clip-path-19);}.cls-39{fill:url(#linear-gradient-4);}.cls-40{clip-path:url(#clip-path-20);}.cls-41{fill:url(#linear-gradient-5);}.cls-42{clip-path:url(#clip-path-21);}.cls-43{clip-path:url(#clip-path-22);}.cls-44{fill:url(#linear-gradient-6);}.cls-45{clip-path:url(#clip-path-23);}.cls-46{clip-path:url(#clip-path-24);}.cls-47{fill:#c5ceec;}.cls-48{fill:#171919;}.cls-49{fill:#f39c75;}.cls-50{fill:#cdd6f0;}.cls-51{fill:#ecf4fc;}.cls-52{fill:#9c9fd7;}.cls-53{clip-path:url(#clip-path-25);}.cls-54{fill:url(#linear-gradient-7);}.cls-55{clip-path:url(#clip-path-26);}.cls-56{fill:url(#linear-gradient-8);}.cls-57{clip-path:url(#clip-path-27);}.cls-58{fill:url(#linear-gradient-9);}.cls-59{fill:#5fb7e9;}.cls-60{fill:#354043;}.cls-61{fill:#262b2c;}.cls-62{fill:#6acfee;}.cls-63{fill:#568fd2;}.cls-64{fill:#f7a788;}.cls-65{fill:#23262c;}.cls-66{fill:#333a46;}.cls-67{fill:#ef8d66;}.cls-68{fill:#f9b398;}.cls-69{fill:#272c2d;}.cls-70{fill:#1a1b1b;}.cls-71{fill:#ede8e7;}.cls-72{fill:#fbfcfc;}.cls-73{fill:#202323;}.cls-74{fill:#414080;}.cls-75{fill:#343464;}.cls-76{fill:#232443;}.cls-77{fill:#f59974;}.cls-78{fill:#fff;}.cls-79{fill:#161717;}.cls-80{clip-path:url(#clip-path-28);}.cls-81{clip-path:url(#clip-path-29);}.cls-82{fill:#3972c2;}.cls-83{fill:#fbd322;}.cls-84{fill:#f9af0b;}.cls-85{fill:#f7c40c;}.cls-86{fill:#dae3f5;}.cls-87{fill:#f1f8fd;}.cls-88{fill:#b5afc5;}.cls-89{fill:#f0a40f;}.cls-90{fill:#dfebf8;}.cls-91{fill:#f4f9fd;}.cls-92{fill:#f4f4f4;}.cls-93{clip-path:url(#clip-path-30);}</style><clipPath id="clip-path"><path class="cls-1" d="M124.51,170.77h0L0,98.9,18.85,88a12.68,12.68,0,0,0,9.65,6.78,12.43,12.43,0,0,0,8.42,4.89,12.36,12.36,0,0,0,8.41,4.88,12.36,12.36,0,0,0,8.42,4.89,12.29,12.29,0,0,0,8.42,4.88,12.24,12.24,0,0,0,8.42,4.89,12.16,12.16,0,0,0,6.32,4.45c-.24.12-.48.26-.71.39-8.79,5.08-8.79,13.3,0,18.37a32.47,32.47,0,0,0,15.91,3.81A32.47,32.47,0,0,0,108,142.38c4.68-2.7,6.87-6.3,6.56-9.84a6.36,6.36,0,0,0,2.2-.75c2-1.17,2-3,0-4.22a7.49,7.49,0,0,0-3.65-.87,8.51,8.51,0,0,0-1.42.12A17,17,0,0,0,108,124l-.14-.08,16.72-9.65-.25-.15-10.42-6L134.56,96.2l19,11,16.36-9.44L180.75,104c.4,3,2.58,5.87,6.52,8.15a35.21,35.21,0,0,0,31.82,0c8.79-5.08,8.79-13.3,0-18.38a35.32,35.32,0,0,0-31.33-.27l-11.93-6.89-.09,0L154,99.13l-12.23-7.06,29.69-17.15a37.77,37.77,0,0,0,12.68-13l64.07,37L124.51,170.77m-17-47A32.33,32.33,0,0,0,93,120.22l20.62-11.91,10.33,6-16.39,9.46m46-17L134.9,96l6.49-3.75,12.48,7.21.08,0,21.79-12.58,11.67,6.73-.14.08c-4.67,2.7-6.86,6.28-6.57,9.81l-10.8-6.24-16.36,9.45"/></clipPath><clipPath id="clip-path-2"><path class="cls-1" d="M28.5,94.74A12.68,12.68,0,0,1,18.85,88l6.07-3.52a19.51,19.51,0,0,0,3.58,10.3"/></clipPath><clipPath id="clip-path-3"><path class="cls-1" d="M36.92,99.63a12.43,12.43,0,0,1-8.42-4.89,19.51,19.51,0,0,1-3.58-10.3L34,79.17a38.9,38.9,0,0,0-.75,7.56c0,5.49,1.36,9.85,3.68,12.9"/></clipPath><clipPath id="clip-path-4"><path class="cls-1" d="M45.33,104.51a12.36,12.36,0,0,1-8.41-4.88c-2.32-3-3.66-7.41-3.68-12.9A38.9,38.9,0,0,1,34,79.17l12.44-7.23a47.77,47.77,0,0,0-4.75,19.73c0,5.46,1.35,9.81,3.65,12.84M36.27,88.94l-1.42.82v1.63l1.42-.82V88.94"/></clipPath><clipPath id="clip-path-5"><path class="cls-1" d="M53.75,109.4a12.36,12.36,0,0,1-8.42-4.89c-2.3-3-3.63-7.38-3.65-12.84a47.77,47.77,0,0,1,4.75-19.73L65.94,60.6c-9.29,9.6-15.86,23.84-15.82,36,0,5.43,1.34,9.76,3.63,12.79"/></clipPath><clipPath id="clip-path-6"><path class="cls-2" d="M62.17,114.28a12.29,12.29,0,0,1-8.42-4.88c-2.29-3-3.62-7.36-3.63-12.79,0-12.17,6.53-26.41,15.82-36L88.72,47.36a52.24,52.24,0,0,0-1.85,9.3,29.47,29.47,0,0,0-3.37,1.69c-13.8,8-25,27.35-24.94,43.2,0,5.41,1.33,9.72,3.61,12.73"/></clipPath><linearGradient id="linear-gradient" x1="-548.66" y1="308.79" x2="-547.66" y2="308.79" gradientTransform="matrix(248.13, 0, 0, -248.13, 136141.24, 76701.9)" gradientUnits="userSpaceOnUse"><stop offset="0" stop-color="#facd09"/><stop offset="0.01" stop-color="#facd09"/><stop offset="1" stop-color="#a736a1"/></linearGradient><clipPath id="clip-path-7"><path class="cls-2" d="M65.94,60.6a43,43,0,0,1,9.2-7.33,29.7,29.7,0,0,1,3.39-1.69A55.12,55.12,0,0,1,82,37.44l8.35,5.09c-.61,1.6-1.16,3.21-1.63,4.83L65.94,60.6m17.9-13.21-.36.6,1.79,1.1.37-.6-1.8-1.1m-3.58-2.18-.37.6,1.8,1.09.36-.6-1.79-1.09m10.48-3.67-8.35-5.09c5-12.53,14.18-24.26,24.64-30.3a26.21,26.21,0,0,1,12.9-3.94,16.21,16.21,0,0,1,3.54.38A14.17,14.17,0,0,1,127.19,4a14.43,14.43,0,0,1,4.48,3.86,16.16,16.16,0,0,0-3.52-.38,26.13,26.13,0,0,0-12.86,3.93c-10.42,6-19.54,17.69-24.55,30.16"/></clipPath><radialGradient id="radial-gradient" cx="-549.59" cy="308.96" r="1" gradientTransform="matrix(620.07, 0, 0, -578.71, 340602.62, 178535.24)" gradientUnits="userSpaceOnUse"><stop offset="0" stop-color="#374ba7"/><stop offset="0.01" stop-color="#374ba7"/><stop offset="1" stop-color="#272d72"/></radialGradient><clipPath id="clip-path-8"><path class="cls-2" d="M167.45,24.66h0a10,10,0,0,0-2.91-.55,9.55,9.55,0,0,0-5.14-4.62,14,14,0,0,1,4.18-.68l.62,0A9.44,9.44,0,0,1,172.23,24h-.6a14.21,14.21,0,0,0-4.18.67m-18-4.25a14.76,14.76,0,0,0-6-6,14.19,14.19,0,0,1,4.29-.7h.54a9.76,9.76,0,0,1,2.89.56l.11,0a9.56,9.56,0,0,1,5.11,4.6h-.53a15.85,15.85,0,0,0-6.44,1.53"/></clipPath><clipPath id="clip-path-9"><path class="cls-2" d="M70.59,119.17a12.24,12.24,0,0,1-8.42-4.89c-2.28-3-3.6-7.32-3.61-12.73C58.51,85.7,69.7,66.32,83.5,58.35a29.47,29.47,0,0,1,3.37-1.69,52.24,52.24,0,0,1,1.85-9.3l4.9-2.84,1-.6,7.91-4.6a60.44,60.44,0,0,0-7.34,22.42,29.35,29.35,0,0,0-3.36,1.69C78.11,71.37,67,90.69,67,106.5c0,5.37,1.32,9.66,3.59,12.67"/></clipPath><linearGradient id="linear-gradient-2" x1="-548.66" y1="308.8" x2="-547.66" y2="308.8" gradientTransform="matrix(248.13, 0, 0, -248.13, 136141.24, 76701.9)" gradientUnits="userSpaceOnUse"><stop offset="0" stop-color="#f9e107"/><stop offset="0.01" stop-color="#f9e107"/><stop offset="1" stop-color="#ab36a1"/></linearGradient><clipPath id="clip-path-10"><path class="cls-2" d="M88.72,47.36c.47-1.62,1-3.23,1.63-4.83l3.27,2-4.9,2.84m5.93-3.44-3.91-2.38c5-12.47,14.13-24.15,24.55-30.16a26.13,26.13,0,0,1,12.86-3.93,16.16,16.16,0,0,1,3.52.38,13.77,13.77,0,0,1,3.65,1.35,14.07,14.07,0,0,1,4.53,3.88,16.35,16.35,0,0,0-3.48-.37,26,26,0,0,0-12.83,3.92c-8.29,4.79-15.77,13.19-21,22.71l-7.91,4.6"/></clipPath><radialGradient id="radial-gradient-3" cx="-549.59" cy="308.96" r="1" gradientTransform="matrix(620.07, 0, 0, -578.71, 340602.62, 178535.24)" gradientUnits="userSpaceOnUse"><stop offset="0" stop-color="#3e54ad"/><stop offset="0.01" stop-color="#3e54ad"/><stop offset="1" stop-color="#2a3286"/></radialGradient><clipPath id="clip-path-11"><path class="cls-2" d="M173.27,30.72a9.94,9.94,0,0,0-5.82-6.06,14.21,14.21,0,0,1,4.18-.67h.6a9.42,9.42,0,0,1,8.06,5.19h-.59a15.67,15.67,0,0,0-6.43,1.54M152,29.06a23.28,23.28,0,0,0-2.61-8.65,15.85,15.85,0,0,1,6.44-1.53h.53a9.88,9.88,0,0,1,2.9.56l.07,0a9.55,9.55,0,0,1,5.14,4.62l-.51,0a17.22,17.22,0,0,0-8.45,2.58,27.34,27.34,0,0,0-3.51,2.4"/></clipPath><clipPath id="clip-path-12"><path class="cls-2" d="M184.09,61.91,123.69,27,102.56,39.32c5.21-9.52,12.69-17.92,21-22.71a26,26,0,0,1,12.83-3.92,16.35,16.35,0,0,1,3.48.37,13.92,13.92,0,0,1,3.61,1.32,14.76,14.76,0,0,1,6,6A23.28,23.28,0,0,1,152,29.06a27.34,27.34,0,0,1,3.51-2.4A17.22,17.22,0,0,1,164,24.08l.51,0a10,10,0,0,1,2.91.55h0a9.94,9.94,0,0,1,5.82,6.06,15.67,15.67,0,0,1,6.43-1.54h.59c5.85.3,9.83,5.13,9.85,13.3,0,6.28-2.32,13.31-6,19.42"/></clipPath><radialGradient id="radial-gradient-5" cx="-549.59" cy="308.96" r="1" gradientTransform="matrix(620.07, 0, 0, -578.71, 340602.62, 178535.24)" gradientUnits="userSpaceOnUse"><stop offset="0" stop-color="#445db4"/><stop offset="0.01" stop-color="#445db4"/><stop offset="1" stop-color="#2e3796"/></radialGradient><clipPath id="clip-path-13"><path class="cls-2" d="M76.91,123.62a12.16,12.16,0,0,1-6.32-4.45c-2.27-3-3.58-7.3-3.59-12.67,0-15.81,11.11-35.13,24.86-43.07a29.35,29.35,0,0,1,3.36-1.69,60.44,60.44,0,0,1,7.34-22.42L123.69,27l60.4,34.87a37.77,37.77,0,0,1-12.68,13L141.72,92.07l-12.56-7.26-.17.29,12.4,7.16L134.9,96l-2.05-1.18-.17.29,1.88,1.08-20.63,11.91-9.22-5.32-.17.3,9,5.22L93,120.22h-.86a33.07,33.07,0,0,0-15.2,3.41"/></clipPath><linearGradient id="linear-gradient-3" x1="-548.66" y1="308.81" x2="-547.66" y2="308.81" gradientTransform="matrix(248.13, 0, 0, -248.13, 136141.24, 76701.9)" gradientUnits="userSpaceOnUse"><stop offset="0" stop-color="#f3ef15"/><stop offset="0.01" stop-color="#f3ef15"/><stop offset="1" stop-color="#b336a1"/></linearGradient><clipPath id="clip-path-14"><path class="cls-3" d="M203.18,115.93a32.58,32.58,0,0,1-15.91-3.8c-3.94-2.28-6.12-5.18-6.52-8.15l4.58,2.65a12.47,12.47,0,0,0,4.45,4,29.55,29.55,0,0,0,26.79,0c7.4-4.27,7.4-11.19,0-15.46A27.34,27.34,0,0,0,203.18,92a27.86,27.86,0,0,0-12.91,2.93l-2.51-1.45a35.32,35.32,0,0,1,31.33.27c8.79,5.08,8.79,13.3,0,18.38a32.63,32.63,0,0,1-15.91,3.8M185,106.05l-4.31-2.49c-.29-3.53,1.9-7.11,6.57-9.81l.14-.08,2.52,1.45-.15.09c-5.08,2.93-6.67,7.12-4.77,10.84"/></clipPath><clipPath id="clip-path-15"><path class="cls-3" d="M203.18,113.88a27.35,27.35,0,0,1-13.4-3.21,12.47,12.47,0,0,1-4.45-4l4.71,2.71c-.55.5-.45,1.17.3,1.6a3.52,3.52,0,0,0,3.14,0,1.18,1.18,0,0,0,.64-.82,23.57,23.57,0,0,0,9.06,1.7,22.22,22.22,0,0,0,10.88-2.6c6-3.47,6-9.09,0-12.56a22.22,22.22,0,0,0-10.88-2.6,22.72,22.72,0,0,0-10.39,2.32l-2.52-1.45A27.86,27.86,0,0,1,203.18,92a27.34,27.34,0,0,1,13.39,3.21c7.4,4.27,7.4,11.19,0,15.46a27.34,27.34,0,0,1-13.39,3.21m-12.83-4.75L185,106.05c-1.9-3.72-.31-7.91,4.77-10.84l.15-.09,2.51,1.46-.14.08c-5.76,3.32-6,8.62-.73,12.11a3,3,0,0,0-1.22.36"/></clipPath><clipPath id="clip-path-16"><path class="cls-3" d="M203.18,111.82a23.57,23.57,0,0,1-9.06-1.7,1.06,1.06,0,0,0-.64-1,3.22,3.22,0,0,0-1.57-.37h-.34c-5.27-3.49-5-8.79.73-12.11l.14-.08L195,98l-.15.08c-4.62,2.67-4.62,7,0,9.66a18.49,18.49,0,0,0,16.73,0c4.62-2.67,4.62-7,0-9.66a17.14,17.14,0,0,0-8.36-2,17.57,17.57,0,0,0-7.87,1.73l-2.52-1.46a22.72,22.72,0,0,1,10.39-2.32,22.22,22.22,0,0,1,10.88,2.6c6,3.47,6,9.09,0,12.56a22.22,22.22,0,0,1-10.88,2.6"/></clipPath><clipPath id="clip-path-17"><path class="cls-3" d="M203.18,107.72a12,12,0,0,1-5.85-1.4c-3.23-1.87-3.23-4.89,0-6.76l.14-.08,2.52,1.45-.15.09c-1.84,1.06-1.84,2.78,0,3.84a7.35,7.35,0,0,0,6.67,0c1.84-1.06,1.84-2.78,0-3.84a6.73,6.73,0,0,0-3.33-.8,7.23,7.23,0,0,0-2.82.54l-2.53-1.46a12.3,12.3,0,0,1,5.35-1.14,12,12,0,0,1,5.85,1.4c3.23,1.87,3.23,4.89,0,6.76a12,12,0,0,1-5.85,1.4"/></clipPath><clipPath id="clip-path-18"><path class="cls-3" d="M92.11,146.19a32.47,32.47,0,0,1-15.91-3.81c-8.79-5.07-8.79-13.29,0-18.37.23-.13.47-.27.71-.39a14,14,0,0,0,3.94.55h.58a20.68,20.68,0,0,0-2.72,1.3c-7.4,4.27-7.4,11.2,0,15.47a27.35,27.35,0,0,0,13.4,3.21,27.31,27.31,0,0,0,13.39-3.21c4.06-2.34,5.89-5.47,5.5-8.53a8.87,8.87,0,0,0,2.13.26,8.69,8.69,0,0,0,1.45-.12c.31,3.54-1.88,7.14-6.56,9.84a32.47,32.47,0,0,1-15.91,3.81m12.91-21a27.86,27.86,0,0,0-12.91-2.93,32.93,32.93,0,0,0-3.45.18A29.23,29.23,0,0,0,92,120.76l1-.54a32.33,32.33,0,0,1,14.56,3.52L105,125.19"/></clipPath><clipPath id="clip-path-19"><path class="cls-2" d="M80.85,124.17a14,14,0,0,1-3.94-.55,33.07,33.07,0,0,1,15.2-3.41H93l-1,.54a29.23,29.23,0,0,1-3.36,1.68,28,28,0,0,0-7.23,1.72h-.58"/></clipPath><linearGradient id="linear-gradient-4" x1="-548.66" y1="308.62" x2="-547.66" y2="308.62" xlink:href="#linear-gradient-3"/><clipPath id="clip-path-20"><path class="cls-2" d="M108.82,128a14.16,14.16,0,0,0-3.32-2.58l-.14-.08,2.52-1.45.14.08a17,17,0,0,1,3.69,2.81,6.54,6.54,0,0,0-2.22.75,4.61,4.61,0,0,0-.67.47"/></clipPath><linearGradient id="linear-gradient-5" x1="-548.66" y1="308.61" x2="-547.66" y2="308.61" gradientTransform="matrix(248.13, 0, 0, -248.13, 136141.24, 76701.9)" gradientUnits="userSpaceOnUse"><stop offset="0" stop-color="#f9a60d"/><stop offset="0.01" stop-color="#f9a60d"/><stop offset="1" stop-color="#9c38a2"/></linearGradient><clipPath id="clip-path-21"><path class="cls-3" d="M92.11,144.14a27.35,27.35,0,0,1-13.4-3.21c-7.4-4.27-7.4-11.2,0-15.47a20.68,20.68,0,0,1,2.72-1.3,20.49,20.49,0,0,0,7.23-1.72,32.93,32.93,0,0,1,3.45-.18A27.86,27.86,0,0,1,105,125.19l-2.52,1.46a22.59,22.59,0,0,0-10.39-2.33,22.16,22.16,0,0,0-10.88,2.6c-6,3.46-6,9.09,0,12.56a24.06,24.06,0,0,0,21.76,0c6-3.47,6-9.1,0-12.56l-.14-.08,2.51-1.46.14.08a14.16,14.16,0,0,1,3.32,2.58c-1.32,1.16-1.1,2.73.67,3.75a6.36,6.36,0,0,0,1.51.61c.39,3.06-1.44,6.19-5.5,8.53a27.31,27.31,0,0,1-13.39,3.21"/></clipPath><clipPath id="clip-path-22"><path class="cls-2" d="M81.43,124.16a28,28,0,0,1,7.23-1.72,20.49,20.49,0,0,1-7.23,1.72"/></clipPath><linearGradient id="linear-gradient-6" x1="-548.66" y1="308.62" x2="-547.66" y2="308.62" xlink:href="#linear-gradient-3"/><clipPath id="clip-path-23"><path class="cls-3" d="M92.11,140a17.15,17.15,0,0,1-8.37-2c-4.62-2.67-4.62-7,0-9.66a17.15,17.15,0,0,1,8.37-2A17.57,17.57,0,0,1,100,128.1l-2.52,1.46a12.33,12.33,0,0,0-5.35-1.14,12,12,0,0,0-5.85,1.4c-3.23,1.87-3.23,4.89,0,6.76a13,13,0,0,0,11.7,0c3.23-1.87,3.23-4.89,0-6.76l-.15-.08,2.52-1.45.14.08c4.62,2.67,4.62,7,0,9.66a17.14,17.14,0,0,1-8.36,2"/></clipPath><clipPath id="clip-path-24"><path class="cls-3" d="M92.11,135.92a6.85,6.85,0,0,1-3.34-.8c-1.84-1.06-1.84-2.78,0-3.85a6.84,6.84,0,0,1,3.34-.79,7.23,7.23,0,0,1,2.82.54l-1.81,1a3.68,3.68,0,0,0-1-.14,3.2,3.2,0,0,0-1.57.37,1,1,0,0,0,0,1.81,3.41,3.41,0,0,0,3.13,0,1,1,0,0,0,0-1.81l-.14-.07,1.77-1,.14.07c1.84,1.07,1.84,2.79,0,3.85a6.83,6.83,0,0,1-3.33.8"/></clipPath><clipPath id="clip-path-25"><path class="cls-2" d="M114.58,132.54a9.39,9.39,0,0,0-2.87-5.72,8.51,8.51,0,0,1,1.42-.12,7.49,7.49,0,0,1,3.65.87c2,1.17,2,3.05,0,4.22a6.36,6.36,0,0,1-2.2.75"/></clipPath><linearGradient id="linear-gradient-7" x1="-548.66" y1="308.59" x2="-547.66" y2="308.59" gradientTransform="matrix(248.13, 0, 0, -248.13, 136141.24, 76701.9)" gradientUnits="userSpaceOnUse"><stop offset="0" stop-color="#c7a560"/><stop offset="0.01" stop-color="#c7a560"/><stop offset="1" stop-color="#8f4bab"/></linearGradient><clipPath id="clip-path-26"><path class="cls-2" d="M113.13,132.66a8.87,8.87,0,0,1-2.13-.26,7.87,7.87,0,0,0-2.18-4.36,4.61,4.61,0,0,1,.67-.47,6.54,6.54,0,0,1,2.22-.75,9.39,9.39,0,0,1,2.87,5.72,8.69,8.69,0,0,1-1.45.12"/></clipPath><linearGradient id="linear-gradient-8" x1="-548.66" y1="308.59" x2="-547.66" y2="308.59" xlink:href="#linear-gradient-7"/><clipPath id="clip-path-27"><path class="cls-2" d="M111,132.4a6.36,6.36,0,0,1-1.51-.61c-1.77-1-2-2.59-.67-3.75A7.87,7.87,0,0,1,111,132.4"/></clipPath><linearGradient id="linear-gradient-9" x1="-548.66" y1="308.59" x2="-547.66" y2="308.59" gradientTransform="matrix(248.13, 0, 0, -248.13, 136141.24, 76701.9)" gradientUnits="userSpaceOnUse"><stop offset="0" stop-color="#c6a65f"/><stop offset="0.01" stop-color="#c6a65f"/><stop offset="1" stop-color="#8f4bab"/></linearGradient><clipPath id="clip-path-28"><polyline class="cls-2" points="98.64 57.7 99.24 58.05 99.08 58.07 98.47 57.72 98.64 57.7"/></clipPath><clipPath id="clip-path-29"><path class="cls-2" d="M91.23,62.89l-.6-.35a.52.52,0,0,1,.23-.4l.6.35a.55.55,0,0,0-.23.4"/></clipPath><clipPath id="clip-path-30"><polyline class="cls-1" points="34.85 91.39 34.85 89.75 36.27 88.94 36.27 90.57 34.85 91.39"/></clipPath></defs><title>Asset 1</title><g id="Layer_2" data-name="Layer 2"><g id="svg2"><path id="path9370" class="cls-4" d="M248.16,98.9l0,11.37L124.47,182.13l0-11.36L248.16,98.9"/><path id="path9372" class="cls-4" d="M124.51,170.77l0,11.36L0,110.27,0,98.9l124.48,71.87"/><g id="g9374"><path class="cls-1" d="M124.51,170.77h0L0,98.9,18.85,88a12.68,12.68,0,0,0,9.65,6.78,12.43,12.43,0,0,0,8.42,4.89,12.36,12.36,0,0,0,8.41,4.88,12.36,12.36,0,0,0,8.42,4.89,12.29,12.29,0,0,0,8.42,4.88,12.24,12.24,0,0,0,8.42,4.89,12.16,12.16,0,0,0,6.32,4.45c-.24.12-.48.26-.71.39-8.79,5.08-8.79,13.3,0,18.37a32.47,32.47,0,0,0,15.91,3.81A32.47,32.47,0,0,0,108,142.38c4.68-2.7,6.87-6.3,6.56-9.84a6.36,6.36,0,0,0,2.2-.75c2-1.17,2-3,0-4.22a7.49,7.49,0,0,0-3.65-.87,8.51,8.51,0,0,0-1.42.12A17,17,0,0,0,108,124l-.14-.08,16.72-9.65-.25-.15-10.42-6L134.56,96.2l19,11,16.36-9.44L180.75,104c.4,3,2.58,5.87,6.52,8.15a35.21,35.21,0,0,0,31.82,0c8.79-5.08,8.79-13.3,0-18.38a35.32,35.32,0,0,0-31.33-.27l-11.93-6.89-.09,0L154,99.13l-12.23-7.06,29.69-17.15a37.77,37.77,0,0,0,12.68-13l64.07,37L124.51,170.77m-17-47A32.33,32.33,0,0,0,93,120.22l20.62-11.91,10.33,6-16.39,9.46m46-17L134.9,96l6.49-3.75,12.48,7.21.08,0,21.79-12.58,11.67,6.73-.14.08c-4.67,2.7-6.86,6.28-6.57,9.81l-10.8-6.24-16.36,9.45"/><g class="cls-5"><g id="g9376"><path id="path9390" class="cls-1" d="M124.51,170.77h0L0,98.9,18.85,88a12.68,12.68,0,0,0,9.65,6.78,12.43,12.43,0,0,0,8.42,4.89,12.36,12.36,0,0,0,8.41,4.88,12.36,12.36,0,0,0,8.42,4.89,12.29,12.29,0,0,0,8.42,4.88,12.24,12.24,0,0,0,8.42,4.89,12.16,12.16,0,0,0,6.32,4.45c-.24.12-.48.26-.71.39-8.79,5.08-8.79,13.3,0,18.37a32.47,32.47,0,0,0,15.91,3.81A32.47,32.47,0,0,0,108,142.38c4.68-2.7,6.87-6.3,6.56-9.84a6.36,6.36,0,0,0,2.2-.75c2-1.17,2-3,0-4.22a7.49,7.49,0,0,0-3.65-.87,8.51,8.51,0,0,0-1.42.12A17,17,0,0,0,108,124l-.14-.08,16.72-9.65-.25-.15-10.42-6L134.56,96.2l19,11,16.36-9.44L180.75,104c.4,3,2.58,5.87,6.52,8.15a35.21,35.21,0,0,0,31.82,0c8.79-5.08,8.79-13.3,0-18.38a35.32,35.32,0,0,0-31.33-.27l-11.93-6.89-.09,0L154,99.13l-12.23-7.06,29.69-17.15a37.77,37.77,0,0,0,12.68-13l64.07,37L124.51,170.77m-17-47A32.33,32.33,0,0,0,93,120.22l20.62-11.91,10.33,6-16.39,9.46m46-17L134.9,96l6.49-3.75,12.48,7.21.08,0,21.79-12.58,11.67,6.73-.14.08c-4.67,2.7-6.86,6.28-6.57,9.81l-10.8-6.24-16.36,9.45"/></g></g></g><g id="g9414"><path class="cls-1" d="M28.5,94.74A12.68,12.68,0,0,1,18.85,88l6.07-3.52a19.51,19.51,0,0,0,3.58,10.3"/><g class="cls-6"><g id="g9416"><path id="path9430" class="cls-1" d="M28.5,94.74A12.68,12.68,0,0,1,18.85,88l6.07-3.52a19.51,19.51,0,0,0,3.58,10.3"/></g></g></g><g id="g9472"><path class="cls-1" d="M36.92,99.63a12.43,12.43,0,0,1-8.42-4.89,19.51,19.51,0,0,1-3.58-10.3L34,79.17a38.9,38.9,0,0,0-.75,7.56c0,5.49,1.36,9.85,3.68,12.9"/><g class="cls-7"><g id="g9474"><path id="path9488" class="cls-1" d="M36.92,99.63a12.43,12.43,0,0,1-8.42-4.89,19.51,19.51,0,0,1-3.58-10.3L34,79.17a38.9,38.9,0,0,0-.75,7.56c0,5.49,1.36,9.85,3.68,12.9"/></g></g></g><g id="g9530"><path class="cls-1" d="M45.33,104.51a12.36,12.36,0,0,1-8.41-4.88c-2.32-3-3.66-7.41-3.68-12.9A38.9,38.9,0,0,1,34,79.17l12.44-7.23a47.77,47.77,0,0,0-4.75,19.73c0,5.46,1.35,9.81,3.65,12.84M36.27,88.94l-1.42.82v1.63l1.42-.82V88.94"/><g class="cls-8"><g id="g9532"><path id="path9546" class="cls-1" d="M45.33,104.51a12.36,12.36,0,0,1-8.41-4.88c-2.32-3-3.66-7.41-3.68-12.9A38.9,38.9,0,0,1,34,79.17l12.44-7.23a47.77,47.77,0,0,0-4.75,19.73c0,5.46,1.35,9.81,3.65,12.84M36.27,88.94l-1.42.82v1.63l1.42-.82V88.94"/></g></g></g><g id="g9588"><path class="cls-1" d="M53.75,109.4a12.36,12.36,0,0,1-8.42-4.89c-2.3-3-3.63-7.38-3.65-12.84a47.77,47.77,0,0,1,4.75-19.73L65.94,60.6c-9.29,9.6-15.86,23.84-15.82,36,0,5.43,1.34,9.76,3.63,12.79"/><g class="cls-9"><g id="g9590"><path id="path9604" class="cls-1" d="M53.75,109.4a12.36,12.36,0,0,1-8.42-4.89c-2.3-3-3.63-7.38-3.65-12.84a47.77,47.77,0,0,1,4.75-19.73L65.94,60.6c-9.29,9.6-15.86,23.84-15.82,36,0,5.43,1.34,9.76,3.63,12.79"/></g></g></g><g id="g9624"><g class="cls-10"><g id="g9626"><path id="path9640" class="cls-11" d="M62.17,114.28a12.29,12.29,0,0,1-8.42-4.88c-2.29-3-3.62-7.36-3.63-12.79,0-12.17,6.53-26.41,15.82-36L88.72,47.36a52.24,52.24,0,0,0-1.85,9.3,29.47,29.47,0,0,0-3.37,1.69c-13.8,8-25,27.35-24.94,43.2,0,5.41,1.33,9.72,3.61,12.73"/></g></g></g><g id="g9642"><g class="cls-12"><g id="g9644"><path id="path9658" class="cls-13" d="M65.94,60.6a43,43,0,0,1,9.2-7.33,29.7,29.7,0,0,1,3.39-1.69A55.12,55.12,0,0,1,82,37.44l8.35,5.09c-.61,1.6-1.16,3.21-1.63,4.83L65.94,60.6m17.9-13.21-.36.6,1.79,1.1.37-.6-1.8-1.1m-3.58-2.18-.37.6,1.8,1.09.36-.6-1.79-1.09m10.48-3.67-8.35-5.09c5-12.53,14.18-24.26,24.64-30.3a26.21,26.21,0,0,1,12.9-3.94,16.21,16.21,0,0,1,3.54.38A14.17,14.17,0,0,1,127.19,4a14.43,14.43,0,0,1,4.48,3.86,16.16,16.16,0,0,0-3.52-.38,26.13,26.13,0,0,0-12.86,3.93c-10.42,6-19.54,17.69-24.55,30.16"/></g></g></g><path id="path9660" class="cls-14" d="M90.35,42.53,82,37.44l.39-1,8.35,5.09-.39,1"/><path id="path9662" class="cls-14" d="M85.27,49.09,83.48,48l.36-.6,1.8,1.1-.37.6M81.69,46.9l-1.8-1.09.37-.6,1.79,1.09-.36.6"/><g id="g9664"><g class="cls-15"><g id="g9666"><path id="path9680" class="cls-13" d="M167.45,24.66h0a10,10,0,0,0-2.91-.55,9.55,9.55,0,0,0-5.14-4.62,14,14,0,0,1,4.18-.68l.62,0A9.44,9.44,0,0,1,172.23,24h-.6a14.21,14.21,0,0,0-4.18.67m-18-4.25a14.76,14.76,0,0,0-6-6,14.19,14.19,0,0,1,4.29-.7h.54a9.76,9.76,0,0,1,2.89.56l.11,0a9.56,9.56,0,0,1,5.11,4.6h-.53a15.85,15.85,0,0,0-6.44,1.53"/></g></g></g><g id="g9682"><g class="cls-16"><g id="g9684"><path id="path9698" class="cls-17" d="M70.59,119.17a12.24,12.24,0,0,1-8.42-4.89c-2.28-3-3.6-7.32-3.61-12.73C58.51,85.7,69.7,66.32,83.5,58.35a29.47,29.47,0,0,1,3.37-1.69,52.24,52.24,0,0,1,1.85-9.3l4.9-2.84,1-.6,7.91-4.6a60.44,60.44,0,0,0-7.34,22.42,29.35,29.35,0,0,0-3.36,1.69C78.11,71.37,67,90.69,67,106.5c0,5.37,1.32,9.66,3.59,12.67"/></g></g></g><g id="g9700"><g class="cls-18"><g id="g9702"><path id="path9716" class="cls-19" d="M88.72,47.36c.47-1.62,1-3.23,1.63-4.83l3.27,2-4.9,2.84m5.93-3.44-3.91-2.38c5-12.47,14.13-24.15,24.55-30.16a26.13,26.13,0,0,1,12.86-3.93,16.16,16.16,0,0,1,3.52.38,13.77,13.77,0,0,1,3.65,1.35,14.07,14.07,0,0,1,4.53,3.88,16.35,16.35,0,0,0-3.48-.37,26,26,0,0,0-12.83,3.92c-8.29,4.79-15.77,13.19-21,22.71l-7.91,4.6"/></g></g></g><path id="path9718" class="cls-20" d="M93.62,44.52l-3.27-2,.39-1,3.91,2.38-1,.6"/><g id="g9720"><g class="cls-21"><g id="g9722"><path id="path9736" class="cls-19" d="M173.27,30.72a9.94,9.94,0,0,0-5.82-6.06,14.21,14.21,0,0,1,4.18-.67h.6a9.42,9.42,0,0,1,8.06,5.19h-.59a15.67,15.67,0,0,0-6.43,1.54M152,29.06a23.28,23.28,0,0,0-2.61-8.65,15.85,15.85,0,0,1,6.44-1.53h.53a9.88,9.88,0,0,1,2.9.56l.07,0a9.55,9.55,0,0,1,5.14,4.62l-.51,0a17.22,17.22,0,0,0-8.45,2.58,27.34,27.34,0,0,0-3.51,2.4"/></g></g></g><g id="g9738"><g class="cls-22"><g id="g9740"><path id="path9754" class="cls-23" d="M184.09,61.91,123.69,27,102.56,39.32c5.21-9.52,12.69-17.92,21-22.71a26,26,0,0,1,12.83-3.92,16.35,16.35,0,0,1,3.48.37,13.92,13.92,0,0,1,3.61,1.32,14.76,14.76,0,0,1,6,6A23.28,23.28,0,0,1,152,29.06a27.34,27.34,0,0,1,3.51-2.4A17.22,17.22,0,0,1,164,24.08l.51,0a10,10,0,0,1,2.91.55h0a9.94,9.94,0,0,1,5.82,6.06,15.67,15.67,0,0,1,6.43-1.54h.59c5.85.3,9.83,5.13,9.85,13.3,0,6.28-2.32,13.31-6,19.42"/></g></g></g><g id="g9756"><g class="cls-24"><g id="g9758"><path id="path9772" class="cls-25" d="M76.91,123.62a12.16,12.16,0,0,1-6.32-4.45c-2.27-3-3.58-7.3-3.59-12.67,0-15.81,11.11-35.13,24.86-43.07a29.35,29.35,0,0,1,3.36-1.69,60.44,60.44,0,0,1,7.34-22.42L123.69,27l60.4,34.87a37.77,37.77,0,0,1-12.68,13L141.72,92.07l-12.56-7.26-.17.29,12.4,7.16L134.9,96l-2.05-1.18-.17.29,1.88,1.08-20.63,11.91-9.22-5.32-.17.3,9,5.22L93,120.22h-.86a33.07,33.07,0,0,0-15.2,3.41"/></g></g></g><path id="path9774" class="cls-26" d="M159.09,118.76,116.66,94.27l.17-.3,42.43,24.5-.17.29"/><path id="path9776" class="cls-26" d="M143.72,137.76,121.79,125.1l16.36-9.44-20.52-11.85.17-.29,21,12.14-16.36,9.44,21.42,12.37-.17.29"/><path id="path9778" class="cls-26" d="M191.49,110.18,169.9,97.72l-16.36,9.44-20.86-12,.17-.29,20.69,11.94,16.36-9.45,21.76,12.57-.17.29"/><path id="path9780" class="cls-26" d="M91.57,133.34l-.16-.29,32.51-18.77-19.38-11.19.17-.3,19.64,11.34.25.15-33,19.06"/><path id="path9782" class="cls-26" d="M203.75,103.1l-28-16.16L154,99.52l-.08,0L129,85.1l.17-.29L154,99.13l21.79-12.59.09,0,28.09,16.22-.17.29"/><path id="path9784" class="cls-26" d="M202.27,102.05a3.45,3.45,0,0,1,3.13,0,1,1,0,0,1,0,1.81,3.45,3.45,0,0,1-3.13,0,1,1,0,0,1,0-1.81"/><path id="path9786" class="cls-26" d="M190.34,109.13a3.47,3.47,0,0,1,3.14,0,1,1,0,0,1,0,1.81,3.47,3.47,0,0,1-3.14,0,1,1,0,0,1,0-1.81"/><path id="path9788" class="cls-26" d="M157.23,117.49a3.45,3.45,0,0,1,3.13,0,1,1,0,0,1,0,1.81,3.45,3.45,0,0,1-3.13,0,1,1,0,0,1,0-1.81"/><path id="path9790" class="cls-26" d="M142.24,136.71a3.45,3.45,0,0,1,3.13,0,1,1,0,0,1,0,1.81,3.45,3.45,0,0,1-3.13,0,1,1,0,0,1,0-1.81"/><path id="path9792" class="cls-26" d="M90.54,132.29a3.45,3.45,0,0,1,3.13,0,1,1,0,0,1,0,1.81,3.45,3.45,0,0,1-3.13,0,1,1,0,0,1,0-1.81"/><g id="g9794"><path class="cls-3" d="M203.18,115.93a32.58,32.58,0,0,1-15.91-3.8c-3.94-2.28-6.12-5.18-6.52-8.15l4.58,2.65a12.47,12.47,0,0,0,4.45,4,29.55,29.55,0,0,0,26.79,0c7.4-4.27,7.4-11.19,0-15.46A27.34,27.34,0,0,0,203.18,92a27.86,27.86,0,0,0-12.91,2.93l-2.51-1.45a35.32,35.32,0,0,1,31.33.27c8.79,5.08,8.79,13.3,0,18.38a32.63,32.63,0,0,1-15.91,3.8M185,106.05l-4.31-2.49c-.29-3.53,1.9-7.11,6.57-9.81l.14-.08,2.52,1.45-.15.09c-5.08,2.93-6.67,7.12-4.77,10.84"/><g class="cls-27"><g id="g9796"><path id="path9810" class="cls-3" d="M203.18,115.93a32.58,32.58,0,0,1-15.91-3.8c-3.94-2.28-6.12-5.18-6.52-8.15l4.58,2.65a12.47,12.47,0,0,0,4.45,4,29.55,29.55,0,0,0,26.79,0c7.4-4.27,7.4-11.19,0-15.46A27.34,27.34,0,0,0,203.18,92a27.86,27.86,0,0,0-12.91,2.93l-2.51-1.45a35.32,35.32,0,0,1,31.33.27c8.79,5.08,8.79,13.3,0,18.38a32.63,32.63,0,0,1-15.91,3.8M185,106.05l-4.31-2.49c-.29-3.53,1.9-7.11,6.57-9.81l.14-.08,2.52,1.45-.15.09c-5.08,2.93-6.67,7.12-4.77,10.84"/></g></g></g><path id="path9812" class="cls-26" d="M185.33,106.63,180.75,104c0-.14,0-.28-.05-.42l4.31,2.49.32.58"/><path id="path9814" class="cls-26" d="M189.93,95.12l-2.52-1.45.35-.19,2.51,1.45-.34.19"/><g id="g9816"><path class="cls-3" d="M203.18,113.88a27.35,27.35,0,0,1-13.4-3.21,12.47,12.47,0,0,1-4.45-4l4.71,2.71c-.55.5-.45,1.17.3,1.6a3.52,3.52,0,0,0,3.14,0,1.18,1.18,0,0,0,.64-.82,23.57,23.57,0,0,0,9.06,1.7,22.22,22.22,0,0,0,10.88-2.6c6-3.47,6-9.09,0-12.56a22.22,22.22,0,0,0-10.88-2.6,22.72,22.72,0,0,0-10.39,2.32l-2.52-1.45A27.86,27.86,0,0,1,203.18,92a27.34,27.34,0,0,1,13.39,3.21c7.4,4.27,7.4,11.19,0,15.46a27.34,27.34,0,0,1-13.39,3.21m-12.83-4.75L185,106.05c-1.9-3.72-.31-7.91,4.77-10.84l.15-.09,2.51,1.46-.14.08c-5.76,3.32-6,8.62-.73,12.11a3,3,0,0,0-1.22.36"/><g class="cls-28"><g id="g9818"><path id="path9832" class="cls-3" d="M203.18,113.88a27.35,27.35,0,0,1-13.4-3.21,12.47,12.47,0,0,1-4.45-4l4.71,2.71c-.55.5-.45,1.17.3,1.6a3.52,3.52,0,0,0,3.14,0,1.18,1.18,0,0,0,.64-.82,23.57,23.57,0,0,0,9.06,1.7,22.22,22.22,0,0,0,10.88-2.6c6-3.47,6-9.09,0-12.56a22.22,22.22,0,0,0-10.88-2.6,22.72,22.72,0,0,0-10.39,2.32l-2.52-1.45A27.86,27.86,0,0,1,203.18,92a27.34,27.34,0,0,1,13.39,3.21c7.4,4.27,7.4,11.19,0,15.46a27.34,27.34,0,0,1-13.39,3.21m-12.83-4.75L185,106.05c-1.9-3.72-.31-7.91,4.77-10.84l.15-.09,2.51,1.46-.14.08c-5.76,3.32-6,8.62-.73,12.11a3,3,0,0,0-1.22.36"/></g></g></g><path id="path9834" class="cls-29" d="M190,109.34l-4.71-2.71-.32-.58,5.34,3.08h0l-.3.21"/><path id="path9836" class="cls-29" d="M192.44,96.58l-2.51-1.46.34-.19,2.52,1.45-.35.2"/><path id="path9838" class="cls-29" d="M191.91,111.31a3.22,3.22,0,0,1-1.57-.37c-.75-.43-.85-1.1-.3-1.6l.3-.21h0a3,3,0,0,1,1.22-.36c.23.15.47.31.73.45a13.39,13.39,0,0,0,1.82.9,1.18,1.18,0,0,1-.64.82,3.22,3.22,0,0,1-1.57.37"/><g id="g9840"><path class="cls-3" d="M203.18,111.82a23.57,23.57,0,0,1-9.06-1.7,1.06,1.06,0,0,0-.64-1,3.22,3.22,0,0,0-1.57-.37h-.34c-5.27-3.49-5-8.79.73-12.11l.14-.08L195,98l-.15.08c-4.62,2.67-4.62,7,0,9.66a18.49,18.49,0,0,0,16.73,0c4.62-2.67,4.62-7,0-9.66a17.14,17.14,0,0,0-8.36-2,17.57,17.57,0,0,0-7.87,1.73l-2.52-1.46a22.72,22.72,0,0,1,10.39-2.32,22.22,22.22,0,0,1,10.88,2.6c6,3.47,6,9.09,0,12.56a22.22,22.22,0,0,1-10.88,2.6"/><g class="cls-30"><g id="g9842"><path id="path9856" class="cls-3" d="M203.18,111.82a23.57,23.57,0,0,1-9.06-1.7,1.06,1.06,0,0,0-.64-1,3.22,3.22,0,0,0-1.57-.37h-.34c-5.27-3.49-5-8.79.73-12.11l.14-.08L195,98l-.15.08c-4.62,2.67-4.62,7,0,9.66a18.49,18.49,0,0,0,16.73,0c4.62-2.67,4.62-7,0-9.66a17.14,17.14,0,0,0-8.36-2,17.57,17.57,0,0,0-7.87,1.73l-2.52-1.46a22.72,22.72,0,0,1,10.39-2.32,22.22,22.22,0,0,1,10.88,2.6c6,3.47,6,9.09,0,12.56a22.22,22.22,0,0,1-10.88,2.6"/></g></g></g><path id="path9858" class="cls-31" d="M195,98l-2.52-1.45.35-.2,2.52,1.46A3.9,3.9,0,0,0,195,98"/><path id="path9860" class="cls-31" d="M194.12,110.12a13.39,13.39,0,0,1-1.82-.9c-.26-.14-.5-.3-.73-.45h.34a3.22,3.22,0,0,1,1.57.37,1.06,1.06,0,0,1,.64,1"/><path id="path9880" class="cls-32" d="M197.47,99.48,195,98a3.9,3.9,0,0,1,.35-.19l2.52,1.46-.36.18"/><g id="g9882"><path class="cls-3" d="M203.18,107.72a12,12,0,0,1-5.85-1.4c-3.23-1.87-3.23-4.89,0-6.76l.14-.08,2.52,1.45-.15.09c-1.84,1.06-1.84,2.78,0,3.84a7.35,7.35,0,0,0,6.67,0c1.84-1.06,1.84-2.78,0-3.84a6.73,6.73,0,0,0-3.33-.8,7.23,7.23,0,0,0-2.82.54l-2.53-1.46a12.3,12.3,0,0,1,5.35-1.14,12,12,0,0,1,5.85,1.4c3.23,1.87,3.23,4.89,0,6.76a12,12,0,0,1-5.85,1.4"/><g class="cls-33"><g id="g9884"><path id="path9898" class="cls-3" d="M203.18,107.72a12,12,0,0,1-5.85-1.4c-3.23-1.87-3.23-4.89,0-6.76l.14-.08,2.52,1.45-.15.09c-1.84,1.06-1.84,2.78,0,3.84a7.35,7.35,0,0,0,6.67,0c1.84-1.06,1.84-2.78,0-3.84a6.73,6.73,0,0,0-3.33-.8,7.23,7.23,0,0,0-2.82.54l-2.53-1.46a12.3,12.3,0,0,1,5.35-1.14,12,12,0,0,1,5.85,1.4c3.23,1.87,3.23,4.89,0,6.76a12,12,0,0,1-5.85,1.4"/></g></g></g><path id="path9900" class="cls-34" d="M200,100.93l-2.52-1.45.36-.18,2.53,1.46-.37.17"/><path id="path9920" class="cls-35" d="M202.11,102.16,200,100.93l.37-.17,2.09,1.2-.18.09a.91.91,0,0,0-.16.11"/><path id="path9922" class="cls-35" d="M203.83,104.23a3.18,3.18,0,0,1-1.56-.37c-.81-.46-.86-1.2-.16-1.7a.91.91,0,0,1,.16-.11l.18-.09a3.27,3.27,0,0,1,1.38-.28,3.2,3.2,0,0,1,1.57.37,1,1,0,0,1,0,1.81,3.2,3.2,0,0,1-1.57.37m-.65-2a1.69,1.69,0,0,0-.82.2.5.5,0,0,0,0,.94,1.69,1.69,0,0,0,.82.2,1.65,1.65,0,0,0,.81-.2c.46-.26.46-.68,0-.94a1.65,1.65,0,0,0-.81-.2"/><path id="path9924" class="cls-36" d="M203.18,103.61a1.69,1.69,0,0,1-.82-.2.5.5,0,0,1,0-.94,1.69,1.69,0,0,1,.82-.2,1.65,1.65,0,0,1,.81.2c.46.26.46.68,0,.94a1.65,1.65,0,0,1-.81.2"/><g id="g9926"><path class="cls-3" d="M92.11,146.19a32.47,32.47,0,0,1-15.91-3.81c-8.79-5.07-8.79-13.29,0-18.37.23-.13.47-.27.71-.39a14,14,0,0,0,3.94.55h.58a20.68,20.68,0,0,0-2.72,1.3c-7.4,4.27-7.4,11.2,0,15.47a27.35,27.35,0,0,0,13.4,3.21,27.31,27.31,0,0,0,13.39-3.21c4.06-2.34,5.89-5.47,5.5-8.53a8.87,8.87,0,0,0,2.13.26,8.69,8.69,0,0,0,1.45-.12c.31,3.54-1.88,7.14-6.56,9.84a32.47,32.47,0,0,1-15.91,3.81m12.91-21a27.86,27.86,0,0,0-12.91-2.93,32.93,32.93,0,0,0-3.45.18A29.23,29.23,0,0,0,92,120.76l1-.54a32.33,32.33,0,0,1,14.56,3.52L105,125.19"/><g class="cls-37"><g id="g9928"><path id="path9942" class="cls-3" d="M92.11,146.19a32.47,32.47,0,0,1-15.91-3.81c-8.79-5.07-8.79-13.29,0-18.37.23-.13.47-.27.71-.39a14,14,0,0,0,3.94.55h.58a20.68,20.68,0,0,0-2.72,1.3c-7.4,4.27-7.4,11.2,0,15.47a27.35,27.35,0,0,0,13.4,3.21,27.31,27.31,0,0,0,13.39-3.21c4.06-2.34,5.89-5.47,5.5-8.53a8.87,8.87,0,0,0,2.13.26,8.69,8.69,0,0,0,1.45-.12c.31,3.54-1.88,7.14-6.56,9.84a32.47,32.47,0,0,1-15.91,3.81m12.91-21a27.86,27.86,0,0,0-12.91-2.93,32.93,32.93,0,0,0-3.45.18A29.23,29.23,0,0,0,92,120.76l1-.54a32.33,32.33,0,0,1,14.56,3.52L105,125.19"/></g></g></g><g id="g9944"><g class="cls-38"><g id="g9946"><path id="path9960" class="cls-39" d="M80.85,124.17a14,14,0,0,1-3.94-.55,33.07,33.07,0,0,1,15.2-3.41H93l-1,.54a29.23,29.23,0,0,1-3.36,1.68,28,28,0,0,0-7.23,1.72h-.58"/></g></g></g><g id="g9962"><g class="cls-40"><g id="g9964"><path id="path9978" class="cls-41" d="M108.82,128a14.16,14.16,0,0,0-3.32-2.58l-.14-.08,2.52-1.45.14.08a17,17,0,0,1,3.69,2.81,6.54,6.54,0,0,0-2.22.75,4.61,4.61,0,0,0-.67.47"/></g></g></g><path id="path9980" class="cls-26" d="M105.36,125.38l-.34-.19,2.51-1.45.35.19-2.52,1.45"/><g id="g9982"><path class="cls-3" d="M92.11,144.14a27.35,27.35,0,0,1-13.4-3.21c-7.4-4.27-7.4-11.2,0-15.47a20.68,20.68,0,0,1,2.72-1.3,20.49,20.49,0,0,0,7.23-1.72,32.93,32.93,0,0,1,3.45-.18A27.86,27.86,0,0,1,105,125.19l-2.52,1.46a22.59,22.59,0,0,0-10.39-2.33,22.16,22.16,0,0,0-10.88,2.6c-6,3.46-6,9.09,0,12.56a24.06,24.06,0,0,0,21.76,0c6-3.47,6-9.1,0-12.56l-.14-.08,2.51-1.46.14.08a14.16,14.16,0,0,1,3.32,2.58c-1.32,1.16-1.1,2.73.67,3.75a6.36,6.36,0,0,0,1.51.61c.39,3.06-1.44,6.19-5.5,8.53a27.31,27.31,0,0,1-13.39,3.21"/><g class="cls-42"><g id="g9984"><path id="path9998" class="cls-3" d="M92.11,144.14a27.35,27.35,0,0,1-13.4-3.21c-7.4-4.27-7.4-11.2,0-15.47a20.68,20.68,0,0,1,2.72-1.3,20.49,20.49,0,0,0,7.23-1.72,32.93,32.93,0,0,1,3.45-.18A27.86,27.86,0,0,1,105,125.19l-2.52,1.46a22.59,22.59,0,0,0-10.39-2.33,22.16,22.16,0,0,0-10.88,2.6c-6,3.46-6,9.09,0,12.56a24.06,24.06,0,0,0,21.76,0c6-3.47,6-9.1,0-12.56l-.14-.08,2.51-1.46.14.08a14.16,14.16,0,0,1,3.32,2.58c-1.32,1.16-1.1,2.73.67,3.75a6.36,6.36,0,0,0,1.51.61c.39,3.06-1.44,6.19-5.5,8.53a27.31,27.31,0,0,1-13.39,3.21"/></g></g></g><g id="g10000"><g class="cls-43"><g id="g10002"><path id="path10016" class="cls-44" d="M81.43,124.16a28,28,0,0,1,7.23-1.72,20.49,20.49,0,0,1-7.23,1.72"/></g></g></g><path id="path10018" class="cls-29" d="M102.85,126.84l-.35-.19,2.52-1.46.34.19-2.51,1.46"/><path id="path10038" class="cls-31" d="M100.33,128.29a3.9,3.9,0,0,0-.35-.19l2.52-1.45.35.19-2.52,1.45"/><g id="g10040"><path class="cls-3" d="M92.11,140a17.15,17.15,0,0,1-8.37-2c-4.62-2.67-4.62-7,0-9.66a17.15,17.15,0,0,1,8.37-2A17.57,17.57,0,0,1,100,128.1l-2.52,1.46a12.33,12.33,0,0,0-5.35-1.14,12,12,0,0,0-5.85,1.4c-3.23,1.87-3.23,4.89,0,6.76a13,13,0,0,0,11.7,0c3.23-1.87,3.23-4.89,0-6.76l-.15-.08,2.52-1.45.14.08c4.62,2.67,4.62,7,0,9.66a17.14,17.14,0,0,1-8.36,2"/><g class="cls-45"><g id="g10042"><path id="path10056" class="cls-3" d="M92.11,140a17.15,17.15,0,0,1-8.37-2c-4.62-2.67-4.62-7,0-9.66a17.15,17.15,0,0,1,8.37-2A17.57,17.57,0,0,1,100,128.1l-2.52,1.46a12.33,12.33,0,0,0-5.35-1.14,12,12,0,0,0-5.85,1.4c-3.23,1.87-3.23,4.89,0,6.76a13,13,0,0,0,11.7,0c3.23-1.87,3.23-4.89,0-6.76l-.15-.08,2.52-1.45.14.08c4.62,2.67,4.62,7,0,9.66a17.14,17.14,0,0,1-8.36,2"/></g></g></g><path id="path10058" class="cls-32" d="M97.81,129.74l-.35-.18L100,128.1a3.9,3.9,0,0,1,.35.19l-2.52,1.45"/><path id="path10078" class="cls-34" d="M95.3,131.2a2.53,2.53,0,0,0-.37-.18l2.53-1.46.35.18L95.3,131.2"/><g id="g10080"><path class="cls-3" d="M92.11,135.92a6.85,6.85,0,0,1-3.34-.8c-1.84-1.06-1.84-2.78,0-3.85a6.84,6.84,0,0,1,3.34-.79,7.23,7.23,0,0,1,2.82.54l-1.81,1a3.68,3.68,0,0,0-1-.14,3.2,3.2,0,0,0-1.57.37,1,1,0,0,0,0,1.81,3.41,3.41,0,0,0,3.13,0,1,1,0,0,0,0-1.81l-.14-.07,1.77-1,.14.07c1.84,1.07,1.84,2.79,0,3.85a6.83,6.83,0,0,1-3.33.8"/><g class="cls-46"><g id="g10082"><path id="path10096" class="cls-3" d="M92.11,135.92a6.85,6.85,0,0,1-3.34-.8c-1.84-1.06-1.84-2.78,0-3.85a6.84,6.84,0,0,1,3.34-.79,7.23,7.23,0,0,1,2.82.54l-1.81,1a3.68,3.68,0,0,0-1-.14,3.2,3.2,0,0,0-1.57.37,1,1,0,0,0,0,1.81,3.41,3.41,0,0,0,3.13,0,1,1,0,0,0,0-1.81l-.14-.07,1.77-1,.14.07c1.84,1.07,1.84,2.79,0,3.85a6.83,6.83,0,0,1-3.33.8"/></g></g></g><path id="path10098" class="cls-35" d="M93.53,132.22a2.5,2.5,0,0,0-.41-.16l1.81-1a2.53,2.53,0,0,1,.37.18l-1.77,1"/><path id="path10100" class="cls-3" d="M92.11,134.48a3.2,3.2,0,0,1-1.57-.38,1,1,0,0,1,0-1.81,3.2,3.2,0,0,1,1.57-.37,3.68,3.68,0,0,1,1,.14,2.5,2.5,0,0,1,.41.16l.14.07a1,1,0,0,1,0,1.81,3.19,3.19,0,0,1-1.56.38m0-1.95a1.69,1.69,0,0,0-.82.2.5.5,0,0,0,0,.94,1.69,1.69,0,0,0,.82.2,1.72,1.72,0,0,0,.82-.2.5.5,0,0,0,0-.94,1.72,1.72,0,0,0-.82-.2"/><path id="path10102" class="cls-36" d="M92.11,133.87a1.69,1.69,0,0,1-.82-.2.5.5,0,0,1,0-.94,1.69,1.69,0,0,1,.82-.2,1.72,1.72,0,0,1,.82.2.5.5,0,0,1,0,.94,1.72,1.72,0,0,1-.82.2"/><path id="path10104" class="cls-47" d="M166.19,17.94l21.45,12.47c-3-1.75-7-1.76-11.5.28L154.68,18.22c4.48-2,8.49-2,11.51-.28"/><path id="path10108" class="cls-48" d="M162.87,25.57c1,.13,2.83-.15,2.71-1.49A3.13,3.13,0,0,1,166,24l.22,0,.19,0a.74.74,0,0,1,.48.45,1,1,0,0,1,0,.65l0,.05-.19.28-.23.19a1.94,1.94,0,0,1-.57.25,8.54,8.54,0,0,0-1.23.32c-.55.22-1.1.74-1.75.59a.77.77,0,0,1-.48-.39,1.55,1.55,0,0,1-.08-1l.12-.48c.11.3,0,.69.4.74"/><path id="path10112" class="cls-49" d="M156.64,22.28a4.56,4.56,0,0,0,.05-1.38l1.48-.56a4.85,4.85,0,0,0,0,.66c0,.46.49.39.83.32s.56-.13.84-.19v1.26h1.09c-.48.55-1.42.5-2.07.76s-1.11.73-1.75.57a.72.72,0,0,1-.47-.4,1.72,1.72,0,0,1,0-1"/><path id="path10114" class="cls-48" d="M157.05,22.6c.94.41,2.84-.11,2.73-1.46l.44-.1.22,0h.2a.69.69,0,0,1,.46.45,1,1,0,0,1,0,.65l0,0-.2.27-.23.2a1.9,1.9,0,0,1-.57.23,10.7,10.7,0,0,0-1.24.31c-.55.22-1.11.73-1.75.57a.72.72,0,0,1-.47-.4,1.72,1.72,0,0,1,0-1l.05-.32c.11.3.16.64.36.64"/><path id="path10116" class="cls-50" d="M150.27,12.78l21.46,12.47a9.29,9.29,0,0,0-1.5-.7c-3.38-1.21-7.64-.49-12,2A27.9,27.9,0,0,0,154.69,29L133.23,16.54a28,28,0,0,1,3.55-2.43c4.35-2.51,8.61-3.23,12-2a8.56,8.56,0,0,1,1.5.7"/><path id="path10118" class="cls-48" d="M151,17.63c0,1.12.66,1.91,1,2.81a1.22,1.22,0,0,1-.8,0h0a11.57,11.57,0,0,1-.14-2.83"/><path id="path10122" class="cls-49" d="M150.35,14.52h0c.06.43.09.87.11,1.3,0-.44-.06-.87-.12-1.3"/><path id="path10704" class="cls-51" d="M125.89,16.43c14.75-8.52,27-2.82,28.8,12.58a27.9,27.9,0,0,1,3.54-2.43c4.36-2.52,8.62-3.24,12-2a10.05,10.05,0,0,1,5.91,6.14c9.53-4.36,17,.63,17.05,11.88,0,12-8.46,26.74-18.93,32.78L94.05,121.66c-13.9,8-25.25,1.56-25.3-14.41S80,71.76,93.88,63.73a30.79,30.79,0,0,1,3.4-1.7c1.75-17.39,13.9-37.11,28.61-45.6"/><path id="path10706" class="cls-52" d="M187.43,42.59c0,10-7.32,22.74-16.05,27.77L91.17,116.68a17.52,17.52,0,0,1-8.41,2.68,7.06,7.06,0,0,1-4.31-1.31c-3.46-2.52-3.93-8-3.94-10.82,0-13.89,10.15-31.53,22.25-38.51a24.48,24.48,0,0,1,2.76-1.38L102.66,66l.35-3.4c1.58-15.67,12.9-33.77,25.76-41.2a20.94,20.94,0,0,1,10.08-3.18h.39c7.31.25,9.24,7.24,9.73,11.45l.68,5.79.52,4.49,8.1-6.45a24.39,24.39,0,0,1,2.84-1.95,14.36,14.36,0,0,1,4.25-1.68,8,8,0,0,1,1.41-.14,4.45,4.45,0,0,1,1.52.24,4.37,4.37,0,0,1,2.48,2.79l1.1,2.83L173,38.46l5.55-2.54a12.12,12.12,0,0,1,2.72-.89,7,7,0,0,1,1.39-.15c4.15,0,4.78,4.83,4.79,7.71"/><path id="path10708" class="cls-3" d="M181.25,35a12.12,12.12,0,0,0-2.72.89L173,38.46l-1.11-2.86-1.1-2.83A4.37,4.37,0,0,0,168.29,30a4.45,4.45,0,0,0-1.52-.24,8,8,0,0,0-1.41.14,14.36,14.36,0,0,0-4.25,1.68,24.39,24.39,0,0,0-2.84,1.95L150.17,40l-.52-4.49L149,29.68c-.49-4.21-2.42-11.2-9.73-11.45h-.39a20.94,20.94,0,0,0-10.08,3.18c-12.86,7.43-24.18,25.53-25.76,41.2l-.35,3.4-3.14,1.33a24.48,24.48,0,0,0-2.76,1.38c-12.1,7-22.29,24.62-22.25,38.51,0,2.77.48,8.3,3.94,10.82a17.6,17.6,0,0,0,8.17-2.67l80.22-46.31c8.73-5,16.07-17.76,16-27.78,0-1.88-.28-4.61-1.64-6.26"/><path id="path10710" class="cls-3" d="M125,2c-5.26-3.06-12.55-2.64-20.57,2-14.72,8.49-26.86,28.21-28.62,45.6L97.28,62c1.75-17.39,13.9-37.11,28.61-45.6,8-4.64,15.32-5.06,20.58-2L125,2"/><path id="path10712" class="cls-50" d="M76.12,123.41,54.66,110.94c-4.53-2.63-7.34-8.22-7.36-16.16,0-16,11.23-35.49,25.12-43.52a34.75,34.75,0,0,1,3.4-1.7L97.28,62a30.79,30.79,0,0,0-3.4,1.7c-13.9,8-25.17,27.55-25.13,43.52,0,7.94,2.84,13.53,7.37,16.16"/><g id="g10714"><g class="cls-53"><g id="g10716"><path id="path10730" class="cls-54" d="M114.58,132.54a9.39,9.39,0,0,0-2.87-5.72,8.51,8.51,0,0,1,1.42-.12,7.49,7.49,0,0,1,3.65.87c2,1.17,2,3.05,0,4.22a6.36,6.36,0,0,1-2.2.75"/></g></g></g><g id="g10732"><g class="cls-55"><g id="g10734"><path id="path10748" class="cls-56" d="M113.13,132.66a8.87,8.87,0,0,1-2.13-.26,7.87,7.87,0,0,0-2.18-4.36,4.61,4.61,0,0,1,.67-.47,6.54,6.54,0,0,1,2.22-.75,9.39,9.39,0,0,1,2.87,5.72,8.69,8.69,0,0,1-1.45.12"/></g></g></g><g id="g10750"><g class="cls-57"><g id="g10752"><path id="path10766" class="cls-58" d="M111,132.4a6.36,6.36,0,0,1-1.51-.61c-1.77-1-2-2.59-.67-3.75A7.87,7.87,0,0,1,111,132.4"/></g></g></g><path id="path10768" class="cls-59" d="M115.45,102.67a4.45,4.45,0,0,1,.35,1.78c.11,1.33.42,2.64.47,4a1.51,1.51,0,0,1-.06.52.54.54,0,0,1-.36.36.68.68,0,0,1-.55-.2,3.65,3.65,0,0,1-1-1.71c-.27-.83-.52-1.68-.75-2.53a6.78,6.78,0,0,1-.31-2,1.46,1.46,0,0,1,.21-.79c.53-.78,1.63,0,2,.63"/><path id="path10770" class="cls-60" d="M113,131.25v.13a.49.49,0,0,1-.21.36l-.33.06a1.29,1.29,0,0,1-.84-.8,5.92,5.92,0,0,0-.47-1.32l-.21-.25a.78.78,0,0,1-.12-.49.66.66,0,0,1,.15-.41.56.56,0,0,1,.74,0c.16.11.42.09.53.26a1.52,1.52,0,0,1,.18.43,10.84,10.84,0,0,1,.54,1.76l0,.3"/><path id="path10772" class="cls-60" d="M111.2,128.67l-.11,1.57-.19,0-.06-1.18.36-.37"/><path id="path10774" class="cls-61" d="M112.74,129.45V128h.39l-.1,1.45h-.29"/><path id="path10776" class="cls-61" d="M115.37,129.21a10.72,10.72,0,0,1,.62.88l.07.24-.15.2-.24.08a2.51,2.51,0,0,1-1-.06,1.18,1.18,0,0,1-.5-.25,1.56,1.56,0,0,1-.32-.73,1,1,0,0,0-.42-.65l-.2-.09a.9.9,0,0,1-.32-1.31c.15-.23.34-.21.58-.12a2.29,2.29,0,0,1,.64.56l.09.09c.22.18-.1-.82,0-.55a8.67,8.67,0,0,0,1.14,1.71"/><path id="path10778" class="cls-49" d="M114.6,119c0,1.89-.44,4.17-.44,6.06a17.14,17.14,0,0,0,.18,2.48c.06.27-.44.46-.69.34s-.51-.3-.53-.49a21.94,21.94,0,0,0-1-3.12,7.26,7.26,0,0,1,.16-3.7c.08-.22.19-.45.41-.51L114.6,119"/><path id="path10780" class="cls-49" d="M114.28,127.25a3.23,3.23,0,0,0,.11.54l.06.24.13.25a3.87,3.87,0,0,0,.27.43,2.63,2.63,0,0,1,.29.39l0,.3c-.05.14-.27,0-.36,0l-.19-.11a8.08,8.08,0,0,1-.57-.6,5.79,5.79,0,0,0-.79-.49l-.21-.18a.52.52,0,0,1-.1-.4c0-.16.12-.3.13-.47a1,1,0,0,1,.09-.49l1.1.59"/><path id="path10782" class="cls-49" d="M110.58,102.16a7.84,7.84,0,0,1,1.54-.48l.26-.06a3.18,3.18,0,0,1,1.88.15h0v3.86h-3.7v-3.48"/><path id="path10784" class="cls-62" d="M108.91,103.84c.08-.89,1.09-1.38,1.83-1.82a1.84,1.84,0,0,0,1.16,1.64,1,1,0,0,0,1.12-.34,2.45,2.45,0,0,0,.28-1.82,4.4,4.4,0,0,1,1,.27,1.84,1.84,0,0,1,.72.61,2.11,2.11,0,0,1,.16.72,6,6,0,0,0,.27.82c.13.3.33.59.43.9a2.29,2.29,0,0,1,.11,1,9.12,9.12,0,0,1-.5,1.56,6.45,6.45,0,0,0-.13,2.66l.09.67-.06.23a2.26,2.26,0,0,1-.63.23l-.45.14a6,6,0,0,1-1.26.2,3.57,3.57,0,0,1-2.33-.65l-.14-.17v-.23c0-.22,0-.45,0-.68a6.21,6.21,0,0,0,0-1.43c-.24-1.42-1.18-2.64-1.57-4a1.61,1.61,0,0,1,0-.52"/><path id="path10786" class="cls-59" d="M109.21,103.06c1.39-.26.91,2.34,1.49,3.22.42.69,1.32.53,2.07.58a1.41,1.41,0,0,0-.8,1.22,13.73,13.73,0,0,0,.26,3.43,3.13,3.13,0,0,1-1.55-.61l-.14-.17v-.23c0-.22,0-.45,0-.68a6.21,6.21,0,0,0,0-1.43c-.24-1.42-1.18-2.64-1.57-4a1.61,1.61,0,0,1,0-.52,1.7,1.7,0,0,1,.3-.78"/><path id="path10788" class="cls-63" d="M112.62,103.65c0,.14.67.25.75.24l.14-.18a3.78,3.78,0,0,0,.29-1.41.56.56,0,0,0-.14-.43.47.47,0,0,0-.43-.06c-.14.07-.08.07,0,.2a2,2,0,0,1-.58,1.64"/><path id="path10790" class="cls-64" d="M110.26,111.22c-1.55,1.74-.89,5.32-.42,7.42a11.37,11.37,0,0,1,.28,1.65c0,.6.09,1.2.14,1.8a1.78,1.78,0,0,0,.1.56c.36.85,1.61.12,1.93-.4a4.07,4.07,0,0,0,.44-1.5c.2-1.33.31-3.28.4-4.63a8.76,8.76,0,0,0,.08-2,2.77,2.77,0,0,0-.76-1.35,3.25,3.25,0,0,0-2.24-.94l0,.07v-.7"/><path id="path10792" class="cls-64" d="M112.55,120.29c0,1.89-.44,4.17-.44,6.06a27.5,27.5,0,0,0,.27,3.15c.06.27-.65.32-.9.2s-.39-.83-.41-1a22.34,22.34,0,0,0-.95-3.12,7.26,7.26,0,0,1,.16-3.7.72.72,0,0,1,.41-.51l1.86-1.06"/><path id="path10794" class="cls-60" d="M115.42,110.92a8.08,8.08,0,0,1,.39,1.49,17,17,0,0,1-.69,7.19,2.67,2.67,0,0,1-.24.61.73.73,0,0,1-.49.36,10.65,10.65,0,0,1-2.58.45,3.39,3.39,0,0,1-.9,0,1.23,1.23,0,0,1-.79-.4,1.82,1.82,0,0,1-.33-.91c-.08-.41-.15-.83-.23-1.24s-.08-.73-.15-1.09a12.51,12.51,0,0,1-.26-2.51,7,7,0,0,1,.72-3.16,4.54,4.54,0,0,1,.36-.6l.32-.46.14.25a3.09,3.09,0,0,0,1.16.54,5.21,5.21,0,0,0,2.54-.13c.29-.09,1-.4,1-.4"/><path id="path10796" class="cls-65" d="M112.13,111.5a5.4,5.4,0,0,0,2.26-.18c.29-.09,1-.4,1-.4a8.08,8.08,0,0,1,.39,1.49,17,17,0,0,1-.69,7.19,2.67,2.67,0,0,1-.24.61.73.73,0,0,1-.49.36A9.6,9.6,0,0,1,112,121c-.72-3.1-1.13-6.53.12-9.5"/><path id="path10798" class="cls-48" d="M109.87,111.72a4.54,4.54,0,0,1,.36-.6l.32-.46.14.25a3.09,3.09,0,0,0,1.16.54l.28,0c-1.25,3-.84,6.4-.12,9.5l-.2,0a3.39,3.39,0,0,1-.9,0,1.23,1.23,0,0,1-.79-.4,1.82,1.82,0,0,1-.33-.91c-.08-.41-.15-.83-.23-1.24s-.08-.73-.15-1.09a12.51,12.51,0,0,1-.26-2.51,7,7,0,0,1,.72-3.16"/><path id="path10800" class="cls-66" d="M112.23,97.64a1.4,1.4,0,0,1-2.69.57,1.22,1.22,0,0,1-.13-.57,1.41,1.41,0,0,1,1.41-1.41l.34,0a1.42,1.42,0,0,1,1.07,1.37"/><path id="path10802" class="cls-49" d="M110.93,102.18c0,1.37,2.34,1.39,2.31.11,0-1.79-.15-2-.93-2.27a2,2,0,0,0-.67-.14c-.83,0-.51.43-.48.75.1.93-.21,1.06-.23,1.55"/><path id="path10804" class="cls-67" d="M110.93,102.18c0-.49.33-.62.23-1.55,0-.32-.35-.77.48-.75a2,2,0,0,1,.67.14c.77.27.88.48.93,2.19-.66-.06-1.24-.85-1.92-.38a1.44,1.44,0,0,0-.38.53v-.18"/><path id="path10806" class="cls-68" d="M111.93,101.29l-.21-.18a3.73,3.73,0,0,1-.64-.73,2.3,2.3,0,0,1,.19-2.76,2.11,2.11,0,0,1,2-.55,3.76,3.76,0,0,1,.55.23,1.4,1.4,0,0,1,.42.3l.19.28a1.37,1.37,0,0,1,.15.35c.14.55-.23,1.12,0,1.67a3.92,3.92,0,0,1,.16.36.47.47,0,0,1,0,.37l-.19.27c0,.15-.08.32-.13.47a2.21,2.21,0,0,1-.18.51c-.21.38-.52.4-.9.25a5.07,5.07,0,0,1-1.42-.84"/><path id="path10808" class="cls-68" d="M113.44,100.3c-.17-.68-1-.91-1.3-1.48a4.16,4.16,0,0,1-.58-1.44,2.09,2.09,0,0,1,1.75-.31,3.76,3.76,0,0,1,.55.23,1.4,1.4,0,0,1,.42.3l.19.28a1.37,1.37,0,0,1,.15.35c.14.55-.23,1.12,0,1.67a3.92,3.92,0,0,1,.16.36.47.47,0,0,1,0,.37l-.19.27c0,.15-.08.32-.13.47a2.21,2.21,0,0,1-.18.51.55.55,0,0,1-.59.33c-.43-.51-.06-1.29-.22-1.91"/><path id="path10810" class="cls-64" d="M111.27,97.62l.29-.24a4.16,4.16,0,0,0,.58,1.44c.34.57,1.13.8,1.3,1.48s-.21,1.4.22,1.91l-.31-.08a5.07,5.07,0,0,1-1.42-.84l-.21-.18a3.73,3.73,0,0,1-.64-.73,2.3,2.3,0,0,1,.19-2.76"/><path id="path10812" class="cls-66" d="M110.26,98.68a1.8,1.8,0,0,1,.77-1.62,2,2,0,0,1,1.46-.46,2.91,2.91,0,0,1,1.49.47l.06,0a1.18,1.18,0,0,1,.63.83l0,.44-.53,0c-.23,0-.43-.16-.67-.13a.49.49,0,0,0-.38.34,1.35,1.35,0,0,1-.08.4c-.08.12-.24.17-.35.27s-.21.61-.47.74a.83.83,0,0,1-.54,0,.44.44,0,0,0-.49.12v.17l0,.42-.11,0a1.17,1.17,0,0,1-.31-.35,2.8,2.8,0,0,1-.49-1.68"/><path id="path10814" class="cls-64" d="M111.25,99.66c-.37,0-.47.44-.21.79l.3.28c.66.56.83,0,.62-.24-.49-.45-.25-.8-.71-.83"/><path id="path10816" class="cls-49" d="M111.48,100.5s-.46-.28-.17-.45l.18.1v.13l0,.08.14.2-.17-.06"/><path id="path10818" class="cls-63" d="M112.62,103.65a3.41,3.41,0,0,1-.66.58l-.23.06a3.47,3.47,0,0,1-1.25-1.7.7.7,0,0,1,.19-.56l.31-.14a2.81,2.81,0,0,0,.14.66,2.32,2.32,0,0,0,1.5,1.1"/><path id="path10820" class="cls-64" d="M112.05,128.61c0,.13.22.14.24.27s.09.52.13.66a1.66,1.66,0,0,1,.09.59.35.35,0,0,1-.2.34.38.38,0,0,1-.46-.06,1.94,1.94,0,0,1-.34-.47,2.62,2.62,0,0,1-.23-.48,3.47,3.47,0,0,1-.23-1.05l.08-.48.18.12.69.51,0,.05"/><path id="path10822" class="cls-69" d="M112.58,106.23l.22.18h0l.32-.14,2.88-1.19.1-.06.15-.12h0l-.11-.09-3.24,1.3-.3.13"/><path id="path10824" class="cls-70" d="M112,111.2l3.19-1.85,1-4.2.08-.25h0l-3.43,1.52L112,111.2"/><path id="path10826" class="cls-71" d="M113.07,106.62l-.21-.17-.79,4.62.21.16.79-4.61"/><path id="path10828" class="cls-72" d="M116.37,105.08l-.13-.1-3.38,1.47.21.17,3.3-1.54"/><path id="path10830" class="cls-71" d="M113.07,106.62l-.79,4.61,3-1.75,1-4.4-3.3,1.54"/><path id="path10832" class="cls-69" d="M113,106.6l.22.18,3.35-1.7-.1-.08L113,106.6"/><path id="path10834" class="cls-70" d="M113.25,106.78l-.82,4.79,3.19-1.85,1-4.64-3.35,1.7"/><path id="path10836" class="cls-73" d="M113.25,106.78l-.67-.55-.82,4.79.67.55.82-4.79"/><path id="path10838" class="cls-69" d="M112.58,106.23l.22.18h0l.45.37.3-.2-.43-.31-.24-.17-.3.13"/><path id="path10840" class="cls-74" d="M113.38,106.78l.22.18h0l.3-.16,2.65-1.39.1,0,.14-.12h0l-.13-.08-3,1.48-.29.15"/><path id="path10842" class="cls-75" d="M112.78,111.74,116,109.9l.75-4.41.07-.25h0L113.6,107h0l-.82,4.78"/><path id="path10844" class="cls-71" d="M113.87,107.17l-.21-.17-.78,4.61.21.17.78-4.61"/><path id="path10846" class="cls-72" d="M116.92,105.41l-.13-.1L113.66,107l.21.17,3-1.76"/><path id="path10848" class="cls-71" d="M113.87,107.17l-.78,4.61,3-1.75.79-4.62-3,1.76"/><path id="path10850" class="cls-74" d="M113.83,107.14l.22.18,3.06-1.93-.13-.07-.27.16-2.88,1.66"/><path id="path10852" class="cls-75" d="M114.05,107.32l-.81,4.79,3.19-1.85.68-4.87-3.06,1.93"/><path id="path10854" class="cls-76" d="M114.05,107.32l-.67-.54-.82,4.79.68.54.81-4.79"/><path id="path10856" class="cls-74" d="M113.38,106.78l.22.18h0l.45.36.31-.19-.46-.33-.23-.17-.29.15"/><path id="path10858" class="cls-68" d="M113.26,109.41h.58l-.14.26c.11.15.31.25.29.43a1.6,1.6,0,0,1-.1.42.63.63,0,0,1-.26.32l-.16.05-.12,0-.62-.16-.13,0-.14-.12a.78.78,0,0,1-.11-.63l.15-.31.26-.09a3,3,0,0,1,.5-.11"/><path id="path10860" class="cls-68" d="M112.79,109.47l.56-.42.24-.14.2,0,.18,0a.92.92,0,0,1,.56.12l.2.13,0,.13-.06,0-.2.05-.24-.06a.43.43,0,0,0-.37.18l-.22.37a.57.57,0,0,1-.33.26h-.15l-.34-.1-.19-.23.13-.23"/><path id="path10862" class="cls-62" d="M112.76,110.62a1.16,1.16,0,0,1-.86.13c-.84-.12-4.29-.39-3.78-1.85a1,1,0,0,1,.59-.57,15.2,15.2,0,0,1,3.91,1.17.76.76,0,0,1,.36.3.84.84,0,0,1-.22.82"/><path id="path10864" class="cls-68" d="M113.63,110.21c-.12-.07,0-.46,0-.52s.1.1.54.09a1,1,0,0,0,.38,0l.27,0,0,.19.05.28c-.16.2.13.23-.22.5l.07,0c0,.39-1,.27-1.36.2-.67-.13-.09-.64.21-.69"/><path id="path10866" class="cls-62" d="M108,108.62c0-.88.06-2,.13-3.4a3.29,3.29,0,0,1,.23-1.12,2.06,2.06,0,0,1,.67-.88.6.6,0,0,1,.48-.2.56.56,0,0,1,.35.31,4,4,0,0,1,.36,2.79c-.16.85-.16,1.5-.33,2.35a5.77,5.77,0,0,1-.16.72c-.32.74-1,1-1.39.58a1.87,1.87,0,0,1-.34-1.15"/><path id="path10868" class="cls-68" d="M116.47,110c.26.06.32-.25.19-.32s-.51,0-.54.19.17.09.35.13"/><path id="path10870" class="cls-68" d="M116.8,108.51c.16.07.12.37,0,.39l-.14,0-.31,0-.12,0-.12,0c-.11-.17.16-.34.24-.38a.41.41,0,0,1,.41,0"/><path id="path10872" class="cls-68" d="M116.87,109.24c-.09.14-.18-.06-.49.07l-.12,0-.12-.06c-.11-.17.16-.33.24-.37.38-.2.65.06.49.31"/><path id="path10874" class="cls-68" d="M116.8,109.6c-.11.08-.15,0-.4.05s-.33-.33.14-.37h.19a.18.18,0,0,1,.07.33"/><path id="path10876" class="cls-67" d="M177.65,115a2.72,2.72,0,0,1,0,.57c0,.18-.14.08-.25,0a2.1,2.1,0,0,1-.56-.37c-.16-.13-.35-.27-.54-.22s-.43.42-.56.63l-.1.25a.52.52,0,0,0,.29.42c.22.15.48.26.71.41a4.4,4.4,0,0,1,.41.31c.12.09.26.19.37.29l.3.32a1,1,0,0,0,.82.21.64.64,0,0,0,.4-.34,1.47,1.47,0,0,0,0-.88,4.57,4.57,0,0,1,0-1.38l-1.26-.26"/><path id="path10878" class="cls-48" d="M178.92,116.55a1.13,1.13,0,0,1-1.11.4c-.45-.23-1.26-1-.83-1.38.07-.07.12-.06.24,0a2.42,2.42,0,0,1-.36-.27c-.16-.13-.35-.27-.54-.22s-.43.42-.56.63l-.1.25a.52.52,0,0,0,.29.42c.22.15.48.26.71.41a4.4,4.4,0,0,1,.41.31c.12.09.26.19.37.29l.3.32a1,1,0,0,0,.82.21.64.64,0,0,0,.4-.34,1.47,1.47,0,0,0,0-.88l0-.12"/><path id="path10880" class="cls-68" d="M178,94c0-1.57.85-2.65,1.48-2.58s1,1.16.64,3.62a13,13,0,0,1-.73,3.22c-.29.63-.81.7-1,.52-.6-.6-.45-1.68-.41-4.78"/><path id="path10882" class="cls-67" d="M177.67,115.62c0,.38.14.16.27.28a.57.57,0,0,0,.84,0,1,1,0,0,0,.11-.52,6.51,6.51,0,0,1,.38-1.45,4.39,4.39,0,0,0,.11-1.84,12.81,12.81,0,0,0-.42-1.81,1.9,1.9,0,0,1-.1-.46l0-.3a6.52,6.52,0,0,0-.22-1,1.32,1.32,0,0,0-.16-.61.83.83,0,0,0-1-.13,1.84,1.84,0,0,0-.64.63,1.87,1.87,0,0,0-.13.88,7.28,7.28,0,0,0,.08,1c.1.82.33,1.62.51,2.43q.1.48.18,1a9.08,9.08,0,0,1,.19,1.85"/><path id="path10884" class="cls-3" d="M179.34,94.92a6.68,6.68,0,0,0,.16-2c0-.52,0-1.31-.6-1.54a1.27,1.27,0,0,0-1.08.2l-.55.32c-.51.27-1,.57-1.5.88l-1.5.87a4.22,4.22,0,0,0-.46.38l-.29.35a1.54,1.54,0,0,0-.25.32,4.92,4.92,0,0,0-.38.85,2.48,2.48,0,0,0,.2,1.85,3.18,3.18,0,0,1,.23.4,2.38,2.38,0,0,1,.17.47,5.08,5.08,0,0,1,.17,1,7.62,7.62,0,0,1,0,1.72l0,.29.3.14c.46,0,.69.87,1.13.72.75-.26,1.63-.11,2.32-.52.49-.3,1.32.24,1.16-.47a1.63,1.63,0,0,1,0-.76,1.25,1.25,0,0,0,0-.74l-.15-.31a1.56,1.56,0,0,1-.09-.83,7.38,7.38,0,0,1,.16-.92c.09-.35.19-.7.3-1s.33-.87.45-1.32l.07-.23"/><path id="path10886" class="cls-49" d="M174.16,109.53V110c0,.17,0,.34,0,.51a2.83,2.83,0,0,0,0,.65,20.86,20.86,0,0,1,.08,2.09c0,1,.37,2,.49,3a6.12,6.12,0,0,0,.21,1.36.84.84,0,0,0,.32.46c.14.08.44.14.57,0l.11-.21c0-.16.05-.32.07-.48.12-1,.43-2.07.59-3.12a7.86,7.86,0,0,0,0-1.68,5.59,5.59,0,0,0-.34-1.72c-.07-.19-.19-.41-.39-.46l-1.74-1"/><path id="path10888" class="cls-62" d="M179.09,100.44l.15.39a10.3,10.3,0,0,1,.27,1.57c.11.76.18,1.53.24,2.3s.15,1.71.23,2.56c.06.68.49,1.71,0,2.29a1.8,1.8,0,0,1-1,.48,4.59,4.59,0,0,0-2.1.6c-.32.25-.56.63-.95.7a3.37,3.37,0,0,1-.55,0,.8.8,0,0,0-.41.16,2.35,2.35,0,0,1-1,.34c-1.61.15-1.47-1.56-1.42-2.8.09-2.41.14-2.29.93-6.86.06-.36,0-.67.37-.83a3,3,0,0,1,1.16-.13,5.33,5.33,0,0,0,1.94-.35,3,3,0,0,0,1.61-1.48c.18.34.39.7.56,1.06"/><path id="path10890" class="cls-68" d="M173.12,96.08c0-1.57.86-2.65,1.49-2.58s1,1.16.63,3.62a13,13,0,0,1-.73,3.22c-.29.63-.81.71-1,.53s-.48.46-.54.08c-.12-.73.11-2.83.13-4.87"/><path id="path10892" class="cls-68" d="M177.88,90.6l0,.62a1.49,1.49,0,0,0,.08.52c.08.19.18.28.16.49a.94.94,0,0,1-.28.59,2,2,0,0,1-1.1.62,1.28,1.28,0,0,1-.86-.1c-.36-.2-.26-.48-.23-.84a1.54,1.54,0,0,0-.32-1.22l2.52-.68"/><path id="path10894" class="cls-68" d="M174.63,87.64a1.14,1.14,0,0,0-.28.57c-.07.4.07.81,0,1.22a3.4,3.4,0,0,0,.25,1.15.86.86,0,0,0,.34.57c.12.06.27.06.39.13l.19.16c.19.16.55.08.78,0a2.69,2.69,0,0,0,.68-.16,2.44,2.44,0,0,0,.9-.93c2-3-2-4.32-3.28-2.76"/><path id="path10896" class="cls-66" d="M178.3,87.25l-.13-.25a2.16,2.16,0,0,0-1-.72,2.74,2.74,0,0,0-1.5-.08l-.3.09a1.6,1.6,0,0,0-.47.35,2.19,2.19,0,0,0-.49.47,1.17,1.17,0,0,0-.19.63l.1.26.13.17a2.76,2.76,0,0,1,.3.68l.16.25c.16.12.39,0,.58.07l.25.23.11.32a3,3,0,0,1,.07.5.88.88,0,0,0,.19.5,1.26,1.26,0,0,0,1.17.22,2.85,2.85,0,0,0,.39-.11A2.38,2.38,0,0,0,178.76,89c0-.14,0-.29,0-.44a2.42,2.42,0,0,0-.05-.47,2.17,2.17,0,0,0-.31-.63l-.12-.23"/><path id="path10898" class="cls-68" d="M175.72,89c.37,0,.43.46.15.8l-.32.25c-.7.51-.82-.11-.59-.28.51-.41.3-.78.76-.77"/><path id="path10900" class="cls-49" d="M175.56,89.71s.48-.25.21-.44l-.19.09v.14l0,.06-.16.2.18-.05"/><path id="path10902" class="cls-49" d="M176.1,118.4a3.76,3.76,0,0,1,0-1.16l-1.25-.48c0,.19,0,.38,0,.56,0,.38-.42.32-.71.26s-.47-.11-.7-.16v1.06h-.91c.4.47,1.19.43,1.73.65s.93.62,1.47.49a.63.63,0,0,0,.4-.33,1.43,1.43,0,0,0,0-.89"/><path id="path10904" class="cls-48" d="M175.75,118.67c-.79.34-2.38-.11-2.29-1.24l-.37-.09-.18,0h-.17a.61.61,0,0,0-.39.38.8.8,0,0,0,0,.55v0l.17.23.19.16a1.85,1.85,0,0,0,.48.21,9.3,9.3,0,0,1,1,.26c.46.19.93.62,1.47.49a.63.63,0,0,0,.4-.33,1.43,1.43,0,0,0,0-.89l0-.27c-.09.25-.14.54-.31.54"/><path id="path10906" class="cls-68" d="M171.54,104.16a1.06,1.06,0,0,0,0,.5.37.37,0,0,0,.39.24l.2-.15a9.88,9.88,0,0,0,2.52-5l0-.27-.19-.09c-.38-.07-.75-.36-1.06-.07a6.52,6.52,0,0,0-.67,1.61,17.82,17.82,0,0,0-1.15,3.21"/><path id="path10908" class="cls-68" d="M171.2,104.44l-.28.21a1.91,1.91,0,0,0-.59.93l0,.22.18-.08h0l0,0c.07.13,0,.32-.09.45s-.11.34-.17.51l0,.13.06.1.06,0,.06.13,0,.3c.07.19.18,0,.27-.06s.12.15.22.16l.13-.15a1,1,0,0,1,.23-.48l0,0,0,.06.2,0,.15-.14a14.29,14.29,0,0,0,.42-1.59,2,2,0,0,1,.1-.42,1.4,1.4,0,0,1,.19-.41c.09-.13.19-.25.27-.38a.77.77,0,0,0,0-.5l-.06-.15-.11-.07a1,1,0,0,0-.45-.08.55.55,0,0,0-.4.19l-.15.33a1.75,1.75,0,0,1-.18.48l-.24.24"/><path id="path10910" class="cls-65" d="M176.76,91.55c-.07.27-.18.54-.27.81a9.4,9.4,0,0,0-.44,2.4,2.05,2.05,0,0,0,.07.74,1.42,1.42,0,0,0,1.12.86,2.83,2.83,0,0,0,1.46-.22,1.45,1.45,0,0,0,.73-.47,1.67,1.67,0,0,0,.2-.8,20,20,0,0,0-.22-4.89,3.12,3.12,0,0,0-.09-.44,3.25,3.25,0,0,0-.34-.67,1.44,1.44,0,0,0-.49-.57,1.27,1.27,0,0,0-.94,0,1.8,1.8,0,0,0-.7.36c-.27.26-.16.45-.1.78a5,5,0,0,1,0,2.11"/><path id="path10912" class="cls-63" d="M178.83,88.64a1,1,0,0,0-.34-.34,1.27,1.27,0,0,0-.94,0,1.8,1.8,0,0,0-.7.36c-.27.26-.16.45-.1.78h0a1.78,1.78,0,0,1,2.08-.81"/><path id="path10914" class="cls-48" d="M95.61,73.37c1.08.53,2.1,1.17,3.12,1.8a6.19,6.19,0,0,1,.84.46,1.61,1.61,0,0,1,.52.86c0,.39-.74.68-1,.77a2.65,2.65,0,0,1-1.25.09,1.53,1.53,0,0,1-1-.59A2.29,2.29,0,0,0,96,76c-.33-.12-.74-.07-1-.31a1.09,1.09,0,0,1-.24-.48c-.08-.33-.07-.68-.15-1a2.32,2.32,0,0,1-.15-.74.58.58,0,0,1,.43-.45.92.92,0,0,1,.67.08l0,.25"/><path id="path10916" class="cls-63" d="M88,55.62c-.49-1.13-.94-2.61-1.58-4.46a4.87,4.87,0,0,1-.27-1.56,3,3,0,0,1,.41-1.47.88.88,0,0,1,.51-.51.81.81,0,0,1,.62.22,5.55,5.55,0,0,1,1.9,3.41,36.92,36.92,0,0,1,.26,3.8c0,.22-.08,2.2-.82,1.86a2.51,2.51,0,0,1-1-1.29"/><path id="path10918" class="cls-63" d="M88.19,54.49c.25-.2,1.18-.6,1.34-.36s.74,1.42,1.26,2.14a13.26,13.26,0,0,0-1.88,1.62,5.49,5.49,0,0,1-1.47-2.63c0-.33.41-.51.75-.77"/><path id="path10920" class="cls-48" d="M91,75.68a33,33,0,0,1,2.6,2.42,7,7,0,0,1,.68.76,1.24,1.24,0,0,1,.33.82c0,.37-.86.48-1.17.5A2.49,2.49,0,0,1,92.22,80a1.51,1.51,0,0,1-.8-.77,2.3,2.3,0,0,0-.65-.9c-.3-.19-.7-.22-.89-.52a.9.9,0,0,1-.12-.51c0-.34.08-.67.08-1a2.36,2.36,0,0,1,0-.75.57.57,0,0,1,.52-.34.86.86,0,0,1,.62.23v.25"/><path id="path10922" class="cls-49" d="M81.49,57.61h0c0,.43.09.85.1,1.28,0-.43,0-.86-.11-1.29"/><path id="path10924" class="cls-49" d="M81.6,58.9c0,.26,0,.52,0,.78h0c0-.25,0-.51,0-.77"/><path id="path10926" class="cls-65" d="M96.53,63.93c.62.41,1.32,3.12-1.09,3.22A7.62,7.62,0,0,1,92,66c-1.54-.76-3.19-1.26-4.75-2a6.88,6.88,0,0,1-1.36-.79,3.93,3.93,0,0,1-1.42-3.39,1.3,1.3,0,0,1,.14-.52c.41-.75,3-.5,3.66-.19,2.26,1.12,7.65,4.41,8.3,4.83"/><path id="path10928" class="cls-65" d="M97.26,65.86a18.94,18.94,0,0,1-.19,2,20.31,20.31,0,0,0-.26,2.2c0,.8,0,1.6,0,2.39a6.17,6.17,0,0,1-.13,1.49,1,1,0,0,1-.34.61,2,2,0,0,1-.82.27,1.3,1.3,0,0,1-.59,0c-.63-.2-.66-1.09-.78-1.63a13.07,13.07,0,0,1-.27-1.52c-.13-1-.18-2-.24-3,0-.67-.07-1.34,0-2a4,4,0,0,1,.33-1.79,2.22,2.22,0,0,1,1.49-1,1.44,1.44,0,0,1,1.61.72,2.28,2.28,0,0,1,.24,1.18v.21"/><path id="path10930" class="cls-66" d="M92.41,66.26c.57.46,1.06,3.32-1.23,3.25A6.91,6.91,0,0,1,88,68c-3.28-2.07-7.37-2.79-6.74-6.89.06-.38.16-2,.45-2.16s1.39.29,1.65.33c2.56.43,2.89.44,3.31.73.07,1.91.38,2.25,1.43,2.87.48.3,3.94,3,4.36,3.34"/><path id="path10932" class="cls-66" d="M92.91,68.16c-.08.66-.19,1.31-.33,2s-.32,1.45-.41,2.18-.09,1.59-.16,2.39a6.23,6.23,0,0,1-.22,1.48,1,1,0,0,1-.39.58,2.18,2.18,0,0,1-.84.22A1.45,1.45,0,0,1,90,76.9c-.61-.25-.58-1.13-.67-1.68s-.14-1-.17-1.54c-.06-1,0-2,0-3,0-.67,0-1.34.09-2a4.21,4.21,0,0,1,.45-1.76,2.25,2.25,0,0,1,1.56-.95,1.44,1.44,0,0,1,1.56.83A2.21,2.21,0,0,1,92.93,68l0,.21"/><path id="path10934" class="cls-59" d="M81.49,49.36a17,17,0,0,1,3.75-1.65c2.07-.64,2.36.11,3,1.76a13.87,13.87,0,0,1,.15,5.71,22.82,22.82,0,0,0-.25,2.61,6.13,6.13,0,0,0,.1,1,.82.82,0,0,1,0,.41c-.07.17-.32.34-.45.46a4.13,4.13,0,0,1-2.29.88A9.28,9.28,0,0,1,82,60a1.18,1.18,0,0,1-.63-.36,1.34,1.34,0,0,1-.2-.6A17.51,17.51,0,0,1,81,57c0-.31,0-.62,0-.93a10.14,10.14,0,0,0-.23-1.34c-.13-.61-.27-1.22-.41-1.83-.07-.3-.14-.6-.22-.91a2.35,2.35,0,0,1-.13-.64,2.87,2.87,0,0,1,1.53-2"/><path id="path10936" class="cls-63" d="M84.19,54c.45,2.16.89,4.38,3,5.46a5.3,5.3,0,0,1,.47.28,4.16,4.16,0,0,1-2.19.81A9.28,9.28,0,0,1,82,60a1.18,1.18,0,0,1-.63-.36,1.34,1.34,0,0,1-.2-.6A17.51,17.51,0,0,1,81,57c0-.31,0-.62,0-.93a10.14,10.14,0,0,0-.23-1.34c-.13-.61-.27-1.22-.41-1.83-.07-.3-.14-.6-.22-.91a2.35,2.35,0,0,1-.13-.64A2.2,2.2,0,0,1,80,51c.35.15.71.28,1.06.42,1.27.5,2.86,1.2,3.11,2.54"/><path id="path10938" class="cls-62" d="M80.34,58.36c-.36-1.18-.66-2.7-1.09-4.61a4.92,4.92,0,0,1-.11-1.58,3,3,0,0,1,.56-1.41.85.85,0,0,1,.57-.45.81.81,0,0,1,.59.28,5.57,5.57,0,0,1,1.52,3.59c.11,1.2.37,2.38.47,3.59a4.1,4.1,0,0,1,0,.7c-.15,1.1-.94,1.69-1.64,1.28a2.62,2.62,0,0,1-.89-1.39"/><path id="path10940" class="cls-66" d="M85.29,58.76l.69.6c.31-.49.32-.53.61-1a33.62,33.62,0,0,0-.81-8.45l-.68.48a31.68,31.68,0,0,1,.19,8.4"/><path id="path10942" class="cls-61" d="M86.07,49.82v0l-.08.26a2.62,2.62,0,0,1-.22.48l-.2.21-.32,0c-.1-.06-.3-.15-.28-.29l.1-.35a1.29,1.29,0,0,1,.4-.66c.24-.16.42.08.54.25l.06.1"/><path id="path10944" class="cls-67" d="M83,48.64c0-.59.42-.74.3-1.86,0-.38-.45-.92.61-.9a3.2,3.2,0,0,1,.86.17c1,.33,1.13.57,1.19,2.62-.85-.08-1.59-1-2.45-.46a1.62,1.62,0,0,0-.5.64v-.21"/><path id="path10946" class="cls-77" d="M83.53,48.21c.86-.55,1.6.38,2.45.46v.09c0,1.46-2.73,1.5-3,.09a1.62,1.62,0,0,1,.5-.64"/><path id="path10948" class="cls-78" d="M85.48,49.64c.06.18.29.24.44.34l.27.11.17-.21a4.53,4.53,0,0,0,.34-1.67.63.63,0,0,0-.16-.51.54.54,0,0,0-.51-.07c-.16.08-.2.41-.14.56a1.3,1.3,0,0,1-.41,1.45"/><path id="path10950" class="cls-78" d="M85.51,49.65a4.12,4.12,0,0,1-.59.71l-.26.12a4.21,4.21,0,0,1-1.85-1.68c-.08-.21.08-.48.2-.64l.22-.28a4,4,0,0,0,.32.72,2.76,2.76,0,0,0,2,1"/><path id="path10952" class="cls-68" d="M87,43.52a2,2,0,0,1,.34,1.14,1.78,1.78,0,0,1-.1.52,1.64,1.64,0,0,0-.15.49,1.82,1.82,0,0,0,.21.62.78.78,0,0,1,0,.54l-.16.27c-.27.42,0,1-.49,1.35a.67.67,0,0,1-.39.1,5.44,5.44,0,0,1-1.26-.34,3.05,3.05,0,0,1-.91-.81,3.75,3.75,0,0,1-.63-.75l0-.13-.16-.34-.21-.12c-.1-.07-.15.19-.19.07a5.47,5.47,0,0,1-.31-1.59,1.86,1.86,0,0,1,1.29-2,2.71,2.71,0,0,1,1.8,0A2.58,2.58,0,0,1,87,43.52"/><path id="path10954" class="cls-64" d="M82.61,44.54a1.86,1.86,0,0,1,1.29-2A2.61,2.61,0,0,1,85,42.33c.55,1.09-.24,2.48.35,3.61.2.26.6.46.6.79.13.6-.46,1.13-.13,1.72a5.39,5.39,0,0,1-.74-.24,3.05,3.05,0,0,1-.91-.81,3.75,3.75,0,0,1-.63-.75l0-.13-.16-.34-.21-.12c-.1-.07-.15.19-.19.07a5.47,5.47,0,0,1-.31-1.59"/><path id="path10956" class="cls-66" d="M82.26,44.46a1.58,1.58,0,0,1,1-1.72,1.72,1.72,0,0,1,1.61-.7,3.58,3.58,0,0,1,1.74.56l.06,0a2.29,2.29,0,0,1,.66.62c.45.69-.16,1.25-.89,1.13a5.23,5.23,0,0,1-1-.33,1,1,0,0,0-.7,0,.72.72,0,0,0-.38.58,8.2,8.2,0,0,0,.12,1.56l0,.23c-.1.18-.3.08-.41,0l-.19-.24-.26-.17a.28.28,0,0,0-.31.25,1,1,0,0,0,0,.41l0,.27a3.15,3.15,0,0,1-1-2.41"/><path id="path10958" class="cls-65" d="M85.14,44a.71.71,0,0,0-.41,0,.72.72,0,0,0-.38.58,8.2,8.2,0,0,0,.12,1.56l0,.23c-.1.18-.3.08-.41,0l-.19-.24-.26-.17a.28.28,0,0,0-.31.25,1,1,0,0,0,0,.41l0,.27a3.15,3.15,0,0,1-1-2.41,1.58,1.58,0,0,1,1-1.72,2.73,2.73,0,0,1,1,.42,5.62,5.62,0,0,1,1,.82"/><path id="path10960" class="cls-68" d="M83.22,46.58c.2.28.52.39.71.25a.55.55,0,0,0,0-.76c-.2-.28-.53-.39-.72-.25s-.19.48,0,.76"/><path id="path10962" class="cls-49" d="M83.4,46.12v.25l.27.19,0,.11.1-.07-.06-.12-.08-.11v-.15a.16.16,0,0,0-.29-.1"/><path id="path10964" class="cls-48" d="M97.47,62.53v.7L89.4,67.92v-.7l8.07-4.69"/><path id="path10966" class="cls-65" d="M89.4,67.22v.7l-5-2.9v-.69l5,2.89"/><path id="path10968" class="cls-66" d="M97.47,62.53,89.4,67.22l-5-2.89,8.08-4.69,5,2.89"/><path id="path10970" class="cls-79" d="M91.17,62.08,89,63.35l-1.2-.69L90,61.39l1.19.69"/><path id="path10972" class="cls-79" d="M86.59,65.1,94,60.82l2.64,1.52-7.37,4.29L86.59,65.1"/><path id="path10974" class="cls-64" d="M91.64,60.71a3.37,3.37,0,0,0,.41.58c.1.11,0-.33.17-.32s.47.15.64,0a2.28,2.28,0,0,0,.37-.39.82.82,0,0,0,.15-.5l-.06-.2-.1-.1-.59-.53-.14-.1-.22-.06a.94.94,0,0,0-.73.32.9.9,0,0,0-.22.36l.09.34a4.24,4.24,0,0,0,.23.59"/><path id="path10976" class="cls-64" d="M91.38,60.18c0,.29,0,.58,0,.87v.33l.09.25.08.22a1.15,1.15,0,0,0,.52.48l.26.13.16-.06v-.09l-.08-.24-.23-.21a.52.52,0,0,1-.07-.5c.06-.17.16-.32.23-.49a.61.61,0,0,0,0-.51l-.11-.16a1.1,1.1,0,0,0-.34-.27.56.56,0,0,0-.36,0c-.14,0-.14.16-.15.29"/><path id="path10978" class="cls-64" d="M92.72,60.54c-.16-.08-.49.28-.52.37s.17,0,.46.5a1.19,1.19,0,0,1,.21.42l.15.3.23-.08c0,.16.26,0,.31-.13.09-.32.33,0,.37-.58l.09,0c.37-.3-.4-1.19-.73-1.53-.59-.61-.73.35-.57.69"/><path id="path10980" class="cls-63" d="M88.91,57.84c.56-.58.89-1.63,1.56-2.1a27.3,27.3,0,0,1,2,3.23c.3.67-1,1.29-1.29,1a26.3,26.3,0,0,1-2.29-2.08"/><path id="path10982" class="cls-68" d="M87.77,63.2a4.13,4.13,0,0,1,.63.47c.11.12-.37,0-.37.19s.15.52,0,.71a2.05,2.05,0,0,1-.44.39.84.84,0,0,1-.57.15L86.79,65l-.11-.11-.56-.69L86,64.08,86,63.83a1,1,0,0,1,.38-.79.89.89,0,0,1,.41-.23c.13,0,.26.06.37.11a4.84,4.84,0,0,1,.66.28"/><path id="path10984" class="cls-68" d="M87.18,62.89h1a1.11,1.11,0,0,1,.37,0l.27.11.25.09a1.36,1.36,0,0,1,.52.59l.12.3-.07.18h-.1l-.26-.11L89,63.81a.56.56,0,0,0-.56-.09c-.19.05-.36.16-.55.23a.69.69,0,0,1-.58,0l-.16-.12a1.11,1.11,0,0,1-.29-.39.58.58,0,0,1,0-.41c0-.15.18-.15.32-.15"/><path id="path10986" class="cls-62" d="M86.17,63.84A1.51,1.51,0,0,1,85,63.42c-.75-.56-4.43-3.61-4.68-5-.06-.35.35-.55.66-.83a2.25,2.25,0,0,1,1.73.3c.35.42,3.06,3.16,4,4.53A1.19,1.19,0,0,1,87,63c0,.35-.5.78-.81.85"/><path id="path10988" class="cls-68" d="M87.53,64.4c-.08-.18.33-.54.44-.57.26-.07,0,.19.53.54a1.77,1.77,0,0,0,.47.25c.12,0,.28,0,.33.17l-.11.25c.18,0,0,.3-.16.34-.35.1,0,.37-.65.39l0,.11c-.36.39-1.31-.5-1.68-.88-.65-.68.42-.8.79-.6"/><path id="path10990" class="cls-66" d="M98.64,57.7l.6.35-.16,0-.61-.35.17,0"/><g id="g10992"><g class="cls-80"><g id="g10994"><path id="path11000" class="cls-66" d="M99.08,58.07l-.61-.35.07,0,.61.35-.07,0"/><path id="path11002" class="cls-66" d="M99.15,58l-.61-.35h.09l.61.35h-.09"/><path id="path11004" class="cls-66" d="M99.24,58.05l-.61-.35h0l.6.35h0"/></g></g></g><path id="path11006" class="cls-66" d="M91.46,62.5l-.6-.36,7.61-4.42.61.35L91.46,62.5"/><path id="path11008" class="cls-66" d="M91.23,62.89l-.6-.35a.52.52,0,0,1,.23-.4l.6.36a.52.52,0,0,0-.23.39"/><g id="g11010"><g class="cls-81"><g id="g11012"><path id="path11018" class="cls-66" d="M91.35,62.59l-.6-.35.11-.1.6.36-.11.09"/><path id="path11020" class="cls-66" d="M91.27,62.72l-.6-.35.08-.13.6.35-.08.13"/></g></g></g><path id="path11022" class="cls-48" d="M99.08,58.07a.14.14,0,0,1,.23.13l-1.84,4.33L89.4,67.22l1.8-4.34a.61.61,0,0,1,.26-.38l7.62-4.43"/><path id="path11024" class="cls-65" d="M89.4,67.22l-.6-.35,1.87-4.5.6.35-1.87,4.5"/><path id="path11026" class="cls-65" d="M108.46,60.4l.07,31.45,35.91-20.73-.06-31.46L108.46,60.4"/><path id="path11028" class="cls-82" d="M166,73.84l1.14-.67-.06,16-1.15.67.07-16"/><path id="path11030" class="cls-66" d="M139,58.22l1.15-.67,27,15.62-1.14.67L139,58.22"/><path id="path11032" class="cls-65" d="M166,73.84l-.07,16-27-15.63.07-16,27,15.62"/><path id="path11034" class="cls-83" d="M123.55,62.8l-.92-.53,20-11.55.92.53-20,11.55"/><path id="path11036" class="cls-84" d="M111.08,91.52l-.91-.54-.09-24.48L111,67l.08,24.48"/><path id="path11038" class="cls-83" d="M111,67l-.92-.54L121.31,60l.92.53L111,67"/><path id="path11040" class="cls-85" d="M122.23,60.55l1.32,2.25,20-11.55.08,21.48L111.08,91.52,111,67l11.23-6.49"/><path id="path11042" class="cls-86" d="M114.15,92l-2.45-1.42-.07-19.23,2.45,1.42L114.15,92"/><path id="path11044" class="cls-87" d="M114.08,72.72l-2.45-1.42,31.12-18,2.44,1.42-31.11,18"/><path id="path11046" class="cls-88" d="M145.19,54.76,145.26,74,114.15,92l-.07-19.23,31.11-18"/><path id="path11048" class="cls-85" d="M111.07,88.37v.93h0v.39h-.89v.57l3.94,2.28V90.19l-3-1.82"/><path id="path11050" class="cls-84" d="M114.11,93.26l-.92-.53-.07-19.62.92.53.07,19.62"/><path id="path11052" class="cls-83" d="M114,73.64l-.92-.53,32.55-18.79.91.53L114,73.64"/><path id="path11054" class="cls-85" d="M146.58,54.85l.07,19.62L114.11,93.26,114,73.64l32.54-18.79"/><path id="path11056" class="cls-84" d="M114.11,93.26,110.17,91V88.54l3.94,2.37v2.35"/><path id="path11058" class="cls-83" d="M128.73,65.77l-.92-.53,20-11.55.92.53-20,11.55"/><path id="path11060" class="cls-84" d="M116.26,94.49l-.92-.53-.08-24.48.91.53.09,24.48"/><path id="path11062" class="cls-83" d="M116.17,70l-.91-.53L126.49,63l.92.54L116.17,70"/><path id="path11064" class="cls-85" d="M127.41,63.53l1.32,2.24,20-11.55.07,21.48L116.26,94.49,116.17,70l11.24-6.48"/><path id="path11066" class="cls-86" d="M119.33,94.92l-2.45-1.42-.07-19.23,2.45,1.42.07,19.23"/><path id="path11068" class="cls-87" d="M119.26,75.69l-2.45-1.42,31.11-18,2.45,1.42-31.11,18"/><path id="path11070" class="cls-88" d="M150.37,57.73,150.44,77l-31.11,18-.07-19.23,31.11-18"/><path id="path11072" class="cls-85" d="M116.25,91.34v.94h0v.38h-.9v.58l4,2.27V93.16l-3-1.82"/><path id="path11074" class="cls-84" d="M119.29,96.23l-.92-.53-.07-19.62.91.54.08,19.61"/><path id="path11076" class="cls-83" d="M119.21,76.62l-.91-.54,32.54-18.79.92.54L119.21,76.62"/><path id="path11078" class="cls-89" d="M151.76,57.83l.07,19.61L119.29,96.23l-.08-19.61,32.55-18.79"/><path id="path11080" class="cls-84" d="M119.29,96.23l-4-2.27V91.51l4,2.37v2.35"/><path id="path11082" class="cls-83" d="M134.47,39.48l-.92-.54,20-11.55.92.54-20,11.55"/><path id="path11084" class="cls-84" d="M122,73.82l-.92-.53L121,43.18l.91.53L122,73.82"/><path id="path11086" class="cls-83" d="M121.91,43.71l-.91-.53,11.23-6.49.92.54-11.24,6.48"/><path id="path11088" class="cls-85" d="M133.15,37.23l1.32,2.25,20-11.55.08,27.1L122,73.82l-.09-30.11,11.24-6.48"/><path id="path11090" class="cls-86" d="M125.07,74.26l-2.45-1.43L122.55,48,125,49.39l.07,24.87"/><path id="path11092" class="cls-87" d="M125,49.39,122.55,48l31.11-18,2.45,1.43L125,49.39"/><path id="path11094" class="cls-88" d="M156.11,31.44l.07,24.86-31.11,18L125,49.39l31.11-17.95"/><path id="path11096" class="cls-85" d="M122,70.67v.94h0V72h-.9v.57l4,2.28V72.5l-3-1.83"/><path id="path11098" class="cls-84" d="M125,75.57l-.92-.54L124,49.78l.92.54L125,75.57"/><path id="path11100" class="cls-83" d="M125,50.32l-.92-.54L156.58,31l.92.53L125,50.32"/><path id="path11102" class="cls-85" d="M157.5,31.53l.07,25.25L125,75.57,125,50.32,157.5,31.53"/><path id="path11104" class="cls-84" d="M125,75.57l-4-2.28V70.85l4,2.36v2.36"/><path id="path11106" class="cls-83" d="M140,72.44l-.92-.54,20-11.55.91.53L140,72.44"/><path id="path11108" class="cls-84" d="M127.53,101.15l-.91-.53-.09-24.48.92.53.08,24.48"/><path id="path11110" class="cls-83" d="M127.45,76.67l-.92-.53,11.24-6.49.91.54-11.23,6.48"/><path id="path11112" class="cls-85" d="M138.68,70.19,140,72.44l20-11.56.08,21.48-32.55,18.79-.08-24.48,11.23-6.48"/><path id="path11114" class="cls-86" d="M130.6,101.58l-2.44-1.42-.07-19.23,2.44,1.42.07,19.23"/><path id="path11116" class="cls-87" d="M130.53,82.35l-2.44-1.42L159.2,63l2.44,1.43L130.53,82.35"/><path id="path11118" class="cls-88" d="M161.64,64.4l.07,19.23-31.11,18-.07-19.23L161.64,64.4"/><path id="path11120" class="cls-85" d="M127.53,98v.94h0v.38h-.89v.58l3.94,2.28V99.82l-3-1.82"/><path id="path11122" class="cls-84" d="M130.56,102.89l-.92-.53-.07-19.62.92.54.07,19.61"/><path id="path11124" class="cls-83" d="M130.49,83.28l-.92-.54L162.12,64l.92.54L130.49,83.28"/><path id="path11126" class="cls-85" d="M163,64.49l.07,19.61-32.55,18.79-.07-19.61L163,64.49"/><path id="path11128" class="cls-84" d="M130.56,102.89l-3.94-2.27V98.17l3.95,2.37v2.35"/><path id="path11130" class="cls-82" d="M135.56,91.43l1.15-.67-.07,16-1.14.67.06-16"/><path id="path11132" class="cls-66" d="M108.53,75.81l1.14-.67,27,15.62-1.15.67-27-15.62"/><path id="path11134" class="cls-65" d="M135.56,91.43l-.06,16-27-15.63.07-16,27,15.62"/><path id="path11136" class="cls-90" d="M136,87.78l-1.08-.63.06,20.69,1.08.63L136,87.78"/><path id="path11138" class="cls-91" d="M167.27,69.73l-1.08-.63-31.3,18.05,1.08.63,31.3-18"/><path id="path11140" class="cls-50" d="M136,87.78l.06,20.69,31.3-18-.06-20.69-31.3,18"/><path id="path11142" class="cls-86" d="M155.93,78.54l-4,2.29,4.83,2.31V78l-.88.51"/><path id="path11144" class="cls-92" d="M149.35,82.34v5.12l7.46-4.32L152,80.83l-2.63,1.51"/><path id="path11146" class="cls-48" d="M155.93,78.54v4.18l-6.58,3.8V82.34l6.58-3.8"/><g id="g11274"><polyline class="cls-1" points="34.85 91.39 34.85 89.75 36.27 88.94 36.27 90.57 34.85 91.39"/><g class="cls-93"><g id="g11276"><path id="path11290" class="cls-1" d="M34.85,91.39V89.76l1.42-.82v1.63l-1.42.82"/></g></g></g></g></g></svg>