<svg width="469" height="450" viewBox="0 0 469 450" fill="none" xmlns="http://www.w3.org/2000/svg">
<path d="M228 117.477L227.53 283.917L151.68 327.637L152.15 161.197L228 117.477Z" fill="#F18A62"/>
<path d="M152.15 161.197L151.68 327.637L67.26 278.897L67.73 112.457L152.15 161.197Z" fill="#F18A62"/>
<path d="M228 117.477L152.15 161.197L67.73 112.457L143.58 68.7267L228 117.477Z" fill="#F9B398"/>
<path d="M228 195.167L152.15 238.857V226.487L228 182.797V195.167Z" fill="#E3EBEC"/>
<path d="M67.25 189.847L152.14 238.857V226.487L67.72 177.747L67.25 189.847Z" fill="#94988D"/>
<path d="M227.1 261.477L151.25 305.167V282.597L227.1 238.907V261.477Z" fill="#E3EBEC"/>
<path d="M66.3601 256.157L151.25 305.167V282.597L66.8301 233.857L66.3601 256.157Z" fill="#94988D"/>
<path d="M132.56 201.467L81.8999 172.217C79.9799 171.107 78.3999 168.377 78.3999 166.157C78.3999 163.937 79.9699 163.027 81.8999 164.137L132.56 193.387C134.48 194.497 136.06 197.227 136.06 199.447C136.06 201.667 134.49 202.577 132.56 201.467Z" fill="#A75447"/>
<path d="M141.01 242.567L74.3501 204.077V202.547L141.01 241.037V242.567Z" fill="#E3EBEC"/>
<path d="M156.74 248.317L223.4 209.827V208.297L156.74 246.787V248.317Z" fill="#E3EBEC"/>
<path d="M156.74 253.857L223.4 215.367V213.837L156.74 252.327V253.857Z" fill="#E3EBEC"/>
<path d="M156.74 258.907L223.4 220.417V218.887L156.74 257.377V258.907Z" fill="#E3EBEC"/>
<path d="M156.74 263.957L223.4 225.467V223.937L156.74 262.427V263.957Z" fill="#E3EBEC"/>
<path d="M156.74 269.017L223.4 230.527V228.997L156.74 267.487V269.017Z" fill="#E3EBEC"/>
<path d="M156.74 274.067L223.4 235.577V234.047L156.74 272.537V274.067Z" fill="#E3EBEC"/>
<path d="M141.01 248.317L74.3501 209.827V208.297L141.01 246.787V248.317Z" fill="#E3EBEC"/>
<path d="M141.01 254.057L74.3501 215.567V214.037L141.01 252.527V254.057Z" fill="#E3EBEC"/>
<path d="M141.01 259.787L74.3501 221.297V219.767L141.01 258.257V259.787Z" fill="#E3EBEC"/>
<path d="M141.01 265.517L74.3501 227.027V225.497L141.01 263.987V265.517Z" fill="#E3EBEC"/>
<path d="M211.71 169.257L178.19 188.607C173.79 191.147 170.19 189.067 170.19 183.987C170.19 178.907 173.79 172.677 178.19 170.137L211.71 150.787C216.11 148.247 219.71 150.327 219.71 155.407C219.71 160.487 216.11 166.717 211.71 169.257Z" fill="#E3EBEC"/>
<path d="M78.0901 137.967L81.1601 139.737L83.0901 149.977L85.0001 141.967L88.0701 143.737L89.1601 157.717L86.9701 156.457L86.2201 147.107L84.3501 154.937L81.8801 153.517L79.9401 143.487L79.2601 152.007L77.0701 150.747L78.0901 137.967Z" fill="#7F3B24"/>
<path d="M94.2199 154.987C94.6799 155.257 94.9199 155.127 94.9199 154.667C94.9199 153.447 94.7699 153.137 93.7099 152.517C92.5399 151.837 92.1099 151.667 92.1299 153.777L94.2199 154.987ZM93.5699 150.497C95.9899 151.897 97.1199 152.867 97.1199 156.077C97.1199 157.807 96.2999 158.027 94.7899 157.157L92.1199 155.617C92.1199 157.367 92.6899 157.797 93.8899 158.497C95.1699 159.237 95.7799 159.597 96.9699 160.077V161.797C95.7799 161.627 93.9799 160.587 92.6699 159.827C90.5399 158.597 89.8999 156.807 89.8999 153.247C89.9099 149.087 90.9099 148.957 93.5699 150.497Z" fill="#7F3B24"/>
<path d="M101.51 162.757C102.34 163.237 102.99 163.367 103.47 163.287V158.497C102.89 157.907 102.28 157.447 101.51 156.997C100.81 156.597 100.41 156.827 100.41 159.297C100.41 161.457 100.79 162.347 101.51 162.757ZM100.93 154.667C101.64 155.077 102.7 155.917 103.47 156.757V151.647L105.67 152.917V167.237L103.85 166.187L103.46 164.987C102.93 165.177 101.92 165.187 100.93 164.607C98.8599 163.417 98.1899 161.137 98.1899 158.117C98.1899 155.027 98.6099 153.327 100.93 154.667Z" fill="#7F3B24"/>
<path d="M107.05 158.347L109.26 159.627V169.307L107.05 168.027V158.347ZM106.97 155.247C106.97 154.977 107.1 154.867 107.35 155.007L109.01 155.967C109.24 156.107 109.36 156.377 109.36 156.627V158.247C109.36 158.517 109.23 158.587 109.01 158.457L107.35 157.497C107.13 157.367 106.97 157.117 106.97 156.857V155.247Z" fill="#7F3B24"/>
<path d="M113.31 161.877C114.14 162.347 115.79 163.367 117.18 164.677V166.267C117.18 166.267 115.67 165.287 114.26 164.477C113.24 163.887 112.76 163.677 112.76 166.537C112.76 169.027 113.12 169.587 114.26 170.247C115.72 171.087 117.29 171.827 117.29 171.827V173.427C116.06 173.437 114.62 172.497 113.31 171.757C111.75 170.847 110.55 169.217 110.55 165.217C110.55 161.217 111.7 160.947 113.31 161.877Z" fill="#7F3B24"/>
<path d="M118.42 164.917L120.63 166.197V175.877L118.42 174.607V164.917ZM118.35 161.807C118.35 161.537 118.47 161.427 118.73 161.577L120.39 162.537C120.63 162.677 120.75 162.947 120.75 163.197V164.817C120.75 165.087 120.62 165.167 120.39 165.037L118.73 164.077C118.51 163.947 118.35 163.697 118.35 163.437V161.807Z" fill="#7F3B24"/>
<path d="M122.05 167.007L123.83 168.037L124.26 169.317C124.98 169.137 125.64 168.927 126.92 169.657C128.87 170.787 129.43 172.657 129.43 174.507V180.957L127.22 179.687V173.197C127.22 172.237 126.85 171.677 126.29 171.357C125.4 170.847 124.92 170.827 124.26 171.027V177.977L122.05 176.707V167.007Z" fill="#7F3B24"/>
<path d="M134.91 178.487C135.37 178.757 135.61 178.627 135.61 178.167C135.61 176.947 135.46 176.637 134.4 176.017C133.23 175.337 132.8 175.167 132.82 177.277L134.91 178.487ZM134.27 173.987C136.7 175.387 137.83 176.357 137.83 179.567C137.83 181.297 137.01 181.517 135.49 180.647L132.82 179.107C132.82 180.857 133.39 181.287 134.59 181.987C135.87 182.727 136.48 183.087 137.67 183.567V185.287C136.48 185.117 134.68 184.077 133.37 183.317C131.24 182.087 130.6 180.287 130.6 176.737C130.61 172.577 131.61 172.457 134.27 173.987Z" fill="#7F3B24"/>
<path d="M139.06 178.847C139.06 177.347 139.61 176.557 141.24 177.497C142.85 178.427 145.07 179.767 145.72 180.577V182.187L141.92 179.987C141.35 179.657 141.28 179.817 141.28 180.277V180.717C141.28 181.327 141.56 181.507 141.92 181.717L143.91 182.867C145.51 183.787 146.14 185.247 146.14 186.657V187.647C146.14 189.637 145.1 189.577 144.09 188.997C142.5 188.077 140 186.547 139.41 185.767V184.177L143.37 186.467C143.52 186.557 143.92 186.767 143.92 186.177V185.727C143.92 185.317 143.81 185.037 143.37 184.777L141.41 183.647C139.92 182.787 139.06 181.567 139.06 179.687V178.847Z" fill="#7F3B24"/>
<path d="M215.02 60.0366V290.847C215.02 305.657 226.9 317.737 241.63 317.737C256.26 317.737 268.17 305.667 268.17 290.847V60.0366H215.02Z" fill="#ADDDE9"/>
<path d="M219.6 157.907V290.837C219.6 303.107 229.48 313.097 241.63 313.097C253.74 313.097 263.6 303.117 263.6 290.837V157.907H219.6Z" fill="#3E648F"/>
<path d="M257.47 148.967C265.88 154.087 265.59 162.237 256.83 167.177C248.06 172.117 234.14 171.977 225.72 166.857C217.31 161.747 217.6 153.597 226.36 148.647C235.14 143.717 249.07 143.857 257.47 148.967Z" fill="#4975A9"/>
<path d="M234.01 285.527C231.49 282.447 228.98 279.357 226.51 276.257H220.97C220.97 276.057 220.97 275.857 220.97 275.667V162.437C221.99 164.037 223.57 165.547 225.72 166.857C228.26 168.407 231.31 169.497 234.56 170.127V275.657C234.56 279.157 234.37 282.497 234.01 285.527Z" fill="#88A2BA"/>
<path d="M220.97 153.467V84.9666C225 86.9466 229.67 88.2566 234.56 88.8866V145.717C231.59 146.307 228.78 147.287 226.36 148.647C223.89 150.047 222.09 151.707 220.97 153.467ZM234.56 74.6066C229.67 73.9766 224.99 72.6666 220.97 70.6866C225 72.6666 229.67 73.9666 234.56 74.6066Z" fill="#CEEBF3"/>
<path d="M234.56 170.137C231.31 169.507 228.26 168.407 225.72 166.867C223.57 165.557 221.98 164.047 220.97 162.447V153.477C222.09 151.707 223.89 150.057 226.37 148.657C228.78 147.297 231.59 146.327 234.57 145.727V170.137" fill="#91AECB"/>
<path d="M209.56 70.6667L209.55 56.3767C209.56 61.0367 212.52 65.6967 218.47 69.3167C230.73 76.7767 251.02 76.9767 263.79 69.7867C270.36 66.0767 273.66 61.1367 273.65 56.1967L273.66 70.4867C273.67 75.4267 270.37 80.3767 263.8 84.0867C251.03 91.2867 230.74 91.0767 218.49 83.6167C212.53 79.9867 209.57 75.3267 209.56 70.6667Z" fill="#92C8E1"/>
<path d="M264.73 43.2467C276.98 50.6967 276.56 62.5767 263.79 69.7767C251.01 76.9767 230.72 76.7667 218.47 69.3067C206.22 61.8567 206.63 49.9767 219.41 42.7767C232.19 35.5967 252.48 35.7967 264.73 43.2467Z" fill="#C4ECF6"/>
<path d="M241.5 70.4167C233.66 70.4167 226.12 68.5667 220.83 65.3467C216.45 62.6867 214.08 59.4467 214.13 56.2367C214.18 52.9167 216.92 49.4867 221.64 46.8167C226.99 43.8067 234.12 42.1367 241.7 42.1367C249.54 42.1367 257.07 43.9867 262.37 47.2067C266.75 49.8667 269.13 53.1067 269.08 56.3167C269.02 59.6367 266.28 63.0767 261.56 65.7267C256.2 68.7567 249.09 70.4167 241.5 70.4167Z" fill="#8CC5DD"/>
<path d="M269.08 56.3267C269.06 57.7067 268.57 59.1067 267.66 60.4667C266.53 58.7867 264.75 57.1667 262.37 55.7267C257.07 52.5067 249.54 50.6567 241.7 50.6567C234.12 50.6567 226.99 52.3267 221.64 55.3367C218.88 56.8967 216.8 58.7067 215.54 60.6067C214.59 59.1867 214.1 57.7167 214.13 56.2467C214.18 52.9267 216.91 49.4967 221.64 46.8267C227 43.8167 234.12 42.1467 241.7 42.1467C249.54 42.1467 257.07 43.9967 262.37 47.2167C266.75 49.8667 269.13 53.1067 269.08 56.3267Z" fill="#69A9CE"/>
<path d="M434.79 285.617C434.53 277.447 434.48 277.147 433.77 271.797C432.31 263.687 432.29 263.557 430.82 258.397C428.34 250.807 428.21 250.517 425.99 245.557C422.46 238.427 422.33 238.167 419.31 233.407C415.06 227.227 414.6 226.577 410.69 222.047C405.29 216.267 404.98 215.937 399.8 211.507C393.85 206.907 393.4 206.517 388.01 203.197C381.44 199.447 381.33 199.387 376.55 197.247C371.69 195.277 370.49 194.817 368.52 194.197V198.107C384.7 207.827 384.16 223.357 367.29 232.757C350.43 242.147 323.64 241.887 307.47 232.127C299.52 227.367 295.63 221.157 295.72 214.987V215.257C295.7 210.357 295.7 204.877 295.67 199.187C294.37 199.847 293.18 200.467 291.17 201.587C285.25 205.097 282.26 206.907 276.2 211.837C270.37 217.027 270.01 217.357 265.38 222.407C260.67 228.187 260.16 228.747 256.83 233.877C252.76 240.677 252.61 240.897 250.2 246.057C247.15 253.377 247.05 253.667 245.46 258.927C243.47 266.707 243.39 267.037 242.58 272.327C241.71 280.407 241.66 280.767 241.63 286.157C241.76 288.487 241.76 291.607 241.97 293.937C242.24 296.827 242.76 300.737 243.25 303.627L243.78 306.217V306.257L243.81 306.287C246.29 316.037 246.36 316.267 248.6 322.017C249.51 324.017 250.57 326.777 251.61 328.747C253.3 331.897 255.6 336.137 257.6 339.157C258.78 340.927 260.34 343.257 261.71 344.867C264.22 347.927 267.72 351.897 270.44 354.727C273.33 357.387 277.28 360.837 280.42 363.267C282.69 365.047 285.94 367.107 288.42 368.657C295.48 372.627 295.48 372.627 299.88 374.537C306.51 377.227 306.51 377.227 310.21 378.377C316.42 380.047 316.42 380.047 319.7 380.707C325.6 381.687 325.6 381.687 328.6 382.017C334.36 382.447 334.36 382.447 337.24 382.507C342.99 382.377 342.99 382.377 345.84 382.177C351.72 381.587 351.72 381.587 354.66 381.097C360.69 379.877 360.8 379.847 363.97 378.997C370.44 377.027 370.55 376.987 374.06 375.577C380.75 372.657 381.15 372.527 385.24 370.297C392.28 366.027 392.71 365.767 397.36 362.287C404.13 356.667 404.7 356.177 409.82 350.797C411.15 349.217 413.04 347.187 414.29 345.477C416.59 342.357 419.48 338.087 421.56 334.837C423.63 330.957 426.19 325.677 427.96 321.667C428.93 319.427 429.93 316.347 430.65 313.947C431.29 311.517 432.21 308.267 432.75 305.737C432.37 306.787 431.98 307.937 431.53 309.147C432.57 305.467 433.47 301.467 434.01 298.217C434.62 294.457 434.69 289.397 434.79 285.617Z" fill="#69B4F0"/>
<path d="M291.42 364.477C285.03 360.537 281.04 357.477 275.59 352.427C270.86 347.987 265.87 341.817 264 338.987C258.4 330.617 256.94 327.927 253.03 318.137C251.95 315.417 249.9 309.397 248.4 299.947C250.07 311.407 258.34 322.677 273.17 331.607C307.64 352.327 364.7 352.887 400.64 332.887C417.18 323.657 426.35 311.667 428.08 299.417C427.49 302.737 426.73 307.267 425.78 310.587C424.69 314.427 422.85 319.457 421.36 323.167C420.79 324.547 417.62 331.867 411.1 340.797C402.75 352.187 390.53 362.307 377.57 368.477C363.49 375.177 349.01 378.037 333.25 377.347C319.02 376.657 303.41 371.827 291.42 364.477Z" fill="#EF8C13"/>
<path d="M403.26 259.017C368.81 238.257 311.73 237.697 275.78 257.737C239.87 277.767 238.69 310.817 273.16 331.597C307.63 352.317 364.69 352.877 400.63 332.877C436.57 312.817 437.74 279.777 403.26 259.017Z" fill="#EF9F2D"/>
<path d="M261.88 267.627C259.7 260.467 261.54 251.117 267.41 243.157C273.31 235.187 281.71 230.697 289.21 230.697C292.67 230.697 295.94 231.657 298.68 233.667C302.71 236.637 304.88 241.367 305.2 246.757C294.56 249.197 284.55 252.857 275.79 257.737C270.36 260.767 265.72 264.097 261.88 267.627Z" fill="#CEEBF3"/>
<path d="M277 278.807C273.54 278.807 270.27 277.847 267.53 275.827C264.78 273.807 262.9 270.947 261.88 267.627C265.72 264.087 270.36 260.757 275.79 257.737C284.55 252.857 294.56 249.197 305.2 246.757C305.57 252.987 303.45 260.097 298.83 266.347C292.92 274.297 284.51 278.807 277 278.807Z" fill="#F5C57B"/>
<path d="M277.58 308.397C276.64 308.397 275.72 308.227 274.82 307.887C269.96 305.987 267.99 299.287 270.45 292.947C272.48 287.767 276.83 284.457 281.03 284.457C281.97 284.457 282.9 284.627 283.8 284.967C288.67 286.837 290.65 293.537 288.17 299.877C286.17 305.057 281.79 308.397 277.58 308.397Z" fill="#F5C57B"/>
<path d="M323.713 249.007C323.287 249.007 322.87 248.936 322.462 248.794C320.258 248 319.365 245.201 320.481 242.553C321.401 240.389 323.373 239.007 325.277 239.007C325.704 239.007 326.125 239.078 326.533 239.22C328.741 240.001 329.639 242.8 328.515 245.448C327.608 247.612 325.622 249.007 323.713 249.007Z" fill="#F5C57B"/>
<path d="M381.16 141.147H294.26V210.737H381.16V141.147Z" fill="#69B4F0"/>
<path d="M294.37 215.537L294.25 169.927C294.27 176.197 298.31 182.437 306.39 187.297C323.06 197.347 350.67 197.607 368.05 187.957C377 182.967 381.5 176.297 381.47 169.637L381.6 215.317C381.6 221.947 377.12 228.617 368.19 233.637C350.81 243.287 323.21 242.997 306.53 232.947C298.43 228.077 294.41 221.837 294.37 215.537Z" fill="#69B4F0"/>
<path d="M284.57 145.517L284.54 137.147C284.54 144.837 289.49 152.547 299.38 158.457C319.76 170.737 353.51 171.097 374.75 159.247C385.69 153.137 391.19 144.987 391.17 136.847L391.19 145.187C391.22 153.327 385.71 161.477 374.79 167.587C353.54 179.447 319.78 179.087 299.4 166.837C289.51 160.857 284.57 153.207 284.57 145.517Z" fill="#92C8E1"/>
<path d="M376.33 115.567C396.71 127.847 395.99 147.387 374.75 159.247C353.52 171.097 319.76 170.737 299.38 158.457C278.97 146.207 279.67 126.637 300.93 114.777C322.19 102.957 355.94 103.287 376.33 115.567Z" fill="#ADDDE9"/>
<path d="M337.68 159.277C324.82 159.277 312.49 156.257 303.82 151.067C296.97 146.957 293.08 141.837 293.15 136.947C293.23 131.887 297.6 126.497 305.15 122.297C313.9 117.437 325.58 114.747 338.02 114.747C350.88 114.747 363.24 117.727 371.88 122.917C378.73 127.057 382.62 132.217 382.54 137.077C382.46 142.167 378.09 147.487 370.55 151.687C361.8 156.587 350.12 159.277 337.68 159.277Z" fill="#69B4F0"/>
<path d="M305.15 130.247C313.9 125.357 325.58 122.627 338.02 122.627C350.88 122.627 363.24 125.647 371.88 130.837C376.86 133.857 380.23 137.367 381.69 140.887C382.23 139.637 382.53 138.317 382.54 137.077C382.62 132.217 378.73 127.057 371.88 122.917C363.25 117.727 350.88 114.747 338.02 114.747C325.57 114.747 313.9 117.437 305.15 122.297C297.6 126.497 293.23 131.887 293.15 136.947C293.13 138.297 293.44 139.677 294 141.017C295.64 137.147 299.48 133.367 305.15 130.247Z" fill="#69A9CE"/>
<path d="M271.74 339.777C269.06 328.797 261.81 320.607 254.96 311.987C255.29 312.417 255.6 312.857 255.91 313.297C246.73 300.537 236.29 288.537 226.51 276.247H195.91H165.31C155.52 288.537 145.08 300.537 135.91 313.297C136.22 312.847 136.53 312.417 136.85 311.987C130 320.597 122.76 328.797 120.06 339.777C116.64 353.777 122.54 367.487 132.84 376.987C149.38 392.267 173.73 397.867 195.91 397.997C218.08 397.867 242.43 392.267 258.98 376.987C269.27 367.487 275.19 353.767 271.74 339.777Z" fill="#ADDDE9"/>
<path d="M226.53 289.637L226.49 246.867H165.3L165.34 289.637H226.53Z" fill="#ADDDE9"/>
<path d="M222.62 210.007C236.81 218.547 236.32 232.167 221.53 240.417C206.74 248.667 183.23 248.427 169.05 239.887C154.86 231.347 155.34 217.737 170.14 209.487C184.92 201.227 208.42 201.477 222.62 210.007Z" fill="#ADDDE9"/>
<path d="M195.71 241.277C186.61 241.277 177.86 239.157 171.7 235.447C166.59 232.377 163.81 228.627 163.88 224.897C163.94 221.047 167.15 217.077 172.65 214.007C178.87 210.547 187.14 208.617 195.95 208.617C205.05 208.617 213.8 210.747 219.95 214.447C225.06 217.527 227.84 221.267 227.77 224.997C227.71 228.847 224.52 232.817 219.01 235.887C212.79 239.367 204.51 241.277 195.71 241.277Z" fill="#92C8E1"/>
<path d="M172.65 218.557C178.87 215.087 187.14 213.187 195.95 213.187C205.05 213.187 213.8 215.307 219.95 219.007C223.95 221.407 226.49 224.227 227.4 227.127C227.62 226.417 227.76 225.707 227.77 224.997C227.84 221.267 225.06 217.517 219.95 214.447C213.8 210.747 205.06 208.617 195.95 208.617C187.14 208.617 178.87 210.537 172.65 214.007C167.15 217.077 163.94 221.047 163.88 224.897C163.87 225.707 164.01 226.517 164.27 227.327C165.23 224.177 168.16 221.067 172.65 218.557Z" fill="#69A9CE"/>
<path d="M158.73 235.547L158.7 225.057C158.72 230.397 162.15 235.737 169.04 239.887C183.23 248.427 206.73 248.667 221.52 240.417C229.14 236.177 232.96 230.507 232.94 224.837L232.97 235.327C232.99 240.997 229.17 246.667 221.55 250.907C206.76 259.157 183.26 258.917 169.06 250.377C162.18 246.227 158.75 240.887 158.73 235.547Z" fill="#92C8E1"/>
<path d="M259.98 324.567L260 324.587C254.45 317.707 248.9 310.807 243.35 303.897C240.99 300.967 237.77 298.207 233.68 295.747C213.73 283.737 180.71 283.407 159.91 294.997C155.06 297.707 151.3 300.807 148.65 304.157C148.15 304.787 147.49 305.607 146.99 306.237C146.74 306.547 146.42 306.967 146.17 307.277C145.67 307.907 145.01 308.737 144.51 309.357C144.01 309.987 143.35 310.817 142.85 311.437C142.6 311.747 142.28 312.167 142.03 312.477C141.53 313.097 140.87 313.937 140.37 314.557C139.87 315.177 139.21 316.007 138.71 316.637C138.46 316.947 138.14 317.367 137.89 317.677C137.39 318.297 136.73 319.127 136.24 319.757C135.74 320.377 135.07 321.207 134.58 321.837C134.33 322.147 134 322.567 133.75 322.877C133.26 323.497 132.59 324.327 132.09 324.957L132.11 324.937C130.83 326.597 127.93 330.387 126.09 334.797C125.44 336.337 123.5 341.027 123.26 346.257C123.13 349.177 122.72 358.067 130.18 367.667C137.04 376.477 146.25 381.347 152.57 384.247C159.1 387.247 165.82 388.967 168.03 389.527C174.6 391.217 181.51 391.987 183.77 392.237C186.83 392.577 195.05 393.277 205.44 392.467C215.28 391.697 221.33 390.137 226.19 388.897C229.2 388.127 244.8 383.757 256.13 373.697C265.86 365.037 268.45 356.177 268.91 350.257C269.6 341.577 266.5 332.697 259.98 324.567Z" fill="#7FC510"/>
<path d="M267.33 337.697C265.41 332.187 263.2 328.747 260.08 324.707L260.01 324.607C254.45 317.707 248.9 310.807 243.35 303.907C252.51 315.287 248.68 329.267 232.15 338.487C211.36 350.087 178.33 349.747 158.39 337.747C143.09 328.537 139.93 315.147 148.66 304.167C148.16 304.797 147.5 305.617 147 306.247C146.75 306.557 146.43 306.977 146.18 307.287C145.68 307.917 145.02 308.747 144.52 309.367C144.02 309.997 143.36 310.827 142.86 311.447C142.61 311.757 142.29 312.177 142.04 312.487C141.54 313.107 140.88 313.947 140.38 314.567C139.88 315.187 139.22 316.017 138.72 316.647C138.47 316.957 138.15 317.377 137.9 317.687C137.4 318.307 136.74 319.137 136.25 319.767C135.75 320.387 135.08 321.217 134.59 321.847C134.34 322.157 134.01 322.577 133.76 322.887C133.27 323.507 132.6 324.337 132.1 324.967L131.97 325.137C126.29 332.377 124.75 338.237 124.17 340.467C123.22 344.107 123.21 347.377 123.21 348.767C123.21 351.427 123.8 354.037 124.16 355.597C124.49 357.047 125.27 359.527 127.14 363.027C127.6 363.877 128.92 366.197 131.35 369.097C136.19 374.887 142.34 378.697 144.67 380.127C147.86 382.097 153.81 385.047 158.56 386.657C163.62 388.367 164.4 388.637 168.35 389.607C171.73 390.447 175.01 391.077 178.65 391.607C192.69 393.657 207.89 393.117 221.46 390.087C231.55 387.837 238.18 384.767 241.38 383.297C244.76 381.737 247.04 380.287 250.19 378.277C251.79 377.267 253.78 375.697 255.23 374.497C257.06 372.987 261.66 368.867 264.89 363.157C268.28 357.157 268.73 352.327 268.93 350.267C269.22 347.227 268.94 342.327 267.33 337.697Z" fill="#68A800"/>
<path d="M381.74 326.837L381.39 392.937L325.38 425.227L325.73 359.127L381.74 326.837Z" fill="#F18A62"/>
<path d="M325.73 359.127L325.38 425.227L263.03 389.227L263.38 323.127L325.73 359.127Z" fill="#F18A62"/>
<path d="M381.74 326.837L325.72 359.127L263.37 323.127L319.38 290.837L381.74 326.837Z" fill="#F9B398"/>
<path d="M283 355.437C283 359.987 279.81 361.827 275.87 359.557C271.93 357.287 268.74 351.757 268.74 347.207C268.74 342.657 271.93 340.817 275.87 343.087C279.81 345.367 283 350.897 283 355.437Z" fill="#2A3B98"/>
<path d="M316.67 392.977L267.44 364.557V363.427L316.67 391.847V392.977Z" fill="#E3EBEC"/>
<path d="M316.67 400.247L267.44 371.827V370.697L316.67 399.117V400.247Z" fill="#E3EBEC"/>
<path d="M316.67 407.517L267.44 379.097V377.967L316.67 406.387V407.517Z" fill="#E3EBEC"/>
<path d="M287.77 354.577L288.9 359.617L290.1 355.917L291.13 356.517L289.45 361.417L288.32 360.767L286.73 353.977L287.77 354.577Z" fill="#DDEAEC"/>
<path d="M291.56 358.377L292.53 358.937V363.197L291.56 362.637V358.377ZM291.53 357.007L291.7 356.907L292.43 357.327L292.59 357.617V358.327L292.43 358.417L291.7 357.997L291.53 357.717V357.007Z" fill="#DDEAEC"/>
<path d="M292.95 359.397L293.55 359.507L293.71 358.417L294.52 358.887V360.077L295.34 360.557V361.417L294.52 360.937V362.647C294.52 363.277 294.65 363.477 294.83 363.667L295.3 364.107V364.797L294.45 364.307C293.9 363.987 293.55 363.397 293.55 362.257V360.377L292.95 360.037V359.397Z" fill="#DDEAEC"/>
<path d="M297.01 364.927C297.42 365.157 297.86 365.087 297.86 365.087V364.307L296.97 363.867C296.71 363.747 296.67 363.937 296.67 364.127V364.327C296.67 364.687 296.83 364.817 297.01 364.927ZM295.7 363.537C295.7 362.917 295.99 362.537 296.78 362.987L297.86 363.617V363.347C297.86 362.897 297.68 362.717 297.37 362.537C297.05 362.347 296.12 361.887 295.82 361.737V361.047C296.31 361.107 296.81 361.337 297.5 361.737C298.29 362.187 298.83 362.817 298.83 363.877V366.847L298.06 366.407L297.86 365.817C297.82 365.887 297.3 366.027 296.74 365.687C296.03 365.257 295.7 364.507 295.7 363.957V363.537Z" fill="#DDEAEC"/>
<path d="M299.41 362.907L300.19 363.357L300.38 363.927C300.71 363.837 300.97 363.747 301.53 364.067C302 364.337 302.33 364.737 302.49 365.177C302.82 365.087 303.24 365.057 303.82 365.387C304.63 365.857 304.92 366.657 304.92 367.527V370.347L303.95 369.787V366.947C303.95 366.547 303.79 366.277 303.54 366.127C303.17 365.917 302.9 365.837 302.64 365.937V366.197V369.027L301.67 368.467V365.627C301.67 365.227 301.51 364.957 301.26 364.807C300.88 364.587 300.68 364.577 300.39 364.667V367.717L299.42 367.157L299.41 362.907Z" fill="#DDEAEC"/>
<path d="M305.47 366.407L306.44 366.967V371.227L305.47 370.667V366.407ZM305.44 365.037L305.61 364.937L306.34 365.357L306.5 365.647V366.357L306.34 366.447L305.61 366.027L305.44 365.747V365.037Z" fill="#DDEAEC"/>
<path d="M307.07 367.327L307.85 367.777L308.04 368.337C308.36 368.257 308.65 368.167 309.21 368.487C310.07 368.987 310.31 369.807 310.31 370.617V373.457L309.34 372.897V370.047C309.34 369.627 309.18 369.377 308.93 369.237C308.54 369.007 308.32 369.007 308.04 369.087V372.147L307.07 371.587V367.327Z" fill="#DDEAEC"/>
<path d="M310.78 370.577C310.78 369.917 311.02 369.567 311.74 369.987C312.45 370.397 313.42 370.987 313.71 371.337V372.047L312.04 371.077C311.79 370.937 311.76 371.007 311.76 371.207V371.397C311.76 371.667 311.88 371.747 312.04 371.837L312.92 372.347C313.62 372.757 313.9 373.397 313.9 374.017V374.457C313.9 375.327 313.44 375.307 313 375.047C312.3 374.647 311.2 373.977 310.94 373.627V372.927L312.68 373.937C312.75 373.977 312.92 374.067 312.92 373.807V373.607C312.92 373.427 312.88 373.307 312.68 373.197L311.82 372.697C311.17 372.317 310.79 371.777 310.79 370.957L310.78 370.577Z" fill="#DDEAEC"/>
<path d="M3.75006 393.207C1.25006 391.767 5.95246e-05 389.857 0.0100595 387.957L5.95244e-05 390.387C-0.00994048 392.287 1.24006 394.187 3.74006 395.637L93.1701 447.267L93.1801 444.837L3.75006 393.207Z" fill="#8FA1A6"/>
<path d="M163.08 411.647C163.08 412.797 162.61 413.947 161.69 414.987C161.43 415.277 161.13 415.557 160.8 415.837L160.57 416.017C160.22 416.287 159.84 416.557 159.41 416.807L111.18 444.837C110.63 445.157 110.02 445.427 109.4 445.677C109.22 445.747 109.04 445.807 108.86 445.877C108.36 446.057 107.85 446.207 107.32 446.347C107.15 446.387 106.99 446.437 106.82 446.477C106.13 446.627 105.43 446.757 104.72 446.837L104.39 446.867C103.76 446.927 103.12 446.967 102.47 446.977C102.33 446.977 102.19 446.987 102.04 446.987C101.33 446.977 100.62 446.937 99.9299 446.867C99.7799 446.857 99.6399 446.827 99.4999 446.817C98.8599 446.737 98.2299 446.627 97.6199 446.497L97.3299 446.437C96.6599 446.277 96.0199 446.077 95.3899 445.847C95.2499 445.797 95.1099 445.737 94.9699 445.687C94.3499 445.437 93.7399 445.167 93.1899 444.847L93.1799 447.277C93.7299 447.597 94.3399 447.867 94.9599 448.117C95.0999 448.177 95.2399 448.227 95.3799 448.277C95.9999 448.507 96.6499 448.707 97.3199 448.867L97.5999 448.927C98.2099 449.067 98.8399 449.167 99.4799 449.247C99.6299 449.267 99.7699 449.287 99.9199 449.297C100.62 449.367 101.33 449.407 102.04 449.417C102.18 449.417 102.32 449.407 102.47 449.407C103.11 449.397 103.75 449.367 104.39 449.297L104.72 449.267L104.88 449.257C105.54 449.177 106.19 449.057 106.82 448.907C106.99 448.867 107.15 448.817 107.32 448.777C107.85 448.647 108.36 448.487 108.86 448.307C109.04 448.247 109.22 448.177 109.4 448.107C110.02 447.857 110.63 447.587 111.18 447.267L159.41 419.237C159.84 418.987 160.22 418.717 160.57 418.447L160.8 418.257C161.13 417.987 161.43 417.707 161.69 417.407L161.72 417.377V417.367C162.62 416.337 163.08 415.197 163.08 414.067V411.647Z" fill="#ABBFC4"/>
<path d="M159.33 406.397C164.3 409.267 164.32 413.947 159.4 416.817L111.17 444.847C106.23 447.717 98.1499 447.717 93.1799 444.847L3.74988 393.207C-1.22012 390.337 -1.24012 385.657 3.68988 382.787L51.9199 354.757C56.8499 351.897 64.9299 351.897 69.8999 354.767L159.33 406.397Z" fill="#E3EDEF"/>
<path d="M128.59 426.697L40.25 375.697C39.48 375.257 39.22 374.267 39.66 373.497C40.1 372.727 41.09 372.467 41.86 372.907L130.2 423.907C130.97 424.347 131.23 425.337 130.79 426.107C130.35 426.877 129.36 427.137 128.59 426.697Z" fill="#C1D5DC"/>
<path d="M130.19 424.037L41.85 373.037C41.08 372.597 40.09 372.857 39.65 373.627C39.51 373.867 39.46 374.137 39.46 374.397C39.95 374.107 40.57 374.057 41.09 374.357L129.43 425.357C129.95 425.657 130.22 426.217 130.21 426.787C130.44 426.647 130.64 426.477 130.78 426.237C131.23 425.467 130.96 424.477 130.19 424.037Z" fill="#DFF5FC"/>
<path d="M49.5601 366.357C48.8001 366.817 48.3101 367.537 48.1201 368.347C47.9301 369.157 48.0301 370.027 48.4901 370.777C49.4101 372.287 51.4001 372.777 52.9101 371.857L60.4101 367.297L57.0701 361.797L49.5601 366.357Z" fill="#70CAEC"/>
<path d="M65.02 356.947L57.53 361.507L60.87 367.007L68.36 362.447C69.12 361.987 69.62 361.257 69.81 360.457C70 359.657 69.9 358.777 69.44 358.027C68.53 356.517 66.54 356.027 65.02 356.947Z" fill="#DF3E3C"/>
<path d="M57.0601 361.797L60.4001 367.297L60.8701 367.007L57.5301 361.507L57.0601 361.797Z" fill="#F4FBFC"/>
<path d="M52.8501 371.887C52.8701 371.877 52.8901 371.867 52.9101 371.857L60.4101 367.297L60.8801 367.007L59.7701 365.187L60.8801 367.007L60.4101 367.297L52.9101 371.857C52.8901 371.867 52.8701 371.877 52.8501 371.887Z" fill="#CAD7DB"/>
<path d="M51.2501 372.317C50.1601 372.317 49.1001 371.767 48.4901 370.767C48.2701 370.397 48.1301 370.007 48.0701 369.597C51.5901 367.617 55.6101 366.637 59.2401 365.357L60.4101 367.277L52.9101 371.837C52.8901 371.847 52.8701 371.857 52.8501 371.867C52.8301 371.877 52.8101 371.887 52.8001 371.897C52.3101 372.187 51.7801 372.317 51.2501 372.317Z" fill="#62B5D9"/>
<path d="M60.88 367.007L59.77 365.187C63.83 363.707 67.34 361.757 69.02 357.477C69.18 357.647 69.33 357.827 69.45 358.027C69.77 358.547 69.92 359.127 69.92 359.697C69.92 359.957 69.89 360.217 69.83 360.467C69.82 360.527 69.8 360.577 69.78 360.637C69.56 361.367 69.08 362.027 68.37 362.457L60.88 367.007Z" fill="#C83A38"/>
<path d="M60.41 367.297L59.24 365.377C59.42 365.317 59.6 365.247 59.77 365.187L60.88 367.007L60.41 367.297Z" fill="#D9E6E7"/>
<path d="M67.9199 377.517C67.1599 377.977 66.67 378.697 66.48 379.497C66.29 380.297 66.3899 381.177 66.8499 381.927C67.7699 383.437 69.7599 383.927 71.2699 383.007L78.7699 378.447L75.43 372.947L67.9199 377.517Z" fill="#70CAEC"/>
<path d="M83.3899 368.117L75.8999 372.677L79.2499 378.177L86.7399 373.617C87.4999 373.157 87.9999 372.427 88.1899 371.627C88.3799 370.827 88.2799 369.947 87.8199 369.197C86.8899 367.677 84.8999 367.197 83.3899 368.117Z" fill="#DF3E3C"/>
<path d="M75.4199 372.957L78.7599 378.457L79.2299 378.167L75.8799 372.667L75.4199 372.957Z" fill="#F4FBFC"/>
<path d="M69.6101 383.477C68.5201 383.477 67.4601 382.927 66.8501 381.937C66.8401 381.917 66.8201 381.887 66.8101 381.867C66.8201 381.887 66.8401 381.917 66.8501 381.937C67.4601 382.927 68.5301 383.477 69.6101 383.477C70.1801 383.477 70.7501 383.327 71.2701 383.017L78.7701 378.457L79.2401 378.167L78.1301 376.337L79.2401 378.167L86.7301 373.607C87.4901 373.147 87.9901 372.417 88.1801 371.617C88.2401 371.367 88.2701 371.107 88.2701 370.847C88.2701 371.107 88.2401 371.367 88.1801 371.617C87.9901 372.417 87.4901 373.147 86.7301 373.607L79.2401 378.167L78.7701 378.457L71.2701 383.017C70.7501 383.337 70.1801 383.477 69.6101 383.477Z" fill="#CAD7DB"/>
<path d="M69.6099 383.477C68.5199 383.477 67.4599 382.927 66.8499 381.937C66.8399 381.917 66.8199 381.887 66.8099 381.867C66.6099 381.517 66.4899 381.147 66.4299 380.767C69.9499 378.787 73.9699 377.807 77.5999 376.527L78.7699 378.447L71.2699 383.007C70.7499 383.337 70.1799 383.477 69.6099 383.477Z" fill="#62B5D9"/>
<path d="M79.2399 378.167L78.1299 376.337C82.1899 374.857 85.6999 372.917 87.3799 368.627C87.5399 368.797 87.6899 368.977 87.8099 369.177C88.1299 369.697 88.2799 370.277 88.2799 370.847C88.2799 371.107 88.2499 371.367 88.1899 371.617C87.9999 372.417 87.4999 373.147 86.7399 373.607L79.2399 378.167Z" fill="#C83A38"/>
<path d="M78.7701 378.457L77.6001 376.537C77.7801 376.477 77.9601 376.407 78.1301 376.347L79.2401 378.177L78.7701 378.457Z" fill="#D9E6E7"/>
<path d="M87.4099 388.697C86.6499 389.157 86.1599 389.877 85.9599 390.677C85.7699 391.477 85.8699 392.357 86.3299 393.107C87.2499 394.617 89.2399 395.107 90.7499 394.187L98.2499 389.627L94.8999 384.127L87.4099 388.697Z" fill="#70CAEC"/>
<path d="M102.87 379.287L95.3799 383.847L98.7299 389.347L106.22 384.787C106.98 384.327 107.48 383.597 107.67 382.797C107.86 381.997 107.76 381.117 107.3 380.367C106.37 378.847 104.38 378.367 102.87 379.287Z" fill="#DF3E3C"/>
<path d="M94.9099 384.137L98.2599 389.637L98.7299 389.347L95.3799 383.847L94.9099 384.137Z" fill="#F4FBFC"/>
<path d="M87.3601 394.157C87.0301 393.947 86.7401 393.677 86.5001 393.357C86.7401 393.677 87.0301 393.947 87.3601 394.157ZM86.4901 393.347C86.4401 393.287 86.4001 393.217 86.3601 393.157C86.4101 393.217 86.4501 393.287 86.4901 393.347ZM86.3401 393.117C86.3301 393.097 86.3201 393.087 86.3101 393.067C86.3201 393.077 86.3301 393.097 86.3401 393.117Z" fill="#CAD7DB"/>
<path d="M89.0999 394.657C88.4899 394.657 87.8799 394.487 87.3599 394.157C87.0299 393.947 86.7399 393.677 86.4999 393.357C86.4499 393.297 86.4099 393.227 86.3699 393.167L86.3599 393.157C86.3599 393.157 86.3599 393.147 86.3499 393.147C86.3499 393.137 86.3399 393.137 86.3399 393.127C86.3299 393.107 86.3199 393.097 86.3099 393.077C86.3099 393.077 86.3099 393.067 86.2999 393.067C86.2999 393.067 86.2999 393.067 86.2999 393.057C86.0999 392.707 85.9799 392.337 85.9199 391.957C89.4399 389.977 93.4599 388.997 97.0899 387.717L98.2599 389.637L90.7599 394.197C90.2399 394.507 89.6599 394.657 89.0999 394.657Z" fill="#62B5D9"/>
<path d="M107.76 382.027C107.76 381.457 107.61 380.877 107.29 380.357C107.61 380.887 107.76 381.457 107.76 382.027Z" fill="#CAD7DB"/>
<path d="M98.7201 389.347L97.6101 387.517C101.67 386.037 105.18 384.097 106.86 379.807C107.02 379.977 107.17 380.157 107.29 380.357C107.61 380.877 107.76 381.457 107.76 382.027C107.76 382.277 107.73 382.517 107.68 382.757C107.68 382.767 107.67 382.787 107.67 382.797C107.47 383.597 106.98 384.327 106.22 384.787L98.7201 389.347Z" fill="#C83A38"/>
<path d="M98.2501 389.637L97.0801 387.717C97.2601 387.657 97.4401 387.587 97.6101 387.527L98.7201 389.357L98.2501 389.637Z" fill="#D9E6E7"/>
<path d="M105.77 399.857C105.01 400.317 104.52 401.037 104.33 401.837C104.13 402.637 104.24 403.517 104.7 404.267C105.62 405.777 107.61 406.267 109.11 405.347L116.61 400.787L113.26 395.287L105.77 399.857Z" fill="#70CAEC"/>
<path d="M121.23 390.447L113.74 395.007L117.09 400.507L124.58 395.947C125.34 395.487 125.84 394.757 126.03 393.957C126.22 393.157 126.12 392.277 125.66 391.527C124.73 390.017 122.75 389.527 121.23 390.447Z" fill="#DF3E3C"/>
<path d="M113.27 395.297L116.62 400.797L117.09 400.507L113.74 395.007L113.27 395.297Z" fill="#F4FBFC"/>
<path d="M107.46 405.817C108.03 405.817 108.6 405.667 109.12 405.357L111.96 403.627L109.12 405.357C108.6 405.667 108.03 405.817 107.46 405.817ZM104.95 404.637C104.86 404.527 104.77 404.407 104.7 404.277C104.69 404.267 104.69 404.257 104.68 404.237C104.69 404.247 104.69 404.257 104.7 404.277C104.78 404.397 104.86 404.527 104.95 404.637ZM104.67 404.237C104.67 404.237 104.67 404.227 104.66 404.227C104.67 404.227 104.67 404.227 104.67 404.237ZM117.09 400.507L115.98 398.677L117.09 400.507L124.58 395.947C125.34 395.487 125.84 394.757 126.03 393.957C126.22 393.167 126.12 392.297 125.67 391.547C126.12 392.297 126.23 393.167 126.03 393.957C125.84 394.757 125.34 395.487 124.58 395.947L117.09 400.507Z" fill="#CAD7DB"/>
<path d="M107.46 405.817C106.51 405.817 105.58 405.397 104.96 404.637C104.87 404.527 104.78 404.407 104.71 404.277C104.7 404.267 104.7 404.257 104.69 404.237C104.69 404.237 104.69 404.237 104.69 404.227C104.69 404.227 104.69 404.217 104.68 404.217C104.47 403.867 104.35 403.487 104.29 403.107C107.81 401.127 111.83 400.147 115.46 398.867L116.63 400.787L111.97 403.627L109.13 405.357C108.6 405.667 108.03 405.817 107.46 405.817Z" fill="#62B5D9"/>
<path d="M117.09 400.507L115.98 398.677C120.04 397.197 123.55 395.257 125.23 390.967C125.38 391.127 125.53 391.297 125.65 391.497C125.65 391.507 125.66 391.507 125.66 391.517C125.66 391.527 125.67 391.527 125.67 391.537C126.12 392.287 126.23 393.157 126.03 393.947C125.84 394.747 125.34 395.477 124.58 395.937L117.09 400.507Z" fill="#C83A38"/>
<path d="M116.61 400.797L115.44 398.877C115.62 398.817 115.8 398.747 115.97 398.687L117.08 400.517L116.61 400.797Z" fill="#D9E6E7"/>
<path d="M125.62 411.007C124.86 411.467 124.37 412.187 124.17 412.997C123.98 413.797 124.08 414.677 124.54 415.427C125.46 416.937 127.45 417.427 128.96 416.507L136.46 411.947L133.11 406.447L125.62 411.007Z" fill="#70CAEC"/>
<path d="M141.08 401.607L133.59 406.167L136.94 411.667L144.43 407.107C145.19 406.647 145.69 405.917 145.88 405.117C146.07 404.317 145.97 403.437 145.51 402.687C144.58 401.167 142.6 400.677 141.08 401.607Z" fill="#DF3E3C"/>
<path d="M133.12 406.447L136.47 411.947L136.94 411.657L133.59 406.157L133.12 406.447Z" fill="#F4FBFC"/>
<path d="M145.97 404.347C145.97 403.857 145.86 403.357 145.62 402.897C145.86 403.357 145.97 403.857 145.97 404.347Z" fill="#CAD7DB"/>
<path d="M127.31 416.977C126.22 416.977 125.16 416.427 124.55 415.427C124.33 415.057 124.19 414.667 124.13 414.257C127.65 412.277 131.67 411.297 135.3 410.017L136.47 411.937L128.97 416.497C128.45 416.827 127.88 416.977 127.31 416.977Z" fill="#62B5D9"/>
<path d="M136.94 411.657L135.83 409.827C139.89 408.347 143.4 406.407 145.08 402.117C145.24 402.287 145.39 402.467 145.51 402.667C145.55 402.737 145.59 402.807 145.63 402.877C145.86 403.337 145.98 403.837 145.98 404.327C145.98 404.587 145.95 404.847 145.89 405.097C145.71 405.847 145.26 406.527 144.59 406.987C144.54 407.017 144.49 407.057 144.43 407.087L136.94 411.657Z" fill="#C83A38"/>
<path d="M136.46 411.947L135.29 410.027C135.47 409.967 135.65 409.897 135.82 409.837L136.93 411.667L136.46 411.947Z" fill="#D9E6E7"/>
<path d="M17.1199 386.057C16.3599 386.507 15.8599 387.227 15.6499 388.027C15.4499 388.827 15.5399 389.697 15.9999 390.467C16.8999 391.987 18.8899 392.497 20.3999 391.597L27.9499 387.117L24.6699 381.577L17.1199 386.057Z" fill="#70CAEC"/>
<path d="M32.6799 376.827L25.1399 381.297L28.4199 386.827L35.9599 382.357C36.7199 381.907 37.2299 381.187 37.4299 380.387C37.6299 379.587 37.5299 378.707 37.0799 377.947C36.1899 376.427 34.2099 375.917 32.6799 376.827Z" fill="#DF3E3C"/>
<path d="M24.6699 381.577L27.9499 387.117L28.4299 386.837L25.1499 381.307L24.6699 381.577Z" fill="#F4FBFC"/>
<path d="M18.78 392.037C19.34 392.037 19.9 391.897 20.41 391.587L27.96 387.107L28.44 386.827L27.35 384.987L28.44 386.827L35.98 382.357C36.74 381.907 37.25 381.187 37.45 380.387C37.65 379.597 37.56 378.727 37.11 377.967C37.55 378.727 37.65 379.597 37.45 380.387C37.25 381.187 36.74 381.907 35.98 382.357L28.44 386.827L27.96 387.107L20.41 391.587C19.89 391.897 19.33 392.037 18.78 392.037Z" fill="#CAD7DB"/>
<path d="M18.7801 392.037C17.6801 392.037 16.6001 391.477 16.0001 390.467C15.7801 390.097 15.6501 389.697 15.5901 389.297C19.1301 387.357 23.1601 386.417 26.8101 385.187L27.9601 387.117L20.4101 391.597C19.8901 391.897 19.3301 392.037 18.7801 392.037Z" fill="#62B5D9"/>
<path d="M28.4301 386.837L27.3401 384.997C31.4201 383.557 34.9501 381.657 36.6701 377.397C36.8301 377.567 36.9701 377.747 37.0901 377.957C37.0901 377.967 37.1001 377.967 37.1001 377.977C37.5401 378.737 37.6401 379.607 37.4401 380.397C37.2401 381.197 36.7301 381.917 35.9701 382.367L28.4301 386.837Z" fill="#C83A38"/>
<path d="M27.9501 387.117L26.8 385.187C26.98 385.127 27.16 385.067 27.33 384.997L28.42 386.837L27.9501 387.117Z" fill="#D9E6E7"/>
<path d="M35.35 397.427C34.59 397.877 34.09 398.597 33.88 399.397C33.68 400.197 33.78 401.067 34.23 401.837C35.13 403.357 37.12 403.867 38.63 402.967L46.18 398.487L42.9 392.947L35.35 397.427Z" fill="#70CAEC"/>
<path d="M50.9199 388.187L43.3799 392.657L46.6599 398.187L54.1999 393.717C54.9599 393.267 55.4699 392.547 55.6699 391.747C55.8699 390.947 55.7699 390.067 55.3199 389.307C54.4299 387.797 52.4399 387.287 50.9199 388.187Z" fill="#DF3E3C"/>
<path d="M42.8999 392.947L46.1799 398.487L46.6599 398.207L43.3799 392.677L42.8999 392.947Z" fill="#F4FBFC"/>
<path d="M37.0101 403.407C35.9101 403.407 34.8301 402.847 34.2301 401.837C34.0101 401.467 33.8801 401.067 33.8201 400.667C37.3601 398.727 41.3901 397.787 45.0401 396.557L46.1901 398.487L38.6401 402.967C38.1301 403.257 37.5701 403.407 37.0101 403.407Z" fill="#62B5D9"/>
<path d="M55.7801 390.947C55.7801 390.467 55.6701 389.987 55.4501 389.537C55.6701 389.987 55.7801 390.467 55.7801 390.947ZM55.3201 389.307C55.3201 389.297 55.3201 389.297 55.3201 389.307C55.3201 389.297 55.3201 389.297 55.3201 389.307Z" fill="#CAD7DB"/>
<path d="M46.6601 398.197L45.5701 396.357C49.6501 394.917 53.1801 393.017 54.9001 388.757C55.0501 388.917 55.1801 389.087 55.3001 389.277L55.3101 389.287C55.3101 389.287 55.3101 389.297 55.3201 389.297C55.3201 389.307 55.3301 389.307 55.3301 389.307C55.3701 389.377 55.4101 389.447 55.4501 389.527C55.6701 389.977 55.7801 390.467 55.7801 390.937C55.7801 391.207 55.7501 391.477 55.6801 391.747C55.4901 392.467 55.0601 393.127 54.4101 393.587C54.3401 393.637 54.2701 393.677 54.2001 393.717L46.6601 398.197Z" fill="#C83A38"/>
<path d="M46.19 398.487L45.04 396.557C45.22 396.497 45.4 396.437 45.57 396.367L46.66 398.207L46.19 398.487Z" fill="#D9E6E7"/>
<path d="M54.7101 408.817C53.9501 409.267 53.4501 409.987 53.2401 410.787C53.0401 411.587 53.1401 412.467 53.5901 413.227C54.4901 414.747 56.4801 415.257 57.9901 414.357L65.5401 409.877L62.2601 404.337L54.7101 408.817Z" fill="#70CAEC"/>
<path d="M70.28 399.587L62.74 404.057L66.02 409.597L73.56 405.127C74.32 404.677 74.83 403.957 75.03 403.157C75.23 402.357 75.13 401.477 74.68 400.717C73.78 399.187 71.8 398.677 70.28 399.587Z" fill="#DF3E3C"/>
<path d="M62.26 404.337L65.54 409.877L66.02 409.597L62.74 404.057L62.26 404.337Z" fill="#F4FBFC"/>
<path d="M56.3701 414.797C56.9301 414.797 57.4901 414.657 58.0001 414.347L65.5501 409.867L66.0301 409.587L64.9401 407.747L66.0301 409.587L73.5701 405.117C74.3301 404.667 74.8401 403.947 75.0401 403.147C75.0601 403.087 75.0701 403.017 75.0801 402.957C75.0701 403.017 75.0501 403.087 75.0401 403.147C74.8401 403.947 74.3301 404.667 73.5701 405.117L66.0301 409.587L65.5501 409.867L58.0001 414.357C57.4901 414.657 56.9201 414.797 56.3701 414.797ZM75.1401 402.337C75.1401 401.777 74.9901 401.217 74.6901 400.707C74.6701 400.677 74.6601 400.647 74.6401 400.627C74.6601 400.657 74.6701 400.687 74.6901 400.707C74.9901 401.217 75.1401 401.787 75.1401 402.337Z" fill="#CAD7DB"/>
<path d="M56.3699 414.797C55.2699 414.797 54.1899 414.237 53.5899 413.227C53.3699 412.857 53.2399 412.457 53.1799 412.057C56.7199 410.117 60.7499 409.177 64.3899 407.947L65.5399 409.877L57.9999 414.357C57.4899 414.657 56.9199 414.797 56.3699 414.797Z" fill="#62B5D9"/>
<path d="M66.0199 409.597L64.9299 407.757C69.0099 406.317 72.5399 404.417 74.2599 400.157C74.3999 400.297 74.5199 400.457 74.6299 400.627C74.6499 400.657 74.6599 400.687 74.6799 400.707C74.9799 401.217 75.1299 401.777 75.1299 402.337C75.1299 402.547 75.1099 402.747 75.0699 402.957C75.0599 403.017 75.0399 403.087 75.0299 403.147C74.8299 403.947 74.3199 404.667 73.5599 405.117L66.0199 409.597Z" fill="#C83A38"/>
<path d="M65.5399 409.877L64.3899 407.947C64.5699 407.887 64.7499 407.827 64.9199 407.757L66.0099 409.597L65.5399 409.877Z" fill="#D9E6E7"/>
<path d="M72.9501 420.177C72.1901 420.627 71.6901 421.347 71.4801 422.147C71.2801 422.947 71.3801 423.817 71.8301 424.587C72.7301 426.107 74.7201 426.617 76.2301 425.717L83.7801 421.237L80.5001 415.697L72.9501 420.177Z" fill="#70CAEC"/>
<path d="M88.51 410.947L80.97 415.417L84.25 420.947L91.79 416.477C92.55 416.027 93.06 415.307 93.26 414.507C93.46 413.707 93.36 412.827 92.91 412.067C92.02 410.547 90.04 410.047 88.51 410.947Z" fill="#DF3E3C"/>
<path d="M80.5 415.707L83.78 421.247L84.26 420.967L80.98 415.437L80.5 415.707Z" fill="#F4FBFC"/>
<path d="M74.6101 426.167C75.1601 426.167 75.7301 426.027 76.2401 425.717L83.7901 421.237L84.2701 420.957L83.1801 419.117L84.2701 420.957L91.8101 416.487C92.5701 416.037 93.0801 415.317 93.2801 414.517C93.3501 414.257 93.3801 413.987 93.3801 413.707C93.3801 413.977 93.3501 414.247 93.2801 414.517C93.0801 415.317 92.5701 416.037 91.8101 416.487L84.2701 420.957L83.7901 421.237L76.2401 425.717C75.7201 426.017 75.1601 426.167 74.6101 426.167Z" fill="#CAD7DB"/>
<path d="M74.6099 426.167C73.5099 426.167 72.4299 425.607 71.8299 424.587C71.6099 424.217 71.4799 423.817 71.4199 423.417C74.9599 421.477 78.9899 420.537 82.6299 419.307L83.7799 421.237L76.2299 425.717C75.7199 426.017 75.1599 426.167 74.6099 426.167Z" fill="#62B5D9"/>
<path d="M84.2599 420.957L83.1699 419.117C87.2499 417.677 90.7799 415.777 92.4999 411.517C92.6499 411.677 92.7899 411.857 92.9099 412.047C92.9099 412.047 92.9099 412.047 92.9099 412.057C92.9099 412.067 92.9199 412.067 92.9199 412.077C93.2199 412.587 93.3699 413.147 93.3699 413.707C93.3699 413.977 93.3399 414.247 93.2699 414.517C93.0699 415.317 92.5599 416.037 91.7999 416.487L84.2599 420.957Z" fill="#C83A38"/>
<path d="M83.7799 421.237L82.6299 419.307C82.8099 419.247 82.9899 419.187 83.1599 419.117L84.2499 420.957L83.7799 421.237Z" fill="#D9E6E7"/>
<path d="M92.67 431.557C91.91 432.007 91.41 432.727 91.2 433.527C91 434.327 91.1 435.207 91.55 435.967C92.45 437.487 94.44 437.997 95.95 437.097L103.5 432.617L100.22 427.077L92.67 431.557Z" fill="#70CAEC"/>
<path d="M108.24 422.327L100.7 426.797L103.98 432.327L111.52 427.857C112.28 427.407 112.79 426.687 112.99 425.887C113.2 425.087 113.1 424.207 112.64 423.447C111.75 421.927 109.76 421.417 108.24 422.327Z" fill="#DF3E3C"/>
<path d="M100.22 427.077L103.5 432.617L103.98 432.337L100.7 426.807L100.22 427.077Z" fill="#F4FBFC"/>
<path d="M94.33 437.537C93.23 437.537 92.15 436.977 91.55 435.967C91.55 435.957 91.54 435.957 91.54 435.947C91.54 435.957 91.55 435.957 91.55 435.967C92.15 436.977 93.23 437.537 94.33 437.537C94.89 437.537 95.45 437.397 95.96 437.087L103.51 432.607L103.99 432.327L102.9 430.487L103.99 432.327L111.53 427.857C112.29 427.407 112.8 426.687 113 425.887C113.07 425.627 113.1 425.357 113.1 425.077C113.1 425.347 113.07 425.617 113 425.887C112.8 426.687 112.29 427.407 111.53 427.857L103.99 432.327L103.51 432.607L95.96 437.087C95.45 437.397 94.89 437.537 94.33 437.537ZM112.64 423.437C112.64 423.437 112.64 423.427 112.64 423.437C112.64 423.427 112.64 423.437 112.64 423.437Z" fill="#CAD7DB"/>
<path d="M94.3299 437.537C93.2299 437.537 92.1499 436.977 91.5499 435.967C91.5499 435.957 91.5399 435.957 91.5399 435.947C91.3299 435.577 91.1999 435.187 91.1399 434.797C94.6799 432.857 98.7099 431.917 102.35 430.687L103.5 432.617L95.9499 437.097C95.4499 437.397 94.8899 437.537 94.3299 437.537Z" fill="#62B5D9"/>
<path d="M103.98 432.337L102.89 430.497C106.97 429.057 110.5 427.157 112.22 422.897C112.37 423.057 112.5 423.227 112.62 423.417C112.62 423.427 112.63 423.427 112.63 423.437V423.447L112.64 423.457C112.94 423.967 113.09 424.527 113.09 425.087C113.09 425.357 113.06 425.627 112.99 425.897C112.79 426.697 112.28 427.417 111.52 427.867L103.98 432.337Z" fill="#C83A38"/>
<path d="M103.51 432.617L102.36 430.687C102.54 430.627 102.72 430.567 102.89 430.497L103.98 432.337L103.51 432.617Z" fill="#D9E6E7"/>
<path d="M291.63 413.737L293.9 412.417L293.89 415.047L291.62 416.367L291.63 413.737Z" fill="#5F6062"/>
<path d="M256.12 392.197L257.58 390.387L293.89 412.417L291.62 413.737L256.12 392.197Z" fill="#919191"/>
<path d="M291.63 413.737L291.62 416.367L255.31 394.337L255.92 392.067L291.63 413.737Z" fill="#505153"/>
<path d="M303.67 383.837L305.94 382.517L305.93 385.147L303.66 386.467L303.67 383.837Z" fill="#5F6062"/>
<path d="M267.35 361.807L269.62 360.487L305.93 382.517L303.66 383.837L267.35 361.807Z" fill="#919191"/>
<path d="M303.67 383.837L303.66 386.467L267.35 364.437L267.36 361.807L303.67 383.837Z" fill="#505153"/>
<path d="M315.71 353.937L317.98 352.617L317.97 355.247L315.7 356.567L315.71 353.937Z" fill="#5F6062"/>
<path d="M279.39 331.917L281.66 330.597L317.97 352.627L315.7 353.947L279.39 331.917Z" fill="#919191"/>
<path d="M315.71 353.937L315.7 356.567L279.39 334.537L279.4 331.907L315.71 353.937Z" fill="#505153"/>
<path d="M284.05 324.107L286.57 323.707L253.74 409.267L251.22 409.657L284.05 324.107Z" fill="#6A6F71"/>
<path d="M282.53 322.207L285.05 321.817L286.58 323.717L284.06 324.117L282.53 322.207Z" fill="#919191"/>
<path d="M284.05 324.107L251.22 409.667L249.7 407.767L282.53 322.207L284.05 324.107Z" fill="#424143"/>
<path d="M320.94 343.147L323.46 342.757L290.63 428.317L288.11 428.717L320.94 343.147Z" fill="#6A6F71"/>
<path d="M319.41 341.257L321.93 340.857L323.45 342.757L320.93 343.147L319.41 341.257Z" fill="#919191"/>
<path d="M320.94 343.147L288.11 428.707L286.58 426.807L319.41 341.247L320.94 343.147Z" fill="#424143"/>
<path d="M71.31 308.827L73.58 307.507L73.57 310.137L71.3 311.457L71.31 308.827Z" fill="#5F6062"/>
<path d="M35.74 287.247L37.27 285.477L73.58 307.507L71.31 308.827L35.74 287.247Z" fill="#919191"/>
<path d="M71.31 308.827L71.3 311.457L34.99 289.427L35.73 287.237L71.31 308.827Z" fill="#505153"/>
<path d="M83.3601 278.937L85.6301 277.617L85.6201 280.247L83.3501 281.567L83.3601 278.937Z" fill="#5F6062"/>
<path d="M47.6699 257.287L49.3099 255.587L85.6199 277.617L83.3499 278.937L47.6699 257.287Z" fill="#919191"/>
<path d="M83.36 278.937L83.35 281.567L47.04 259.537L47.67 257.277L83.36 278.937Z" fill="#505153"/>
<path d="M95.3999 249.037L97.6699 247.717L97.6599 250.347L95.3899 251.667L95.3999 249.037Z" fill="#5F6062"/>
<path d="M59.0801 227.007L61.3501 225.687L97.6601 247.717L95.3901 249.037L59.0801 227.007Z" fill="#919191"/>
<path d="M95.4001 249.037L95.3901 251.667L59.0801 229.637L59.0901 227.007L95.4001 249.037Z" fill="#505153"/>
<path d="M107.44 219.137L109.71 217.817L109.7 220.447L107.43 221.767L107.44 219.137Z" fill="#5F6062"/>
<path d="M71.1201 197.107L73.3901 195.787L109.7 217.817L107.43 219.137L71.1201 197.107Z" fill="#919191"/>
<path d="M107.44 219.137L107.43 221.767L71.1201 199.737L71.1301 197.107L107.44 219.137Z" fill="#505153"/>
<path d="M119.48 189.237L121.75 187.917L121.74 190.547L119.47 191.867L119.48 189.237Z" fill="#5F6062"/>
<path d="M83.1699 167.207L85.4399 165.887L121.75 187.917L119.48 189.237L83.1699 167.207Z" fill="#919191"/>
<path d="M119.48 189.237L119.47 191.867L83.1599 169.837L83.1699 167.207L119.48 189.237Z" fill="#505153"/>
<path d="M131.52 159.337L133.79 158.017L133.78 160.647L131.51 161.967L131.52 159.337Z" fill="#5F6062"/>
<path d="M95.21 137.317L97.48 135.997L133.79 158.027L131.52 159.347L95.21 137.317Z" fill="#919191"/>
<path d="M131.52 159.337L131.51 161.967L95.2 139.947L95.21 137.317L131.52 159.337Z" fill="#505153"/>
<path d="M107.25 107.417L109.52 106.097L145.83 128.127L143.56 129.447L107.25 107.417Z" fill="#919191"/>
<path d="M143.56 129.447L143.55 132.077L107.24 110.047L107.25 107.417L143.56 129.447Z" fill="#505153"/>
<path d="M115.26 88.7967L117.78 88.3967L33.4299 304.367L30.9099 304.757L115.26 88.7967Z" fill="#6A6F71"/>
<path d="M113.74 86.8967L116.26 86.4967L117.78 88.3967L115.26 88.7967L113.74 86.8967Z" fill="#919191"/>
<path d="M115.26 88.7967L30.9099 304.767L29.3899 302.867L113.74 86.8967L115.26 88.7967Z" fill="#424143"/>
<path d="M152.15 107.837L154.67 107.447L70.32 323.417L67.8 323.807L152.15 107.837Z" fill="#6A6F71"/>
<path d="M150.62 105.937L153.14 105.547L154.66 107.447L152.14 107.837L150.62 105.937Z" fill="#919191"/>
<path d="M152.15 107.837L67.8 323.807L66.27 321.907L150.62 105.937L152.15 107.837Z" fill="#424143"/>
<path d="M426.96 364.577L424.69 363.257L424.7 365.887L426.97 367.207L426.96 364.577Z" fill="#5F6062"/>
<path d="M462.53 342.997L461 341.237L424.69 363.267L426.96 364.587L462.53 342.997Z" fill="#919191"/>
<path d="M426.96 364.577L426.97 367.207L463.28 345.177L462.54 342.987L426.96 364.577Z" fill="#505153"/>
<path d="M414.92 334.677L412.65 333.357L412.66 335.987L414.93 337.307L414.92 334.677Z" fill="#5F6062"/>
<path d="M450.61 313.037L448.96 311.337L412.65 333.367L414.92 334.687L450.61 313.037Z" fill="#919191"/>
<path d="M414.92 334.677L414.93 337.307L451.24 315.277L450.61 313.027L414.92 334.677Z" fill="#505153"/>
<path d="M402.87 304.787L400.6 303.467L400.61 306.097L402.88 307.417L402.87 304.787Z" fill="#5F6062"/>
<path d="M439.19 282.757L436.92 281.437L400.61 303.467L402.88 304.787L439.19 282.757Z" fill="#919191"/>
<path d="M402.87 304.787L402.88 307.417L439.19 285.387L439.18 282.757L402.87 304.787Z" fill="#505153"/>
<path d="M390.83 274.887L388.56 273.567L388.57 276.197L390.84 277.517L390.83 274.887Z" fill="#5F6062"/>
<path d="M427.15 252.857L424.88 251.537L388.57 273.567L390.84 274.887L427.15 252.857Z" fill="#919191"/>
<path d="M390.83 274.887L390.84 277.517L427.15 255.487L427.14 252.857L390.83 274.887Z" fill="#505153"/>
<path d="M378.79 244.987L376.52 243.667L376.53 246.297L378.8 247.617L378.79 244.987Z" fill="#5F6062"/>
<path d="M415.11 222.957L412.84 221.637L376.53 243.667L378.8 244.987L415.11 222.957Z" fill="#919191"/>
<path d="M378.79 244.987L378.8 247.617L415.11 225.587L415.1 222.957L378.79 244.987Z" fill="#505153"/>
<path d="M366.75 215.087L364.48 213.767L364.49 216.397L366.76 217.717L366.75 215.087Z" fill="#5F6062"/>
<path d="M403.07 193.057L400.8 191.737L364.49 213.767L366.76 215.087L403.07 193.057Z" fill="#919191"/>
<path d="M366.75 215.087L366.76 217.717L403.07 195.687L403.06 193.057L366.75 215.087Z" fill="#505153"/>
<path d="M391.03 163.167L388.76 161.847L352.45 183.877L354.72 185.197L391.03 163.167Z" fill="#919191"/>
<path d="M354.71 185.197L354.72 187.827L391.03 165.797L391.02 163.167L354.71 185.197Z" fill="#505153"/>
<path d="M383.01 144.537L380.49 144.147L464.84 360.117L467.36 360.507L383.01 144.537Z" fill="#6A6F71"/>
<path d="M384.54 142.637L382.02 142.247L380.49 144.147L383.01 144.537L384.54 142.637Z" fill="#919191"/>
<path d="M383.01 144.537L467.36 360.507L468.88 358.607L384.53 142.637L383.01 144.537Z" fill="#424143"/>
<path d="M346.13 163.577L343.61 163.187L427.96 379.157L430.48 379.557L346.13 163.577Z" fill="#6A6F71"/>
<path d="M347.65 161.677L345.13 161.287L343.61 163.187L346.13 163.577L347.65 161.677Z" fill="#919191"/>
<path d="M346.13 163.577L430.48 379.547L432.01 377.647L347.66 161.677L346.13 163.577Z" fill="#424143"/>
<path d="M160.48 7.9067C159.12 7.8867 157.61 6.3567 157.3 5.6767C157.49 5.1867 157.92 4.2467 158.51 3.2867C159.34 1.9067 160.49 0.466701 161.65 0.186701C164.12 -0.413299 164.5 0.586701 164.6 1.6867C164.73 3.3567 160.48 5.9667 160.48 7.9067Z" fill="#E3B68C"/>
<path d="M147.88 15.8967C149.43 14.5867 151.74 14.7867 153.03 16.3267C154.32 17.8667 154.12 20.1767 152.57 21.4767L139.38 30.8267C137.83 32.1267 135.53 31.9367 134.23 30.3967C132.94 28.8567 133.14 26.5467 134.69 25.2467L147.88 15.8967Z" fill="#AFBFD0"/>
<path d="M156.74 3.45667L163 7.19667L153.59 20.3467C152.55 22.0867 150.31 22.6567 148.58 21.6167C146.85 20.5867 146.29 18.3367 147.33 16.6067L156.74 3.45667Z" fill="#AFBFD0"/>
<path d="M133.99 99.7567C133.99 99.7567 133.11 102.697 134.06 103.747C134.33 104.037 135.47 104.127 136.79 103.847C137.66 103.657 138.59 103.137 139.45 103.017C141.97 102.667 142.62 101.567 143.67 100.177C145.9 97.2167 141.85 98.0967 139.21 99.0367C136.44 100.017 133.99 99.7567 133.99 99.7567Z" fill="#1C1D24"/>
<path d="M137.76 102.047C136.12 101.747 134.81 101.147 133.62 100.327L133.76 54.1267L142.88 55.7567L142.73 100.997C141.19 101.807 139.52 102.367 137.76 102.047Z" fill="#162B44"/>
<path d="M142.12 102.717C142.12 102.717 141.24 105.657 142.19 106.707C142.46 106.997 143.6 107.087 144.92 106.797C145.79 106.607 146.72 106.087 147.58 105.967C150.1 105.617 150.75 104.527 151.8 103.137C154.03 100.177 149.98 101.057 147.34 101.997C144.57 102.967 142.12 102.717 142.12 102.717Z" fill="#1C1D24"/>
<path d="M146.76 105.247C148.4 104.977 149.73 104.377 150.93 103.517L151.63 68.6267L150.69 62.7167H142.12L141.79 103.937C143.33 104.877 144.99 105.547 146.76 105.247Z" fill="#1E3A64"/>
<path d="M146.07 29.2767C145.7 28.6967 142.5 27.5667 139.82 27.5667C137.14 27.5667 135.8 25.1767 135.8 27.8567C135.8 30.5367 136.19 42.7867 138.87 42.7867C141.56 42.7867 147.52 31.5367 146.07 29.2767Z" fill="#DEDEDC"/>
<path d="M138.95 24.4967C138.95 26.1167 141.82 26.5567 144 26.7767H144.01C144.46 26.3767 144.71 25.9767 144.71 25.9767L144.77 22.7167L139.02 22.2167L138.9 24.4467L138.95 24.4967Z" fill="#E3B68C"/>
<path d="M138.18 19.9066C140.88 22.7366 141.94 22.6966 144.63 20.7966C147.33 18.8966 148.44 16.2066 147.8 12.2166C147.12 7.97662 142.06 6.89662 138.85 8.85662C132.7 12.6066 134.83 16.3966 138.18 19.9066Z" fill="#261512"/>
<path d="M139.34 17.1767C139.5 18.3767 140.2 21.8967 140.95 22.5467C142 23.4567 145 24.0667 146.38 22.9767C148.23 21.5067 147.98 18.4067 147.98 14.5567C147.98 10.7067 145.49 9.98667 143.36 11.6267C141.25 13.2667 138.83 13.3767 139.34 17.1767Z" fill="#EFCCAB"/>
<path d="M134.99 13.2867C135.23 11.6267 139.22 11.4567 139.22 11.4567C139.51 11.2267 141.27 4.81672 147.95 10.0367C149.34 11.1167 148.78 13.4467 148.78 13.4467C148.78 13.4467 148.43 13.6767 146.4 13.2167C145.34 12.9767 145.87 15.2067 145.5 15.5067C145.16 15.7767 143.87 17.9067 142.79 19.7967C142.64 20.0467 142.51 20.3067 142.37 20.5467C141.79 21.5767 143.11 23.2867 143.01 23.5767C142.79 24.1567 139.23 23.5167 138.44 21.9267C138.24 21.7467 133.77 17.1067 134.99 13.2867Z" fill="#261512"/>
<path d="M142.92 17.9867C143.27 18.9967 143.75 19.5867 144.39 19.5067C145.03 19.4267 145.37 18.7467 145.23 17.6867C145.09 16.6367 144.17 15.8567 143.53 15.9367C142.89 16.0267 142.53 16.8567 142.92 17.9867Z" fill="#EFCCAB"/>
<path d="M146.17 27.0867C146.19 26.7467 145.02 24.5667 144.72 24.7967C143.6 25.6867 140.33 25.4867 139.54 25.0767C138.84 24.7067 138.91 23.6267 138.91 23.6267C138.91 23.6267 134.43 27.5467 140.62 28.7567C141.87 28.9967 143.26 28.9067 144.39 28.3667C145.37 27.9067 147.06 27.9767 146.17 27.0867Z" fill="white"/>
<path d="M135.61 72.7067C139.9 75.0967 145.57 75.1767 149.67 72.2167C150.6 71.5367 151.41 70.6967 152.1 69.7467L152.52 38.8767C151.87 29.7567 147.53 27.2367 145.85 26.5067C145.85 26.5067 144.16 28.4367 140.39 27.6067C136.55 26.7667 138.22 24.3967 138.22 24.3967C133.22 24.4667 132.98 31.0267 132.83 33.3467C132.55 37.7067 132.27 60.2867 132.37 67.5667C132.79 69.3067 133.8 71.6967 135.61 72.7067Z" fill="#D8DFE6"/>
<path d="M135.61 72.7067C139.9 75.0967 145.57 75.1767 149.67 72.2167C150.6 71.5367 151.41 70.6967 152.1 69.7467L152.52 38.8767C151.87 29.7567 147.53 27.2367 145.85 26.5067C145.85 26.5067 144.16 28.4367 140.39 27.6067C136.55 26.7667 138.22 24.3967 138.22 24.3967C133.22 24.4667 132.98 31.0267 132.83 33.3467C132.55 37.7067 132.27 60.2867 132.37 67.5667C132.79 69.3067 133.8 71.6967 135.61 72.7067Z" fill="#4169E1"/>
<path d="M189.61 42.1366C191.62 41.8866 193.45 43.2966 193.71 45.2866C193.96 47.2866 192.54 49.1066 190.53 49.3666L174.37 50.0666C172.36 50.3266 170.53 48.9066 170.28 46.9166C170.03 44.9166 171.45 43.0966 173.46 42.8466L189.61 42.1366Z" fill="#AFBFD0"/>
<path d="M170.3 116.687C170.3 116.687 169.42 119.627 170.37 120.677C170.64 120.967 171.78 121.057 173.1 120.777C173.97 120.587 174.9 120.067 175.76 119.947C178.28 119.597 178.93 118.497 179.98 117.107C182.21 114.147 178.16 115.027 175.52 115.967C172.74 116.947 170.3 116.687 170.3 116.687Z" fill="#1C1D24"/>
<path d="M174.06 118.977C172.42 118.677 171.11 118.077 169.92 117.257L170.06 71.0566L179.18 72.6866L179.03 117.927C177.49 118.737 175.82 119.297 174.06 118.977Z" fill="#DEDEDC"/>
<path d="M178.42 119.647C178.42 119.647 177.54 122.587 178.49 123.637C178.76 123.927 179.9 124.017 181.22 123.727C182.08 123.537 183.02 123.017 183.88 122.897C186.4 122.547 187.05 121.457 188.1 120.067C190.33 117.107 186.28 117.987 183.64 118.927C180.87 119.897 178.42 119.647 178.42 119.647Z" fill="#1C1D24"/>
<path d="M183.06 122.177C184.7 121.907 186.03 121.307 187.23 120.447L187.93 85.5567L186.99 79.6467H178.43L178.1 120.867C179.64 121.807 181.29 122.477 183.06 122.177Z" fill="white"/>
<path d="M182.37 46.2066C182 45.6266 178.8 44.4966 176.12 44.4966C173.44 44.4966 172.1 42.1066 172.1 44.7866C172.1 47.4666 172.49 59.7166 175.18 59.7166C177.87 59.7166 183.82 48.4666 182.37 46.2066Z" fill="#DEDEDC"/>
<path d="M175.25 41.4366C175.24 43.0566 178.12 43.4866 180.3 43.7166L180.31 43.7266C180.76 43.3266 181.02 42.9266 181.02 42.9266L181.08 39.6666L175.33 39.1666L175.21 41.3966L175.25 41.4366Z" fill="#E3B68C"/>
<path d="M175.64 34.1066C175.8 35.3066 176.5 38.8266 177.25 39.4766C178.3 40.3866 181.3 40.9966 182.68 39.9066C184.53 38.4366 184.28 35.3366 184.28 31.4966C184.28 27.6466 181.79 26.9166 179.66 28.5566C177.55 30.1966 175.14 30.3066 175.64 34.1066Z" fill="#EFCCAB"/>
<path d="M179.22 34.9266C179.57 35.9366 180.05 36.5266 180.69 36.4466C181.33 36.3666 181.67 35.6866 181.53 34.6266C181.39 33.5766 180.47 32.7966 179.83 32.8766C179.19 32.9566 178.83 33.7866 179.22 34.9266Z" fill="#EFCCAB"/>
<path d="M182.47 44.0166C182.49 43.6766 181.32 41.4966 181.02 41.7266C179.9 42.6166 176.63 42.4166 175.84 42.0066C175.14 41.6366 175.21 40.5566 175.21 40.5566C175.21 40.5566 170.73 44.4766 176.92 45.6866C178.17 45.9266 179.56 45.8366 180.69 45.2966C181.67 44.8366 183.37 44.9066 182.47 44.0166Z" fill="white"/>
<path d="M171.91 89.6367C176.19 92.0167 181.87 92.1067 185.97 89.1467C186.9 88.4667 187.71 87.6267 188.4 86.6767L188.82 55.8067C188.17 46.6867 183.83 44.1667 182.15 43.4367C182.15 43.4367 180.46 45.3667 176.69 44.5367C172.85 43.6967 174.52 41.3267 174.52 41.3267C169.51 41.3967 169.28 47.9567 169.13 50.2767C168.85 54.6367 168.57 77.2267 168.67 84.4967C169.09 86.2367 170.11 88.6267 171.91 89.6367Z" fill="#D8DFE6"/>
<path d="M171.91 89.6367C176.19 92.0167 181.87 92.1067 185.97 89.1467C186.9 88.4667 187.71 87.6267 188.4 86.6767L188.82 55.8067C188.17 46.6867 183.83 44.1667 182.15 43.4367C182.15 43.4367 180.46 45.3667 176.69 44.5367C172.85 43.6967 174.52 41.3267 174.52 41.3267C169.51 41.3967 169.28 47.9567 169.13 50.2767C168.85 54.6367 168.57 77.2267 168.67 84.4967C169.09 86.2367 170.11 88.6267 171.91 89.6367Z" fill="#4169E1"/>
<path d="M199.12 38.1066C197.78 37.8566 196.55 36.1066 196.36 35.3766C196.63 34.9266 197.21 34.0666 197.95 33.2166C199 31.9966 200.37 30.7666 201.56 30.6766C204.1 30.4966 204.3 31.5466 204.22 32.6466C204.07 34.3266 199.44 36.1866 199.12 38.1066Z" fill="#E3B68C"/>
<path d="M196.64 33.3167L202.19 38.0466L190.72 49.4466C189.41 50.9866 187.1 51.1766 185.57 49.8666C184.04 48.5567 183.86 46.2566 185.17 44.7166L196.64 33.3167Z" fill="#AFBFD0"/>
<path d="M243.8 58.7367C244.72 57.1067 235.69 50.2367 234.05 49.3167L166.65 11.2367C165.02 10.3167 162.93 10.8967 162 12.5267C161.08 14.1567 161.66 16.2467 163.29 17.1667L230.69 55.2467C232.33 56.1767 242.88 60.3767 243.8 58.7367Z" fill="#A9E2DC"/>
<path d="M243.8 58.7367C244.51 57.4767 235.3 50.9167 233.67 49.9967L166.27 11.9167C164.64 10.9967 162.72 11.2667 162.01 12.5267C161.3 13.7867 162.05 15.5667 163.69 16.4867L231.09 54.5567C232.72 55.4967 243.09 59.9967 243.8 58.7367Z" fill="#BBE8E8"/>
<path d="M218.47 44.2767C219.16 43.0767 219.4 41.9367 219.08 41.5867L233.6 49.7967C235.23 50.7167 244.44 57.2767 243.73 58.5367C243.02 59.7967 232.65 55.2967 231.02 54.3667L216.47 46.1467C216.94 46.2167 217.78 45.4567 218.47 44.2767Z" fill="#9178C3"/>
<path d="M216.88 43.3666C217.57 42.1666 218.43 41.3966 218.91 41.4966L219.08 41.5866C219.41 41.9366 219.17 43.0766 218.47 44.2766C217.79 45.4566 216.95 46.2166 216.47 46.1466L216.27 46.0366C215.96 45.6566 216.2 44.5466 216.88 43.3666Z" fill="#B59BD4"/>
<path d="M232.03 55.0567C231.61 54.8567 231.29 54.6967 231.09 54.5867C231.29 54.6967 231.62 54.8567 232.03 55.0567Z" fill="#9CD9D3"/>
<path d="M241.78 58.7566C239.03 58.1166 234.25 56.1066 232.04 55.0566C231.62 54.8566 231.3 54.6966 231.1 54.5866C231.1 54.5866 231.1 54.5866 231.09 54.5866L169.39 19.7266L170.22 18.2966C184.21 28.9166 200.38 36.6566 216.29 44.7166C216.1 45.3266 216.09 45.8166 216.27 46.0366L216.47 46.1466L231.02 54.3666C232.2 55.0266 237.91 57.5566 241.28 58.4366C241.44 58.5466 241.61 58.6566 241.78 58.7566ZM216.59 46.1466C216.6 46.1466 216.62 46.1466 216.63 46.1366C216.62 46.1466 216.61 46.1466 216.59 46.1466ZM216.63 46.1466C216.91 46.0866 217.28 45.8266 217.65 45.4166C217.28 45.8266 216.92 46.0866 216.63 46.1466Z" fill="#AEE4E1"/>
<path d="M241.27 58.4366C237.9 57.5466 232.19 55.0266 231.01 54.3666L216.46 46.1466C216.48 46.1466 216.5 46.1466 216.52 46.1466C216.54 46.1466 216.56 46.1466 216.59 46.1466C216.6 46.1466 216.62 46.1466 216.63 46.1366C216.91 46.0766 217.28 45.8166 217.65 45.4066C225.71 49.5066 233.69 53.7066 241.27 58.4366Z" fill="#8574BC"/>
<path d="M216.53 46.1567C216.51 46.1567 216.49 46.1567 216.47 46.1567L216.27 46.0467C216.09 45.8267 216.1 45.3367 216.29 44.7267C216.75 44.9567 217.21 45.1967 217.67 45.4267C217.3 45.8367 216.93 46.1067 216.65 46.1567C216.64 46.1567 216.62 46.1567 216.61 46.1667C216.57 46.1567 216.55 46.1567 216.53 46.1567Z" fill="#A794D1"/>
<path d="M153.96 20.3867C159.18 23.4367 165.87 21.6767 168.92 16.4567C171.97 11.2367 170.21 4.54667 164.99 1.49667C159.77 -1.55333 153.08 0.206675 150.03 5.42667C146.99 10.6467 148.75 17.3467 153.96 20.3867Z" fill="#D83D24"/>
<path d="M150.05 5.40673C150.05 5.39673 150.05 5.39673 150.05 5.40673C150.05 5.39673 150.05 5.39673 150.05 5.40673ZM150.09 5.34673C150.09 5.33673 150.09 5.33673 150.09 5.34673C150.09 5.33673 150.09 5.33673 150.09 5.34673Z" fill="#31738A"/>
<path d="M162.89 16.4667C160.24 15.8867 157.79 14.7967 155.99 13.3067C153.47 11.6267 150.96 8.66667 150.37 4.91667C150.26 5.08667 150.14 5.24667 150.03 5.42667C149.92 5.61667 149.81 5.81667 149.71 6.01667C149.81 5.81667 149.92 5.62667 150.03 5.42667C150.04 5.41667 150.04 5.40667 150.04 5.39667C150.04 5.39667 150.04 5.39667 150.04 5.38667C150.05 5.37667 150.05 5.36667 150.06 5.35667C150.07 5.34667 150.07 5.33667 150.08 5.32667C150.08 5.32667 150.08 5.32667 150.08 5.31667C150.82 4.07667 151.77 3.03667 152.86 2.21667C153.75 6.23667 155.89 9.70668 159.31 11.0667C162.36 12.2067 165.54 12.8167 168.71 12.8167C169 12.8167 169.29 12.8067 169.57 12.7967L168.38 14.8567C167.97 15.0867 167.53 15.2967 167.05 15.4967C165.64 15.9867 164.24 16.3067 162.89 16.4667Z" fill="#D33822"/>
<path d="M154.31 20.5866C154.3 20.5866 154.3 20.5766 154.29 20.5766C154.3 20.5766 154.31 20.5866 154.31 20.5866ZM154.29 20.5766C154.19 20.5266 154.1 20.4766 154 20.4166C154.1 20.4666 154.2 20.5266 154.29 20.5766ZM154.01 20.4166C154 20.4166 154 20.4166 154.01 20.4166C154 20.4166 154 20.4166 154.01 20.4166C154 20.4166 154 20.4166 154.01 20.4166Z" fill="#2F6C7F"/>
<path d="M153.82 20.3067C153.81 20.2967 153.81 20.2967 153.82 20.3067C153.81 20.2967 153.81 20.2967 153.82 20.3067Z" fill="#CB3023"/>
<path d="M153.41 20.0467C153.4 20.0367 153.4 20.0367 153.41 20.0467C153.4 20.0367 153.4 20.0367 153.41 20.0467Z" fill="#CB3023"/>
<path d="M153.38 20.0267C153.38 20.0267 153.37 20.0267 153.37 20.0167C153.37 20.0167 153.37 20.0167 153.38 20.0267Z" fill="#CB3023"/>
<path d="M153.35 20.0067C153.33 19.9967 153.31 19.9767 153.29 19.9667C153.31 19.9767 153.33 19.9967 153.35 20.0067Z" fill="#CB3023"/>
<path d="M153.29 19.9667C153.28 19.9567 153.28 19.9567 153.27 19.9467C153.27 19.9467 153.28 19.9567 153.29 19.9667Z" fill="#CB3023"/>
<path d="M153.26 19.9466C153.25 19.9366 153.24 19.9366 153.24 19.9266C153.25 19.9366 153.25 19.9366 153.26 19.9466Z" fill="#CB3023"/>
<path d="M153.23 19.9266C153.22 19.9166 153.21 19.9166 153.2 19.9066C153.22 19.9166 153.23 19.9166 153.23 19.9266Z" fill="#CB3023"/>
<path d="M148.54 10.7567C148.57 9.14672 148.95 7.52672 149.71 6.01672C148.95 7.53672 148.57 9.15672 148.54 10.7567Z" fill="#2A606F"/>
<path d="M153.21 19.9066C150.2 17.8066 148.54 14.4066 148.54 10.9266C148.54 10.8666 148.54 10.8166 148.54 10.7566C148.57 9.14663 148.95 7.52663 149.71 6.01663C149.81 5.81663 149.92 5.62663 150.03 5.42663C150.13 5.24663 150.25 5.08663 150.37 4.91663C150.95 8.66663 153.47 11.6166 155.99 13.3066C157.79 14.8066 160.23 15.8966 162.89 16.4666C162.18 16.5466 161.49 16.5966 160.82 16.5966C154.76 16.5966 150.06 13.2266 149.37 6.83663C147.45 11.5166 149.01 16.9766 153.21 19.9066Z" fill="#CB3023"/>
<path d="M159.1 21.8767C157.48 21.8167 155.85 21.4067 154.34 20.5967C154.45 20.6567 154.56 20.7167 154.67 20.7667C154.68 20.7667 154.68 20.7767 154.69 20.7767C154.69 20.7767 154.7 20.7767 154.7 20.7867C154.7 20.7867 154.71 20.7867 154.71 20.7967C154.72 20.7967 154.72 20.8067 154.73 20.8067C156.13 21.4767 157.62 21.8267 159.1 21.8767Z" fill="#254C53"/>
<path d="M159.47 21.8867C159.35 21.8867 159.22 21.8867 159.1 21.8767C157.62 21.8267 156.13 21.4767 154.73 20.7967C156.25 21.5267 157.86 21.8867 159.46 21.8867C161.54 21.8867 163.58 21.2967 165.34 20.1767L165.33 20.1967C163.57 21.2967 161.54 21.8867 159.47 21.8867ZM154.72 20.7967C154.71 20.7967 154.71 20.7867 154.7 20.7867C154.71 20.7867 154.72 20.7967 154.72 20.7967ZM167.21 16.9367C165.75 16.9367 164.29 16.7767 162.89 16.4667C164.24 16.3067 165.64 15.9867 167.06 15.5167C167.55 15.3167 167.99 15.1067 168.39 14.8767L167.21 16.9367Z" fill="#C22923"/>
<path d="M154.33 20.5967C154.32 20.5967 154.32 20.5967 154.32 20.5867C154.32 20.5867 154.32 20.5867 154.33 20.5967Z" fill="#254C53"/>
<path d="M153.96 20.3867C153.95 20.3767 153.94 20.3767 153.93 20.3667C153.95 20.3767 153.95 20.3867 153.96 20.3867Z" fill="#27565F"/>
<path d="M153.96 20.3867C153.95 20.3767 153.94 20.3767 153.93 20.3667C153.94 20.3767 153.95 20.3867 153.96 20.3867Z" fill="#C82C23"/>
<path d="M154 20.4167C153.99 20.4067 153.97 20.4067 153.96 20.3967C153.98 20.3967 153.99 20.4067 154 20.4167Z" fill="#C22923"/>
<path d="M153.93 20.3667C153.92 20.3667 153.92 20.3567 153.91 20.3567C153.91 20.3567 153.92 20.3667 153.93 20.3667Z" fill="#27565F"/>
<path d="M153.93 20.3667C153.92 20.3567 153.91 20.3567 153.91 20.3567C153.91 20.3567 153.92 20.3667 153.93 20.3667Z" fill="#C82C23"/>
<path d="M153.9 20.3467C153.89 20.3467 153.89 20.3367 153.88 20.3367C153.88 20.3467 153.89 20.3467 153.9 20.3467Z" fill="#27565F"/>
<path d="M153.9 20.3567C153.9 20.3467 153.9 20.3467 153.9 20.3567C153.89 20.3467 153.89 20.3467 153.88 20.3467C153.88 20.3467 153.89 20.3467 153.9 20.3567Z" fill="#C82C23"/>
<path d="M153.87 20.3367C153.86 20.3367 153.86 20.3267 153.85 20.3267C153.85 20.3267 153.86 20.3267 153.87 20.3367Z" fill="#27565F"/>
<path d="M153.87 20.3367C153.86 20.3367 153.86 20.3267 153.85 20.3267C153.85 20.3267 153.86 20.3267 153.87 20.3367Z" fill="#C82C23"/>
<path d="M153.84 20.3166C153.83 20.3166 153.83 20.3066 153.82 20.3066C153.82 20.3066 153.83 20.3066 153.84 20.3166Z" fill="#27565F"/>
<path d="M153.84 20.3166C153.83 20.3066 153.83 20.3066 153.82 20.3066C153.82 20.3066 153.83 20.3166 153.84 20.3166Z" fill="#C82C23"/>
<path d="M153.81 20.2966C153.8 20.2966 153.8 20.2866 153.79 20.2866C153.79 20.2866 153.8 20.2966 153.81 20.2966Z" fill="#27565F"/>
<path d="M153.81 20.2966C153.8 20.2866 153.8 20.2866 153.79 20.2866C153.79 20.2866 153.8 20.2966 153.81 20.2966Z" fill="#C82C23"/>
<path d="M153.78 20.2767C153.77 20.2767 153.77 20.2667 153.76 20.2667C153.77 20.2767 153.77 20.2767 153.78 20.2767Z" fill="#27565F"/>
<path d="M153.78 20.2767C153.77 20.2667 153.77 20.2667 153.76 20.2667C153.76 20.2667 153.77 20.2767 153.78 20.2767Z" fill="#C82C23"/>
<path d="M153.75 20.2567C153.74 20.2567 153.74 20.2467 153.73 20.2467C153.74 20.2567 153.74 20.2567 153.75 20.2567Z" fill="#27565F"/>
<path d="M153.75 20.2667C153.74 20.2667 153.74 20.2567 153.73 20.2567C153.73 20.2567 153.73 20.2567 153.72 20.2567C153.73 20.2567 153.74 20.2567 153.75 20.2667Z" fill="#C82C23"/>
<path d="M153.72 20.2467C153.71 20.2467 153.71 20.2367 153.7 20.2367C153.71 20.2367 153.71 20.2367 153.72 20.2467ZM153.69 20.2267L153.68 20.2167C153.68 20.2167 153.69 20.2267 153.69 20.2267Z" fill="#27565F"/>
<path d="M153.68 20.2166C153.68 20.2166 153.67 20.2166 153.67 20.2066C153.67 20.2166 153.67 20.2166 153.68 20.2166ZM153.66 20.2066C153.65 20.1966 153.64 20.1966 153.63 20.1866C153.64 20.1966 153.65 20.2066 153.66 20.2066ZM153.62 20.1866C153.61 20.1866 153.61 20.1766 153.6 20.1766C153.61 20.1766 153.62 20.1766 153.62 20.1866ZM153.59 20.1666L153.58 20.1566C153.58 20.1566 153.59 20.1566 153.59 20.1666Z" fill="#9E7C7E"/>
<path d="M153.72 20.2467C153.71 20.2367 153.7 20.2367 153.7 20.2367C153.7 20.2367 153.69 20.2367 153.69 20.2267L153.68 20.2167C153.68 20.2167 153.67 20.2167 153.67 20.2067C153.66 20.1967 153.65 20.1967 153.64 20.1867L153.63 20.1767C153.62 20.1767 153.62 20.1667 153.61 20.1667C153.6 20.1667 153.6 20.1567 153.59 20.1567L153.58 20.1467C153.62 20.1867 153.67 20.2167 153.72 20.2467Z" fill="#C82C23"/>
<path d="M153.56 20.1467C153.56 20.1467 153.55 20.1467 153.55 20.1367C153.55 20.1367 153.56 20.1367 153.56 20.1467Z" fill="#9E7C7E"/>
<path d="M153.57 20.1467C153.57 20.1467 153.56 20.1467 153.56 20.1367C153.56 20.1367 153.55 20.1367 153.55 20.1267C153.55 20.1367 153.56 20.1467 153.57 20.1467Z" fill="#C82C23"/>
<path d="M153.53 20.1267C153.53 20.1267 153.52 20.1267 153.52 20.1167C153.53 20.1167 153.53 20.1267 153.53 20.1267Z" fill="#9E7C7E"/>
<path d="M153.54 20.1267C153.53 20.1167 153.53 20.1167 153.52 20.1167C153.52 20.1167 153.52 20.1167 153.51 20.1167C153.53 20.1167 153.53 20.1267 153.54 20.1267Z" fill="#C82C23"/>
<path d="M153.51 20.1167C153.51 20.1067 153.51 20.1067 153.51 20.1167C153.5 20.1067 153.5 20.1067 153.5 20.1067C153.5 20.1067 153.5 20.1067 153.49 20.1067C153.5 20.1067 153.5 20.1067 153.51 20.1167Z" fill="#C82C23"/>
<path d="M153.48 20.0967C153.48 20.0867 153.48 20.0867 153.48 20.0967C153.47 20.0867 153.47 20.0867 153.47 20.0867C153.47 20.0867 153.46 20.0867 153.46 20.0767C153.47 20.0867 153.47 20.0867 153.48 20.0967Z" fill="#C82C23"/>
<path d="M153.45 20.0767C153.45 20.0767 153.45 20.0667 153.45 20.0767C153.45 20.0667 153.45 20.0667 153.45 20.0767C153.44 20.0667 153.43 20.0667 153.43 20.0667C153.44 20.0667 153.45 20.0667 153.45 20.0767ZM153.42 20.0567C153.41 20.0567 153.41 20.0467 153.4 20.0467C153.41 20.0467 153.42 20.0467 153.42 20.0567ZM153.4 20.0367C153.39 20.0367 153.39 20.0267 153.38 20.0267C153.38 20.0267 153.39 20.0367 153.4 20.0367ZM153.37 20.0167C153.36 20.0167 153.36 20.0067 153.36 20.0067C153.36 20.0067 153.36 20.0167 153.37 20.0167Z" fill="#C82C23"/>
<path d="M154.73 20.7966C154.72 20.7966 154.72 20.7966 154.73 20.7966C154.72 20.7966 154.72 20.7966 154.73 20.7966ZM154.7 20.7866C154.7 20.7866 154.69 20.7866 154.69 20.7766C154.7 20.7866 154.7 20.7866 154.7 20.7866ZM154.68 20.7766C154.67 20.7766 154.67 20.7666 154.66 20.7666C154.67 20.7666 154.68 20.7766 154.68 20.7766ZM154.66 20.7666C154.55 20.7166 154.44 20.6566 154.33 20.5966C154.33 20.5966 154.33 20.5966 154.32 20.5966C154.31 20.5966 154.31 20.5966 154.31 20.5866C154.3 20.5866 154.3 20.5766 154.29 20.5766C154.19 20.5266 154.1 20.4766 154 20.4166C154.22 20.5366 154.44 20.6566 154.66 20.7666ZM154.01 20.4166C154 20.4166 154 20.4166 154.01 20.4166C154 20.4166 154 20.4166 154.01 20.4166Z" fill="#224042"/>
<path d="M159.46 21.8867C157.86 21.8867 156.25 21.5367 154.73 20.7967C154.72 20.7967 154.72 20.7867 154.71 20.7867C154.71 20.7867 154.7 20.7867 154.7 20.7767C154.7 20.7767 154.69 20.7767 154.69 20.7667C154.68 20.7667 154.68 20.7567 154.67 20.7567C154.45 20.6467 154.23 20.5267 154.01 20.4067C154 20.3967 153.98 20.3967 153.97 20.3867C153.96 20.3767 153.95 20.3767 153.94 20.3667C153.94 20.3667 153.94 20.3667 153.93 20.3667C153.92 20.3567 153.91 20.3567 153.91 20.3567H153.9C153.89 20.3567 153.89 20.3467 153.88 20.3467C153.88 20.3467 153.87 20.3467 153.87 20.3367C153.86 20.3367 153.86 20.3267 153.85 20.3267C153.85 20.3267 153.85 20.3267 153.84 20.3267C153.83 20.3267 153.82 20.3167 153.82 20.3167C153.82 20.3167 153.82 20.3167 153.81 20.3167C153.8 20.3167 153.79 20.3067 153.79 20.3067C153.79 20.3067 153.79 20.3067 153.78 20.3067C153.77 20.2967 153.76 20.2967 153.76 20.2867C153.76 20.2867 153.76 20.2867 153.75 20.2867C153.74 20.2867 153.73 20.2767 153.72 20.2667C153.67 20.2367 153.62 20.2067 153.57 20.1767C153.56 20.1667 153.55 20.1667 153.54 20.1567C153.54 20.1567 153.54 20.1567 153.53 20.1567C153.52 20.1467 153.51 20.1467 153.51 20.1467C153.51 20.1467 153.51 20.1467 153.5 20.1467C153.49 20.1367 153.49 20.1367 153.48 20.1367C153.48 20.1367 153.47 20.1367 153.47 20.1267C153.46 20.1267 153.46 20.1167 153.45 20.1167C153.45 20.1167 153.44 20.1167 153.44 20.1067C153.43 20.1067 153.43 20.0967 153.42 20.0967L153.41 20.0867C153.4 20.0867 153.4 20.0767 153.39 20.0767L153.38 20.0667C153.37 20.0667 153.37 20.0567 153.36 20.0567C153.36 20.0567 153.35 20.0567 153.35 20.0467C153.34 20.0467 153.34 20.0367 153.34 20.0367C153.32 20.0267 153.3 20.0067 153.28 19.9967C153.28 19.9967 153.28 19.9967 153.27 19.9967C153.26 19.9867 153.26 19.9867 153.25 19.9767C153.24 19.9667 153.23 19.9667 153.23 19.9567C153.22 19.9467 153.21 19.9467 153.2 19.9367C149 17.0067 147.44 11.5467 149.35 6.85669C150.04 13.2467 154.74 16.6167 160.8 16.6167C161.48 16.6167 162.17 16.5767 162.87 16.4867C164.27 16.7867 165.73 16.9567 167.19 16.9567L165.32 20.1967C163.58 21.2867 161.53 21.8867 159.46 21.8867Z" fill="#BB2423"/>
<path d="M167.88 22.3166L173.55 12.4966C174 11.7166 173.73 10.7066 172.95 10.2566C172.17 9.80665 171.16 10.0766 170.71 10.8566L165.04 20.6766C164.59 21.4566 164.86 22.4666 165.64 22.9166C166.42 23.3666 167.43 23.0966 167.88 22.3166Z" fill="#D83D24"/>
<path d="M159.86 5.89665C159.69 5.89665 159.51 5.88665 159.34 5.86665C158.25 5.75665 157.16 5.25665 156.53 4.36665C155.23 2.52665 157.42 2.06665 159.63 2.06665C161.06 2.06665 162.49 2.25665 162.99 2.39665C163.47 2.52665 163.99 2.72665 164.22 3.16665C164.46 3.63665 164.28 4.22665 163.92 4.60665C163.56 4.98665 163.06 5.19665 162.57 5.36665C161.69 5.67665 160.77 5.89665 159.86 5.89665Z" fill="#E26351"/>
<path d="M167.31 22.2367C167.03 21.1567 167.53 20.0167 168.18 19.0967C168.83 18.1867 169.63 17.3567 170.07 16.3267C170.46 15.4267 170.54 14.4367 170.83 13.5067C171.12 12.5967 172.22 11.4867 172.71 11.4867C172.99 11.4867 173.07 11.8667 172.65 12.8767C171.91 14.6767 171.11 16.4667 169.96 18.0567C169.6 18.5567 169.2 19.0467 168.91 19.5867C168.42 20.5067 168.17 21.6367 167.31 22.2367Z" fill="#E26351"/>
<path d="M242.57 64.4566C243.04 62.9466 243.43 61.6766 243.53 60.1566L243.56 60.2866L243.6 60.4966L243.65 60.7066L243.7 60.9266C243.74 61.0766 243.78 61.2166 243.82 61.3666L243.89 61.5866L243.96 61.7966L244.04 62.0066C244.31 62.7466 244.67 63.5166 244.96 64.1666C245.69 66.8066 243.82 66.7966 243.11 66.4366C242.35 66.0966 242.24 65.2166 242.57 64.4566Z" fill="#9178C3"/>
<path d="M242.4 65.2267C242.4 64.9567 242.46 64.6667 242.57 64.3867C242.7 63.9767 242.82 63.5767 242.93 63.1967C242.93 63.2167 242.93 63.2267 242.93 63.2467C242.82 63.6367 242.69 64.0367 242.56 64.4467C242.46 64.7067 242.4 64.9767 242.4 65.2267Z" fill="#83B4D6"/>
<path d="M243.87 66.5267C243.58 66.5267 243.31 66.4567 243.12 66.3567C242.63 66.1467 242.41 65.7067 242.4 65.2267C242.41 64.9767 242.47 64.7067 242.57 64.4467C242.7 64.0367 242.82 63.6367 242.94 63.2467C243.05 64.4067 243.47 65.3567 245.11 65.4867C244.98 66.2867 244.41 66.5267 243.87 66.5267Z" fill="#866DBD"/>
<path d="M244.79 64.9167L244.62 64.8967C244.5 64.8067 244.43 64.6767 244.37 64.5467C244.29 64.3867 244.23 64.2167 244.17 64.0567C244.12 63.9067 244.08 63.7367 244.12 63.5867L244.39 63.3567C244.5 63.4267 244.59 63.6767 244.65 63.7967C244.79 64.1067 244.86 64.4467 244.84 64.7867L244.79 64.9167Z" fill="#A68FCF"/>
<path d="M165.47 15.5667L166.27 12.4067L167.56 10.1567C167.7 9.94669 168.32 8.89669 169.02 8.90669C169.48 8.91669 172.1 9.26669 171.81 10.1367C171.62 10.7167 169.57 14.6767 169.57 14.6767C169.57 14.6867 168.8 15.0467 167.94 16.4867L167.83 17.8867L165.47 15.5667Z" fill="#DFA993"/>
<path d="M161.79 22.9667C163.34 22.3167 165.11 23.0367 165.77 24.5667C166.42 26.1067 165.69 27.8767 164.15 28.5367L149.09 36.0967C147.16 36.9167 144.93 36.0167 144.12 34.0967C143.31 32.1767 144.22 29.9567 146.15 29.1367L161.79 22.9667Z" fill="#AFBFD0"/>
<path d="M165.26 13.0567C166.09 11.6567 171.49 13.9467 170.87 15.1667L165.49 27.0567C164.76 28.8667 162.72 29.7367 160.92 29.0067C159.12 28.2867 158.26 26.2367 158.99 24.4267L165.26 13.0567Z" fill="#AFBFD0"/>
<path d="M174.48 36.8367C177.18 39.6667 178.24 39.6267 180.93 37.7267C183.63 35.8267 184.74 33.1367 184.1 29.1467C183.42 24.9067 178.36 23.8267 175.15 25.7867C169 29.5367 171.13 33.3267 174.48 36.8367Z" fill="#52423C"/>
<path d="M171.29 30.2167C171.53 28.5567 175.52 28.3867 175.52 28.3867C175.81 28.1567 177.57 21.7467 184.25 26.9667C185.64 28.0467 185.08 30.3767 185.08 30.3767C185.08 30.3767 184.73 30.6067 182.7 30.1467C181.64 29.9067 182.17 32.1367 181.8 32.4367C181.46 32.7067 180.17 34.8367 179.09 36.7167C178.94 36.9667 178.8 37.2267 178.67 37.4667C178.09 38.4967 179.41 40.2067 179.31 40.4967C179.09 41.0767 175.53 40.4367 174.74 38.8467C174.54 38.6767 170.08 34.0367 171.29 30.2167Z" fill="#52423C"/>
<path d="M217.38 47.6066L220.31 45.3066L223.04 44.1766C223.31 44.0866 224.61 43.5666 225.24 44.0766C225.65 44.4066 227.77 46.5566 226.9 47.1466C226.32 47.5366 221.7 49.6866 221.7 49.6866C221.69 49.6966 220.74 49.4766 218.96 50.1866L217.89 51.3766L217.38 47.6066Z" fill="#DFA993"/>
<path d="M205.18 51.0566C207.14 51.5766 208.31 53.5866 207.8 55.5366C207.28 57.4866 205.27 58.6466 203.31 58.1266L183.3 54.2066C180.85 53.5566 179.38 51.0566 180.02 48.6166C180.67 46.1766 183.18 44.7266 185.63 45.3666L205.18 51.0566Z" fill="#AFBFD0"/>
<path d="M217.82 45.0967C219.55 44.4067 222.83 50.2666 221.41 50.9266L208.23 57.9067C206.31 59.0267 203.85 58.3867 202.73 56.4767C201.61 54.5667 202.27 52.1066 204.19 50.9866L217.82 45.0967Z" fill="#AFBFD0"/>
<path d="M439.37 265.287C437.97 263.617 435.49 263.397 433.83 264.787C432.17 266.187 431.96 268.667 433.36 270.337L443.23 282.227C444.63 283.897 447.12 284.117 448.77 282.727C450.43 281.337 450.64 278.857 449.24 277.187L439.37 265.287Z" fill="white"/>
<path d="M424.46 258.797L419.79 256.577L417.32 256.627C417.08 256.647 415.9 256.687 415.6 257.287C415.4 257.677 414.49 260.037 415.35 260.197C415.92 260.307 420.71 260.507 420.71 260.507C421.03 260.557 421.89 261.037 422.12 260.957L423.69 260.407L424.46 258.797Z" fill="#E8BAA8"/>
<path d="M422.73 259.997C423.1 259.987 423.41 260.287 423.42 260.657C423.43 261.027 423.14 261.337 422.76 261.347L419.08 261.427C418.71 261.437 418.4 261.137 418.39 260.767C418.38 260.397 418.68 260.087 419.04 260.077L422.73 259.997Z" fill="#E8BAA8"/>
<path d="M427.14 258.677C425.42 257.307 422.91 257.577 421.55 259.287C420.19 261.007 420.47 263.497 422.19 264.877L430.47 268.977C432.19 270.347 434.69 270.077 436.06 268.367C437.43 266.657 437.14 264.157 435.42 262.777L427.14 258.677Z" fill="white"/>
<path d="M451.55 350.507C450.94 351.347 451.3 352.137 451.26 353.337L450.75 353.327C450.71 352.887 450.74 351.497 450.46 350.837C450.4 350.687 450.31 350.577 450.21 350.467L451.55 350.507Z" fill="#100F0D"/>
<path d="M445.58 347.267C445.8 345.797 445.96 344.407 445.89 342.767C445.88 342.177 445.75 338.397 445.55 334.377L451.16 332.317C451.3 334.887 451.96 339.077 451.11 341.527C450.85 342.277 450.6 344.077 450.49 344.967C450.43 345.457 450.51 346.307 450.63 346.887C450.68 347.107 451.01 347.697 451.1 347.997C451.21 348.367 451.1 348.437 451.19 348.677C451.38 349.207 451.41 349.017 450.98 349.167C450.71 349.267 450.38 349.297 450.11 349.387C449.73 349.507 449.46 349.727 449.16 349.947C448.69 350.287 448.05 350.487 447.73 350.977C447.44 351.417 447.56 352.107 447.36 352.607C447.17 353.087 446.82 353.447 446.19 353.447H446.16L444.64 353.027C444.43 352.917 444.23 352.777 444.03 352.607C443.84 352.447 443.66 352.267 443.51 352.087C443.66 352.007 444.06 350.777 444.24 350.687C444.52 350.547 445.37 348.647 445.58 347.267Z" fill="#E8BAA8"/>
<path d="M443.35 350.817C443.63 350.707 444.01 350.727 444.23 350.527L444.36 350.487C444.49 350.527 444.62 350.767 444.75 350.867L445.08 350.987C445.39 351.087 445.67 351.127 445.93 351.097C446.45 351.047 446.89 350.797 447.22 350.467C448.12 349.607 449.1 348.907 450.23 348.317C450.6 348.127 450.96 347.547 451.05 347.667C451.4 348.227 451.67 348.797 451.7 348.977C451.86 349.737 452.01 350.557 451.62 350.977C451.38 351.237 450.72 351.567 449.93 351.317C449.3 351.117 448.55 351.117 448.3 351.307C447.72 351.757 448.33 353.857 447.28 353.667C446.32 353.507 445.35 353.267 444.36 352.987C443.91 352.857 443.45 352.717 442.98 352.517C442.75 352.427 442.38 352.287 442.18 352.037C441.52 351.227 443.02 350.937 443.35 350.817Z" fill="#201D1D"/>
<path d="M439.18 356.787C438.57 357.627 438.92 358.417 438.88 359.617L438.36 359.607C438.33 359.167 438.36 357.777 438.07 357.117C438.01 356.967 437.92 356.857 437.82 356.747L439.18 356.787Z" fill="#100F0D"/>
<path d="M433.2 353.527C433.43 352.057 433.58 350.667 433.52 349.027C433.51 348.437 433.27 343.287 433.08 339.267L438.81 338.587C438.95 341.167 439.59 345.347 438.74 347.797C438.47 348.557 438.22 350.347 438.11 351.237C438.05 351.727 438.13 352.577 438.25 353.157C438.3 353.367 438.62 353.967 438.72 354.267C438.84 354.637 438.72 354.707 438.81 354.947C439 355.477 439.03 355.287 438.6 355.447C438.33 355.547 438 355.567 437.73 355.657C437.35 355.777 437.08 355.997 436.78 356.217C436.3 356.557 435.67 356.757 435.35 357.247C435.06 357.677 435.18 358.377 434.98 358.867C434.78 359.347 434.44 359.707 433.81 359.707H433.78L432.26 359.287C432.05 359.177 431.85 359.037 431.66 358.867C431.47 358.707 431.3 358.527 431.14 358.337C431.29 358.257 431.7 357.037 431.87 356.947C432.14 356.817 433 354.907 433.2 353.527Z" fill="#E8BAA8"/>
<path d="M430.97 357.077C431.25 356.967 431.63 356.977 431.85 356.787L431.98 356.747C432.11 356.787 432.24 357.027 432.38 357.117L432.7 357.247C433.01 357.347 433.29 357.387 433.55 357.357C434.07 357.307 434.51 357.057 434.84 356.727C435.73 355.857 436.72 355.167 437.85 354.577C438.22 354.387 438.59 353.817 438.67 353.937C439.02 354.507 439.28 355.067 439.32 355.247C439.48 356.007 439.63 356.827 439.24 357.247C439 357.507 438.33 357.837 437.55 357.587C436.92 357.387 436.17 357.387 435.92 357.577C435.34 358.017 435.94 360.117 434.9 359.937C433.95 359.777 432.97 359.527 431.99 359.247C431.53 359.117 431.07 358.977 430.6 358.777C430.37 358.677 430 358.547 429.8 358.297C429.14 357.487 430.64 357.197 430.97 357.077Z" fill="#201D1D"/>
<path d="M436.59 282.097C436.59 279.007 439.97 276.087 443.22 274.627C444.46 274.067 446.04 274.837 447.19 275.457C448.67 276.237 449.7 277.617 449.7 279.347C449.7 282.437 449.25 296.527 446.16 296.527C443.07 296.517 436.59 285.187 436.59 282.097Z" fill="white"/>
<path d="M437.88 280.967C438.31 280.297 441.98 278.997 445.07 278.997C448.16 278.997 449.7 276.247 449.7 279.337C449.7 282.427 449.25 296.517 446.16 296.517C443.07 296.517 436.22 283.567 437.88 280.967Z" fill="#DEDEDC"/>
<path d="M446.07 275.477C446.07 277.337 442.78 277.837 440.26 278.097L440.24 278.107C439.72 277.637 439.43 277.187 439.43 277.187L439.36 273.437L445.99 272.857L446.12 275.417L446.07 275.477Z" fill="#E8BAA8"/>
<path d="M446.97 270.187C443.86 273.447 442.65 273.397 439.55 271.207C436.45 269.027 435.16 265.927 435.9 261.337C436.69 256.447 442.5 255.217 446.2 257.477C453.27 261.777 450.82 266.137 446.97 270.187Z" fill="#8C492C"/>
<path d="M445.63 267.047C445.45 268.427 444.64 272.477 443.77 273.227C442.56 274.277 439.11 274.977 437.52 273.717C435.39 272.027 435.69 268.457 435.69 264.037C435.69 259.607 438.56 258.777 440.99 260.657C443.44 262.537 446.21 262.667 445.63 267.047Z" fill="#E8BAA8"/>
<path d="M441.51 267.977C441.11 269.137 440.55 269.817 439.82 269.727C439.08 269.637 438.69 268.857 438.85 267.637C439.01 266.417 440.07 265.527 440.81 265.627C441.54 265.717 441.96 266.667 441.51 267.977Z" fill="#E8BAA8"/>
<path d="M437.77 278.447C437.75 278.057 439.09 275.547 439.43 275.817C440.72 276.837 444.48 276.607 445.39 276.137C446.2 275.717 446.11 274.477 446.11 274.477C446.11 274.477 451.26 278.987 444.14 280.377C442.71 280.657 441.11 280.557 439.8 279.927C438.69 279.387 436.74 279.477 437.77 278.447Z" fill="white"/>
<path d="M436.59 282.097C436.59 279.007 439.97 276.087 443.22 274.627C444.46 274.067 446.04 274.837 447.19 275.457C448.67 276.237 449.7 277.617 449.7 279.347C449.7 282.437 449.25 296.527 446.16 296.527C443.07 296.517 436.59 285.187 436.59 282.097Z" fill="white"/>
<path d="M437.88 280.967C438.31 280.297 441.98 278.997 445.07 278.997C448.16 278.997 449.7 276.247 449.7 279.337C449.7 282.427 449.25 296.517 446.16 296.517C443.07 296.517 436.22 283.567 437.88 280.967Z" fill="#DEDEDC"/>
<path d="M446.07 275.477C446.07 277.337 442.78 277.837 440.26 278.097L440.24 278.107C439.72 277.637 439.43 277.187 439.43 277.187L439.36 273.437L445.99 272.857L446.12 275.417L446.07 275.477Z" fill="#E8BAA8"/>
<path d="M446.97 270.187C443.86 273.447 442.65 273.397 439.55 271.207C436.45 269.027 435.16 265.927 435.9 261.337C436.69 256.447 442.5 255.217 446.2 257.477C453.27 261.777 450.82 266.137 446.97 270.187Z" fill="#5F2414"/>
<path d="M445.63 267.047C445.45 268.427 444.64 272.477 443.77 273.227C442.56 274.277 439.11 274.977 437.52 273.717C435.39 272.027 435.69 268.457 435.69 264.037C435.69 259.607 438.56 258.777 440.99 260.657C443.44 262.537 446.21 262.667 445.63 267.047Z" fill="#E8BAA8"/>
<path d="M450.63 262.567C450.37 260.657 445.76 260.467 445.76 260.467C445.43 260.207 443.4 252.827 435.72 258.827C434.12 260.077 436.24 264.427 436.24 264.427C436.24 264.427 438.11 264.767 438.54 265.117C438.93 265.427 440.42 267.877 441.66 270.047C441.82 270.337 441.99 270.627 442.14 270.907C442.8 272.087 443.59 274.517 446.67 272.497C446.9 272.297 452.03 266.967 450.63 262.567Z" fill="#5F2414"/>
<path d="M441.82 268.437C441.49 269.377 441.04 269.927 440.45 269.847C439.85 269.767 439.54 269.137 439.67 268.157C439.8 267.177 440.66 266.457 441.25 266.527C441.85 266.607 442.19 267.377 441.82 268.437Z" fill="#E8BAA8"/>
<path d="M437.77 278.447C437.75 278.057 439.09 275.547 439.43 275.817C440.72 276.837 444.48 276.607 445.39 276.137C446.2 275.717 446.11 274.477 446.11 274.477C446.11 274.477 451.26 278.987 444.14 280.377C442.71 280.657 441.11 280.557 439.8 279.927C438.69 279.387 436.74 279.477 437.77 278.447Z" fill="#EFF5F8"/>
<path d="M430.13 339.077C429.94 337.197 434.14 293.767 433.45 291.677C430.55 282.877 436.2 278.607 438.14 277.777C438.14 277.777 440.09 279.997 444.42 279.047C448.83 278.077 447.19 275.457 447.19 275.457C452.96 275.537 452.95 282.987 453.12 285.647C453.28 288.077 454.88 333.787 454.99 337.967C451.95 340.657 432.15 341.657 430.13 339.077Z" fill="#4169E1"/>
<path d="M424.16 294.187C424.34 294.467 424.71 294.537 424.98 294.357C425.25 294.177 425.33 293.807 425.15 293.537L423.37 290.817C423.19 290.547 422.82 290.467 422.55 290.647C422.28 290.827 422.2 291.197 422.38 291.467L424.16 294.187Z" fill="#E8BAA8"/>
<path d="M425.39 294.457L423.35 292.067L421.29 290.667C421.08 290.547 420.09 289.907 419.5 290.207C419.1 290.417 416.99 291.827 417.61 292.457C418.02 292.877 421.47 295.427 421.47 295.427C421.48 295.437 422.3 295.417 423.65 296.297L424.34 297.457L425.39 294.457Z" fill="#E8BAA8"/>
<path d="M429.24 297.847C428.83 299.987 430.22 302.057 432.35 302.467C434.48 302.877 436.54 301.477 436.95 299.337L439.97 284.187C440.39 282.047 439 279.977 436.87 279.567C434.74 279.157 432.68 280.557 432.27 282.697L429.24 297.847Z" fill="white"/>
<path d="M427.45 292.967C425.55 292.067 423.28 292.867 422.38 294.757C421.48 296.647 422.3 298.917 424.2 299.817L431.24 302.197C433.15 303.097 435.42 302.297 436.31 300.407C437.21 298.517 436.39 296.247 434.49 295.347L427.45 292.967Z" fill="white"/>
<path d="M447.68 266.667L449.95 256.017L450.35 256.087L448.66 266.787L447.68 266.667Z" fill="#F25A5A"/>
<path d="M453.48 265.227L452.82 266.157L441.89 257.977L442.11 257.727L453.48 265.227Z" fill="#F25A5A"/>
<path d="M443.84 265.797C444.48 268.247 447.34 269.617 450.23 268.867C453.12 268.117 454.95 265.517 454.31 263.067C453.67 260.617 450.81 259.247 447.92 259.997C445.03 260.747 443.2 263.347 443.84 265.797Z" fill="#371415"/>
</svg>
