<svg width="328" height="279" viewBox="0 0 328 279" fill="none" xmlns="http://www.w3.org/2000/svg">
<path d="M273.524 269.774C259.79 269.774 246.033 266.74 235.497 260.674C223.88 253.972 218.636 244.943 219.812 236.172C220.752 229.071 225.879 222.088 235.262 216.656C240.06 213.858 245.539 211.718 251.418 210.213C251.442 216.609 251.7 222.464 252.453 226.837C252.853 229.212 258.05 230.647 262.73 230.647C266.445 230.647 269.832 229.73 270.208 227.684C271.149 222.652 271.384 215.01 271.337 207.58C271.972 207.556 272.607 207.556 273.242 207.556C286.999 207.556 300.756 210.589 311.268 216.656C316.865 219.877 320.957 223.663 323.591 227.66C330.881 238.735 326.86 251.739 311.504 260.65C308.141 262.602 304.402 264.248 300.427 265.588C292.126 268.386 282.837 269.774 273.524 269.774Z" fill="url(#paint0_linear_158:24134)"/>
<path d="M83.6259 278.615L34.9226 250.328L69.7275 230.247L69.5864 253.126L85.813 262.484L102.275 252.726V233.657L116.455 241.839L132.941 232.081V229.165C135.269 229.142 137.55 229.071 139.808 229.001H139.831C152.295 229.001 163.795 227.99 174.283 226.297L83.6259 278.615ZM249.419 182.914V169.017L252.006 167.489C251.983 169.535 251.983 171.392 252.03 172.92C252.1 175.389 252.077 178.282 252.03 181.385L249.419 182.914ZM272.489 169.605L273.618 161.305L280.226 165.137L272.489 169.605Z" fill="url(#paint1_linear_158:24134)"/>
<path d="M253.746 134.546V166.454L237.285 176.212L237.637 143.904L253.746 134.546Z" fill="#0A34BC"/>
<path d="M237.285 141.882V176.212L221.058 166.854L221.411 134.546L237.285 141.882Z" fill="#5783FF"/>
<path d="M253.746 134.545L237.637 143.928L221.411 134.545L237.52 125.187L253.746 134.545Z" fill="#8FB0F9"/>
<path d="M223.951 124.082V183.713L207.489 193.471L207.842 133.441L223.951 124.082Z" fill="#EDE416"/>
<path d="M207.842 133.464L207.489 193.495L191.262 184.136L191.615 124.105L207.842 133.464Z" fill="#EDB93B"/>
<path d="M223.951 124.082L207.842 133.441L191.615 124.082L207.724 114.724L223.951 124.082Z" fill="#FFF35A"/>
<path d="M194.014 107.458V197.963L177.552 207.721L177.905 116.581L194.014 107.458Z" fill="#BD37DD"/>
<path d="M177.905 116.582L177.552 207.721L161.325 198.363L161.678 107.223L177.905 116.582Z" fill="#E578FF"/>
<path d="M194.014 107.223L177.905 116.581L161.678 107.223L177.811 97.8643L194.014 107.223Z" fill="#EEA6FF"/>
<path d="M163.254 94.4312L162.924 215.198L146.792 224.556L147.121 103.766L163.254 94.4312Z" fill="#6632C9"/>
<path d="M147.121 103.79L146.792 224.58L130.565 215.221L130.918 94.4546L147.121 103.79Z" fill="#9761FF"/>
<path d="M163.254 94.4313L147.121 103.79L130.895 94.4313L147.004 85.0493L163.254 94.4313Z" fill="#A684F7"/>
<path d="M132.941 141.553V232.057L116.455 241.816L116.808 150.676L132.941 141.553Z" fill="#24B8D1"/>
<path d="M116.808 150.676L116.455 241.816L100.229 232.457L100.558 141.318L116.808 150.676Z" fill="#0BE1F7"/>
<path d="M132.941 141.294L116.808 150.653L100.582 141.294L116.691 131.936L132.941 141.294Z" fill="#9DF0F9"/>
<path d="M102.298 193.071V252.702L85.8364 262.46L86.1892 202.43L102.298 193.071Z" fill="#0A34BC"/>
<path d="M86.1892 202.43L85.8365 262.46L69.6099 253.102L69.9626 193.071L86.1892 202.43Z" fill="#5783FF"/>
<path d="M102.298 193.071L86.1891 202.43L69.9625 193.071L86.0715 183.689L102.298 193.071Z" fill="#8FB0F9"/>
<path d="M38.6617 129.561V49.8256C38.6617 49.8256 43.1535 44.9113 53.007 38.1863C47.9744 41.7604 43.177 45.6637 38.6617 49.8962V52.6473C83.4377 10.5106 156.834 2.75104 204.902 2.75104C233.005 2.75104 252.429 5.40809 252.429 5.40809V82.3217C252.429 82.3217 232.981 79.6646 204.902 79.6646C156.834 79.6646 83.4377 87.4242 38.6617 129.561ZM94.326 76.114C60.015 89.9637 45.4111 105.906 45.4111 105.906V116.957C59.4506 103.743 76.3121 93.9375 94.326 86.6482V76.114ZM94.326 59.6544C60.015 73.504 45.4111 89.4464 45.4111 89.4464V100.498C59.4506 87.2831 76.3121 77.4778 94.326 70.1886V59.6544ZM103.427 65.3918C102.957 65.3918 102.51 65.5328 102.11 65.7915C98.3239 68.2369 97.7124 82.3687 97.6654 83.9912L99.0294 84.0382C99.1705 79.8763 100.135 68.7072 102.839 66.9437C103.027 66.8261 103.215 66.7556 103.427 66.7556C103.592 66.7556 103.733 66.8026 103.921 66.8731C105.614 67.5785 106.649 68.9188 107.472 70.0005C108.248 71.0351 108.953 71.9521 109.965 71.9521C110.012 71.9521 110.059 71.9521 110.106 71.9521C111.235 71.8816 112.34 70.7529 114.057 67.8842C116.008 64.6158 117.372 60.1717 118.713 55.8922C120.571 49.8727 122.499 43.665 125.674 42.8185C126.873 42.4893 128.002 42.4188 129.107 42.4188C129.413 42.4188 129.719 42.4188 130.001 42.4188C130.26 42.4188 130.495 42.4188 130.754 42.4188C134.069 42.4188 136.938 41.925 139.031 34.1419C141.783 23.8664 146.863 17.5177 152.483 17.5177C152.624 17.5177 152.789 17.5177 152.93 17.5412C158.409 17.8469 164.759 28.5457 166.946 34.2125C167.51 35.6703 168.451 36.0701 169.156 36.1641C169.274 36.1876 169.392 36.1876 169.509 36.1876C173.484 36.1876 179.504 27.7697 180.703 26.0532C181.479 24.9481 182.208 24.3602 182.937 24.3602C183.008 24.3602 183.102 24.3602 183.172 24.3837C184.866 24.6894 186.535 28.0754 187.358 31.1087C187.617 32.0257 187.758 34.5652 187.946 37.5044C188.534 46.8864 189.428 61.0417 194.743 62.1704L195.025 60.8301C190.698 59.913 189.804 45.2875 189.31 37.4339C189.099 34.1655 188.958 31.8141 188.675 30.756C188.346 29.5568 186.559 23.5842 183.408 23.0434C183.243 23.0199 183.102 22.9964 182.937 22.9964C181.761 22.9964 180.633 23.7724 179.598 25.2772C176.329 29.9565 171.861 34.8238 169.509 34.8238C169.462 34.8238 169.392 34.8238 169.345 34.8238C169.039 34.8003 168.592 34.6357 168.263 33.7422C166.193 28.4046 159.515 16.5536 153.047 16.2009C152.859 16.1774 152.695 16.1774 152.507 16.1774C146.228 16.1774 140.701 22.7378 137.738 33.8127C135.927 40.5847 133.834 41.0785 130.824 41.0785C130.565 41.0785 130.307 41.0785 130.048 41.0785C129.766 41.0785 129.484 41.0785 129.178 41.0785C128.002 41.0785 126.709 41.1255 125.345 41.5018C121.441 42.5599 119.489 48.8381 117.42 55.4925C116.126 59.7014 114.762 64.0515 112.904 67.1788C111.258 69.9534 110.459 70.5648 110.059 70.5883H110.035C109.659 70.5883 109.142 69.9064 108.601 69.1775C107.731 68.0253 106.508 66.4499 104.485 65.6034C104.109 65.4623 103.756 65.3918 103.427 65.3918ZM94.326 43.1712C60.015 57.0208 45.4111 72.9632 45.4111 72.9632V84.0382C59.4506 70.8234 76.3121 60.9947 94.326 53.7289V43.1712ZM124.851 64.0985C122.193 64.5218 119.536 64.9685 116.855 65.4388L117.114 72.0462C119.818 71.6229 122.476 71.2232 125.133 70.847L124.851 64.0985ZM135.151 56.5741C132.494 57.0209 129.836 57.5146 127.132 58.0319L127.626 70.5883C130.33 70.1415 133.011 69.7418 135.645 69.3656L135.151 56.5741ZM147.733 46.1105C144.864 46.5807 141.971 47.098 139.102 47.6624L138.349 68.0723C141.242 67.6021 144.111 67.2023 146.98 66.8026L147.733 46.1105ZM94.326 26.6881C60.015 40.5377 45.4111 56.48 45.4111 56.48V67.555C59.4506 54.3403 76.3121 44.5115 94.326 37.2458V26.6881ZM161.067 29.0159C158.339 29.3451 155.611 29.6978 152.859 30.0976L151.519 66.2383C154.247 65.9091 156.951 65.6269 159.609 65.3682L161.067 29.0159ZM171.837 51.5892C169.156 51.8478 166.452 52.13 163.724 52.4592L163.254 65.0155C165.982 64.7804 168.686 64.5688 171.344 64.4042L171.837 51.5892ZM184.795 42.1366C181.973 42.2777 179.104 42.4658 176.212 42.6774L175.435 64.1455C178.352 63.9809 181.221 63.8399 184.019 63.7458L184.795 42.1366ZM200.74 50.484C228.866 50.484 248.314 53.1411 248.314 53.1411V44.8407C230.865 43.0537 214.661 42.2777 199.611 42.2777C198.012 42.2777 196.436 42.2777 194.86 42.3012V50.531C196.859 50.5075 198.811 50.484 200.74 50.484ZM200.787 36.752C228.866 36.752 248.314 39.409 248.314 39.409V31.1087C230.865 29.3216 214.638 28.5457 199.587 28.5457C197.988 28.5457 196.412 28.5457 194.86 28.5692V36.8225C196.859 36.7755 198.858 36.752 200.787 36.752ZM200.74 23.0199C228.842 23.0199 248.314 25.677 248.314 25.677V17.3531C230.865 15.566 214.638 14.7901 199.587 14.7901C197.988 14.7901 196.412 14.7901 194.86 14.8136V23.0434C196.859 23.0434 198.835 23.0199 200.74 23.0199ZM252.429 2.65698C252.429 2.65698 251.277 2.49238 249.137 2.25725C250.242 2.3513 251.324 2.46887 252.429 2.58644V2.65698ZM166.24 1.73994C176.893 0.705338 188.323 0.0939789 200.528 0.0234375C189.992 0.117493 178.375 0.611283 166.24 1.73994Z" fill="url(#paint2_linear_158:24134)"/>
<path d="M39.4613 131.536C39.1791 131.371 38.9204 131.23 38.6382 131.066V129.537C83.4377 87.4241 156.834 79.6646 204.902 79.6646C233.005 79.6646 252.429 82.3216 252.429 82.3216V85.0727C252.429 85.0727 233.005 82.4157 204.902 82.4157C188.511 82.4157 169.133 83.3327 148.979 86.1779L147.004 85.0492L143.688 86.9773C106.672 92.8558 67.5874 105.553 39.4613 131.536Z" fill="url(#paint3_linear_158:24134)"/>
<path d="M143.711 86.9774L147.027 85.0493L149.003 86.178C147.239 86.4366 145.475 86.6953 143.711 86.9774Z" fill="url(#paint4_linear_158:24134)"/>
<path d="M53.0071 38.1864C85.8365 14.8842 128.684 5.24358 166.24 1.76353C106.978 7.43036 71.0209 25.8652 53.0071 38.1864ZM249.137 2.25732C232.911 0.705411 217.789 0 203.679 0C202.621 0 201.563 -1.70374e-06 200.528 0.0235121C202.009 -1.70374e-06 203.468 0 204.902 0C226.161 0 242.458 1.50488 249.137 2.25732Z" fill="url(#paint5_linear_158:24134)"/>
<path d="M38.6617 52.6238V49.8727C43.177 45.6402 47.9744 41.737 53.007 38.1629C71.0209 25.8416 107.002 7.43035 166.24 1.74002C178.399 0.611358 189.992 0.117567 200.528 0.0235121C201.586 0.0235121 202.621 0 203.679 0C217.789 0 232.911 0.705411 249.137 2.25732C251.277 2.49246 252.429 2.65706 252.429 2.65706V5.40817C252.429 5.40817 233.005 2.75111 204.902 2.75111C156.834 2.75111 83.4377 10.5107 38.6617 52.6238Z" fill="url(#paint6_linear_158:24134)"/>
<path d="M45.4111 67.5315V56.4565C45.4111 56.4565 60.0151 40.5142 94.3261 26.6646V37.2222C76.3122 44.488 59.4507 54.3168 45.4111 67.5315Z" fill="url(#paint7_linear_158:24134)"/>
<path d="M45.4111 84.0149V72.9399C45.4111 72.9399 60.0151 56.9976 94.3261 43.1479V53.7056C76.3122 60.9714 59.4507 70.8002 45.4111 84.0149Z" fill="url(#paint8_linear_158:24134)"/>
<path d="M45.4111 100.498V89.4463C45.4111 89.4463 60.0151 73.5039 94.3261 59.6543V70.212C76.3122 77.4542 59.4507 87.283 45.4111 100.498Z" fill="url(#paint9_linear_158:24134)"/>
<path d="M45.4111 116.981V105.929C45.4111 105.929 60.0151 89.9868 94.3261 76.1372V86.6949C76.3122 93.9371 59.4507 103.766 45.4111 116.981Z" fill="url(#paint10_linear_158:24134)"/>
<path d="M175.412 64.1456L176.188 42.6775C179.104 42.4659 181.973 42.2778 184.772 42.1367L183.972 63.7459C181.197 63.8635 178.328 63.981 175.412 64.1456Z" fill="url(#paint11_linear_158:24134)"/>
<path d="M163.277 65.0157L163.748 52.4594C166.476 52.1302 169.18 51.848 171.861 51.5894L171.391 64.4044C168.71 64.5925 166.005 64.7806 163.277 65.0157Z" fill="url(#paint12_linear_158:24134)"/>
<path d="M127.626 70.6119L127.132 58.0555C129.836 57.5382 132.494 57.0444 135.151 56.5977L135.645 69.4127C132.988 69.7419 130.33 70.1651 127.626 70.6119Z" fill="url(#paint13_linear_158:24134)"/>
<path d="M117.114 72.0463L116.855 65.4389C119.536 64.9686 122.217 64.5219 124.851 64.0986L125.11 70.8236C122.476 71.2233 119.818 71.6231 117.114 72.0463Z" fill="url(#paint14_linear_158:24134)"/>
<path d="M151.519 66.2384L152.859 30.0977C155.611 29.698 158.339 29.3453 161.067 29.0161L159.632 65.3684C156.951 65.6271 154.247 65.9092 151.519 66.2384Z" fill="url(#paint15_linear_158:24134)"/>
<path d="M138.349 68.0722L139.102 47.6623C141.995 47.0979 144.864 46.5806 147.733 46.1104L146.98 66.8025C144.111 67.2022 141.242 67.602 138.349 68.0722Z" fill="url(#paint16_linear_158:24134)"/>
<path d="M248.314 25.6768C248.314 25.6768 228.866 23.0198 200.74 23.0198C198.811 23.0198 196.859 23.0433 194.837 23.0668V14.837C196.413 14.8135 197.988 14.8135 199.564 14.8135C214.615 14.8135 230.841 15.5894 248.291 17.3765V25.6768" fill="url(#paint17_linear_158:24134)"/>
<path d="M248.314 39.4089C248.314 39.4089 228.889 36.7518 200.787 36.7518C198.858 36.7518 196.859 36.7753 194.86 36.7988V28.5455C196.413 28.522 197.988 28.522 199.587 28.522C214.638 28.522 230.865 29.2979 248.314 31.085V39.4089Z" fill="url(#paint18_linear_158:24134)"/>
<path d="M248.314 53.1412C248.314 53.1412 228.842 50.4841 200.74 50.4841C198.811 50.4841 196.859 50.5077 194.86 50.5312V42.3013C196.436 42.2778 198.012 42.2778 199.611 42.2778C214.662 42.2778 230.865 43.0538 248.314 44.8408V53.1412Z" fill="url(#paint19_linear_158:24134)"/>
<path d="M99.0294 84.038L97.6654 83.991C97.7124 82.3921 98.3239 68.2368 102.11 65.7913C102.533 65.5327 102.98 65.3916 103.427 65.3916C103.756 65.3916 104.109 65.4621 104.438 65.6032C106.484 66.4497 107.684 68.0251 108.554 69.1773C109.095 69.9062 109.612 70.5882 109.988 70.5882H110.012C110.412 70.5646 111.211 69.9533 112.857 67.1786C114.715 64.0513 116.079 59.7013 117.372 55.4923C119.442 48.8379 121.394 42.5362 125.298 41.5016C126.685 41.1254 127.979 41.0783 129.131 41.0783C129.437 41.0783 129.719 41.0783 130.001 41.0783C130.26 41.0783 130.542 41.0783 130.777 41.0783C133.764 41.0783 135.857 40.5846 137.691 33.8126C140.654 22.7376 146.181 16.1772 152.46 16.1772C152.648 16.1772 152.812 16.1772 153 16.2008C159.468 16.5535 166.146 28.4044 168.216 33.742C168.569 34.6356 168.992 34.8002 169.298 34.8237C169.345 34.8237 169.415 34.8237 169.462 34.8237C171.814 34.8237 176.282 29.9563 179.551 25.2771C180.609 23.7722 181.714 22.9962 182.89 22.9962C183.055 22.9962 183.196 23.0198 183.361 23.0433C186.535 23.5841 188.323 29.5566 188.628 30.7558C188.911 31.8139 189.075 34.1653 189.263 37.4337C189.757 45.2873 190.674 59.9364 194.978 60.8299L194.696 62.1702C189.357 61.0415 188.487 46.8863 187.899 37.5042C187.711 34.565 187.57 32.0255 187.311 31.1085C186.488 28.0752 184.819 24.6892 183.125 24.3836C183.055 24.36 182.961 24.36 182.89 24.36C182.185 24.36 181.432 24.9244 180.656 26.053C179.457 27.7695 173.413 36.1875 169.462 36.1875C169.345 36.1875 169.227 36.1875 169.109 36.164C168.404 36.0699 167.463 35.6702 166.899 34.2123C164.735 28.5455 158.386 17.8467 152.883 17.541C152.718 17.541 152.577 17.5175 152.436 17.5175C146.816 17.5175 141.736 23.8427 138.984 34.1418C136.891 41.9248 134.022 42.4186 130.707 42.4186C130.448 42.4186 130.213 42.4186 129.954 42.4186C129.648 42.4186 129.366 42.4186 129.06 42.4186C127.955 42.4186 126.85 42.4892 125.627 42.8184C122.476 43.6649 120.547 49.896 118.666 55.892C117.325 60.1715 115.961 64.6156 114.01 67.8841C112.316 70.7527 111.211 71.8814 110.059 71.9519C110.012 71.9519 109.965 71.9519 109.918 71.9519C108.883 71.9519 108.201 71.0349 107.425 70.0003C106.602 68.9187 105.567 67.5784 103.874 66.873C103.709 66.8024 103.545 66.7554 103.38 66.7554C103.168 66.7554 102.98 66.8259 102.792 66.9435C100.135 68.6835 99.1705 79.8761 99.0294 84.038Z" fill="url(#paint20_linear_158:24134)"/>
<path d="M301.18 237.701C301.18 237.701 303.696 242.874 299.933 244.496C296.171 246.095 296.171 243.603 289.21 249.317C282.225 255.031 275.946 252.632 274.935 251.48C274.183 250.61 274.112 244.896 289.61 237.042L301.18 237.701Z" fill="black"/>
<path d="M299.933 244.496C296.194 246.095 296.194 243.603 289.21 249.317C282.225 255.031 275.946 252.632 274.935 251.48C274.818 251.339 274.723 251.104 274.7 250.775C281.214 253.079 284.742 249.834 287.611 247.647C290.55 245.39 293.043 244.473 297.511 243.509C301.979 242.545 300.357 239.088 300.357 239.088C300.639 238.83 301.062 238.689 301.58 238.665C302.073 240.24 302.661 243.321 299.933 244.496Z" fill="black"/>
<path d="M266.798 227.731C266.798 227.731 268.891 233.092 265.034 234.409C261.178 235.725 261.366 233.233 253.958 238.382C246.574 243.532 240.483 240.64 239.566 239.417C238.884 238.5 239.26 232.786 255.322 226.155L266.798 227.731Z" fill="black"/>
<path d="M265.011 234.409C261.154 235.726 261.342 233.233 253.935 238.383C246.527 243.532 240.459 240.64 239.542 239.418C239.425 239.276 239.354 239.018 239.354 238.689C245.68 241.51 249.443 238.524 252.477 236.572C255.581 234.55 258.144 233.845 262.659 233.233C267.198 232.622 265.834 229.048 265.834 229.048C266.14 228.813 266.587 228.719 267.08 228.719C267.48 230.341 267.833 233.469 265.011 234.409Z" fill="black"/>
<path d="M254.052 120.25C254.052 120.25 251.653 158.859 252.006 172.944C252.382 187.029 250.172 213.67 252.406 226.838C253.135 231.094 269.291 232.316 270.161 227.684C272.56 214.775 270.396 184.795 270.396 184.795L277.781 130.36C277.804 130.337 262.424 130.831 254.052 120.25Z" fill="#0E007A"/>
<path d="M262.283 133.958C262.283 133.958 270.561 175.154 273.736 188.792C276.934 202.43 278.627 225.215 284.318 239.629C285.894 243.65 302.238 242.098 302.473 237.912C303.155 225.944 292.361 192.507 292.361 192.507L290.409 141.224C290.409 141.247 272.583 142.305 262.283 133.958Z" fill="#160F96"/>
<path d="M224.045 112.537C224.045 112.537 211.769 112.443 210.922 105.248C210.828 104.378 211.463 104.072 214.285 105.083C216.143 105.741 217.154 106.847 218.401 105.977C219.812 104.989 216.378 101.791 217.484 101.156C218.565 100.521 225.244 105.389 225.244 105.389L227.196 106.423L227.267 112.96L224.045 112.537Z" fill="#FFAA83"/>
<path d="M267.339 78.9122C267.339 78.9122 263.671 73.551 259.485 78.1833C255.299 82.792 247.914 104.589 245.539 106.188C244.363 106.964 225.667 105.177 225.667 105.177C225.667 105.177 228.278 108.116 224.256 113.266C224.256 113.266 248.126 122.53 252.477 117.733C259.955 109.48 270.208 87.6828 267.339 78.9122Z" fill="#2A3B98"/>
<path d="M289.327 87.6827C288.575 87.1419 264.776 73.8801 261.719 76.161C258.685 78.4418 251.653 89.5168 253.746 105.718C255.251 117.404 252.641 134.992 252.641 134.992C252.641 134.992 276.346 153.004 290.409 141.224C290.409 141.224 290.409 141.224 289.327 132.406C286.411 108.445 299.228 94.8074 289.327 87.6827Z" fill="white"/>
<path d="M267.386 74.6327C267.386 74.6327 268.821 81.1695 267.386 84.6025C265.952 88.059 271.172 89.1642 273.665 88.2942C276.134 87.4242 280.085 85.7077 279.544 83.4974C279.027 81.2871 276.793 74.0213 278.227 71.4348C279.685 68.8483 267.386 74.6327 267.386 74.6327Z" fill="#F79F7C"/>
<path d="M280.038 53.1643C280.038 53.1643 286.364 57.5144 284.342 65.3445C283.236 69.671 278.933 74.9381 276.111 77.1484C273.289 79.3587 263.859 84.8374 260.919 79.6644C257.956 74.4914 257.297 59.7952 263.694 53.1643C270.067 46.5335 280.038 53.1643 280.038 53.1643Z" fill="#FFAA83"/>
<path d="M262.283 56.5271C262.283 56.5271 269.714 61.0652 276.111 61.1828C282.507 61.3004 279.662 63.5577 279.05 64.4982C278.557 65.2977 277.169 70.4002 279.356 68.2604C280.179 67.4375 282.249 65.4858 282.86 67.2023C283.472 68.9188 278.792 73.2689 278.651 74.7502C278.533 75.8084 289.515 66.4499 289.139 58.2201C288.763 49.9667 283.001 45.1229 271.737 46.8864C262.471 48.3207 258.732 51.5186 258.732 51.5186C258.732 51.5186 259.673 54.0111 262.283 56.5271Z" fill="#994E17"/>
<path d="M220.917 102.496C220.917 102.496 214.967 99.3691 216.261 101.062C217.554 102.755 219.953 105.835 221.481 105.835C223.033 105.859 220.917 102.496 220.917 102.496Z" fill="#FFAA83"/>
<path d="M263.812 137.156C263.812 137.156 252.594 142.118 248.831 135.886C248.385 135.134 248.831 134.593 251.818 134.334C252.382 134.287 252.9 134.311 253.37 134.311C254.522 134.334 255.393 134.382 255.957 133.464C256.827 131.983 253.77 131.019 254.522 129.984C255.251 128.95 261.954 130.102 261.954 130.102L264.164 130.243L266.916 136.169L263.812 137.156Z" fill="#FFAA83"/>
<path d="M289.798 87.8706C288.269 86.6244 283.895 85.3547 281.99 91.2801C280.062 97.2056 282.296 120.108 280.791 122.53C280.038 123.729 262.259 129.749 262.259 129.749C262.259 129.749 265.857 131.348 264.305 137.696C264.305 137.696 289.892 136.333 291.867 130.172C295.277 119.638 296.947 93.7256 289.798 87.8706Z" fill="#2A3B98"/>
<path d="M174.307 226.273L176.211 225.168C196.154 221.664 212.286 216.374 224.28 211.412C211.863 217.055 195.048 222.957 174.307 226.273Z" fill="url(#paint21_linear_158:24134)"/>
<path d="M139.855 228.977C139.831 228.977 139.831 228.977 139.831 228.977C153.071 228.483 165.229 227.12 176.212 225.191L174.307 226.297C163.818 227.966 152.295 228.977 139.855 228.977Z" fill="url(#paint22_linear_158:24134)"/>
<path d="M182.326 221.641L249.419 182.914V195.964C228.654 209.813 204.314 217.479 182.326 221.641ZM69.8214 216.28C15.1213 198.409 0 165.537 0 165.537V166.548V94.1255V98.2639C21.024 136.779 72.7139 150.535 100.534 155.238L100.511 161.516C95.2901 160.834 92.327 160.27 92.327 160.27C69.1864 154.579 51.4783 147.243 37.9091 139.625L37.6034 148.513C56.9342 159.212 75.1832 164.385 75.1832 164.385C83.9079 166.807 92.3505 168.688 100.487 170.099L100.464 175.295C94.9608 174.59 91.8331 174.002 91.8331 174.002C68.6926 168.311 50.9844 160.975 37.4387 153.357L37.1095 162.245C56.4403 172.944 74.6894 178.117 74.6894 178.117C83.5552 180.586 92.1623 182.49 100.44 183.925L100.417 191.849C100.299 191.825 100.205 191.825 100.088 191.802L86.0715 183.713L79.7455 187.405C62.1079 182.255 48.0448 176.142 36.8273 169.84L36.4981 178.728C50.2554 186.347 63.4718 191.167 69.939 193.307L69.9154 198.221C56.5579 193.753 45.4815 188.721 36.3335 183.572L36.0042 192.46C50.0673 200.243 63.5424 205.087 69.8684 207.156L69.8214 216.28ZM3.31587 154.626V163.068C8.37198 175.789 21.0005 185.053 33.1352 191.331V182.42C8.58363 169.417 3.31587 154.626 3.31587 154.626ZM3.31587 140.871V149.312C8.37198 162.033 21.0005 171.274 33.1352 177.576V168.664C8.58363 155.685 3.31587 140.871 3.31587 140.871ZM3.31587 124.388V132.829C8.37198 145.55 21.0005 154.815 33.1352 161.093V152.181C8.58363 139.201 3.31587 124.388 3.31587 124.388ZM3.31587 110.656V119.097C8.37198 131.818 21.0005 141.059 33.1352 147.361V138.425C8.58363 125.469 3.31587 110.656 3.31587 110.656ZM249.419 132.053L245.257 129.655C248.008 128.009 249.419 126.998 249.419 126.998V132.053Z" fill="url(#paint23_linear_158:24134)"/>
<path d="M132.941 226.461V217.502C133.505 217.526 134.046 217.526 134.61 217.549L146.792 224.58L160.596 216.562C161.09 216.515 161.608 216.468 162.102 216.42L162.125 215.692L162.925 215.221L162.972 199.326L169.65 203.182L169.462 208.308C171.72 207.861 173.954 207.391 176.118 206.921L177.552 207.744L181.597 205.345L181.55 206.639C184.019 206.027 186.418 205.369 188.699 204.687L188.84 201.042L192.062 199.138L191.897 203.723C194.131 203.018 196.248 202.289 198.27 201.536L198.717 189.803L194.037 191.355V185.711L205.702 192.436V198.809C229.548 194.694 242.835 184.066 242.835 184.066V177.411C233.922 183.595 223.786 187.428 213.862 189.732L223.998 183.713V182.913C236.25 178.352 242.835 173.061 242.835 173.061V172.92L249.443 168.993V182.89L182.349 221.617C162.501 225.403 144.581 226.343 132.941 226.461ZM223.951 175.836V169.205C224.186 169.111 224.397 169.04 224.633 168.946L231.429 172.873C228.983 173.978 226.467 174.966 223.951 175.836ZM237.285 169.887V162.974C237.332 162.95 237.379 162.927 237.426 162.88L237.355 169.84C237.332 169.863 237.308 169.863 237.285 169.887ZM237.285 156.155V151.993C237.379 151.946 237.449 151.899 237.543 151.828L237.496 156.037C237.426 156.061 237.355 156.108 237.285 156.155ZM237.285 145.15V143.716L237.637 143.927L237.614 144.986C237.496 145.033 237.379 145.103 237.285 145.15Z" fill="url(#paint24_linear_158:24134)"/>
<path d="M242.811 172.944V166.43C241.047 167.653 239.213 168.805 237.355 169.84L237.426 162.88C240.977 160.811 242.811 159.329 242.811 159.329V152.675C241.094 153.874 239.307 154.979 237.496 156.014L237.543 151.805C241 149.783 242.811 148.325 242.811 148.325V141.67C241.118 142.846 239.378 143.928 237.614 144.939L237.637 143.881L249.443 137.015V168.993L242.811 172.944Z" fill="#0A57C8"/>
<path d="M231.429 172.85L224.633 168.923C229.994 166.878 234.228 164.714 237.261 162.951V169.864C235.356 170.969 233.404 171.957 231.429 172.85ZM223.951 162.081V158.201C229.642 156.085 234.11 153.804 237.261 151.97V156.132C232.981 158.554 228.513 160.505 223.951 162.081ZM223.951 151.1V140.119C225.385 139.531 226.726 138.967 228.043 138.379L237.261 143.717V145.151C232.981 147.573 228.513 149.524 223.951 151.1Z" fill="#4896FD"/>
<path d="M237.614 143.904L237.261 143.693L228.043 138.355C235.921 134.899 241.706 131.724 245.233 129.608L249.396 132.006V134.71C248.596 134.993 248.526 135.369 248.808 135.839C248.996 136.145 249.184 136.403 249.396 136.639V136.991L237.614 143.904Z" fill="#75BAF9"/>
<path d="M207.512 191.026L207.536 187.499C213.791 186.3 219.294 184.677 223.974 182.937V183.737L213.838 189.756C211.698 190.226 209.605 190.65 207.512 191.026ZM207.583 180.022L207.63 173.743C213.862 172.544 219.318 170.922 223.974 169.205V175.836C218.495 177.717 212.968 179.081 207.583 180.022ZM207.654 166.266L207.677 162.739C213.885 161.54 219.318 159.941 223.951 158.201V162.081C218.542 163.985 213.015 165.325 207.654 166.266ZM207.724 155.262L207.771 146.021C213.791 144.092 219.2 142.094 223.951 140.119V151.1C218.542 152.981 213.062 154.321 207.724 155.262Z" fill="#C0E343"/>
<path d="M205.678 192.437L194.014 185.712V149.947C198.905 148.701 203.491 147.384 207.771 146.021L207.724 155.261C207.042 155.379 206.36 155.497 205.678 155.614V163.115C206.36 162.997 207.018 162.88 207.677 162.739L207.653 166.266C206.995 166.383 206.336 166.501 205.678 166.595V174.096C206.336 173.978 206.971 173.861 207.63 173.743L207.583 180.021C206.948 180.139 206.313 180.233 205.678 180.351V187.852C206.313 187.734 206.924 187.64 207.536 187.522L207.512 191.049C206.901 191.167 206.289 191.261 205.678 191.355V192.437Z" fill="#C0C161"/>
<path d="M177.552 207.721V206.569C177.74 206.522 177.952 206.475 178.14 206.428L179.857 160.058L177.716 160.764L177.74 153.451C183.478 152.393 188.91 151.217 193.99 149.924V185.712V191.355L192.297 191.92L192.038 199.138L188.816 201.043L189.451 183.549L182.302 185.641L181.573 205.322L177.552 207.721Z" fill="#9959E2"/>
<path d="M177.552 207.721L176.117 206.898C176.611 206.78 177.082 206.686 177.575 206.569L177.552 207.721ZM169.65 203.159L162.972 199.303L163.019 186.206C163.089 186.206 163.136 186.206 163.207 186.182L163.559 176.283C163.395 176.307 163.23 176.307 163.042 176.33L163.066 172.521C163.277 172.497 163.489 172.474 163.701 172.45L164.053 162.551C163.724 162.575 163.418 162.622 163.089 162.645L163.113 155.685C168.216 155.05 173.107 154.298 177.787 153.451L177.74 160.787L171.132 162.998L169.65 203.159Z" fill="#B98DFD"/>
<path d="M146.933 177.388L146.957 173.579C151.966 173.438 156.787 173.132 161.443 172.685L161.419 176.495C156.457 176.941 151.589 177.223 146.933 177.388ZM146.957 163.68L146.98 157.19C151.989 156.884 156.834 156.437 161.49 155.896L161.467 162.81C156.481 163.233 151.636 163.515 146.957 163.68Z" fill="url(#paint25_linear_158:24134)"/>
<path d="M146.792 224.557L146.816 217.455C151.566 217.291 156.152 216.985 160.596 216.538L146.792 224.557ZM162.101 215.668L162.431 206.498C157.092 207.015 151.872 207.368 146.839 207.556L146.863 203.747C152.318 203.582 157.563 203.206 162.595 202.665L162.713 199.162L162.972 199.303L162.924 215.198L162.101 215.668ZM146.886 193.848L146.91 187.287C151.919 187.146 156.74 186.817 161.396 186.37L161.372 192.907C156.387 193.377 151.542 193.659 146.886 193.848Z" fill="url(#paint26_linear_158:24134)"/>
<path d="M162.948 199.303L162.689 199.162L162.925 192.766C162.384 192.813 161.866 192.86 161.325 192.907L161.349 186.37C161.89 186.323 162.431 186.252 162.972 186.205L162.948 199.303ZM161.42 176.494L161.443 172.685C161.984 172.638 162.525 172.591 163.066 172.52L163.042 176.33C162.478 176.4 161.937 176.447 161.42 176.494ZM161.467 162.809L161.49 155.896C162.031 155.826 162.548 155.779 163.089 155.708L163.066 162.668C162.525 162.715 161.984 162.762 161.467 162.809Z" fill="#5455D2"/>
<path d="M132.941 193.73V187.264C135.457 187.335 137.926 187.382 140.348 187.382C141.571 187.382 142.794 187.382 143.994 187.358L132.941 193.73ZM136.986 177.553C135.622 177.553 134.281 177.553 132.964 177.529V173.509C135.645 173.603 138.255 173.65 140.842 173.65C142.912 173.65 144.934 173.626 146.933 173.579L146.91 177.388C143.523 177.506 140.184 177.553 136.986 177.553ZM137.479 163.821C135.951 163.821 134.446 163.797 132.964 163.797V157.707C137.785 157.637 142.441 157.472 147.004 157.19L146.98 163.68C143.711 163.774 140.537 163.821 137.479 163.821Z" fill="url(#paint27_linear_158:24134)"/>
<path d="M146.792 224.556L134.61 217.526C136.186 217.549 137.738 217.573 139.267 217.573C141.83 217.573 144.323 217.526 146.792 217.455V224.556ZM135.88 207.744C134.893 207.744 133.928 207.744 132.964 207.721V203.747C135.269 203.817 137.55 203.841 139.784 203.841C142.183 203.841 144.534 203.794 146.863 203.723L146.839 207.532C143.076 207.697 139.408 207.744 135.88 207.744ZM136.374 194.035C135.222 194.035 134.069 194.035 132.941 194.012V193.753L143.994 187.381C144.958 187.358 145.922 187.334 146.886 187.311L146.863 193.871C143.265 193.965 139.761 194.035 136.374 194.035Z" fill="url(#paint28_linear_158:24134)"/>
<path d="M130.307 226.461C123.346 226.461 119.254 226.179 119.254 226.179C118.337 226.085 117.443 225.991 116.549 225.897L116.573 216.421C122.193 216.985 127.649 217.314 132.964 217.479V226.437C132.023 226.461 131.153 226.461 130.307 226.461ZM132.941 207.744C127.038 207.673 121.535 207.462 116.596 207.133L116.62 202.689C122.217 203.253 127.673 203.606 132.941 203.77V207.744ZM132.941 194.012C127.038 193.941 121.559 193.706 116.643 193.377L116.667 186.158C122.24 186.746 127.673 187.099 132.941 187.263V193.73V194.012ZM132.941 177.529C127.061 177.458 121.606 177.2 116.714 176.87L116.738 172.379C122.311 172.967 127.72 173.343 132.941 173.531V177.529ZM132.941 163.797C127.061 163.703 121.629 163.444 116.761 163.115L116.785 157.377C118.196 157.495 118.948 157.542 118.948 157.542C122.499 157.66 125.98 157.73 129.413 157.73C130.589 157.73 131.765 157.73 132.941 157.707V163.797Z" fill="#1FC0D9"/>
<path d="M116.526 225.92C111.587 225.403 106.837 224.768 102.275 224.039V214.61C107.143 215.386 111.893 215.997 116.55 216.468L116.526 225.92ZM116.62 207.133C111.094 206.78 106.249 206.31 102.298 205.863V200.808C107.19 201.607 111.964 202.218 116.62 202.689V207.133ZM116.667 193.377C110.153 192.954 104.626 192.366 100.417 191.849L100.441 183.925C105.99 184.889 111.423 185.618 116.691 186.158L116.667 193.377ZM116.714 176.87C110.153 176.424 104.627 175.836 100.464 175.295L100.488 170.099C106.038 171.063 111.47 171.815 116.738 172.379L116.714 176.87ZM116.761 163.115C110.153 162.668 104.627 162.057 100.511 161.516L100.535 155.238C108.06 156.508 113.845 157.119 116.785 157.378L116.761 163.115Z" fill="#0BE1F7"/>
<path d="M102.298 224.039C96.5837 223.122 91.1983 222.04 86.0717 220.841L86.1187 211.483C91.6451 212.729 97.0305 213.763 102.298 214.61V224.039ZM102.298 205.839C94.9845 204.993 90.728 204.193 90.728 204.193C89.1759 203.817 87.6708 203.417 86.1657 203.041V202.453L92.186 198.95C95.596 199.655 98.9824 200.266 102.298 200.807V205.839Z" fill="#0A57C8"/>
<path d="M86.0716 220.841C80.31 219.478 74.9012 217.949 69.8215 216.303L69.8686 207.18C72.2438 207.956 73.5842 208.332 73.5842 208.332C77.8408 209.508 82.0032 210.566 86.1187 211.483L86.0716 220.841ZM86.1657 203.041C80.4041 201.513 74.9952 199.914 69.9156 198.198L69.9391 193.283C70.2448 193.377 70.527 193.471 70.7857 193.565L86.1657 202.43V203.041Z" fill="#4896FD"/>
<path d="M86.1893 202.43L70.8093 193.565C72.9023 194.247 74.1017 194.576 74.1017 194.576C80.2866 196.293 86.3069 197.727 92.2096 198.926L86.1893 202.43ZM100.088 191.802C94.4437 191.096 91.2454 190.485 91.2454 190.485C87.2476 189.497 83.4143 188.463 79.7457 187.405L86.0717 183.713L100.088 191.802Z" fill="#75BAF9"/>
<path d="M125.556 155.003C122.405 154.933 120.312 154.839 119.56 154.792C121.464 154.862 123.463 154.933 125.556 155.003Z" fill="#1FC0D9"/>
<path d="M249.419 136.709C249.208 136.451 249.02 136.192 248.831 135.91C248.549 135.44 248.62 135.063 249.419 134.781V136.709Z" fill="#CEB59A"/>
<path d="M181.55 206.616L181.597 205.323L188.84 201.02L188.699 204.664C186.418 205.346 184.043 206.004 181.55 206.616Z" fill="url(#paint29_linear_158:24134)"/>
<path d="M181.597 205.322L182.326 185.641L189.475 183.548L188.84 201.043L181.597 205.322Z" fill="#36B8F1"/>
<path d="M191.897 203.7L192.062 199.115L194.014 197.963V191.355L198.694 189.803L198.247 201.537C196.224 202.266 194.131 202.994 191.897 203.7Z" fill="url(#paint30_linear_158:24134)"/>
<path d="M192.062 199.138L192.32 191.919L194.014 191.355V197.962L192.062 199.138Z" fill="#36B8F1"/>
<path d="M237.285 151.969V145.151C237.402 145.08 237.496 145.033 237.614 144.962L237.543 151.828C237.449 151.875 237.355 151.922 237.285 151.969Z" fill="url(#paint31_linear_158:24134)"/>
<path d="M237.543 151.828L237.614 144.962C239.378 143.951 241.118 142.87 242.811 141.694V148.348C242.811 148.348 241 149.806 237.543 151.828Z" fill="#0B9CE0"/>
<path d="M223.951 158.201V151.099C228.489 149.524 232.981 147.572 237.261 145.15V151.969C234.11 153.803 229.642 156.084 223.951 158.201Z" fill="#29BCFA"/>
<path d="M207.677 162.739L207.724 155.262C213.062 154.321 218.565 152.981 223.974 151.1V158.201C219.318 159.917 213.885 161.54 207.677 162.739Z" fill="#65E29D"/>
<path d="M205.678 163.115V155.614C206.36 155.497 207.042 155.403 207.724 155.262L207.677 162.739C207.019 162.857 206.36 162.974 205.678 163.115Z" fill="#65D1AC"/>
<path d="M223.951 169.181V168.546L224.633 168.946C224.421 169.017 224.186 169.111 223.951 169.181ZM237.285 162.974V156.155C237.355 156.108 237.426 156.084 237.496 156.037L237.426 162.903C237.379 162.903 237.332 162.95 237.285 162.974Z" fill="url(#paint32_linear_158:24134)"/>
<path d="M237.426 162.88L237.496 156.014C239.307 154.979 241.094 153.874 242.811 152.675V159.329C242.811 159.353 240.953 160.811 237.426 162.88Z" fill="#0B9CE0"/>
<path d="M224.633 168.923L223.951 168.523V162.08C228.489 160.505 232.981 158.553 237.261 156.131V162.95C234.251 164.714 230.018 166.877 224.633 168.923Z" fill="#29BCFA"/>
<path d="M207.606 173.743L207.653 166.266C213.015 165.325 218.518 163.985 223.951 162.081V168.523V169.182C219.318 170.922 213.838 172.544 207.606 173.743Z" fill="#65E29D"/>
<path d="M205.678 174.096V166.595C206.337 166.501 206.995 166.383 207.654 166.266L207.606 173.743C206.972 173.861 206.337 173.978 205.678 174.096Z" fill="#65D1AC"/>
<path d="M223.951 182.914V175.836C226.467 174.966 228.96 173.978 231.429 172.85L237.285 176.236L242.811 172.967V173.108C242.811 173.085 236.203 178.375 223.951 182.914ZM237.285 176.236V169.887C237.308 169.863 237.332 169.863 237.355 169.84L237.285 176.236Z" fill="url(#paint33_linear_158:24134)"/>
<path d="M237.285 176.236L237.355 169.864C239.213 168.805 241.047 167.677 242.811 166.454V172.967L237.285 176.236Z" fill="#0B9CE0"/>
<path d="M237.285 176.236L231.429 172.85C233.404 171.956 235.356 170.969 237.285 169.887V176.236Z" fill="#29BCFA"/>
<path d="M207.536 187.499L207.583 180.021C212.968 179.081 218.518 177.741 223.974 175.836V182.937C219.294 184.654 213.791 186.3 207.536 187.499Z" fill="#65E29D"/>
<path d="M205.678 187.828V180.327C206.313 180.233 206.948 180.116 207.583 179.998L207.536 187.475C206.925 187.617 206.313 187.711 205.678 187.828Z" fill="#65D1AC"/>
<path d="M205.678 198.809V192.436L207.512 193.495L213.838 189.732C223.763 187.428 233.898 183.595 242.811 177.411V184.066C242.811 184.066 229.524 194.717 205.678 198.809Z" fill="url(#paint34_linear_158:24134)"/>
<path d="M207.489 193.495L207.512 191.026C209.605 190.673 211.698 190.226 213.815 189.732L207.489 193.495Z" fill="#65E29D"/>
<path d="M207.489 193.495L205.655 192.437V191.332C206.266 191.237 206.877 191.12 207.489 191.026V193.495Z" fill="#65D1AC"/>
<path d="M243.305 128.526L243.164 128.456C245.28 127.209 247.35 125.893 249.396 124.529C247.42 125.916 245.374 127.256 243.305 128.526Z" fill="url(#paint35_linear_158:24134)"/>
<path d="M223.951 138.519V138.026C224.609 137.744 225.291 137.461 225.95 137.179L226.42 137.438C225.597 137.814 224.797 138.167 223.951 138.519Z" fill="#31B2FB"/>
<path d="M226.42 137.438L225.95 137.179C231.829 134.64 237.59 131.747 243.164 128.456L243.305 128.526C237.849 131.889 232.182 134.851 226.42 137.438Z" fill="#4DC9F8"/>
<path d="M207.771 144.539V143.904C213.18 142.211 218.612 140.26 223.951 138.049V138.543C218.636 140.824 213.227 142.823 207.771 144.539Z" fill="#7CE287"/>
<path d="M194.014 148.349V147.69C198.576 146.585 203.162 145.339 207.771 143.881V144.516C203.209 145.997 198.599 147.267 194.014 148.349Z" fill="#7CCD99"/>
<path d="M177.764 151.617V151.029C183.031 150.135 188.487 149.03 194.014 147.69V148.348C188.558 149.665 183.125 150.747 177.764 151.617Z" fill="#648CEA"/>
<path d="M163.089 153.592V153.145C167.793 152.604 172.708 151.922 177.764 151.052V151.64C172.778 152.44 167.863 153.098 163.089 153.592Z" fill="#78ADFB"/>
<path d="M146.98 154.791V154.532C151.448 154.274 156.316 153.874 161.49 153.31V153.756C156.481 154.25 151.636 154.579 146.98 154.791Z" fill="url(#paint36_linear_158:24134)"/>
<path d="M161.49 153.756V153.31C162.007 153.239 162.548 153.192 163.089 153.122V153.568C162.548 153.639 162.031 153.709 161.49 153.756Z" fill="#388AE0"/>
<path d="M133.435 155.097C133.27 155.097 133.105 155.097 132.941 155.097V155.027C136.939 154.98 141.665 154.862 146.98 154.533V154.791C142.23 155.003 137.691 155.097 133.435 155.097Z" fill="url(#paint37_linear_158:24134)"/>
<path d="M132.941 155.097C130.354 155.097 127.884 155.05 125.533 155.003C126.92 155.026 128.519 155.05 130.283 155.05C131.13 155.05 132 155.05 132.941 155.026V155.097Z" fill="#17CDE4"/>
<path d="M100.558 153.192C99.4528 153.051 98.8884 152.957 98.8884 152.957C72.9023 147.549 53.5244 139.86 39.1792 131.818C39.2733 131.724 39.3909 131.606 39.5084 131.512C54.3475 140.024 74.2428 147.854 100.582 152.275L100.558 153.192Z" fill="url(#paint38_linear_158:24134)"/>
<path d="M119.56 154.767C118.619 154.72 117.702 154.673 116.808 154.626V154.509C117.608 154.603 118.431 154.673 119.254 154.744C119.254 154.744 119.348 154.767 119.56 154.767Z" fill="#17CDE4"/>
<path d="M116.808 154.627C108.93 154.18 103.215 153.522 100.558 153.192V152.299C105.732 153.169 111.14 153.921 116.808 154.509V154.627Z" fill="#0BE1F7"/>
<path d="M38.6616 131.56C6.93746 113.642 0 94.1021 0 94.1021C0 94.1021 9.07749 113.854 38.6616 131.066V131.56Z" fill="url(#paint39_linear_158:24134)"/>
<path d="M39.1556 131.842C38.991 131.748 38.8264 131.654 38.6617 131.56V131.066C38.9204 131.231 39.2026 131.372 39.4848 131.536C39.3672 131.63 39.2497 131.748 39.1556 131.842Z" fill="url(#paint40_linear_158:24134)"/>
<path d="M100.534 155.214C72.7139 150.512 21.0005 136.756 0 98.2405V94.1021C0 94.1021 6.93746 113.642 38.6616 131.56V132.288C38.8262 132.124 38.9909 131.983 39.1555 131.818C53.5007 139.86 72.8786 147.525 98.8646 152.957C98.8646 152.957 99.4525 153.051 100.534 153.192V155.214ZM245.257 129.655L243.305 128.526C245.374 127.257 247.397 125.916 249.419 124.529V126.998C249.419 126.998 248.008 128.009 245.257 129.655Z" fill="url(#paint41_linear_158:24134)"/>
<path d="M223.951 140.119V138.52C224.774 138.167 225.597 137.814 226.42 137.438L228.043 138.379C226.749 138.966 225.385 139.531 223.951 140.119Z" fill="#29BCFA"/>
<path d="M228.042 138.379L226.42 137.438C232.181 134.852 237.849 131.889 243.305 128.526L245.257 129.655C241.706 131.771 235.944 134.922 228.042 138.379Z" fill="#40CEF8"/>
<path d="M207.771 146.02V144.539C213.203 142.822 218.612 140.824 223.951 138.543V140.142C219.2 142.094 213.791 144.092 207.771 146.02Z" fill="#65E29D"/>
<path d="M194.014 149.947V148.372C198.599 147.267 203.185 145.997 207.771 144.539V146.02C203.491 147.384 198.905 148.701 194.014 149.947Z" fill="#65D1AC"/>
<path d="M177.764 153.475V151.617C183.102 150.747 188.558 149.665 194.014 148.349V149.924C188.934 151.241 183.502 152.417 177.764 153.475Z" fill="#529DED"/>
<path d="M163.089 155.708V153.592C167.863 153.098 172.778 152.44 177.764 151.64V153.498C173.084 154.321 168.192 155.073 163.089 155.708Z" fill="#62B7FA"/>
<path d="M146.98 157.189V154.791C151.636 154.579 156.481 154.25 161.49 153.756V155.896C156.834 156.437 151.989 156.884 146.98 157.189Z" fill="url(#paint42_linear_158:24134)"/>
<path d="M161.49 155.896V153.756C162.007 153.709 162.548 153.639 163.089 153.592V155.708C162.548 155.779 162.031 155.826 161.49 155.896Z" fill="#2F9BE5"/>
<path d="M132.941 157.707V155.097C133.105 155.097 133.27 155.097 133.435 155.097C137.691 155.097 142.23 155.003 146.98 154.792V157.19C142.441 157.472 137.762 157.66 132.941 157.707Z" fill="url(#paint43_linear_158:24134)"/>
<path d="M129.437 157.73C126.003 157.73 122.523 157.66 118.972 157.542C118.972 157.542 118.219 157.495 116.808 157.378L116.832 154.626C117.725 154.673 118.642 154.721 119.583 154.768C120.336 154.815 122.429 154.932 125.58 154.979C127.932 155.05 130.401 155.073 132.988 155.073V157.683C131.788 157.73 130.612 157.73 129.437 157.73Z" fill="#15D1E8"/>
<path d="M116.785 157.377C113.845 157.119 108.06 156.507 100.534 155.238V153.215C103.192 153.568 108.906 154.203 116.785 154.65V157.377Z" fill="#0BE1F7"/>
<path d="M38.6617 132.312V131.583C38.8264 131.677 38.991 131.771 39.1556 131.865C38.991 132.006 38.8264 132.147 38.6617 132.312Z" fill="url(#paint44_linear_158:24134)"/>
<path d="M69.7979 219.313C43.9059 211.177 14.5804 196.387 0 169.675V166.524C11.4292 195.211 49.9262 211.553 69.7979 218.278V219.313Z" fill="url(#paint45_linear_158:24134)"/>
<path d="M132.941 229.142V228.883C135.269 228.954 137.55 228.977 139.808 228.977C137.55 229.048 135.269 229.118 132.941 229.142Z" fill="url(#paint46_linear_158:24134)"/>
<path d="M129.413 229.165C126.003 229.165 122.499 229.094 118.948 228.977C118.948 228.977 118.078 228.93 116.526 228.789V227.825C122.146 228.389 127.626 228.742 132.941 228.883V229.141C131.788 229.165 130.612 229.165 129.413 229.165Z" fill="#17CDE4"/>
<path d="M116.526 228.789C113.751 228.53 108.742 227.989 102.298 226.955V225.991C107.143 226.767 111.893 227.355 116.526 227.825V228.789Z" fill="#0BE1F7"/>
<path d="M102.298 226.955C97.5714 226.179 92.0449 225.145 86.0481 223.757V222.887C91.5746 224.11 96.9834 225.145 102.275 225.991V226.955" fill="#0B8BDA"/>
<path d="M86.0481 223.757C80.9214 222.558 75.442 221.1 69.798 219.337V218.302C77.0882 220.771 81.8856 221.947 81.8856 221.947C83.2731 222.276 84.6841 222.605 86.0481 222.911V223.757Z" fill="#31B2FB"/>
<path d="M224.256 211.436C240.695 203.982 249.419 196.975 249.419 196.975V195.987V198.456C249.419 198.433 240.742 204.617 224.256 211.436Z" fill="url(#paint47_linear_158:24134)"/>
<path d="M176.188 225.191L182.326 221.641C204.314 217.479 228.654 209.813 249.419 195.964V196.951C249.419 196.951 240.694 203.958 224.256 211.412C212.263 216.397 196.154 221.688 176.188 225.191ZM69.7979 218.278C49.9262 211.577 11.4292 195.211 0 166.524V165.513C0 165.513 15.1213 198.385 69.8214 216.279L69.7979 218.278Z" fill="url(#paint48_linear_158:24134)"/>
<path d="M139.808 228.977C137.55 228.977 135.269 228.954 132.941 228.883V226.461C144.558 226.344 162.478 225.403 182.326 221.641L176.188 225.192C165.206 227.12 153.071 228.484 139.808 228.977Z" fill="url(#paint49_linear_158:24134)"/>
<path d="M132.941 228.883C127.626 228.718 122.146 228.366 116.526 227.825V225.944C117.42 226.038 118.313 226.132 119.23 226.226C119.23 226.226 123.322 226.508 130.283 226.508C131.13 226.508 132 226.508 132.941 226.485V228.883Z" fill="#15D1E8"/>
<path d="M116.526 227.801C111.893 227.331 107.143 226.743 102.298 225.967V224.016C106.837 224.745 111.611 225.379 116.549 225.897L116.526 227.801Z" fill="#0BE1F7"/>
<path d="M102.298 225.967C97.007 225.121 91.5981 224.11 86.0717 222.864L86.0952 220.818C91.2218 222.017 96.6072 223.099 102.322 224.016V225.967" fill="#0B9CE0"/>
<path d="M86.0481 222.887C84.6606 222.581 83.2731 222.252 81.8856 221.923C81.8856 221.923 77.1117 220.747 69.798 218.278V216.28C74.8776 217.926 80.2865 219.454 86.0481 220.818V222.887Z" fill="#29BCFA"/>
<path d="M100.487 170.098C92.3506 168.688 83.9081 166.806 75.1834 164.385C75.1834 164.385 56.9343 159.235 37.6035 148.513L37.9092 139.625C51.4549 147.243 69.1866 154.579 92.3271 160.27C92.3271 160.27 95.2902 160.834 100.511 161.516L100.487 170.098Z" fill="url(#paint50_linear_158:24134)"/>
<path d="M163.042 172.521L163.066 162.645C163.395 162.621 163.701 162.574 164.03 162.551L163.677 172.45C163.465 172.497 163.254 172.521 163.042 172.521Z" fill="#969EFC"/>
<path d="M146.933 173.579L146.957 163.68C151.636 163.515 156.481 163.256 161.443 162.81L161.396 172.685C156.763 173.132 151.942 173.438 146.933 173.579Z" fill="url(#paint51_linear_158:24134)"/>
<path d="M161.419 172.685L161.466 162.81C162.007 162.763 162.525 162.715 163.066 162.668L163.042 172.544C162.501 172.591 161.96 172.638 161.419 172.685Z" fill="#4571D9"/>
<path d="M140.842 173.649C138.255 173.649 135.622 173.602 132.964 173.508V163.773C134.446 163.797 135.951 163.797 137.479 163.797C140.56 163.797 143.711 163.75 146.98 163.632L146.957 173.532C144.934 173.626 142.912 173.649 140.842 173.649Z" fill="url(#paint52_linear_158:24134)"/>
<path d="M132.941 173.508C127.696 173.32 122.288 172.944 116.738 172.356L116.761 163.091C121.629 163.421 127.061 163.679 132.941 163.773V173.508Z" fill="#1BC7DF"/>
<path d="M116.738 172.38C111.47 171.815 106.038 171.063 100.488 170.099L100.511 161.493C104.627 162.033 110.176 162.645 116.761 163.092L116.738 172.38Z" fill="#0BE1F7"/>
<path d="M100.44 183.901C92.1624 182.467 83.5788 180.562 74.6895 178.093C74.6895 178.093 56.4404 172.944 37.1096 162.222L37.4389 153.333C50.9845 160.952 68.7162 168.288 91.8332 173.979C91.8332 173.979 94.9609 174.566 100.464 175.272L100.44 183.901Z" fill="url(#paint53_linear_158:24134)"/>
<path d="M162.995 186.206L163.019 176.33C163.183 176.306 163.348 176.306 163.536 176.283L163.183 186.182C163.113 186.206 163.066 186.206 162.995 186.206Z" fill="#969EFC"/>
<path d="M146.91 185.688L146.933 177.388C151.613 177.224 156.457 176.941 161.42 176.495V177.318L146.91 185.688Z" fill="url(#paint54_linear_158:24134)"/>
<path d="M146.886 187.287V185.688L161.396 177.317L161.372 186.37C156.716 186.817 151.895 187.146 146.886 187.287Z" fill="url(#paint55_linear_158:24134)"/>
<path d="M161.372 186.37L161.396 177.318V176.495C161.937 176.448 162.478 176.401 163.019 176.354L162.995 186.229C162.454 186.276 161.913 186.323 161.372 186.37Z" fill="#4571D9"/>
<path d="M140.372 187.381C137.926 187.381 135.457 187.334 132.964 187.264V177.529C134.281 177.552 135.622 177.552 136.985 177.552C140.207 177.552 143.523 177.505 146.933 177.388L146.91 185.688L144.017 187.358C142.818 187.381 141.595 187.381 140.372 187.381Z" fill="url(#paint56_linear_158:24134)"/>
<path d="M144.017 187.358L146.91 185.688V187.287C145.945 187.311 144.981 187.334 144.017 187.358Z" fill="url(#paint57_linear_158:24134)"/>
<path d="M132.941 187.264C127.673 187.099 122.264 186.723 116.667 186.159L116.691 176.871C121.582 177.2 127.038 177.458 132.917 177.529L132.941 187.264Z" fill="#1BC7DF"/>
<path d="M116.691 186.159C111.423 185.618 105.99 184.865 100.44 183.925L100.464 175.319C104.626 175.86 110.153 176.448 116.714 176.894L116.691 186.159Z" fill="#0BE1F7"/>
<path d="M100.393 191.99L100.064 191.802C100.182 191.825 100.276 191.825 100.393 191.849V191.99Z" fill="url(#paint58_linear_158:24134)"/>
<path d="M146.863 203.747L146.886 193.848C151.566 193.683 156.41 193.377 161.349 192.931L161.325 198.362L162.713 199.162L162.595 202.665C157.539 203.206 152.295 203.559 146.863 203.747Z" fill="url(#paint59_linear_158:24134)"/>
<path d="M162.713 199.162L161.325 198.362L161.349 192.931C161.89 192.884 162.407 192.837 162.948 192.79L162.713 199.162Z" fill="#4571D9"/>
<path d="M139.761 203.865C137.526 203.865 135.245 203.841 132.941 203.77V194.012C134.069 194.036 135.198 194.036 136.374 194.036C139.761 194.036 143.265 193.965 146.886 193.848L146.863 203.747C144.534 203.817 142.159 203.865 139.761 203.865Z" fill="url(#paint60_linear_158:24134)"/>
<path d="M132.941 203.747C127.673 203.582 122.217 203.229 116.62 202.665L116.644 193.354C121.559 193.683 127.038 193.918 132.941 193.988V203.747Z" fill="#1BC7DF"/>
<path d="M116.62 202.666C111.964 202.195 107.166 201.56 102.298 200.784V193.072L100.417 191.99V191.826C104.626 192.343 110.153 192.931 116.667 193.354L116.62 202.666Z" fill="#0BE1F7"/>
<path d="M102.298 200.784C98.9824 200.244 95.6195 199.632 92.186 198.927L102.298 193.048V200.784Z" fill="#0A73D1"/>
<path d="M69.9626 193.283C63.4955 191.143 50.2791 186.323 36.5217 178.705L36.851 169.816C48.0685 176.118 62.1315 182.232 79.7691 187.381L69.9861 193.072L69.9626 193.283Z" fill="url(#paint61_linear_158:24134)"/>
<path d="M70.8091 193.565C70.5504 193.471 70.2682 193.377 69.9625 193.283V193.071L70.8091 193.565Z" fill="#3CA5FC"/>
<path d="M92.1861 198.95C86.3069 197.751 80.2631 196.293 74.0782 194.6C74.0782 194.6 72.8788 194.271 70.7858 193.589L69.9392 193.095L79.7222 187.405C83.3908 188.486 87.2241 189.498 91.2219 190.485C91.2219 190.485 94.4437 191.096 100.064 191.802L100.393 191.99L102.275 193.072L92.1861 198.95Z" fill="#60C2F9"/>
<path d="M69.8686 207.157C63.5661 205.087 50.0674 200.244 36.0044 192.46L36.3336 183.572C45.5052 188.722 56.5581 193.754 69.9156 198.221L69.8686 207.157Z" fill="url(#paint62_linear_158:24134)"/>
<path d="M134.61 217.526C134.069 217.503 133.505 217.503 132.941 217.479V216.562L134.61 217.526ZM160.596 216.539L162.125 215.645L162.102 216.374C161.584 216.444 161.09 216.492 160.596 216.539Z" fill="url(#paint63_linear_158:24134)"/>
<path d="M146.816 217.456L146.839 207.533C151.872 207.345 157.092 206.992 162.431 206.475L162.101 215.645L160.573 216.539C156.152 216.985 151.566 217.291 146.816 217.456Z" fill="url(#paint64_linear_158:24134)"/>
<path d="M139.29 217.597C137.762 217.597 136.186 217.573 134.634 217.55L132.964 216.585V207.744C133.928 207.744 134.892 207.768 135.88 207.768C139.408 207.768 143.076 207.697 146.839 207.556L146.816 217.455C144.346 217.55 141.83 217.597 139.29 217.597Z" fill="url(#paint65_linear_158:24134)"/>
<path d="M132.941 217.502C127.649 217.361 122.193 217.009 116.549 216.444L116.596 207.133C121.535 207.462 127.014 207.674 132.941 207.744V216.585V217.502Z" fill="#1BC7DF"/>
<path d="M116.573 216.445C111.916 215.974 107.166 215.363 102.298 214.587V205.84C106.249 206.287 111.07 206.757 116.62 207.11L116.573 216.445Z" fill="#0BE1F7"/>
<path d="M102.298 214.61C97.0305 213.764 91.6451 212.729 86.1187 211.483L86.1657 203.042C87.6708 203.441 89.1758 203.817 90.728 204.194C90.728 204.194 94.9845 204.993 102.298 205.84V214.61Z" fill="#0A73D1"/>
<path d="M86.1188 211.483C82.0033 210.542 77.8409 209.508 73.5843 208.332C73.5843 208.332 72.2203 207.956 69.8687 207.18L69.9157 198.221C74.9953 199.914 80.4042 201.537 86.1658 203.065L86.1188 211.483Z" fill="#3CA5FC"/>
<path d="M169.462 208.285L169.65 203.159L176.117 206.897C173.93 207.391 171.72 207.861 169.462 208.285Z" fill="url(#paint66_linear_158:24134)"/>
<path d="M177.552 206.569L177.74 160.787L179.88 160.082L178.163 206.451C177.952 206.475 177.764 206.522 177.552 206.569Z" fill="#36B8F1"/>
<path d="M176.117 206.898L169.65 203.159L171.132 162.974L177.74 160.764L177.575 206.545C177.082 206.663 176.588 206.78 176.117 206.898Z" fill="#40C8F9"/>
<path d="M33.1353 147.361C21.0007 141.059 8.37215 131.795 3.31604 119.097V110.656C3.31604 110.656 8.5838 125.469 33.1353 138.426V147.361Z" fill="url(#paint67_linear_158:24134)"/>
<path d="M33.1353 161.093C21.0007 154.815 8.37215 145.55 3.31604 132.829V124.388C3.31604 124.388 8.5838 139.201 33.1353 152.157V161.093Z" fill="url(#paint68_linear_158:24134)"/>
<path d="M33.1353 177.576C21.0007 171.274 8.37215 162.033 3.31604 149.313V140.871C3.31604 140.871 8.5838 155.685 33.1353 168.641V177.576Z" fill="url(#paint69_linear_158:24134)"/>
<path d="M33.1353 191.332C21.0007 185.03 8.37215 175.765 3.31604 163.044V154.603C3.31604 154.603 8.5838 169.417 33.1353 182.373V191.332Z" fill="url(#paint70_linear_158:24134)"/>
<defs>
<linearGradient id="paint0_linear_158:24134" x1="-587.176" y1="-610.464" x2="856.502" y2="814.584" gradientUnits="userSpaceOnUse">
<stop stop-color="#3963B1"/>
<stop offset="1" stop-color="#1B087C"/>
</linearGradient>
<linearGradient id="paint1_linear_158:24134" x1="-628.788" y1="-568.307" x2="814.888" y2="856.741" gradientUnits="userSpaceOnUse">
<stop stop-color="#570D70"/>
<stop offset="1" stop-color="#1B087C"/>
</linearGradient>
<linearGradient id="paint2_linear_158:24134" x1="-563.948" y1="-633.995" x2="879.729" y2="791.053" gradientUnits="userSpaceOnUse">
<stop stop-color="#6443A4"/>
<stop offset="1" stop-color="#1A34A0"/>
</linearGradient>
<linearGradient id="paint3_linear_158:24134" x1="-584.184" y1="-613.495" x2="859.493" y2="811.553" gradientUnits="userSpaceOnUse">
<stop stop-color="#3678BA"/>
<stop offset="1" stop-color="#1475C1"/>
</linearGradient>
<linearGradient id="paint4_linear_158:24134" x1="-573.78" y1="-624.028" x2="869.886" y2="801.019" gradientUnits="userSpaceOnUse">
<stop stop-color="#58B3F7"/>
<stop offset="1" stop-color="#58B3F7"/>
</linearGradient>
<linearGradient id="paint5_linear_158:24134" x1="-538.297" y1="-659.981" x2="905.38" y2="765.067" gradientUnits="userSpaceOnUse">
<stop stop-color="#3678BA"/>
<stop offset="1" stop-color="#1475C1"/>
</linearGradient>
<linearGradient id="paint6_linear_158:24134" x1="-544.71" y1="-653.485" x2="898.966" y2="771.564" gradientUnits="userSpaceOnUse">
<stop stop-color="#2D8DC6"/>
<stop offset="1" stop-color="#128BCC"/>
</linearGradient>
<linearGradient id="paint7_linear_158:24134" x1="-591.737" y1="-605.844" x2="851.94" y2="819.205" gradientUnits="userSpaceOnUse">
<stop stop-color="#3B6CB3"/>
<stop offset="1" stop-color="#1568BA"/>
</linearGradient>
<linearGradient id="paint8_linear_158:24134" x1="-600.002" y1="-597.471" x2="843.676" y2="827.578" gradientUnits="userSpaceOnUse">
<stop stop-color="#3B6CB3"/>
<stop offset="1" stop-color="#1568BA"/>
</linearGradient>
<linearGradient id="paint9_linear_158:24134" x1="-608.267" y1="-589.097" x2="835.409" y2="835.952" gradientUnits="userSpaceOnUse">
<stop stop-color="#3B6CB3"/>
<stop offset="1" stop-color="#1568BA"/>
</linearGradient>
<linearGradient id="paint10_linear_158:24134" x1="-616.532" y1="-580.724" x2="827.145" y2="844.325" gradientUnits="userSpaceOnUse">
<stop stop-color="#3B6CB3"/>
<stop offset="1" stop-color="#1568BA"/>
</linearGradient>
<linearGradient id="paint11_linear_158:24134" x1="-540.432" y1="-657.815" x2="903.244" y2="767.227" gradientUnits="userSpaceOnUse">
<stop stop-color="#3B6CB3"/>
<stop offset="1" stop-color="#1568BA"/>
</linearGradient>
<linearGradient id="paint12_linear_158:24134" x1="-549.128" y1="-649.008" x2="894.547" y2="776.04" gradientUnits="userSpaceOnUse">
<stop stop-color="#3B6CB3"/>
<stop offset="1" stop-color="#1568BA"/>
</linearGradient>
<linearGradient id="paint13_linear_158:24134" x1="-569.649" y1="-628.222" x2="874.03" y2="796.829" gradientUnits="userSpaceOnUse">
<stop stop-color="#3B6CB3"/>
<stop offset="1" stop-color="#1568BA"/>
</linearGradient>
<linearGradient id="paint14_linear_158:24134" x1="-577.06" y1="-620.714" x2="866.618" y2="804.338" gradientUnits="userSpaceOnUse">
<stop stop-color="#3B6CB3"/>
<stop offset="1" stop-color="#1568BA"/>
</linearGradient>
<linearGradient id="paint15_linear_158:24134" x1="-549.414" y1="-648.721" x2="894.263" y2="776.33" gradientUnits="userSpaceOnUse">
<stop stop-color="#425BA9"/>
<stop offset="1" stop-color="#1757B1"/>
</linearGradient>
<linearGradient id="paint16_linear_158:24134" x1="-560.671" y1="-637.316" x2="883.006" y2="787.733" gradientUnits="userSpaceOnUse">
<stop stop-color="#425BA9"/>
<stop offset="1" stop-color="#1757B1"/>
</linearGradient>
<linearGradient id="paint17_linear_158:24134" x1="-503.526" y1="-695.207" x2="940.152" y2="729.84" gradientUnits="userSpaceOnUse">
<stop stop-color="#425BA9"/>
<stop offset="1" stop-color="#1757B1"/>
</linearGradient>
<linearGradient id="paint18_linear_158:24134" x1="-510.366" y1="-688.277" x2="933.31" y2="736.77" gradientUnits="userSpaceOnUse">
<stop stop-color="#425BA9"/>
<stop offset="1" stop-color="#1757B1"/>
</linearGradient>
<linearGradient id="paint19_linear_158:24134" x1="-517.206" y1="-681.348" x2="926.471" y2="743.7" gradientUnits="userSpaceOnUse">
<stop stop-color="#425BA9"/>
<stop offset="1" stop-color="#1757B1"/>
</linearGradient>
<linearGradient id="paint20_linear_158:24134" x1="-559.958" y1="-638.038" x2="883.719" y2="787.011" gradientUnits="userSpaceOnUse">
<stop stop-color="#20AED9"/>
<stop offset="1" stop-color="#10ADDD"/>
</linearGradient>
<linearGradient id="paint21_linear_158:24134" x1="-613.824" y1="-583.469" x2="829.856" y2="841.579" gradientUnits="userSpaceOnUse">
<stop stop-color="#503995"/>
<stop offset="1" stop-color="#1A34A0"/>
</linearGradient>
<linearGradient id="paint22_linear_158:24134" x1="-638.335" y1="-558.629" x2="805.331" y2="866.418" gradientUnits="userSpaceOnUse">
<stop stop-color="#48378B"/>
<stop offset="1" stop-color="#183395"/>
</linearGradient>
<linearGradient id="paint23_linear_158:24134" x1="-615.392" y1="-581.879" x2="828.284" y2="843.17" gradientUnits="userSpaceOnUse">
<stop stop-color="#503995"/>
<stop offset="1" stop-color="#1A34A0"/>
</linearGradient>
<linearGradient id="paint24_linear_158:24134" x1="-603.849" y1="-593.573" x2="839.829" y2="831.475" gradientUnits="userSpaceOnUse">
<stop stop-color="#48378B"/>
<stop offset="1" stop-color="#183395"/>
</linearGradient>
<linearGradient id="paint25_linear_158:24134" x1="-609.979" y1="-587.364" x2="833.697" y2="837.688" gradientUnits="userSpaceOnUse">
<stop stop-color="#5455D2"/>
<stop offset="1" stop-color="#5455D2"/>
</linearGradient>
<linearGradient id="paint26_linear_158:24134" x1="-629.498" y1="-567.586" x2="814.178" y2="857.459" gradientUnits="userSpaceOnUse">
<stop stop-color="#5455D2"/>
<stop offset="1" stop-color="#5455D2"/>
</linearGradient>
<linearGradient id="paint27_linear_158:24134" x1="-621.378" y1="-575.816" x2="822.301" y2="849.234" gradientUnits="userSpaceOnUse">
<stop stop-color="#7B7BFD"/>
<stop offset="1" stop-color="#7B7BFD"/>
</linearGradient>
<linearGradient id="paint28_linear_158:24134" x1="-634.487" y1="-562.533" x2="809.188" y2="862.514" gradientUnits="userSpaceOnUse">
<stop stop-color="#7B7BFD"/>
<stop offset="1" stop-color="#7B7BFD"/>
</linearGradient>
<linearGradient id="paint29_linear_158:24134" x1="-613.258" y1="-584.042" x2="830.416" y2="841.012" gradientUnits="userSpaceOnUse">
<stop stop-color="#1DAED6"/>
<stop offset="1" stop-color="#0FACD9"/>
</linearGradient>
<linearGradient id="paint30_linear_158:24134" x1="-604.706" y1="-592.708" x2="838.974" y2="832.344" gradientUnits="userSpaceOnUse">
<stop stop-color="#1DAED6"/>
<stop offset="1" stop-color="#0FACD9"/>
</linearGradient>
<linearGradient id="paint31_linear_158:24134" x1="-559.861" y1="-638.179" x2="883.811" y2="786.953" gradientUnits="userSpaceOnUse">
<stop stop-color="#298CC1"/>
<stop offset="1" stop-color="#118AC6"/>
</linearGradient>
<linearGradient id="paint32_linear_158:24134" x1="-570.073" y1="-627.789" x2="873.606" y2="797.254" gradientUnits="userSpaceOnUse">
<stop stop-color="#298CC1"/>
<stop offset="1" stop-color="#118AC6"/>
</linearGradient>
<linearGradient id="paint33_linear_158:24134" x1="-576.488" y1="-621.291" x2="867.189" y2="803.757" gradientUnits="userSpaceOnUse">
<stop stop-color="#298CC1"/>
<stop offset="1" stop-color="#118AC6"/>
</linearGradient>
<linearGradient id="paint34_linear_158:24134" x1="-586.179" y1="-611.475" x2="857.5" y2="813.573" gradientUnits="userSpaceOnUse">
<stop stop-color="#298CC1"/>
<stop offset="1" stop-color="#118AC6"/>
</linearGradient>
<linearGradient id="paint35_linear_158:24134" x1="-544.43" y1="-653.774" x2="899.247" y2="771.284" gradientUnits="userSpaceOnUse">
<stop stop-color="#3678BA"/>
<stop offset="1" stop-color="#1475C1"/>
</linearGradient>
<linearGradient id="paint36_linear_158:24134" x1="-603.561" y1="-593.885" x2="840.16" y2="831.158" gradientUnits="userSpaceOnUse">
<stop stop-color="#388AE0"/>
<stop offset="1" stop-color="#388AE0"/>
</linearGradient>
<linearGradient id="paint37_linear_158:24134" x1="-611.118" y1="-586.31" x2="832.752" y2="838.738" gradientUnits="userSpaceOnUse">
<stop stop-color="#51A1FB"/>
<stop offset="1" stop-color="#51A1FB"/>
</linearGradient>
<linearGradient id="paint38_linear_158:24134" x1="-639.333" y1="-557.626" x2="804.345" y2="867.422" gradientUnits="userSpaceOnUse">
<stop stop-color="#3678BA"/>
<stop offset="1" stop-color="#1475C1"/>
</linearGradient>
<linearGradient id="paint39_linear_158:24134" x1="-650.876" y1="-545.931" x2="792.802" y2="879.117" gradientUnits="userSpaceOnUse">
<stop stop-color="#3678BA"/>
<stop offset="1" stop-color="#1475C1"/>
</linearGradient>
<linearGradient id="paint40_linear_158:24134" x1="-649.167" y1="-547.664" x2="794.51" y2="877.387" gradientUnits="userSpaceOnUse">
<stop stop-color="#20ADD9"/>
<stop offset="1" stop-color="#0FABDC"/>
</linearGradient>
<linearGradient id="paint41_linear_158:24134" x1="-598.007" y1="-599.492" x2="845.67" y2="825.557" gradientUnits="userSpaceOnUse">
<stop stop-color="#2D8DC6"/>
<stop offset="1" stop-color="#128BCC"/>
</linearGradient>
<linearGradient id="paint42_linear_158:24134" x1="-604.274" y1="-593.14" x2="839.403" y2="831.903" gradientUnits="userSpaceOnUse">
<stop stop-color="#2F9BE5"/>
<stop offset="1" stop-color="#2F9BE5"/>
</linearGradient>
<linearGradient id="paint43_linear_158:24134" x1="-611.831" y1="-585.476" x2="831.824" y2="839.575" gradientUnits="userSpaceOnUse">
<stop stop-color="#43AEFA"/>
<stop offset="1" stop-color="#43AEFA"/>
</linearGradient>
<linearGradient id="paint44_linear_158:24134" x1="-649.59" y1="-547.217" x2="794.057" y2="877.826" gradientUnits="userSpaceOnUse">
<stop stop-color="#1CB7DF"/>
<stop offset="1" stop-color="#0EB6E2"/>
</linearGradient>
<linearGradient id="paint45_linear_158:24134" x1="-683.652" y1="-512.727" x2="760.025" y2="912.322" gradientUnits="userSpaceOnUse">
<stop stop-color="#3678BA"/>
<stop offset="1" stop-color="#1475C1"/>
</linearGradient>
<linearGradient id="paint46_linear_158:24134" x1="-650.02" y1="-546.889" x2="793.825" y2="878.156" gradientUnits="userSpaceOnUse">
<stop stop-color="#3177B4"/>
<stop offset="1" stop-color="#1375BA"/>
</linearGradient>
<linearGradient id="paint47_linear_158:24134" x1="-587.744" y1="-609.889" x2="855.937" y2="815.156" gradientUnits="userSpaceOnUse">
<stop stop-color="#3678BA"/>
<stop offset="1" stop-color="#1475C1"/>
</linearGradient>
<linearGradient id="paint48_linear_158:24134" x1="-633.49" y1="-563.545" x2="810.187" y2="861.504" gradientUnits="userSpaceOnUse">
<stop stop-color="#2D8DC6"/>
<stop offset="1" stop-color="#128BCC"/>
</linearGradient>
<linearGradient id="paint49_linear_158:24134" x1="-637.481" y1="-559.502" x2="806.197" y2="865.547" gradientUnits="userSpaceOnUse">
<stop stop-color="#298CC1"/>
<stop offset="1" stop-color="#118AC6"/>
</linearGradient>
<linearGradient id="paint50_linear_158:24134" x1="-646.173" y1="-550.695" x2="797.503" y2="874.353" gradientUnits="userSpaceOnUse">
<stop stop-color="#425BA9"/>
<stop offset="1" stop-color="#1757B1"/>
</linearGradient>
<linearGradient id="paint51_linear_158:24134" x1="-610.69" y1="-586.642" x2="832.985" y2="838.407" gradientUnits="userSpaceOnUse">
<stop stop-color="#4571D9"/>
<stop offset="1" stop-color="#4571D9"/>
</linearGradient>
<linearGradient id="paint52_linear_158:24134" x1="-617.957" y1="-579.282" x2="825.725" y2="845.765" gradientUnits="userSpaceOnUse">
<stop stop-color="#658FFC"/>
<stop offset="1" stop-color="#658FFC"/>
</linearGradient>
<linearGradient id="paint53_linear_158:24134" x1="-653.156" y1="-543.621" x2="790.52" y2="881.428" gradientUnits="userSpaceOnUse">
<stop stop-color="#425BA9"/>
<stop offset="1" stop-color="#1757B1"/>
</linearGradient>
<linearGradient id="paint54_linear_158:24134" x1="-617.243" y1="-579.999" x2="826.429" y2="845.047" gradientUnits="userSpaceOnUse">
<stop stop-color="#4571D9"/>
<stop offset="1" stop-color="#4571D9"/>
</linearGradient>
<linearGradient id="paint55_linear_158:24134" x1="-617.814" y1="-579.422" x2="825.859" y2="845.625" gradientUnits="userSpaceOnUse">
<stop stop-color="#4571D9"/>
<stop offset="1" stop-color="#4571D9"/>
</linearGradient>
<linearGradient id="paint56_linear_158:24134" x1="-624.797" y1="-572.353" x2="818.884" y2="852.695" gradientUnits="userSpaceOnUse">
<stop stop-color="#658FFC"/>
<stop offset="1" stop-color="#658FFC"/>
</linearGradient>
<linearGradient id="paint57_linear_158:24134" x1="-624.218" y1="-572.921" x2="819.446" y2="852.11" gradientUnits="userSpaceOnUse">
<stop stop-color="#658FFC"/>
<stop offset="1" stop-color="#658FFC"/>
</linearGradient>
<linearGradient id="paint58_linear_158:24134" x1="-649.122" y1="-547.604" x2="794.439" y2="877.362" gradientUnits="userSpaceOnUse">
<stop stop-color="#425BA9"/>
<stop offset="1" stop-color="#1757B1"/>
</linearGradient>
<linearGradient id="paint59_linear_158:24134" x1="-625.935" y1="-571.192" x2="817.736" y2="853.852" gradientUnits="userSpaceOnUse">
<stop stop-color="#4571D9"/>
<stop offset="1" stop-color="#4571D9"/>
</linearGradient>
<linearGradient id="paint60_linear_158:24134" x1="-633.062" y1="-563.976" x2="810.613" y2="861.071" gradientUnits="userSpaceOnUse">
<stop stop-color="#658FFC"/>
<stop offset="1" stop-color="#658FFC"/>
</linearGradient>
<linearGradient id="paint61_linear_158:24134" x1="-665.554" y1="-531.062" x2="778.124" y2="893.986" gradientUnits="userSpaceOnUse">
<stop stop-color="#425BA9"/>
<stop offset="1" stop-color="#1757B1"/>
</linearGradient>
<linearGradient id="paint62_linear_158:24134" x1="-674.246" y1="-522.255" x2="769.432" y2="902.793" gradientUnits="userSpaceOnUse">
<stop stop-color="#425BA9"/>
<stop offset="1" stop-color="#1757B1"/>
</linearGradient>
<linearGradient id="paint63_linear_158:24134" x1="-638.193" y1="-558.78" x2="805.484" y2="866.269" gradientUnits="userSpaceOnUse">
<stop stop-color="#3C59A1"/>
<stop offset="1" stop-color="#1556A9"/>
</linearGradient>
<linearGradient id="paint64_linear_158:24134" x1="-632.35" y1="-564.7" x2="811.329" y2="860.348" gradientUnits="userSpaceOnUse">
<stop stop-color="#4571D9"/>
<stop offset="1" stop-color="#4571D9"/>
</linearGradient>
<linearGradient id="paint65_linear_158:24134" x1="-639.761" y1="-557.191" x2="803.914" y2="867.859" gradientUnits="userSpaceOnUse">
<stop stop-color="#658FFC"/>
<stop offset="1" stop-color="#658FFC"/>
</linearGradient>
<linearGradient id="paint66_linear_158:24134" x1="-621.237" y1="-575.96" x2="822.44" y2="849.092" gradientUnits="userSpaceOnUse">
<stop stop-color="#1DAED6"/>
<stop offset="1" stop-color="#0FACD9"/>
</linearGradient>
<linearGradient id="paint67_linear_158:24134" x1="-659.283" y1="-537.413" x2="784.393" y2="887.635" gradientUnits="userSpaceOnUse">
<stop stop-color="#2D8DC6"/>
<stop offset="1" stop-color="#128BCC"/>
</linearGradient>
<linearGradient id="paint68_linear_158:24134" x1="-666.124" y1="-530.484" x2="777.552" y2="894.565" gradientUnits="userSpaceOnUse">
<stop stop-color="#2D8DC6"/>
<stop offset="1" stop-color="#128BCC"/>
</linearGradient>
<linearGradient id="paint69_linear_158:24134" x1="-674.389" y1="-522.11" x2="769.288" y2="902.938" gradientUnits="userSpaceOnUse">
<stop stop-color="#2D8DC6"/>
<stop offset="1" stop-color="#128BCC"/>
</linearGradient>
<linearGradient id="paint70_linear_158:24134" x1="-681.229" y1="-515.181" x2="762.448" y2="909.867" gradientUnits="userSpaceOnUse">
<stop stop-color="#2D8DC6"/>
<stop offset="1" stop-color="#128BCC"/>
</linearGradient>
</defs>
</svg>
