<svg width="36" height="36" viewBox="0 0 36 36" fill="none" xmlns="http://www.w3.org/2000/svg">
<path d="M3 0.5H0.5V33C0.5 33.663 0.763392 34.2989 1.23223 34.7678C1.70107 35.2366 2.33696 35.5 3 35.5H35.5V33H3V0.5Z" fill="white"/>
<path d="M35.5 9.25H26.75V11.75H31.2375L21.75 21.2375L16.3875 15.8625C16.2713 15.7453 16.133 15.6523 15.9807 15.5889C15.8284 15.5254 15.665 15.4928 15.5 15.4928C15.335 15.4928 15.1716 15.5254 15.0193 15.5889C14.867 15.6523 14.7287 15.7453 14.6125 15.8625L5.5 24.9875L7.2625 26.75L15.5 18.5125L20.8625 23.8875C20.9787 24.0047 21.117 24.0977 21.2693 24.1611C21.4216 24.2246 21.585 24.2572 21.75 24.2572C21.915 24.2572 22.0784 24.2246 22.2307 24.1611C22.383 24.0977 22.5213 24.0047 22.6375 23.8875L33 13.5125V18H35.5V9.25Z" fill="white"/>
</svg>
