<svg width="79" height="126" viewBox="0 0 79 126" fill="none" xmlns="http://www.w3.org/2000/svg">
<path d="M0 110.46L1.74934 126L13.085 115.22L32.4677 62.02C27.7095 60.83 23.5111 58.45 20.0824 55.16L0 110.46ZM58.8477 55.16C55.419 58.45 51.1506 60.83 46.4624 62.02L65.845 115.22L77.1807 126L79 110.46L58.8477 55.16ZM60.457 35C60.457 25.9 54.5793 18.2 46.4624 15.26V0H32.4677V15.26C24.3508 18.2 18.473 25.9 18.473 35C18.473 46.62 27.8494 56 39.465 56C51.0806 56 60.457 46.62 60.457 35ZM39.465 42C35.6165 42 32.4677 38.85 32.4677 35C32.4677 31.15 35.6165 28 39.465 28C43.3136 28 46.4624 31.15 46.4624 35C46.4624 38.85 43.3136 42 39.465 42Z" fill="#4169E1"/>
</svg>
