<svg width="120" height="120" viewBox="0 0 120 120" fill="none" xmlns="http://www.w3.org/2000/svg">
<path d="M96 54H76.92C74.4 47.04 67.8 42 60 42C52.2 42 45.6 47.04 43.08 54H24C22.02 54 12 53.4 12 42V36C12 25.02 21.24 24 24 24H85.08C87.6 30.96 94.2 36 102 36C106.774 36 111.352 34.1036 114.728 30.7279C118.104 27.3523 120 22.7739 120 18C120 13.2261 118.104 8.64773 114.728 5.27208C111.352 1.89642 106.774 0 102 0C94.2 0 87.6 5.04 85.08 12H24C14.34 12 0 18.36 0 36V42C0 59.64 14.34 66 24 66H43.08C45.6 72.96 52.2 78 60 78C67.8 78 74.4 72.96 76.92 66H96C97.98 66 108 66.6 108 78V84C108 94.98 98.76 96 96 96H34.92C32.4 89.04 25.8 84 18 84C13.2261 84 8.64773 85.8964 5.27208 89.2721C1.89642 92.6477 0 97.2261 0 102C0 106.774 1.89642 111.352 5.27208 114.728C8.64773 118.104 13.2261 120 18 120C25.8 120 32.4 114.96 34.92 108H96C105.66 108 120 101.58 120 84V78C120 60.42 105.66 54 96 54ZM102 12C103.591 12 105.117 12.6321 106.243 13.7574C107.368 14.8826 108 16.4087 108 18C108 19.5913 107.368 21.1174 106.243 22.2426C105.117 23.3679 103.591 24 102 24C100.409 24 98.8826 23.3679 97.7574 22.2426C96.6321 21.1174 96 19.5913 96 18C96 16.4087 96.6321 14.8826 97.7574 13.7574C98.8826 12.6321 100.409 12 102 12ZM18 108C16.4087 108 14.8826 107.368 13.7574 106.243C12.6321 105.117 12 103.591 12 102C12 100.409 12.6321 98.8826 13.7574 97.7574C14.8826 96.6321 16.4087 96 18 96C19.5913 96 21.1174 96.6321 22.2426 97.7574C23.3679 98.8826 24 100.409 24 102C24 103.591 23.3679 105.117 22.2426 106.243C21.1174 107.368 19.5913 108 18 108Z" fill="#4169E1"/>
</svg>
