<svg width="150" height="113" viewBox="0 0 150 113" fill="none" xmlns="http://www.w3.org/2000/svg">
<path d="M25 12.5V75H56.25V50C56.25 46.6848 57.567 43.5054 59.9112 41.1612C62.2554 38.817 65.4348 37.5 68.75 37.5H100C103.315 37.5 106.495 38.817 108.839 41.1612C111.183 43.5054 112.5 46.6848 112.5 50V75H125V12.5H25ZM0 100V87.5H25C21.6848 87.5 18.5054 86.183 16.1612 83.8388C13.817 81.4946 12.5 78.3152 12.5 75V12.5C12.5 9.18479 13.817 6.00537 16.1612 3.66116C18.5054 1.31696 21.6848 0 25 0H125C128.315 0 131.495 1.31696 133.839 3.66116C136.183 6.00537 137.5 9.18479 137.5 12.5V75C137.5 78.3152 136.183 81.4946 133.839 83.8388C131.495 86.183 128.315 87.5 125 87.5H150V100H112.5C112.5 103.315 111.183 106.495 108.839 108.839C106.495 111.183 103.315 112.5 100 112.5H68.75C65.4348 112.5 62.2554 111.183 59.9112 108.839C57.567 106.495 56.25 103.315 56.25 100H0ZM71.875 100C71.0462 100 70.2513 100.329 69.6653 100.915C69.0792 101.501 68.75 102.296 68.75 103.125C68.75 103.954 69.0792 104.749 69.6653 105.335C70.2513 105.921 71.0462 106.25 71.875 106.25C72.7038 106.25 73.4987 105.921 74.0847 105.335C74.6708 104.749 75 103.954 75 103.125C75 102.296 74.6708 101.501 74.0847 100.915C73.4987 100.329 72.7038 100 71.875 100ZM96.875 100C96.0462 100 95.2513 100.329 94.6653 100.915C94.0792 101.501 93.75 102.296 93.75 103.125C93.75 103.954 94.0792 104.749 94.6653 105.335C95.2513 105.921 96.0462 106.25 96.875 106.25C97.7038 106.25 98.4987 105.921 99.0847 105.335C99.6708 104.749 100 103.954 100 103.125C100 102.296 99.6708 101.501 99.0847 100.915C98.4987 100.329 97.7038 100 96.875 100ZM81.25 100V106.25H87.5V100H81.25ZM68.75 50V93.75H100V50H68.75Z" fill="#4169E1"/>
</svg>
