<svg width="138" height="138" viewBox="0 0 138 138" fill="none" xmlns="http://www.w3.org/2000/svg">
<path d="M100.124 38.8056C103.018 35.9263 103.018 31.2342 100.124 28.3549L89.475 17.706L89.4902 17.7213C86.6719 14.9029 81.8273 10.0584 74.9719 3.21814C71.7422 0.0646209 66.5168 0.0950898 63.3176 3.29431L3.32461 63.2416C2.55704 64.0039 1.94787 64.9106 1.53217 65.9094C1.11648 66.9081 0.902466 67.9793 0.902466 69.0611C0.902466 70.1429 1.11648 71.2141 1.53217 72.2128C1.94787 73.2116 2.55704 74.1183 3.32461 74.8806L63.3023 134.813C64.8487 136.356 66.9445 137.223 69.1295 137.223C71.3145 137.223 73.4103 136.356 74.9566 134.813L100.109 109.676C103.003 106.797 103.003 102.104 100.109 99.2252C98.7183 97.8418 96.8369 97.0652 94.8756 97.0652C92.9143 97.0652 91.0329 97.8418 89.6426 99.2252L70.5996 118.299C69.8074 119.091 68.5734 119.091 67.7812 118.299L19.8691 70.4322C19.077 69.64 19.077 68.406 19.8691 67.6138L67.766 19.7474C67.827 19.6865 67.9031 19.6408 67.9641 19.5799C68.7563 18.9552 69.8531 19.0162 70.5844 19.7474L89.6578 38.8056C92.5524 41.7002 97.2445 41.7002 100.124 38.8056ZM53.2477 69.3658C53.2477 73.6567 54.9538 77.7719 57.9908 80.806C61.0278 83.8401 65.1469 85.5447 69.4418 85.5447C73.7368 85.5447 77.8558 83.8401 80.8928 80.806C83.9298 77.7719 85.6359 73.6567 85.6359 69.3658C85.6359 65.0749 83.9298 60.9597 80.8928 57.9256C77.8558 54.8914 73.7368 53.1869 69.4418 53.1869C65.1469 53.1869 61.0278 54.8914 57.9908 57.9256C54.9538 60.9597 53.2477 65.0749 53.2477 69.3658ZM134.934 63.4853L116.211 44.8537C113.317 41.9744 108.625 41.9744 105.745 44.8689C105.057 45.554 104.511 46.3683 104.139 47.265C103.766 48.1618 103.574 49.1233 103.574 50.0943C103.574 51.0654 103.766 52.0269 104.139 52.9236C104.511 53.8203 105.057 54.6346 105.745 55.3197L118.39 67.949C119.182 68.7412 119.182 69.9752 118.39 70.7673L105.928 83.2138C105.24 83.8989 104.694 84.7132 104.321 85.61C103.949 86.5067 103.757 87.4682 103.757 88.4392C103.757 89.4103 103.949 90.3718 104.321 91.2685C104.694 92.1652 105.24 92.9795 105.928 93.6646C107.318 95.048 109.2 95.8246 111.161 95.8246C113.122 95.8246 115.004 95.048 116.394 93.6646L134.95 75.1244C135.715 74.3601 136.321 73.4523 136.734 72.4531C137.148 71.454 137.36 70.383 137.358 69.3017C137.357 68.2204 137.142 67.15 136.726 66.1519C136.31 65.1538 135.701 64.2476 134.934 63.4853Z" fill="#4169E1"/>
</svg>
