<svg width="137" height="114" viewBox="0 0 137 114" fill="none" xmlns="http://www.w3.org/2000/svg">
<path d="M130.65 51.1806L102.247 51.1238C99.1233 51.1238 96.5671 53.6799 96.5671 56.8042V107.928C96.5671 111.052 99.1233 113.608 102.247 113.608H130.65C133.774 113.608 136.33 111.052 136.33 107.928V56.8042C136.33 53.6799 133.774 51.1806 130.65 51.1806ZM130.65 102.248H102.247V62.4846H130.65V102.248ZM113.608 0H11.3608C5.11237 0 0 5.11238 0 11.3608V79.5258C0 85.7743 5.11237 90.8867 11.3608 90.8867H51.1237V102.248H45.4433C42.3191 102.248 39.7629 104.804 39.7629 107.928C39.7629 111.052 42.3191 113.608 45.4433 113.608H79.5258C82.6501 113.608 85.2062 111.052 85.2062 107.928C85.2062 104.804 82.6501 102.248 79.5258 102.248H73.8454V90.8867H79.5258C82.6501 90.8867 85.2062 88.3305 85.2062 85.2063C85.2062 82.082 82.6501 79.5258 79.5258 79.5258H17.0413C13.917 79.5258 11.3608 76.9697 11.3608 73.8454V17.0413C11.3608 13.917 13.917 11.3608 17.0413 11.3608H107.928C111.052 11.3608 113.608 13.917 113.608 17.0413V34.0825C113.608 37.2067 116.165 39.7629 119.289 39.7629C122.413 39.7629 124.969 37.2067 124.969 34.0825V11.3608C124.969 5.11238 119.857 0 113.608 0ZM67.9946 39.7629L62.4846 22.7217L56.9746 39.7629H39.7629L53.7935 49.7605L48.454 66.2905L62.4846 56.0657L76.5152 66.2905L71.1756 49.7605L85.2062 39.7629H67.9946Z" fill="#4169E1"/>
</svg>
