<svg width="115" height="119" viewBox="0 0 115 119" fill="none" xmlns="http://www.w3.org/2000/svg">
<path d="M28.629 0H5.72581C4.20723 0 2.75085 0.623361 1.67705 1.73295C0.603253 2.84254 0 4.34747 0 5.91667V112.417C0 113.986 0.603253 115.491 1.67705 116.6C2.75085 117.71 4.20723 118.333 5.72581 118.333H28.629C30.1476 118.333 31.604 117.71 32.6778 116.6C33.7516 115.491 34.3548 113.986 34.3548 112.417V5.91667C34.3548 4.34747 33.7516 2.84254 32.6778 1.73295C31.604 0.623361 30.1476 0 28.629 0ZM17.1774 112.417C14.9125 112.417 12.6985 111.723 10.8152 110.422C8.93204 109.122 7.46425 107.274 6.59751 105.112C5.73076 102.95 5.50398 100.57 5.94585 98.2748C6.38771 95.9793 7.47837 93.8708 9.07991 92.2159C10.6814 90.561 12.7219 89.434 14.9433 88.9774C17.1647 88.5208 19.4673 88.7551 21.5598 89.6508C23.6523 90.5464 25.4408 92.0631 26.6991 94.0091C27.9574 95.9551 28.629 98.2429 28.629 100.583C28.629 103.722 27.4225 106.732 25.2749 108.951C23.1273 111.17 20.2146 112.417 17.1774 112.417ZM28.629 59.1667H5.72581V5.91667H28.629V59.1667ZM22.9032 100.583C22.9032 101.754 22.5674 102.897 21.9383 103.87C21.3091 104.843 20.4148 105.602 19.3686 106.05C18.3223 106.497 17.1711 106.615 16.0604 106.386C14.9497 106.158 13.9294 105.595 13.1287 104.767C12.3279 103.94 11.7826 102.885 11.5616 101.738C11.3407 100.59 11.4541 99.4003 11.8875 98.3191C12.3208 97.238 13.0547 96.3139 13.9963 95.6638C14.9379 95.0137 16.045 94.6667 17.1774 94.6667C18.696 94.6667 20.1524 95.29 21.2262 96.3996C22.3 97.5092 22.9032 99.0141 22.9032 100.583ZM68.7097 0H45.8064C44.2879 0 42.8315 0.623361 41.7577 1.73295C40.6839 2.84254 40.0806 4.34747 40.0806 5.91667V112.417C40.0806 113.986 40.6839 115.491 41.7577 116.6C42.8315 117.71 44.2879 118.333 45.8064 118.333H68.7097C70.2283 118.333 71.6846 117.71 72.7584 116.6C73.8322 115.491 74.4355 113.986 74.4355 112.417V5.91667C74.4355 4.34747 73.8322 2.84254 72.7584 1.73295C71.6846 0.623361 70.2283 0 68.7097 0ZM57.2581 112.417C54.9931 112.417 52.7791 111.723 50.8959 110.422C49.0127 109.122 47.5449 107.274 46.6782 105.112C45.8114 102.95 45.5846 100.57 46.0265 98.2748C46.4684 95.9793 47.559 93.8708 49.1606 92.2159C50.7621 90.561 52.8026 89.434 55.024 88.9774C57.2454 88.5208 59.5479 88.7551 61.6404 89.6508C63.7329 90.5464 65.5214 92.0631 66.7797 94.0091C68.038 95.9551 68.7097 98.2429 68.7097 100.583C68.7097 103.722 67.5032 106.732 65.3556 108.951C63.208 111.17 60.2952 112.417 57.2581 112.417ZM68.7097 59.1667H45.8064V5.91667H68.7097V59.1667ZM62.9839 100.583C62.9839 101.754 62.6481 102.897 62.0189 103.87C61.3897 104.843 60.4955 105.602 59.4492 106.05C58.403 106.497 57.2517 106.615 56.141 106.386C55.0303 106.158 54.0101 105.595 53.2093 104.767C52.4085 103.94 51.8632 102.885 51.6423 101.738C51.4213 100.59 51.5347 99.4003 51.9681 98.3191C52.4015 97.238 53.1354 96.3139 54.077 95.6638C55.0186 95.0137 56.1256 94.6667 57.2581 94.6667C58.7766 94.6667 60.233 95.29 61.3068 96.3996C62.3806 97.5092 62.9839 99.0141 62.9839 100.583ZM108.79 0H85.8871C84.3685 0 82.9121 0.623361 81.8383 1.73295C80.7645 2.84254 80.1613 4.34747 80.1613 5.91667V112.417C80.1613 113.986 80.7645 115.491 81.8383 116.6C82.9121 117.71 84.3685 118.333 85.8871 118.333H108.79C110.309 118.333 111.765 117.71 112.839 116.6C113.913 115.491 114.516 113.986 114.516 112.417V5.91667C114.516 4.34747 113.913 2.84254 112.839 1.73295C111.765 0.623361 110.309 0 108.79 0ZM97.3387 112.417C95.0738 112.417 92.8597 111.723 90.9765 110.422C89.0933 109.122 87.6255 107.274 86.7588 105.112C85.8921 102.95 85.6653 100.57 86.1071 98.2748C86.549 95.9793 87.6397 93.8708 89.2412 92.2159C90.8427 90.561 92.8832 89.434 95.1046 88.9774C97.326 88.5208 99.6285 88.7551 101.721 89.6508C103.814 90.5464 105.602 92.0631 106.86 94.0091C108.119 95.9551 108.79 98.2429 108.79 100.583C108.79 103.722 107.584 106.732 105.436 108.951C103.289 111.17 100.376 112.417 97.3387 112.417ZM108.79 59.1667H85.8871V5.91667H108.79V59.1667ZM103.065 100.583C103.065 101.754 102.729 102.897 102.1 103.87C101.47 104.843 100.576 105.602 99.5299 106.05C98.4836 106.497 97.3324 106.615 96.2216 106.386C95.111 106.158 94.0907 105.595 93.2899 104.767C92.4892 103.94 91.9438 102.885 91.7229 101.738C91.502 100.59 91.6154 99.4003 92.0488 98.3191C92.4821 97.238 93.216 96.3139 94.1576 95.6638C95.0992 95.0137 96.2062 94.6667 97.3387 94.6667C98.8573 94.6667 100.314 95.29 101.387 96.3996C102.461 97.5092 103.065 99.0141 103.065 100.583Z" fill="#4169E1"/>
</svg>
