<svg width="54" height="42" viewBox="0 0 54 42" fill="none" xmlns="http://www.w3.org/2000/svg">
<path d="M42.775 12.9438C42.0513 9.30238 40.0309 6.01763 37.0617 3.65508C34.0924 1.29253 30.3601 0 26.5073 0C22.6545 0 18.9222 1.29253 15.9529 3.65508C12.9837 6.01763 10.9633 9.30238 10.2396 12.9438C7.18279 13.4674 4.44078 15.0741 2.55432 17.4471C0.667873 19.8202 -0.226079 22.7872 0.048762 25.7632C0.323603 28.7392 1.74729 31.5081 4.03905 33.5238C6.33082 35.5395 9.32431 36.6558 12.4292 36.6525H13.2573V33.465H12.4292C10.065 33.4709 7.79114 32.5914 6.08882 31.0127C4.38649 29.434 3.38925 27.28 3.30812 25.0063C3.227 22.7327 4.06835 20.5178 5.65413 18.8305C7.23992 17.1432 9.44573 16.1157 11.8048 15.9656L13.1894 15.8747L13.3385 14.5471C13.6919 11.4239 15.2316 8.53619 17.662 6.43832C20.0924 4.34046 23.2424 3.18019 26.5073 3.18019C29.7723 3.18019 32.9222 4.34046 35.3526 6.43832C37.7831 8.53619 39.3227 11.4239 39.6762 14.5471L39.8252 15.8747L41.2098 15.9672C43.5641 16.1233 45.7634 17.1531 47.3439 18.8394C48.9244 20.5258 49.7625 22.7368 49.6815 25.0063C49.6005 27.2758 48.6068 29.4263 46.9098 31.0044C45.2128 32.5824 42.9453 33.4646 40.5854 33.465H39.7573V36.6525H40.5854C43.6903 36.6558 46.6838 35.5395 48.9756 33.5238C51.2673 31.5081 52.691 28.7392 52.9659 25.7632C53.2407 22.7872 52.3468 19.8202 50.4603 17.4471C48.5738 15.0741 45.8318 13.4674 42.775 12.9438Z" fill="white"/>
<path d="M38.1011 31.8712V28.6837H34.6213C34.4077 27.6861 33.996 26.7374 33.4089 25.8899L35.8767 23.5152L33.5348 21.2616L31.067 23.6363C30.1862 23.0713 29.2004 22.6752 28.1636 22.4697V19.1212H24.8511V22.4697C23.8143 22.6752 22.8285 23.0713 21.9477 23.6363L19.4799 21.2616L17.1379 23.5152L19.6057 25.8899C19.0186 26.7374 18.607 27.6861 18.3934 28.6837H14.9136V31.8712H18.3934C18.607 32.8689 19.0186 33.8175 19.6057 34.6651L17.1379 37.0397L19.4799 39.2933L21.9477 36.9186C22.8285 37.4836 23.8143 37.8797 24.8511 38.0853V41.4337H28.1636V38.0853C29.2004 37.8797 30.1862 37.4836 31.067 36.9186L33.5348 39.2933L35.8767 37.0397L33.4089 34.6651C33.996 33.8175 34.4077 32.8689 34.6213 31.8712H38.1011ZM26.5073 35.0587C25.5246 35.0587 24.5639 34.7783 23.7468 34.2529C22.9297 33.7276 22.2929 32.9808 21.9168 32.1072C21.5407 31.2335 21.4423 30.2722 21.634 29.3447C21.8258 28.4172 22.299 27.5653 22.9939 26.8966C23.6888 26.2279 24.5741 25.7726 25.538 25.5881C26.5018 25.4036 27.5009 25.4983 28.4088 25.8602C29.3167 26.222 30.0927 26.8349 30.6387 27.6211C31.1847 28.4074 31.4761 29.3318 31.4761 30.2775C31.4748 31.5451 30.9508 32.7605 30.0193 33.6569C29.0878 34.5533 27.8247 35.0575 26.5073 35.0587Z" fill="white"/>
</svg>
