<svg width="114" height="107" viewBox="0 0 114 107" fill="none" xmlns="http://www.w3.org/2000/svg">
<path d="M24.2812 73.5625C24.2812 71.7889 25.134 70.0879 26.6519 68.8337C28.1697 67.5796 30.2284 66.875 32.375 66.875C34.5216 66.875 36.5803 67.5796 38.0981 68.8337C39.616 70.0879 40.4688 71.7889 40.4688 73.5625V80.25C40.4688 82.0236 39.616 83.7246 38.0981 84.9788C36.5803 86.2329 34.5216 86.9375 32.375 86.9375C30.2284 86.9375 28.1697 86.2329 26.6519 84.9788C25.134 83.7246 24.2812 82.0236 24.2812 80.25V73.5625ZM72.8438 46.8125C72.8438 45.0389 73.6965 43.3379 75.2144 42.0837C76.7322 40.8296 78.7909 40.125 80.9375 40.125C83.0841 40.125 85.1428 40.8296 86.6606 42.0837C88.1785 43.3379 89.0312 45.0389 89.0312 46.8125V80.25C89.0312 82.0236 88.1785 83.7246 86.6606 84.9788C85.1428 86.2329 83.0841 86.9375 80.9375 86.9375C78.7909 86.9375 76.7322 86.2329 75.2144 84.9788C73.6965 83.7246 72.8438 82.0236 72.8438 80.25V46.8125ZM48.5625 60.1875C48.5625 58.4139 49.4152 56.7129 50.9331 55.4587C52.451 54.2046 54.5097 53.5 56.6562 53.5C58.8028 53.5 60.8615 54.2046 62.3794 55.4587C63.8973 56.7129 64.75 58.4139 64.75 60.1875V80.25C64.75 82.0236 63.8973 83.7246 62.3794 84.9788C60.8615 86.2329 58.8028 86.9375 56.6562 86.9375C54.5097 86.9375 52.451 86.2329 50.9331 84.9788C49.4152 83.7246 48.5625 82.0236 48.5625 80.25V60.1875Z" fill="#4169E1"/>
<path d="M24.2812 10.0312H16.1875C11.8943 10.0313 7.77695 11.4404 4.74121 13.9487C1.70546 16.457 0 19.859 0 23.4062V93.625C0 97.1723 1.70546 100.574 4.74121 103.083C7.77695 105.591 11.8943 107 16.1875 107H97.125C101.418 107 105.536 105.591 108.571 103.083C111.607 100.574 113.312 97.1723 113.312 93.625V23.4062C113.312 19.859 111.607 16.457 108.571 13.9487C105.536 11.4404 101.418 10.0313 97.125 10.0312H89.0312V16.7188H97.125C99.2716 16.7188 101.33 17.4233 102.848 18.6775C104.366 19.9316 105.219 21.6326 105.219 23.4062V93.625C105.219 95.3986 104.366 97.0996 102.848 98.3538C101.33 99.6079 99.2716 100.312 97.125 100.312H16.1875C14.0409 100.312 11.9822 99.6079 10.4644 98.3538C8.94648 97.0996 8.09375 95.3986 8.09375 93.625V23.4062C8.09375 21.6326 8.94648 19.9316 10.4644 18.6775C11.9822 17.4233 14.0409 16.7188 16.1875 16.7188H24.2812V10.0312Z" fill="#4169E1"/>
<path d="M68.7969 6.6875C69.8702 6.6875 70.8995 7.03979 71.6585 7.66686C72.4174 8.29394 72.8438 9.14443 72.8438 10.0312V16.7188C72.8438 17.6056 72.4174 18.4561 71.6585 19.0831C70.8995 19.7102 69.8702 20.0625 68.7969 20.0625H44.5156C43.4423 20.0625 42.413 19.7102 41.6541 19.0831C40.8951 18.4561 40.4688 17.6056 40.4688 16.7188V10.0312C40.4688 9.14443 40.8951 8.29394 41.6541 7.66686C42.413 7.03979 43.4423 6.6875 44.5156 6.6875H68.7969ZM44.5156 0C41.2957 0 38.2077 1.05686 35.9309 2.93809C33.6541 4.81931 32.375 7.3708 32.375 10.0312V16.7188C32.375 19.3792 33.6541 21.9307 35.9309 23.8119C38.2077 25.6931 41.2957 26.75 44.5156 26.75H68.7969C72.0168 26.75 75.1048 25.6931 77.3816 23.8119C79.6584 21.9307 80.9375 19.3792 80.9375 16.7188V10.0312C80.9375 7.3708 79.6584 4.81931 77.3816 2.93809C75.1048 1.05686 72.0168 0 68.7969 0L44.5156 0Z" fill="#4169E1"/>
</svg>
