<svg width="111" height="111" viewBox="0 0 111 111" fill="none" xmlns="http://www.w3.org/2000/svg">
<path d="M0 13.8333C0 6.225 6.225 0 13.8333 0C21.4417 0 27.6667 6.225 27.6667 13.8333C27.6667 21.4417 21.4417 27.6667 13.8333 27.6667C6.225 27.6667 0 21.4417 0 13.8333ZM13.8333 69.1667C21.4417 69.1667 27.6667 62.9417 27.6667 55.3333C27.6667 47.725 21.4417 41.5 13.8333 41.5C6.225 41.5 0 47.725 0 55.3333C0 62.9417 6.225 69.1667 13.8333 69.1667ZM55.3333 27.6667C62.9417 27.6667 69.1667 21.4417 69.1667 13.8333C69.1667 6.225 62.9417 0 55.3333 0C47.725 0 41.5 6.225 41.5 13.8333C41.5 21.4417 47.725 27.6667 55.3333 27.6667ZM96.8333 41.5C89.225 41.5 83 47.725 83 55.3333C83 62.9417 89.225 69.1667 96.8333 69.1667C104.442 69.1667 110.667 62.9417 110.667 55.3333C110.667 47.725 104.442 41.5 96.8333 41.5ZM96.695 83C91.5767 83 87.2192 85.7667 84.7983 89.9167H67.23C66.033 87.8176 64.3019 86.0726 62.2125 84.8588C60.1231 83.645 57.7497 83.0056 55.3333 83.0056C52.9169 83.0056 50.5436 83.645 48.4541 84.8588C46.3647 86.0726 44.6336 87.8176 43.4367 89.9167H30.5025L51.7367 68.6825C52.9125 68.9592 54.0883 69.1667 55.3333 69.1667C62.9417 69.1667 69.1667 62.9417 69.1667 55.3333C69.1667 54.0883 68.9592 52.9125 68.6825 51.8058L93.3058 27.1825C94.4125 27.4592 95.5883 27.6667 96.8333 27.6667C104.442 27.6667 110.667 21.4417 110.667 13.8333C110.667 6.225 104.442 0 96.8333 0C89.225 0 83 6.225 83 13.8333C83 15.0783 83.2075 16.2542 83.4842 17.3608L58.8608 41.9842C57.7542 41.7075 56.5783 41.5 55.3333 41.5C47.725 41.5 41.5 47.725 41.5 55.3333C41.5 56.5783 41.7075 57.7542 41.9842 58.8608L17.3608 83.4842C16.2542 83.2075 15.0783 83 13.8333 83C6.225 83 0 89.225 0 96.8333C0 104.442 6.225 110.667 13.8333 110.667C18.9517 110.667 23.3092 107.9 25.73 103.75H43.5058C44.7028 105.849 46.4339 107.594 48.5233 108.808C50.6127 110.022 52.9861 110.661 55.4025 110.661C57.8189 110.661 60.1923 110.022 62.2817 108.808C64.3711 107.594 66.1022 105.849 67.2992 103.75H84.9367C87.2883 107.9 91.715 110.667 96.8333 110.667C104.442 110.667 110.667 104.442 110.667 96.8333C110.528 89.225 104.303 83 96.695 83Z" fill="#4169E1"/>
</svg>
