<svg width="113" height="113" viewBox="0 0 113 113" fill="none" xmlns="http://www.w3.org/2000/svg">
<path d="M56.4445 0C45.2808 0 34.3679 3.31041 25.0856 9.5126C15.8034 15.7148 8.56875 24.5302 4.2966 34.8441C0.0244563 45.158 -1.09333 56.5071 1.08459 67.4562C3.26251 78.4054 8.63832 88.4628 16.5322 96.3567C24.4261 104.251 34.4836 109.626 45.4327 111.804C56.3819 113.982 67.7309 112.864 78.0448 108.592C88.3587 104.32 97.1741 97.0855 103.376 87.8033C109.579 78.5211 112.889 67.6081 112.889 56.4444C112.889 41.4744 106.942 27.1176 96.3567 16.5322C85.7713 5.94681 71.4145 0 56.4445 0ZM56.6561 62.3711C56.0602 62.3758 55.4692 62.2624 54.9173 62.0376C54.3653 61.8127 53.8634 61.4808 53.4403 61.0611C53.0173 60.6413 52.6815 60.1419 52.4524 59.5918C52.2232 59.0416 52.1053 58.4515 52.1053 57.8556V23.4597C52.1053 22.2528 52.5848 21.0952 53.4382 20.2418C54.2917 19.3883 55.4492 18.9089 56.6561 18.9089C57.8631 18.9089 59.0206 19.3883 59.8741 20.2418C60.7275 21.0952 61.207 22.2528 61.207 23.4597V57.8556C61.207 58.4515 61.089 59.0416 60.8599 59.5918C60.6308 60.1419 60.295 60.6413 59.8719 61.0611C59.4489 61.4808 58.9469 61.8127 58.395 62.0376C57.8431 62.2624 57.2521 62.3758 56.6561 62.3711ZM56.4445 90.9814C49.0143 91.0693 41.7504 88.7803 35.713 84.4484C29.6756 80.1165 25.1806 73.9685 22.8841 66.9016C20.5875 59.8346 20.6096 52.2187 22.9471 45.1652C25.2846 38.1117 29.8151 31.9899 35.8775 27.6931C36.9335 26.9404 38.243 26.6332 39.5235 26.8378C40.804 27.0424 41.9526 27.7424 42.7214 28.7867C43.0967 29.3023 43.3663 29.8872 43.5145 30.5075C43.6627 31.1279 43.6867 31.7714 43.585 32.4011C43.4833 33.0307 43.2581 33.634 42.9221 34.1762C42.5862 34.7183 42.1463 35.1886 41.6278 35.56C38.1407 38.1209 35.3677 41.5323 33.5732 45.469C31.7786 49.4057 31.0223 53.7364 31.3764 58.0484C31.7305 62.3603 33.1831 66.5096 35.5959 70.1008C38.0086 73.692 41.3009 76.6054 45.159 78.5631C49.0172 80.5209 53.3125 81.4578 57.6354 81.2845C61.9584 81.1112 66.1649 79.8335 69.8539 77.5732C73.543 75.313 76.5916 72.1454 78.7091 68.3726C80.8266 64.5998 81.9425 60.3475 81.9503 56.0211C81.9384 52.0348 80.9713 48.1095 79.1299 44.574C77.2885 41.0385 74.6265 37.9959 71.367 35.7011C70.3633 34.909 69.7144 33.7515 69.5623 32.482C69.4102 31.2125 69.7674 29.9345 70.5556 28.9278C71.3349 27.8946 72.4885 27.2086 73.7684 27.0173C75.0483 26.826 76.3521 27.1446 77.3995 27.9047C83.3986 32.2508 87.8569 38.3952 90.1277 45.4464C92.3985 52.4977 92.3637 60.0891 90.0281 67.1193C87.6926 74.1494 83.178 80.2525 77.1392 84.5433C71.1004 88.834 63.8516 91.0891 56.4445 90.9814Z" fill="#4169E1"/>
</svg>
