<svg width="132" height="132" viewBox="0 0 132 132" fill="none" xmlns="http://www.w3.org/2000/svg">
<path d="M96.0083 66C96.0083 82.5732 82.5732 96.0083 66 96.0083C49.4268 96.0083 35.9917 82.5732 35.9917 66C35.9917 49.4268 49.4268 35.9917 66 35.9917C82.5732 35.9917 96.0083 49.4268 96.0083 66ZM73.8968 15.9393C95.5288 19.3388 112.661 36.4712 116.061 58.1029H132C128.391 27.7504 104.25 3.60963 73.8968 0V15.9393ZM15.9393 58.1032C19.3385 36.4712 36.4709 19.3388 58.1029 15.9393V0C27.7502 3.60938 3.60963 27.7504 0 58.1032H15.9393ZM116.061 73.8968C112.661 95.5291 95.5288 112.661 73.8968 116.061V132C104.25 128.391 128.391 104.25 132 73.8968H116.061ZM58.1032 116.061C36.4709 112.661 19.3385 95.5288 15.9393 73.8968H0C3.60938 104.25 27.7502 128.391 58.1032 132V116.061V116.061Z" fill="#4169E1"/>
</svg>
