<svg width="115" height="119" viewBox="0 0 115 119" fill="none" xmlns="http://www.w3.org/2000/svg">
<path d="M28.7581 0H5.85483C4.33626 0 2.87987 0.623361 1.80608 1.73295C0.732281 2.84254 0.129028 4.34747 0.129028 5.91667V112.417C0.129028 113.986 0.732281 115.491 1.80608 116.6C2.87987 117.71 4.33626 118.333 5.85483 118.333H28.7581C30.2766 118.333 31.733 117.71 32.8068 116.6C33.8806 115.491 34.4839 113.986 34.4839 112.417V5.91667C34.4839 4.34747 33.8806 2.84254 32.8068 1.73295C31.733 0.623361 30.2766 0 28.7581 0ZM17.3064 112.417C15.0415 112.417 12.8275 111.723 10.9443 110.422C9.06106 109.122 7.59328 107.274 6.72654 105.112C5.85979 102.95 5.63301 100.57 6.07487 98.2748C6.51674 95.9793 7.6074 93.8708 9.20893 92.2159C10.8105 90.561 12.851 89.434 15.0723 88.9774C17.2937 88.5208 19.5963 88.7551 21.6888 89.6508C23.7813 90.5464 25.5698 92.0631 26.8281 94.0091C28.0864 95.9551 28.7581 98.2429 28.7581 100.583C28.7581 103.722 27.5516 106.732 25.404 108.951C23.2564 111.17 20.3436 112.417 17.3064 112.417ZM28.7581 59.1667H5.85483V5.91667H28.7581V59.1667ZM23.0323 100.583C23.0323 101.754 22.6964 102.897 22.0673 103.87C21.4381 104.843 20.5439 105.602 19.4976 106.05C18.4514 106.497 17.3001 106.615 16.1894 106.386C15.0787 106.158 14.0585 105.595 13.2577 104.767C12.4569 103.94 11.9116 102.885 11.6907 101.738C11.4697 100.59 11.5831 99.4003 12.0165 98.3191C12.4499 97.238 13.1838 96.3139 14.1254 95.6638C15.067 95.0137 16.174 94.6667 17.3064 94.6667C18.825 94.6667 20.2814 95.29 21.3552 96.3996C22.429 97.5092 23.0323 99.0141 23.0323 100.583ZM68.8387 0H45.9355C44.4169 0 42.9605 0.623361 41.8867 1.73295C40.8129 2.84254 40.2097 4.34747 40.2097 5.91667V112.417C40.2097 113.986 40.8129 115.491 41.8867 116.6C42.9605 117.71 44.4169 118.333 45.9355 118.333H68.8387C70.3573 118.333 71.8137 117.71 72.8875 116.6C73.9613 115.491 74.5645 113.986 74.5645 112.417V5.91667C74.5645 4.34747 73.9613 2.84254 72.8875 1.73295C71.8137 0.623361 70.3573 0 68.8387 0ZM57.3871 112.417C55.1222 112.417 52.9081 111.723 51.0249 110.422C49.1417 109.122 47.6739 107.274 46.8072 105.112C45.9404 102.95 45.7137 100.57 46.1555 98.2748C46.5974 95.9793 47.688 93.8708 49.2896 92.2159C50.8911 90.561 52.9316 89.434 55.153 88.9774C57.3744 88.5208 59.6769 88.7551 61.7694 89.6508C63.8619 90.5464 65.6504 92.0631 66.9088 94.0091C68.1671 95.9551 68.8387 98.2429 68.8387 100.583C68.8387 103.722 67.6322 106.732 65.4846 108.951C63.337 111.17 60.4242 112.417 57.3871 112.417ZM68.8387 59.1667H45.9355V5.91667H68.8387V59.1667ZM63.1129 100.583C63.1129 101.754 62.7771 102.897 62.1479 103.87C61.5188 104.843 60.6245 105.602 59.5783 106.05C58.532 106.497 57.3807 106.615 56.27 106.386C55.1593 106.158 54.1391 105.595 53.3383 104.767C52.5376 103.94 51.9922 102.885 51.7713 101.738C51.5504 100.59 51.6638 99.4003 52.0971 98.3191C52.5305 97.238 53.2644 96.3139 54.206 95.6638C55.1476 95.0137 56.2546 94.6667 57.3871 94.6667C58.9057 94.6667 60.362 95.29 61.4358 96.3996C62.5096 97.5092 63.1129 99.0141 63.1129 100.583ZM108.919 0H86.0161C84.4975 0 83.0412 0.623361 81.9674 1.73295C80.8936 2.84254 80.2903 4.34747 80.2903 5.91667V112.417C80.2903 113.986 80.8936 115.491 81.9674 116.6C83.0412 117.71 84.4975 118.333 86.0161 118.333H108.919C110.438 118.333 111.894 117.71 112.968 116.6C114.042 115.491 114.645 113.986 114.645 112.417V5.91667C114.645 4.34747 114.042 2.84254 112.968 1.73295C111.894 0.623361 110.438 0 108.919 0ZM97.4677 112.417C95.2028 112.417 92.9888 111.723 91.1056 110.422C89.2223 109.122 87.7546 107.274 86.8878 105.112C86.0211 102.95 85.7943 100.57 86.2362 98.2748C86.678 95.9793 87.7687 93.8708 89.3702 92.2159C90.9718 90.561 93.0122 89.434 95.2336 88.9774C97.455 88.5208 99.7576 88.7551 101.85 89.6508C103.943 90.5464 105.731 92.0631 106.989 94.0091C108.248 95.9551 108.919 98.2429 108.919 100.583C108.919 103.722 107.713 106.732 105.565 108.951C103.418 111.17 100.505 112.417 97.4677 112.417ZM108.919 59.1667H86.0161V5.91667H108.919V59.1667ZM103.194 100.583C103.194 101.754 102.858 102.897 102.229 103.87C101.599 104.843 100.705 105.602 99.6589 106.05C98.6126 106.497 97.4614 106.615 96.3507 106.386C95.24 106.158 94.2197 105.595 93.419 104.767C92.6182 103.94 92.0729 102.885 91.8519 101.738C91.631 100.59 91.7444 99.4003 92.1778 98.3191C92.6112 97.238 93.345 96.3139 94.2866 95.6638C95.2282 95.0137 96.3353 94.6667 97.4677 94.6667C98.9863 94.6667 100.443 95.29 101.516 96.3996C102.59 97.5092 103.194 99.0141 103.194 100.583Z" fill="#4169E1"/>
</svg>
