<svg width="120" height="120" viewBox="0 0 120 120" fill="none" xmlns="http://www.w3.org/2000/svg">
<path d="M30 0H6C4.4087 0 2.88258 0.63214 1.75736 1.75736C0.63214 2.88258 0 4.4087 0 6V114C0 115.591 0.63214 117.117 1.75736 118.243C2.88258 119.368 4.4087 120 6 120H30C31.5913 120 33.1174 119.368 34.2426 118.243C35.3678 117.117 36 115.591 36 114V6C36 4.4087 35.3678 2.88258 34.2426 1.75736C33.1174 0.63214 31.5913 0 30 0ZM18 114C15.6266 114 13.3065 113.296 11.3332 111.978C9.35976 110.659 7.82169 108.785 6.91344 106.592C6.00519 104.399 5.76755 101.987 6.23057 99.6589C6.6936 97.3311 7.83648 95.1929 9.51471 93.5147C11.1929 91.8364 13.3311 90.6936 15.6589 90.2305C17.9867 89.7675 20.3995 90.0051 22.5922 90.9134C24.7849 91.8216 26.659 93.3597 27.9776 95.3331C29.2962 97.3065 30 99.6266 30 102C30 105.183 28.7357 108.235 26.4853 110.485C24.2348 112.736 21.1826 114 18 114ZM30 60H6V6H30V60Z" fill="#4169E1"/>
<path d="M18.0599 108.06C21.3736 108.06 24.0599 105.374 24.0599 102.06C24.0599 98.7462 21.3736 96.0599 18.0599 96.0599C14.7462 96.0599 12.0599 98.7462 12.0599 102.06C12.0599 105.374 14.7462 108.06 18.0599 108.06Z" fill="#4169E1"/>
<path d="M72 0H120V12.12H72V0Z" fill="#4169E1"/>
<path d="M48 0H60.06V12.12H48V0Z" fill="#4169E1"/>
<path d="M72 24H120V36.12H72V24Z" fill="#4169E1"/>
<path d="M48 24H60.06V36.12H48V24Z" fill="#4169E1"/>
<path d="M72 48H120V60.12H72V48Z" fill="#4169E1"/>
<path d="M48 48H60.06V60.12H48V48Z" fill="#4169E1"/>
</svg>
