<svg width="261" height="375" viewBox="0 0 261 375" fill="none" xmlns="http://www.w3.org/2000/svg">
<path d="M86.2009 374.546C68.1001 374.546 50.0461 370.576 36.2483 362.636C8.65275 346.709 8.65275 320.926 36.2483 305.046C44.6205 300.235 54.583 296.872 65.2002 294.957L35.4999 277.722V244.887L92.1877 212.005L167.725 255.769L172.449 253.06L258.93 303.177L169.175 355.163L153.553 346.101C150.232 352.127 144.432 357.778 136.154 362.589C122.356 370.529 104.302 374.546 86.2009 374.546Z" fill="url(#paint0_linear_153:39)"/>
<path d="M167.724 255.723L92.1875 211.958L96.8647 209.249L172.402 253.014L167.724 255.723Z" fill="url(#paint1_linear_153:39)"/>
<path d="M156.546 326.438L156.499 316.489C154.301 317.05 152.103 317.657 149.905 318.077C147.192 318.638 144.666 315.882 143.918 314.434C143.076 312.799 142.468 307.054 142.374 305.233C141.766 295.658 143.123 286.036 141.813 276.508C140.924 269.969 139.24 263.71 139.053 257.031C139.007 254.882 138.258 253.061 137.837 251.005C137.603 249.978 137.51 248.904 137.37 247.876L137.183 246.335L136.387 245.774C134.844 245.214 132.833 244.98 131.289 245.727L129.746 246.989L128.109 248.296C127.08 249.09 126.098 249.931 125.069 250.725C124.04 251.566 122.964 252.407 121.935 253.247C120.111 254.041 119.456 256.237 119.082 258.198C118.1 263.57 118.146 269.128 118.848 274.546C119.549 279.871 119.877 285.008 121.654 290.146C124.648 298.88 127.688 307.288 130.634 316.069C130.962 319.338 131.991 322.608 131.383 325.831C130.868 328.633 130.026 331.622 131.242 334.191C131.944 335.732 133.394 336.9 135.031 337.274C140.129 338.488 144.479 334.378 148.829 332.603C153.88 330.501 161.364 330.828 165.059 326.391L156.546 326.438Z" fill="#F39C75"/>
<path d="M134.704 328.399C142.795 329.427 157.154 327.232 156.172 316.582C157.341 316.302 158.511 316.022 159.68 315.788C160.241 315.648 160.849 315.555 161.457 315.508L163.001 315.368C164.731 315.788 166.134 317.283 166.743 318.871C167.351 320.506 167.257 322.374 166.696 324.056L166.555 324.429C166.228 325.223 165.62 325.971 165.012 326.624C164.497 327.232 163.843 327.745 163.188 328.166C161.831 329.053 160.241 329.66 158.651 330.081C155.424 330.968 152.009 331.295 148.922 332.603C144.573 334.425 140.223 338.488 135.125 337.274C133.488 336.9 132.038 335.732 131.336 334.191C130.12 331.622 130.12 329.053 130.634 326.251C130.775 325.41 131.523 323.355 131.617 322.514C132.459 324.85 131.663 328.026 134.704 328.399Z" fill="#171718"/>
<path d="M131.57 304.812C131.57 337.274 102.103 363.57 65.7616 363.57C37.0435 363.57 12.6285 347.129 3.64822 324.196C1.30962 318.124 0 311.585 0 304.812C0 272.351 29.4664 246.008 65.8083 246.008C86.9025 246.008 105.705 254.882 117.725 268.661C126.425 278.656 131.57 291.174 131.57 304.812Z" fill="#568FD2"/>
<path d="M121.374 288.091C121.374 320.553 91.9072 346.849 55.5652 346.849C34.471 346.849 15.6687 337.974 3.64822 324.196C1.30962 318.124 0 311.585 0 304.812C0 272.351 29.4664 246.008 65.8083 246.008C86.9025 246.008 105.705 254.882 117.725 268.661C120.064 274.779 121.374 281.318 121.374 288.091Z" fill="#5FB7E9"/>
<path d="M26.8005 281.879C36.3887 302.57 62.1602 314.667 84.3769 304.065C98.2215 297.619 110.055 288.278 120.251 277.301C119.643 274.359 118.801 271.51 117.725 268.707C105.705 254.929 86.9026 246.054 65.8084 246.054C61.2247 246.054 56.7814 246.475 52.4783 247.269C43.732 251.893 35.6404 258.105 28.3439 264.784C23.807 269.268 24.2748 276.834 26.8005 281.879Z" fill="#568FD2"/>
<path d="M174.226 252.126L173.992 346.475L167.678 350.165L167.912 255.816L174.226 252.126Z" fill="#9C9FD7"/>
<path d="M167.865 255.816L167.631 350.165L161.27 346.475L161.504 252.126L167.865 255.816Z" fill="#C5CEEC"/>
<path d="M174.226 252.126L167.912 255.816L161.551 252.126L167.865 248.436L174.226 252.126Z" fill="#333A46"/>
<path d="M249.529 208.408L249.295 302.757L242.981 306.447L243.215 212.098L249.529 208.408Z" fill="#9C9FD7"/>
<path d="M243.215 212.098L242.981 306.447L236.62 302.757L236.854 208.408L243.215 212.098Z" fill="#C5CEEC"/>
<path d="M249.529 208.408L243.215 212.098L236.854 208.408L243.168 204.718L249.529 208.408Z" fill="#333A46"/>
<path d="M249.389 208.362V215.648L167.725 263.009V255.723L249.389 208.362Z" fill="#9C9FD7"/>
<path d="M167.725 255.723V263.009L20.2522 177.535V170.248L167.725 255.723Z" fill="#C5CEEC"/>
<path d="M192.233 193.415L194.431 192.154C195.273 191.64 195.788 190.613 195.788 189.118L193.59 190.379C193.59 191.874 193.075 192.901 192.233 193.415Z" fill="#333A46"/>
<path d="M192.233 193.415L194.431 192.154C195.273 191.64 195.788 190.613 195.788 189.118L193.59 190.379C193.59 191.874 193.075 192.901 192.233 193.415Z" fill="#333A46"/>
<path d="M193.59 190.379L195.788 189.118L195.928 144.839L193.73 146.101L193.59 190.379Z" fill="#333A46"/>
<path d="M189.006 138.02L191.204 136.759L127.735 100.187L125.536 101.448L189.006 138.02Z" fill="#333A46"/>
<path d="M193.73 146.147L195.928 144.886C195.928 141.897 193.824 138.254 191.251 136.759L189.053 138.02C191.625 139.515 193.73 143.158 193.73 146.147Z" fill="#333A46"/>
<path d="M193.73 146.147L195.928 144.886C195.928 143.719 195.601 142.504 195.086 141.336L192.888 142.598C193.403 143.719 193.73 144.98 193.73 146.147Z" fill="#333A46"/>
<path d="M192.888 142.551L195.087 141.29C194.666 140.356 194.151 139.515 193.496 138.721L191.298 139.982C191.906 140.776 192.467 141.663 192.888 142.551Z" fill="#333A46"/>
<path d="M191.298 139.982L193.496 138.721C192.842 137.927 192.046 137.179 191.205 136.712L189.006 137.974C189.848 138.487 190.643 139.188 191.298 139.982Z" fill="#333A46"/>
<path d="M125.583 101.402C122.964 99.907 120.859 101.121 120.859 104.111L120.719 148.389C120.719 151.379 122.824 155.022 125.443 156.516L188.913 193.088C191.532 194.583 193.637 193.368 193.637 190.379L193.777 146.101C193.777 143.111 191.672 139.468 189.1 137.974L125.583 101.402Z" fill="#23262C"/>
<path d="M123.291 148.389C123.291 150.444 124.928 153.247 126.705 154.274L190.175 190.846L190.924 191.126L191.064 190.379V189.959L191.204 146.101C191.204 144.045 189.614 141.243 187.79 140.215L124.928 103.971L124.32 103.644L123.572 103.363L123.431 104.111L123.291 148.389Z" fill="#171718"/>
<path d="M124.741 147.875C124.741 149.931 126.378 152.733 128.156 153.761L191.017 190.005L191.158 146.147C191.158 144.092 189.567 141.29 187.743 140.262L124.882 104.017L124.741 147.875Z" fill="#6ACFEE"/>
<path d="M191.064 164.69V158.151V164.69ZM175.629 133.256L163.562 126.297L175.629 133.256Z" fill="#3D4655"/>
<path d="M191.064 167.586L163.515 126.297L175.582 133.256L191.064 158.151V164.69V167.586Z" fill="#73D1EC"/>
<path d="M191.017 189.959L191.064 179.263L191.017 189.959Z" fill="#3D4655"/>
<path d="M151.308 119.244L133.02 108.688L151.308 119.244Z" fill="#3D4655"/>
<path d="M191.017 189.959L187.603 187.997L176.378 171.696L181.102 174.452V168.707L176.097 165.811V171.369L132.973 108.735L151.261 119.291L190.971 179.356L191.017 189.959Z" fill="#73D1EC"/>
<path d="M124.414 99.8137L122.216 101.075C123.057 100.561 124.274 100.654 125.583 101.402L127.781 100.141C126.425 99.3933 125.256 99.2999 124.414 99.8137Z" fill="#333A46"/>
<path d="M76.3787 181.551V184.074C76.3787 185.055 77.0335 186.035 78.2963 186.783V184.26C77.0335 183.513 76.3787 182.532 76.3787 181.551Z" fill="#9C9FD7"/>
<path d="M76.3787 181.551V184.074L76.5658 184.961V182.439L76.3787 181.551Z" fill="#9C9FD7"/>
<path d="M76.566 182.486V185.008C76.8467 185.662 77.4079 186.269 78.2966 186.783V184.261C77.4079 183.747 76.8467 183.14 76.566 182.486Z" fill="#9C9FD7"/>
<path d="M191.298 198.413V195.891C191.298 196.871 190.643 197.852 189.333 198.646V201.168C190.643 200.374 191.298 199.394 191.298 198.413Z" fill="#9C9FD7"/>
<path d="M189.287 198.6V201.122C190.596 200.374 191.251 199.394 191.251 198.366V195.844C191.251 196.871 190.596 197.852 189.287 198.6Z" fill="#9C9FD7"/>
<path d="M78.2964 184.26V186.783L141.345 223.354V220.832L78.2964 184.26Z" fill="#9C9FD7"/>
<path d="M150.746 220.879V223.401L189.333 201.169V198.646L150.746 220.879Z" fill="#9C9FD7"/>
<path d="M141.345 220.879V223.401C143.918 224.896 148.127 224.896 150.746 223.401V220.879C148.127 222.374 143.918 222.374 141.345 220.879Z" fill="#9C9FD7"/>
<path d="M141.345 220.879V223.401C142.655 224.195 144.432 224.569 146.163 224.522V222C144.385 222 142.655 221.626 141.345 220.879Z" fill="#9C9FD7"/>
<path d="M146.163 222V224.522C147.847 224.522 149.484 224.149 150.747 223.401V220.879C149.484 221.58 147.8 221.953 146.163 222Z" fill="#9C9FD7"/>
<path d="M78.3431 178.843C75.7239 180.337 75.7239 182.766 78.2963 184.261L141.345 220.832C143.918 222.327 148.127 222.327 150.746 220.832L189.333 198.6C191.953 197.105 191.953 194.676 189.38 193.135L126.285 156.61C123.712 155.115 119.503 155.115 116.883 156.61L78.3431 178.843Z" fill="#F1F8FD"/>
<path d="M91.2523 175.713C91.3926 176.367 91.8603 177.021 92.749 177.535L152.711 212.285C154.769 213.453 158.09 213.453 160.148 212.285L185.872 197.479C186.667 197.012 187.182 196.451 187.369 195.844C187.65 194.91 187.182 193.929 185.919 193.182L125.957 158.431C123.899 157.264 120.578 157.264 118.52 158.431L92.7957 173.238C91.5797 173.892 91.0652 174.779 91.2523 175.713Z" fill="#9C9FD7"/>
<path d="M91.2523 175.713C91.3926 176.367 91.8604 177.021 92.749 177.535L152.711 212.285C154.769 213.453 158.09 213.453 160.148 212.285L185.872 197.479C186.667 197.012 187.182 196.451 187.369 195.844C187.229 195.19 186.761 194.536 185.872 194.023L125.91 159.272C123.852 158.105 120.532 158.105 118.474 159.272L92.749 174.078C91.9071 174.499 91.4394 175.106 91.2523 175.713Z" fill="#C5CEEC"/>
<path d="M118.287 161.467V161.888L122.075 164.083V163.663L118.287 161.467Z" fill="#23262C"/>
<path d="M122.075 163.709V164.13L125.91 161.934V161.514L122.075 163.709Z" fill="#23262C"/>
<path d="M123.057 164.27V164.69L126.846 166.886V166.465L123.057 164.27Z" fill="#23262C"/>
<path d="M126.893 166.465V166.886L130.728 164.69V164.27L126.893 166.465Z" fill="#23262C"/>
<path d="M127.828 167.025V167.446L131.617 169.641V169.221L127.828 167.025Z" fill="#23262C"/>
<path d="M131.663 169.267V169.688L135.499 167.492V167.025L131.663 169.267Z" fill="#23262C"/>
<path d="M132.646 169.828V170.248L136.434 172.444V172.023L132.646 169.828Z" fill="#23262C"/>
<path d="M136.434 172.023V172.444L140.27 170.248V169.828L136.434 172.023Z" fill="#23262C"/>
<path d="M137.417 172.584V173.004L141.205 175.199V174.779L137.417 172.584Z" fill="#23262C"/>
<path d="M141.205 174.779V175.199L145.04 173.004V172.584L141.205 174.779Z" fill="#23262C"/>
<path d="M142.187 175.386V175.807L145.976 178.002V177.582L142.187 175.386Z" fill="#23262C"/>
<path d="M145.976 177.582V178.002L149.811 175.807V175.386L145.976 177.582Z" fill="#23262C"/>
<path d="M146.958 178.142V178.562L150.747 180.757V180.337L146.958 178.142Z" fill="#23262C"/>
<path d="M150.793 180.337V180.757L154.629 178.562V178.142L150.793 180.337Z" fill="#23262C"/>
<path d="M151.729 180.898V181.318L155.517 183.513V183.093L151.729 180.898Z" fill="#23262C"/>
<path d="M155.564 183.14V183.56L159.399 181.365V180.944L155.564 183.14Z" fill="#23262C"/>
<path d="M156.546 183.7V184.12L160.335 186.315V185.895L156.546 183.7Z" fill="#23262C"/>
<path d="M160.335 185.895V186.315L164.17 184.12V183.7L160.335 185.895Z" fill="#23262C"/>
<path d="M161.317 186.456V186.876L165.105 189.072V188.651L161.317 186.456Z" fill="#23262C"/>
<path d="M165.106 188.651V189.072L168.941 186.876V186.456L165.106 188.651Z" fill="#23262C"/>
<path d="M166.088 189.258V189.679L169.876 191.874V191.453L166.088 189.258Z" fill="#23262C"/>
<path d="M169.923 191.453V191.874L173.758 189.679V189.258L169.923 191.453Z" fill="#23262C"/>
<path d="M170.859 192.014V192.434L174.647 194.63V194.209L170.859 192.014Z" fill="#23262C"/>
<path d="M174.694 194.209V194.63L178.529 192.434V192.014L174.694 194.209Z" fill="#23262C"/>
<path d="M175.676 194.77V195.19L179.465 197.385V196.965L175.676 194.77Z" fill="#23262C"/>
<path d="M179.464 197.012V197.432L183.3 195.237V194.816L179.464 197.012Z" fill="#23262C"/>
<path d="M113.703 164.363V164.783L121.467 169.267V168.847L113.703 164.363Z" fill="#23262C"/>
<path d="M121.467 168.894V169.314L125.302 167.119V166.698L121.467 168.894Z" fill="#23262C"/>
<path d="M122.309 169.361V169.781L126.144 171.976V171.556L122.309 169.361Z" fill="#23262C"/>
<path d="M126.144 171.603V172.023L129.98 169.828V169.408L126.144 171.603Z" fill="#23262C"/>
<path d="M126.893 172.023V172.444L130.681 174.639V174.218L126.893 172.023Z" fill="#23262C"/>
<path d="M130.681 174.218V174.639L134.516 172.444V172.023L130.681 174.218Z" fill="#23262C"/>
<path d="M131.429 174.686V175.106L135.265 177.301V176.881L131.429 174.686Z" fill="#23262C"/>
<path d="M135.265 176.881V177.301L139.1 175.106V174.686L135.265 176.881Z" fill="#23262C"/>
<path d="M136.013 177.301V177.722L139.802 179.917V179.496L136.013 177.301Z" fill="#23262C"/>
<path d="M139.802 179.496V179.917L143.637 177.722V177.301L139.802 179.496Z" fill="#23262C"/>
<path d="M140.55 179.964V180.384L144.339 182.579V182.159L140.55 179.964Z" fill="#23262C"/>
<path d="M144.385 182.159V182.579L148.221 180.384V179.964L144.385 182.159Z" fill="#23262C"/>
<path d="M145.134 182.626V183.046L148.922 185.242V184.821L145.134 182.626Z" fill="#23262C"/>
<path d="M148.922 184.821V185.242L152.757 183.046V182.626L148.922 184.821Z" fill="#23262C"/>
<path d="M149.671 185.241V185.662L153.459 187.857V187.437L149.671 185.241Z" fill="#23262C"/>
<path d="M153.506 187.483V187.904L157.341 185.708V185.241L153.506 187.483Z" fill="#23262C"/>
<path d="M154.254 187.904V188.324L158.043 190.52V190.099L154.254 187.904Z" fill="#23262C"/>
<path d="M158.043 190.099V190.52L161.878 188.324V187.904L158.043 190.099Z" fill="#23262C"/>
<path d="M158.791 190.566V190.987L162.58 193.182V192.761L158.791 190.566Z" fill="#23262C"/>
<path d="M162.627 192.761V193.182L166.462 190.987V190.566L162.627 192.761Z" fill="#23262C"/>
<path d="M163.375 193.182V193.602L167.164 195.797V195.377L163.375 193.182Z" fill="#23262C"/>
<path d="M167.163 195.424V195.844L170.999 193.649V193.228L167.163 195.424Z" fill="#23262C"/>
<path d="M167.959 195.844V196.264L174.694 200.188V199.767L167.959 195.844Z" fill="#23262C"/>
<path d="M174.694 199.768V200.188L178.529 197.993V197.572L174.694 199.768Z" fill="#23262C"/>
<path d="M108.932 167.119V167.539L118.568 173.144V172.724L108.932 167.119Z" fill="#23262C"/>
<path d="M118.567 172.724V173.144L122.402 170.949V170.529L118.567 172.724Z" fill="#23262C"/>
<path d="M119.409 173.237V173.658L123.198 175.853V175.433L119.409 173.237Z" fill="#23262C"/>
<path d="M123.244 175.433V175.853L127.08 173.658V173.237L123.244 175.433Z" fill="#23262C"/>
<path d="M123.946 175.853V176.274L127.735 178.469V178.048L123.946 175.853Z" fill="#23262C"/>
<path d="M127.735 178.048V178.469L131.57 176.274V175.853L127.735 178.048Z" fill="#23262C"/>
<path d="M128.436 178.469V178.889L132.224 181.084V180.664L128.436 178.469Z" fill="#23262C"/>
<path d="M132.225 180.664V181.084L136.06 178.889V178.469L132.225 180.664Z" fill="#23262C"/>
<path d="M132.927 181.084V181.505L136.715 183.7V183.28L132.927 181.084Z" fill="#23262C"/>
<path d="M136.715 183.28V183.7L140.55 181.505V181.084L136.715 183.28Z" fill="#23262C"/>
<path d="M137.417 183.653V184.074L141.205 186.269V185.849L137.417 183.653Z" fill="#23262C"/>
<path d="M141.205 185.895V186.315L145.04 184.12V183.7L141.205 185.895Z" fill="#23262C"/>
<path d="M141.906 186.269V186.689L145.695 188.885V188.511L141.906 186.269Z" fill="#23262C"/>
<path d="M145.695 188.511V188.931L149.53 186.736V186.316L145.695 188.511Z" fill="#23262C"/>
<path d="M146.397 188.884V189.305L150.185 191.5V191.08L146.397 188.884Z" fill="#23262C"/>
<path d="M150.232 191.08V191.5L154.067 189.305V188.884L150.232 191.08Z" fill="#23262C"/>
<path d="M150.887 191.5V191.921L154.722 194.116V193.695L150.887 191.5Z" fill="#23262C"/>
<path d="M154.722 193.695V194.116L158.557 191.921V191.5L154.722 193.695Z" fill="#23262C"/>
<path d="M155.377 194.116V194.536L159.165 196.731V196.311L155.377 194.116Z" fill="#23262C"/>
<path d="M159.212 196.311V196.731L163.048 194.536V194.116L159.212 196.311Z" fill="#23262C"/>
<path d="M160.195 196.918V197.339L169.876 202.99V202.523L160.195 196.918Z" fill="#23262C"/>
<path d="M169.923 202.523V202.943L173.758 200.748V200.328L169.923 202.523Z" fill="#23262C"/>
<path d="M109.026 172.677V173.097L111.224 174.359V173.938L109.026 172.677Z" fill="#23262C"/>
<path d="M111.224 173.938V174.359L114.966 172.21V171.79L111.224 173.938Z" fill="#23262C"/>
<path d="M104.161 175.48V175.9L109.026 173.097V172.677L104.161 175.48Z" fill="#23262C"/>
<path d="M99.3439 172.677V173.097L104.161 175.9V175.48L99.3439 172.677Z" fill="#23262C"/>
<path d="M115.808 176.694V177.114L119.643 174.919V174.499L115.808 176.694Z" fill="#23262C"/>
<path d="M112.019 174.452V174.872L115.808 177.068V176.647L112.019 174.452Z" fill="#23262C"/>
<path d="M108.932 178.235V178.656L112.768 176.46V176.04L108.932 178.235Z" fill="#23262C"/>
<path d="M105.144 175.993V176.414L108.932 178.609V178.235L105.144 175.993Z" fill="#23262C"/>
<path d="M94.3864 175.526V175.947L104.021 181.552V181.131L94.3864 175.526Z" fill="#23262C"/>
<path d="M104.068 181.131V181.552L107.903 179.356V178.936L104.068 181.131Z" fill="#23262C"/>
<path d="M116.556 177.114V177.535L120.345 179.73V179.31L116.556 177.114Z" fill="#23262C"/>
<path d="M120.345 179.31V179.73L124.18 177.535V177.114L120.345 179.31Z" fill="#23262C"/>
<path d="M121.093 179.73V180.15L124.882 182.346V181.925L121.093 179.73Z" fill="#23262C"/>
<path d="M124.881 181.925V182.346L128.717 180.15V179.73L124.881 181.925Z" fill="#23262C"/>
<path d="M125.63 182.392V182.813L129.465 185.008V184.588L125.63 182.392Z" fill="#23262C"/>
<path d="M129.418 184.588V185.008L133.254 182.813V182.392L129.418 184.588Z" fill="#23262C"/>
<path d="M130.167 185.008V185.428L133.955 187.623V187.203L130.167 185.008Z" fill="#23262C"/>
<path d="M134.002 187.203V187.623L137.837 185.428V185.008L134.002 187.203Z" fill="#23262C"/>
<path d="M134.704 187.623V188.044L138.492 190.239V189.819L134.704 187.623Z" fill="#23262C"/>
<path d="M138.539 189.865V190.286L142.374 188.09V187.67L138.539 189.865Z" fill="#23262C"/>
<path d="M139.241 190.286V190.706L143.029 192.901V192.481L139.241 190.286Z" fill="#23262C"/>
<path d="M143.076 192.481V192.901L146.911 190.706V190.286L143.076 192.481Z" fill="#23262C"/>
<path d="M143.777 192.902V193.322L147.566 195.517V195.097L143.777 192.902Z" fill="#23262C"/>
<path d="M147.613 195.097V195.517L151.448 193.322V192.902L147.613 195.097Z" fill="#23262C"/>
<path d="M148.314 195.517V195.938L152.103 198.133V197.712L148.314 195.517Z" fill="#23262C"/>
<path d="M152.15 197.759V198.18L155.985 195.984V195.517L152.15 197.759Z" fill="#23262C"/>
<path d="M152.851 198.179V198.6L156.64 200.795V200.374L152.851 198.179Z" fill="#23262C"/>
<path d="M156.687 200.374V200.795L160.522 198.6V198.179L156.687 200.374Z" fill="#23262C"/>
<path d="M157.622 200.935V201.355L165.152 205.699V205.279L157.622 200.935Z" fill="#23262C"/>
<path d="M165.106 205.279V205.699L168.941 203.504V203.084L165.106 205.279Z" fill="#23262C"/>
<path d="M109.68 178.656V179.076L113.469 181.271V180.851L109.68 178.656Z" fill="#23262C"/>
<path d="M113.469 180.851V181.271L117.304 179.076V178.656L113.469 180.851Z" fill="#23262C"/>
<path d="M114.218 181.271V181.691L118.006 183.887V183.466L114.218 181.271Z" fill="#23262C"/>
<path d="M118.006 183.466V183.887L121.841 181.691V181.271L118.006 183.466Z" fill="#23262C"/>
<path d="M118.754 183.887V184.307L122.543 186.502V186.082L118.754 183.887Z" fill="#23262C"/>
<path d="M122.543 186.129V186.549L126.378 184.354V183.933L122.543 186.129Z" fill="#23262C"/>
<path d="M123.291 186.549V186.97L127.08 189.165V188.744L123.291 186.549Z" fill="#23262C"/>
<path d="M127.08 188.744V189.165L130.915 186.97V186.549L127.08 188.744Z" fill="#23262C"/>
<path d="M127.828 189.165V189.585L131.617 191.78V191.36L127.828 189.165Z" fill="#23262C"/>
<path d="M131.617 191.407V191.827L135.452 189.632V189.211L131.617 191.407Z" fill="#23262C"/>
<path d="M132.365 191.827V192.248L136.154 194.443V194.022L132.365 191.827Z" fill="#23262C"/>
<path d="M136.153 194.022V194.443L139.989 192.248V191.827L136.153 194.022Z" fill="#23262C"/>
<path d="M136.902 194.443V194.863L140.691 197.058V196.638L136.902 194.443Z" fill="#23262C"/>
<path d="M140.69 196.638V197.058L144.526 194.863V194.443L140.69 196.638Z" fill="#23262C"/>
<path d="M141.439 197.058V197.479L145.227 199.674V199.254L141.439 197.058Z" fill="#23262C"/>
<path d="M145.228 199.3V199.721L149.063 197.525V197.105L145.228 199.3Z" fill="#23262C"/>
<path d="M145.976 199.721V200.141L149.764 202.336V201.916L145.976 199.721Z" fill="#23262C"/>
<path d="M149.764 201.916V202.336L153.6 200.141V199.721L149.764 201.916Z" fill="#23262C"/>
<path d="M150.653 202.43V202.85L160.335 208.455V208.035L150.653 202.43Z" fill="#23262C"/>
<path d="M160.335 208.035V208.455L164.17 206.26V205.839L160.335 208.035Z" fill="#23262C"/>
<path d="M104.91 181.598V182.019L108.698 184.214V183.84L104.91 181.598Z" fill="#23262C"/>
<path d="M108.745 183.84V184.26L112.58 182.065V181.645L108.745 183.84Z" fill="#23262C"/>
<path d="M109.4 184.214V184.634L113.188 186.829V186.409L109.4 184.214Z" fill="#23262C"/>
<path d="M113.235 186.456V186.876L117.07 184.681V184.26L113.235 186.456Z" fill="#23262C"/>
<path d="M113.937 186.829V187.25L117.725 189.445V189.025L113.937 186.829Z" fill="#23262C"/>
<path d="M117.725 189.071V189.492L121.561 187.296V186.876L117.725 189.071Z" fill="#23262C"/>
<path d="M118.427 189.445V189.865L122.215 192.061V191.64L118.427 189.445Z" fill="#23262C"/>
<path d="M122.216 191.64V192.061L126.051 189.865V189.445L122.216 191.64Z" fill="#23262C"/>
<path d="M122.917 192.061V192.481L140.176 202.523V202.103L122.917 192.061Z" fill="#23262C"/>
<path d="M140.176 202.103V202.523L144.011 200.328V199.908L140.176 202.103Z" fill="#23262C"/>
<path d="M141.111 202.617V203.037L144.9 205.232V204.812L141.111 202.617Z" fill="#23262C"/>
<path d="M144.9 204.812V205.232L148.735 203.037V202.617L144.9 204.812Z" fill="#23262C"/>
<path d="M145.695 205.279V205.699L155.377 211.351V210.93L145.695 205.279Z" fill="#23262C"/>
<path d="M155.377 210.884V211.304L159.212 209.109V208.688L155.377 210.884Z" fill="#23262C"/>
<path d="M118.287 161.467L122.075 163.663L125.911 161.467L122.122 159.272L118.287 161.467Z" fill="#333A46"/>
<path d="M123.057 164.27L126.846 166.465L130.681 164.27L126.893 162.074L123.057 164.27Z" fill="#333A46"/>
<path d="M127.828 167.026L131.617 169.221L135.452 167.026L131.663 164.83L127.828 167.026Z" fill="#333A46"/>
<path d="M132.646 169.828L136.434 172.023L140.269 169.828L136.481 167.633L132.646 169.828Z" fill="#333A46"/>
<path d="M137.417 172.584L141.205 174.779L145.04 172.584L141.252 170.388L137.417 172.584Z" fill="#333A46"/>
<path d="M142.187 175.386L145.976 177.581L149.811 175.386L146.023 173.191L142.187 175.386Z" fill="#333A46"/>
<path d="M146.958 178.142L150.793 180.337L154.629 178.142L150.84 175.947L146.958 178.142Z" fill="#333A46"/>
<path d="M151.729 180.898L155.517 183.093L159.352 180.898L155.517 178.702L151.729 180.898Z" fill="#333A46"/>
<path d="M156.546 183.7L160.335 185.895L164.17 183.7L160.381 181.505L156.546 183.7Z" fill="#333A46"/>
<path d="M161.317 186.456L165.105 188.651L168.941 186.456L165.152 184.26L161.317 186.456Z" fill="#333A46"/>
<path d="M166.088 189.258L169.876 191.454L173.712 189.258L169.923 187.063L166.088 189.258Z" fill="#333A46"/>
<path d="M170.859 192.014L174.647 194.209L178.482 192.014L174.694 189.819L170.859 192.014Z" fill="#333A46"/>
<path d="M175.676 194.77L179.465 196.965L183.3 194.77L179.512 192.574L175.676 194.77Z" fill="#333A46"/>
<path d="M113.703 164.363L121.467 168.847L125.303 166.652L117.538 162.168L113.703 164.363Z" fill="#333A46"/>
<path d="M122.309 169.361L126.144 171.556L129.98 169.361L126.191 167.166L122.309 169.361Z" fill="#333A46"/>
<path d="M126.893 172.023L130.681 174.218L134.517 172.023L130.728 169.828L126.893 172.023Z" fill="#333A46"/>
<path d="M131.429 174.685L135.218 176.881L139.053 174.685L135.265 172.49L131.429 174.685Z" fill="#333A46"/>
<path d="M136.013 177.301L139.802 179.497L143.637 177.301L139.848 175.106L136.013 177.301Z" fill="#333A46"/>
<path d="M140.55 179.963L144.339 182.159L148.174 179.963L144.386 177.768L140.55 179.963Z" fill="#333A46"/>
<path d="M145.134 182.626L148.922 184.821L152.758 182.626L148.969 180.43L145.134 182.626Z" fill="#333A46"/>
<path d="M149.671 185.241L153.459 187.437L157.294 185.241L153.506 183.046L149.671 185.241Z" fill="#333A46"/>
<path d="M154.254 187.904L158.043 190.099L161.878 187.904L158.09 185.708L154.254 187.904Z" fill="#333A46"/>
<path d="M158.791 190.566L162.58 192.761L166.415 190.566L162.626 188.371L158.791 190.566Z" fill="#333A46"/>
<path d="M163.375 193.182L167.21 195.377L171.046 193.182L167.257 190.986L163.375 193.182Z" fill="#333A46"/>
<path d="M167.959 195.844L174.694 199.767L178.529 197.572L171.794 193.695L167.959 195.844Z" fill="#333A46"/>
<path d="M108.932 167.119L118.568 172.724L122.403 170.529L112.768 164.924L108.932 167.119Z" fill="#333A46"/>
<path d="M119.409 173.237L123.244 175.433L127.08 173.237L123.291 171.042L119.409 173.237Z" fill="#333A46"/>
<path d="M123.946 175.853L127.735 178.048L131.57 175.853L127.781 173.658L123.946 175.853Z" fill="#333A46"/>
<path d="M128.436 178.469L132.224 180.664L136.06 178.469L132.271 176.274L128.436 178.469Z" fill="#333A46"/>
<path d="M132.927 181.084L136.715 183.28L140.55 181.084L136.762 178.889L132.927 181.084Z" fill="#333A46"/>
<path d="M137.417 183.653L141.205 185.849L145.04 183.653L141.252 181.458L137.417 183.653Z" fill="#333A46"/>
<path d="M141.906 186.269L145.695 188.464L149.53 186.269L145.742 184.074L141.906 186.269Z" fill="#333A46"/>
<path d="M146.397 188.885L150.185 191.08L154.021 188.885L150.232 186.689L146.397 188.885Z" fill="#333A46"/>
<path d="M150.887 191.5L154.722 193.696L158.557 191.5L154.769 189.305L150.887 191.5Z" fill="#333A46"/>
<path d="M155.377 194.116L159.165 196.311L163.001 194.116L159.212 191.921L155.377 194.116Z" fill="#333A46"/>
<path d="M160.195 196.918L169.876 202.57L173.712 200.374L164.03 194.723L160.195 196.918Z" fill="#333A46"/>
<path d="M99.3439 172.677L104.161 175.48L109.026 172.677L111.224 173.938L114.966 171.79L107.95 167.726L99.3439 172.677Z" fill="#333A46"/>
<path d="M112.019 174.452L115.808 176.647L119.643 174.452L115.854 172.257L112.019 174.452Z" fill="#333A46"/>
<path d="M105.144 175.993L108.932 178.189L112.767 175.993L108.979 173.798L105.144 175.993Z" fill="#333A46"/>
<path d="M94.3864 175.526L104.021 181.131L107.857 178.936L98.2217 173.284L94.3864 175.526Z" fill="#333A46"/>
<path d="M116.556 177.114L120.345 179.309L124.18 177.114L120.392 174.919L116.556 177.114Z" fill="#333A46"/>
<path d="M121.093 179.73L124.882 181.925L128.717 179.73L124.928 177.535L121.093 179.73Z" fill="#333A46"/>
<path d="M125.63 182.392L129.418 184.588L133.254 182.392L129.465 180.197L125.63 182.392Z" fill="#333A46"/>
<path d="M130.167 185.008L133.955 187.203L137.79 185.008L134.002 182.812L130.167 185.008Z" fill="#333A46"/>
<path d="M134.704 187.624L138.492 189.819L142.328 187.624L138.539 185.428L134.704 187.624Z" fill="#333A46"/>
<path d="M139.241 190.286L143.029 192.481L146.865 190.286L143.076 188.091L139.241 190.286Z" fill="#333A46"/>
<path d="M143.777 192.901L147.566 195.097L151.401 192.901L147.613 190.706L143.777 192.901Z" fill="#333A46"/>
<path d="M148.314 195.517L152.103 197.712L155.938 195.517L152.103 193.322L148.314 195.517Z" fill="#333A46"/>
<path d="M152.851 198.179L156.64 200.375L160.475 198.179L156.687 195.984L152.851 198.179Z" fill="#333A46"/>
<path d="M157.622 200.935L165.152 205.279L168.987 203.084L161.457 198.74L157.622 200.935Z" fill="#333A46"/>
<path d="M109.68 178.656L113.469 180.851L117.304 178.656L113.516 176.46L109.68 178.656Z" fill="#333A46"/>
<path d="M114.218 181.271L118.006 183.467L121.841 181.271L118.053 179.076L114.218 181.271Z" fill="#333A46"/>
<path d="M118.754 183.887L122.543 186.082L126.378 183.887L122.59 181.692L118.754 183.887Z" fill="#333A46"/>
<path d="M123.291 186.549L127.08 188.745L130.915 186.549L127.126 184.354L123.291 186.549Z" fill="#333A46"/>
<path d="M127.828 189.165L131.617 191.36L135.452 189.165L131.663 186.97L127.828 189.165Z" fill="#333A46"/>
<path d="M132.365 191.827L136.154 194.022L139.989 191.827L136.201 189.632L132.365 191.827Z" fill="#333A46"/>
<path d="M136.902 194.443L140.691 196.638L144.526 194.443L140.737 192.247L136.902 194.443Z" fill="#333A46"/>
<path d="M141.439 197.058L145.227 199.254L149.063 197.058L145.274 194.863L141.439 197.058Z" fill="#333A46"/>
<path d="M145.976 199.721L149.764 201.916L153.599 199.721L149.811 197.525L145.976 199.721Z" fill="#333A46"/>
<path d="M150.653 202.43L160.335 208.081L164.17 205.886L154.488 200.234L150.653 202.43Z" fill="#333A46"/>
<path d="M104.91 181.598L108.698 183.794L112.534 181.598L108.698 179.403L104.91 181.598Z" fill="#333A46"/>
<path d="M109.4 184.214L113.188 186.409L117.024 184.214L113.235 182.019L109.4 184.214Z" fill="#333A46"/>
<path d="M113.937 186.829L117.725 189.025L121.561 186.829L117.772 184.634L113.937 186.829Z" fill="#333A46"/>
<path d="M118.427 189.445L122.262 191.64L126.097 189.445L122.309 187.25L118.427 189.445Z" fill="#333A46"/>
<path d="M122.917 192.061L140.176 202.103L144.012 199.908L126.753 189.865L122.917 192.061Z" fill="#333A46"/>
<path d="M141.111 202.617L144.9 204.812L148.735 202.617L144.9 200.421L141.111 202.617Z" fill="#333A46"/>
<path d="M145.695 205.279L155.377 210.931L159.212 208.735L149.53 203.084L145.695 205.279Z" fill="#333A46"/>
<path d="M105.331 197.992L105.752 198.366L120.719 207.007C121.467 207.427 122.683 207.427 123.385 207.007L130.354 202.99L130.775 202.616L130.354 201.449L115.387 192.808C114.638 192.388 113.422 192.388 112.721 192.808L105.752 196.825L105.331 197.992Z" fill="#9C9FD7"/>
<path d="M105.331 197.992L105.752 198.366L120.719 207.007C121.467 207.427 122.683 207.427 123.385 207.007L130.354 202.99L130.775 202.616L130.354 202.243L115.387 193.602C114.638 193.181 113.422 193.181 112.721 193.602L105.752 197.619L105.331 197.992Z" fill="#C5CEEC"/>
<path d="M105.471 160.393L105.612 160.346L106.079 160.16C109.634 159.039 118.38 156.703 119.222 160.3L118.661 160.814C122.356 162.962 119.55 163.616 121.421 165.344C122.403 166.232 122.45 168.38 121.234 168.006C122.029 169.314 121.421 170.529 118.474 169.875C116.931 169.501 114.452 169.454 110.757 171.65C110.897 171.883 110.523 174.125 113.002 173.471C114.592 173.051 114.639 172.07 117.164 172.817C118.147 173.098 118.147 173.751 117.632 174.452C111.832 182.252 104.068 175.853 101.87 174.592L101.168 174.172C100.373 174.125 99.4845 174.125 98.8765 173.658C98.0814 173.004 97.5201 171.836 97.146 170.902C94.3864 163.523 100.841 162.308 105.471 160.393Z" fill="#F7A788"/>
<path d="M98.315 163.756C92.7959 166.792 74.1339 163.476 58.1378 167.306C48.0818 169.735 42.2353 174.826 44.2465 181.318C45.0416 183.887 47.848 187.53 50.7946 188.091C54.396 188.791 83.6754 176.834 101.215 174.078C103.039 173.798 106.126 170.108 107.108 168.567C108.558 166.091 98.315 163.756 98.315 163.756Z" fill="#F7A788"/>
<path d="M40.6449 265.204C40.6449 274.079 45.8834 280.338 48.2687 287.437C46.2575 288.138 44.1996 288.371 41.9545 287.671L41.8142 287.624C39.9901 280.431 40.6449 272.818 40.6449 265.204Z" fill="#171718"/>
<path d="M133.113 240.777C129.278 239.189 113.796 226.297 105.565 223.635C101.636 222.374 97.3327 222.794 93.3103 223.728C85.8267 225.503 78.7641 228.586 71.8886 231.902C68.334 233.63 64.7793 235.405 61.1778 237.087C58.6989 238.254 56.3603 239.095 53.8346 239.142C53.9282 240.123 54.0217 241.104 54.1153 242.084C53.133 241.898 52.1508 241.757 51.1686 241.711C46.164 241.477 40.9255 243.112 37.6515 246.895C29.5131 256.33 21.0006 281.085 42.0481 287.671C43.5915 288.138 48.3623 290.426 49.4848 291.501C50.7944 292.762 52.2444 293.836 53.7879 294.724C58.886 297.619 64.9196 297.946 70.579 296.685C73.6192 296.031 76.5659 294.91 79.419 293.603C83.1139 291.874 86.4815 289.586 89.9427 287.39C114.872 271.65 132.412 267.96 136.715 261.468C141.205 254.602 141.906 244.466 133.113 240.777Z" fill="#1D2025"/>
<path d="M29.7472 194.863C28.1102 188.231 27.5957 181.318 28.1102 174.499C28.5311 169.268 27.736 161.421 34.097 159.085C37.4646 157.824 42.0951 159.132 44.9014 161.094C45.8368 161.701 49.485 163.85 50.3737 164.317C55.5186 167.026 60.5233 170.062 65.4811 173.144C74.6017 178.843 89.2413 183.607 94.2459 200.842C96.0233 206.914 95.2749 213.686 92.2347 219.244C91.4864 220.646 90.5509 221.813 89.8961 223.261C89.2413 224.803 88.6801 226.344 88.2123 227.979C87.3237 231.108 86.8559 234.331 86.5753 237.6C86.1544 242.178 86.014 246.942 86.7624 251.472C87.3704 255.116 87.7446 259.086 85.5931 262.355C83.348 265.765 78.9515 267.026 74.8823 267.446C65.3408 268.474 55.659 266.419 46.5852 263.149C43.5918 262.075 40.5983 260.814 38.1194 258.852C35.6405 256.844 33.7228 253.995 33.4422 250.865C33.0213 245.634 36.8566 241.29 38.4001 236.573C40.1306 231.342 39.1016 226.064 37.8388 220.832C36.9969 217.283 35.9679 213.826 34.7986 210.37C33.3019 205.98 31.5713 201.682 30.3085 197.245C30.1682 196.451 29.9343 195.657 29.7472 194.863Z" fill="white"/>
<path d="M94.2457 200.842C93.0764 196.778 91.3458 193.415 89.2411 190.519C82.7397 187.904 75.6771 185.382 69.3161 188.324C65.3873 190.286 65.9018 195.657 66.3695 200.048C68.3339 211.771 76.6594 221.533 75.1627 233.77C73.3385 245.587 71.187 256.797 67.9598 267.68C70.2516 267.773 72.5434 267.68 74.8353 267.446C78.9044 267.026 83.301 265.765 85.5461 262.355C87.6976 259.086 87.3234 255.069 86.7154 251.473C85.967 246.942 86.1073 242.178 86.5283 237.6C86.8557 234.378 87.3234 231.108 88.1653 227.979C88.633 226.391 89.1475 224.803 89.8491 223.261C90.5039 221.813 91.4393 220.646 92.1877 219.244C95.2279 213.686 96.023 206.914 94.2457 200.842Z" fill="white"/>
<path d="M96.7248 202.056C89.8493 187.904 77.2676 181.178 72.263 185.008C63.1424 192.061 68.1938 199.767 81.9448 220.459C87.1365 228.259 95.6023 248.016 107.576 241.103C110.242 239.562 112.206 236.573 112.347 233.443C112.487 230.361 109.915 227.325 108.465 224.616C104.489 217.189 100.467 209.716 96.7248 202.056Z" fill="#F9B398"/>
<path d="M44.3397 151.706C44.2461 153.808 44.1526 155.909 44.059 158.011C44.0123 159.739 43.9187 161.514 43.2639 163.149C42.4688 165.064 41.4866 165.951 41.6269 168.1C41.814 170.389 42.8897 172.35 44.4332 173.985C47.3331 177.115 51.262 179.31 55.4247 180.15C58.2778 180.711 61.4583 180.524 64.0307 179.123C67.679 177.114 66.65 174.405 66.3693 170.762C66.0887 166.886 66.229 161.981 69.5966 158.618L44.3397 151.706Z" fill="#F9B398"/>
<path d="M76.8465 122.187C78.2029 123.821 79.3254 125.643 79.6528 127.791C80.3076 131.855 78.9045 135.965 79.3722 139.982C79.7931 143.578 77.7352 147.969 76.7997 151.472C76.1917 153.667 75.4433 156.096 73.3854 157.17C72.1693 157.824 70.7194 157.824 69.5501 158.525C68.8485 158.945 68.2872 159.646 67.6324 160.16C65.668 161.654 62.0665 160.907 59.8215 160.627C57.5296 160.3 55.0975 159.973 52.9927 158.992C49.0171 157.17 46.3511 153.387 43.9657 149.697C24.4618 119.618 63.6568 106.586 76.8465 122.187Z" fill="#F9B398"/>
<path d="M40.0839 118.216C40.458 117.376 40.8322 116.535 41.4403 115.741C43.9659 112.471 47.4739 110.043 51.3559 108.641C56.1267 106.913 61.4119 106.726 66.3698 107.754C67.352 107.987 68.381 108.221 69.3164 108.641C71.1405 109.435 72.6372 110.79 74.0872 112.144C75.6774 113.592 77.8757 114.994 78.9515 116.862C80.0272 118.73 80.9159 120.925 80.8691 123.167C80.8224 124.148 80.3079 124.942 79.7934 125.83C79.466 126.437 78.9515 126.997 78.4838 127.558C77.0338 129.426 76.379 132.135 75.5371 134.33C75.1629 135.265 74.742 136.292 73.9001 136.853C72.2631 137.974 69.9712 136.946 68.1003 137.553C67.0246 137.88 66.1359 138.814 65.5747 139.795C65.0134 140.823 64.7328 141.944 64.4521 143.065C63.9844 144.84 63.9844 146.288 63.7505 148.062C63.5635 149.837 63.0957 151.706 61.8797 153.06C59.1201 156.096 53.7881 156.003 50.1399 155.255C48.8302 154.975 47.5206 154.695 46.3046 154.134C39.9903 151.192 36.2486 142.598 35.5002 136.105C35.3599 134.657 35.3131 133.163 35.3131 131.668C35.3131 130.08 35.4067 128.539 35.7808 126.997C36.3889 124.709 37.6517 122.7 38.8678 120.692C39.4291 119.804 39.7565 119.01 40.0839 118.216Z" fill="#333A46"/>
<path d="M65.9021 136.059C62.2071 136.105 61.6458 140.683 64.4054 144.046C65.2005 145.026 66.6037 145.82 67.5859 146.568C74.5549 151.659 75.771 145.493 73.526 143.765C68.4278 139.655 70.5325 136.012 65.9021 136.059Z" fill="#F9B398"/>
<path d="M67.5389 142.878C67.0712 142.504 62.7214 140.356 65.4341 138.487C66.1825 137.974 67.1179 138.581 67.305 139.422L67.3986 140.729L67.726 141.43C68.1469 141.99 69.4565 142.504 69.2695 143.392C69.1291 144.139 67.8195 143.065 67.5389 142.878Z" fill="#F39C75"/>
<path d="M159.446 183.84C158.978 182.906 157.295 183.653 157.154 182.345C157.061 181.411 158.838 179.59 156.827 179.59C155.845 179.59 154.816 180.15 153.927 180.477L152.571 180.43L152.103 179.917L150.934 179.777L149.905 180.43C148.501 181.551 147.098 182.672 145.695 183.84C144.666 184.681 143.263 186.409 141.813 186.316L141.486 186.175L141.439 185.849C141.486 185.195 141.532 184.541 141.532 183.887C140.831 183.56 139.942 183.887 139.287 184.354C136.107 186.409 134.236 189.772 132.739 193.135C132.225 194.256 131.897 195.424 131.757 196.544C130.728 203.878 93.4975 228.773 92.5621 230.174C89.3348 234.938 100.7 242.318 103.928 242.037C107.249 241.804 106.828 242.037 109.026 240.169C110.569 238.908 122.917 229.894 134.517 211.117C136.06 209.856 134.938 207.894 142.515 203.177C147.192 200.281 151.635 197.058 155.938 193.602C156.687 192.995 156.78 192.574 156.64 191.734C156.546 191.033 156.406 190.005 155.517 190.005L154.863 189.819L154.909 189.538C155.611 187.717 157.154 186.829 158.604 185.708C159.166 185.195 159.774 184.494 159.446 183.84Z" fill="#F9B398"/>
<path d="M50.2334 129.519C49.2044 130.781 48.1287 132.042 47.24 133.443C43.8256 139.001 44.2933 146.054 45.7433 152.406C47.1932 158.758 49.4851 165.017 49.4383 171.509C49.3447 180.337 44.8546 188.651 39.0081 195.33C35.126 199.767 30.1214 203.831 24.2749 204.018C20.4396 204.158 16.3704 201.729 16.5107 197.572C16.651 193.415 20.8138 190.332 21.9831 186.502C23.3862 182.112 23.9943 177.441 23.7604 172.817C23.5265 168.146 22.4508 163.569 21.8895 158.945C21.0476 152.079 21.3283 145.166 21.7492 138.254C22.0298 133.349 22.4508 128.398 24.1346 123.774C25.8184 119.15 28.9989 114.853 33.489 112.892C37.0904 111.304 43.7321 110.229 47.0529 112.565C48.7367 113.732 51.1688 116.395 52.4317 117.983C54.0219 119.991 54.1623 122.887 53.18 125.222C52.3849 126.764 51.3092 128.165 50.2334 129.519Z" fill="#23262C"/>
<path d="M256.507 134.965C255.758 134.965 254.963 134.731 254.075 134.217L238.406 125.203C235.413 123.475 232.934 119.177 232.934 115.721V96.1508C232.934 93.6753 234.15 92.2274 235.974 92.2274C236.722 92.2274 237.517 92.4609 238.406 92.9747L254.075 101.989C257.068 103.717 259.547 108.014 259.547 111.471V131.041C259.547 133.517 258.331 134.965 256.507 134.965ZM245.188 118.757C244.767 118.757 244.393 118.944 244.159 119.271L243.832 120.485C243.832 122.027 244.907 123.895 246.217 124.642C246.638 124.829 246.965 124.922 247.293 124.922C248.088 124.922 248.649 124.315 248.649 123.194L248.322 121.653C247.901 120.579 247.152 119.598 246.264 119.084C245.843 118.851 245.469 118.757 245.188 118.757ZM244.346 115.628C244.907 115.628 245.562 115.815 246.217 116.188C247.386 116.842 248.415 118.01 249.21 119.318L250.38 118.617C249.304 116.749 247.854 115.161 246.217 114.227C245.281 113.666 244.393 113.432 243.598 113.432C243.036 113.432 242.522 113.573 242.054 113.806L243.224 115.861C243.598 115.721 243.972 115.628 244.346 115.628ZM242.101 109.089C243.364 109.089 244.767 109.509 246.217 110.35C248.789 111.798 251.081 114.367 252.765 117.262L253.934 116.562C251.97 113.152 249.21 110.116 246.217 108.388C244.486 107.361 242.803 106.893 241.353 106.893C240.277 106.893 239.341 107.127 238.5 107.641L239.669 109.696C240.37 109.322 241.212 109.089 242.101 109.089ZM239.856 102.55C241.774 102.55 243.925 103.157 246.217 104.511C250.193 106.8 253.747 110.723 256.366 115.207L257.536 114.507C254.636 109.509 250.614 105.119 246.217 102.55C243.644 101.055 241.212 100.354 239.108 100.354C237.564 100.354 236.114 100.728 234.898 101.429L236.067 103.484C237.19 102.923 238.453 102.55 239.856 102.55Z" fill="url(#paint2_linear_153:39)"/>
<path d="M247.293 124.923C246.965 124.923 246.591 124.829 246.217 124.596C244.907 123.848 243.831 121.98 243.831 120.439L244.159 119.224C244.393 118.897 244.767 118.71 245.188 118.71C245.515 118.71 245.889 118.804 246.264 119.037C247.152 119.551 247.947 120.532 248.322 121.606L248.649 123.194C248.649 124.315 248.088 124.923 247.293 124.923Z" fill="url(#paint3_linear_153:39)"/>
<path d="M256.366 115.207C253.794 110.724 250.192 106.8 246.217 104.511C243.925 103.204 241.773 102.55 239.856 102.55C238.453 102.55 237.19 102.877 236.114 103.531L234.945 101.475C236.161 100.775 237.564 100.401 239.154 100.401C241.306 100.401 243.738 101.102 246.264 102.596C250.66 105.119 254.683 109.509 257.582 114.554L256.366 115.207Z" fill="url(#paint4_linear_153:39)"/>
<path d="M252.812 117.262C251.128 114.367 248.836 111.798 246.264 110.35C244.767 109.509 243.364 109.089 242.148 109.089C241.259 109.089 240.417 109.322 239.715 109.696L238.499 107.641C239.341 107.174 240.324 106.893 241.352 106.893C242.802 106.893 244.486 107.361 246.217 108.388C249.257 110.116 251.97 113.152 253.934 116.562L252.812 117.262Z" fill="url(#paint5_linear_153:39)"/>
<path d="M249.21 119.318C248.462 118.01 247.386 116.842 246.217 116.188C245.562 115.814 244.907 115.628 244.346 115.628C243.925 115.628 243.551 115.721 243.223 115.908L242.054 113.853C242.522 113.573 243.036 113.479 243.597 113.479C244.393 113.479 245.281 113.713 246.217 114.273C247.854 115.207 249.304 116.842 250.379 118.664L249.21 119.318Z" fill="url(#paint6_linear_153:39)"/>
<path d="M259.559 164.506L238.838 152.549L235.05 144.796L219.194 135.641V132.559L259.559 155.819V164.506Z" fill="url(#paint7_linear_153:39)"/>
<path d="M260.54 198.509L218.118 174.035V135.081L219.194 135.688L235.05 144.843L238.838 152.596L259.558 164.553L260.54 165.114V198.509Z" fill="#EF5DA8"/>
<path d="M259.558 164.507L238.838 152.55L235.05 144.796L219.194 135.642L235.05 144.796L238.838 152.55L259.558 164.507Z" fill="#EF5DA8"/>
<path d="M107.062 115.32L80.9159 100.234V70.1077L107.062 85.1942V115.32ZM90.9251 79.3091C88.9607 79.3091 87.6043 80.8504 87.6043 83.5594V85.4744C86.9027 85.5679 86.435 86.1751 86.435 87.1559V96.1237C86.435 97.6651 87.5108 99.4866 88.8204 100.281L98.3151 105.745C98.6893 105.979 99.0635 106.072 99.3909 106.072C100.186 106.072 100.701 105.465 100.701 104.344V95.3764C100.701 94.3488 100.233 93.2279 99.5312 92.3404V90.4254C99.5312 86.6421 96.8652 82.0181 93.5444 80.1031C92.6089 79.5893 91.7203 79.3091 90.9251 79.3091ZM94.7604 100.561L92.3751 99.2064V96.4507C91.8606 95.7501 91.5332 94.8159 91.5332 94.0219C91.5332 93.0877 92.0009 92.574 92.6557 92.574C92.9363 92.574 93.217 92.6674 93.5444 92.8542C94.6669 93.5081 95.6023 95.0962 95.6023 96.404C95.6023 97.198 95.2749 97.7118 94.7604 97.8052V100.561ZM97.7539 90.9392L89.4284 86.1283V84.587C89.4284 82.7187 90.3639 81.5977 91.7203 81.5977C92.2815 81.5977 92.8896 81.7846 93.5911 82.1582C95.883 83.466 97.7539 86.7355 97.7539 89.3512V90.9392Z" fill="url(#paint8_linear_153:39)"/>
<path d="M99.3907 106.072C99.0633 106.072 98.6891 105.979 98.3149 105.746L88.8202 100.281C87.5106 99.5334 86.4348 97.6651 86.4348 96.1238V87.156C86.4348 86.1284 86.9025 85.5212 87.6041 85.4745V83.5595C87.6041 80.8505 88.9605 79.3091 90.9249 79.3091C91.7201 79.3091 92.6087 79.5894 93.5909 80.1032C96.865 82.0182 99.5778 86.6422 99.5778 90.4255V92.3405C100.279 93.2279 100.747 94.3956 100.747 95.3765V104.344C100.7 105.465 100.186 106.072 99.3907 106.072ZM92.6555 92.574C92.0007 92.574 91.533 93.0878 91.533 94.022C91.533 94.816 91.8604 95.7034 92.3749 96.4507V99.2065L94.7602 100.561V97.8052C95.2747 97.6651 95.6021 97.1981 95.6021 96.404C95.6021 95.0962 94.6667 93.5082 93.5442 92.8543C93.2635 92.6674 92.9361 92.574 92.6555 92.574ZM91.7201 81.6445C90.3637 81.6445 89.4282 82.7188 89.4282 84.6338V86.1751L97.7537 90.986V89.4446C97.7537 86.7823 95.8828 83.5595 93.5909 82.2517C92.8894 81.8313 92.2813 81.6445 91.7201 81.6445Z" fill="white"/>
<path d="M176.378 171.743L176.144 171.603V171.369L176.378 171.743Z" fill="#7ED4DF"/>
<path d="M181.149 174.452L176.425 171.696L176.191 171.323V165.764L181.195 168.66V174.452" fill="#91DBE3"/>
<path d="M180.821 69.5006L182.177 68.7065L152.804 51.7985L151.448 52.5925L180.821 69.5006Z" fill="#FBD322"/>
<path d="M199.109 119.104L200.465 118.31L200.605 74.9188L199.249 75.7128L199.109 119.104Z" fill="#F9AF0B"/>
<path d="M199.249 75.7127L200.605 74.9187L184.095 65.4371L182.739 66.2311L199.249 75.7127Z" fill="#FBD322"/>
<path d="M182.738 66.1845L180.821 69.5007L151.448 52.5927L151.354 91.5933L199.109 119.151L199.249 75.7595L182.738 66.1845Z" fill="#F7C40C"/>
<path d="M194.619 119.758L198.22 117.656L198.314 81.9249L194.712 84.0268L194.619 119.758Z" fill="#DAE3F5"/>
<path d="M194.712 84.0267L198.314 81.9249L152.664 55.5819L149.063 57.6837L194.712 84.0267Z" fill="#F1F8FD"/>
<path d="M149.063 57.6836L148.969 93.4147L194.619 119.711L194.712 83.9798L149.063 57.6836Z" fill="#B5AFC5"/>
<path d="M199.109 114.48V115.834H199.156V116.395H200.465V117.235L194.666 120.552V117.095L199.109 114.48Z" fill="#F7C40C"/>
<path d="M194.666 121.673L196.022 120.879L196.115 84.5871L194.759 85.3811L194.666 121.673Z" fill="#F9AF0B"/>
<path d="M194.759 85.381L196.115 84.587L148.361 57.0297L147.005 57.8237L194.759 85.381Z" fill="#FBD322"/>
<path d="M147.005 57.8237L146.911 94.1153L194.666 121.673L194.759 85.381L147.005 57.8237Z" fill="#F7C40C"/>
<path d="M194.666 121.673L200.465 118.356V114.76L194.666 118.216V121.673Z" fill="#F9AF0B"/>
<path d="M161.972 82.8122L161.551 82.4853C160.849 81.8314 160.475 80.7571 160.709 80.0565C161.785 77.0205 164.357 75.7127 167.584 76.6001C172.308 77.9079 177.173 83.4194 179.137 89.7249C179.418 90.6591 179.137 91.4064 178.435 91.3597C177.781 91.313 176.985 90.5189 176.705 89.5848C175.255 84.9608 171.7 80.9439 168.239 80.0098C165.854 79.3559 163.983 80.29 163.188 82.532L161.972 82.8122Z" fill="#F1F8FD"/>
<path d="M158.931 78.4686L162.299 86.9693L165.526 82.1584L158.931 78.4686Z" fill="#F1F8FD"/>
<path d="M170.391 101.822C166.742 99.7201 163.281 95.3764 161.551 90.5655C161.223 89.6314 161.457 88.8373 162.112 88.8373C162.767 88.8373 163.562 89.5847 163.889 90.5188C165.433 94.8626 168.894 98.6459 172.121 99.5333C174.553 100.187 176.424 99.2064 177.172 96.9177C177.406 96.2638 178.155 96.2171 178.856 96.871C179.558 97.5249 179.932 98.5991 179.698 99.2998C178.669 102.429 176.05 103.784 172.776 102.896C172.028 102.663 171.186 102.289 170.391 101.822Z" fill="#F1F8FD"/>
<path d="M181.523 101.215L178.669 92.7142L174.974 96.8712L181.523 101.215Z" fill="#F1F8FD"/>
<path d="M133.16 88.6505L94.2927 66.231V0L133.16 22.4195V88.6505ZM128.857 78.4216C128.109 78.4216 127.594 79.0288 127.594 80.0564C127.594 81.5043 128.623 83.2792 129.84 83.9798C130.214 84.1666 130.541 84.3067 130.869 84.3067C131.617 84.3067 132.131 83.6995 132.131 82.672C132.131 81.2241 131.102 79.4959 129.886 78.7486C129.512 78.515 129.185 78.4216 128.857 78.4216ZM109.119 68.8466V71.976L125.911 81.6444V78.515L109.119 68.8466ZM101.496 58.0105V61.1399L131.898 78.6551V75.5257L101.496 58.0105ZM101.496 52.9661V56.0955L131.898 73.6107V70.4814L101.496 52.9661ZM101.496 47.9217V51.0511L118.287 60.7195V57.5901L101.496 47.9217ZM95.5556 36.8054V39.9348L125.957 57.45V54.3206L95.5556 36.8054ZM128.857 49.1361C128.109 49.1361 127.594 49.7433 127.594 50.7709C127.594 52.2188 128.623 53.9937 129.84 54.6943C130.214 54.9278 130.541 55.0212 130.869 55.0212C131.617 55.0212 132.131 54.414 132.131 53.3865C132.131 51.9385 131.102 50.1637 129.886 49.4631C129.512 49.2762 129.185 49.1361 128.857 49.1361ZM109.119 39.6078V42.7372L125.911 52.4056V49.2762L109.119 39.6078ZM101.496 28.3513V31.4807L132.131 49.1361V46.0067L101.496 28.3513ZM96.5378 42.6905C95.7894 42.6905 95.2749 43.2977 95.2749 44.3253C95.2749 45.7732 96.3039 47.5481 97.52 48.2487C97.8942 48.4822 98.2216 48.5756 98.549 48.5756C99.2973 48.5756 99.8118 47.9684 99.8118 46.9409C99.8118 45.4929 98.7828 43.7648 97.52 43.0175C97.1926 42.8306 96.8652 42.6905 96.5378 42.6905ZM95.5556 18.0757V21.2051L125.957 38.7204V35.591L95.5556 18.0757ZM128.857 30.4065C128.109 30.4065 127.594 31.0137 127.594 32.0412C127.594 33.4892 128.623 35.2173 129.84 35.9646C130.214 36.1515 130.541 36.2916 130.869 36.2916C131.617 36.2916 132.131 35.6844 132.131 34.6568C132.131 33.2089 131.102 31.434 129.886 30.7334C129.512 30.4999 129.185 30.4065 128.857 30.4065ZM109.119 20.8782V24.0076L125.911 33.676V30.5466L109.119 20.8782ZM96.5378 23.6806C95.7894 23.6806 95.2749 24.2878 95.2749 25.3154C95.2749 26.7633 96.3039 28.5382 97.52 29.2388C97.8942 29.4723 98.2216 29.5657 98.549 29.5657C99.2973 29.5657 99.8118 28.9585 99.8118 27.931C99.8118 26.4831 98.7828 24.7082 97.52 24.0076C97.1926 23.774 96.8652 23.6806 96.5378 23.6806ZM101.496 9.5283V12.6577L118.287 22.3261V19.1967L101.496 9.5283ZM96.5378 4.85756C95.7894 4.85756 95.2749 5.46476 95.2749 6.49232C95.2749 7.94025 96.3039 9.66842 97.52 10.4157C97.8942 10.6493 98.2216 10.7427 98.549 10.7427C99.2973 10.7427 99.8118 10.1355 99.8118 9.10793C99.8118 7.66 98.7828 5.93183 97.52 5.18451C97.1926 4.95098 96.8652 4.85756 96.5378 4.85756Z" fill="url(#paint9_linear_153:39)"/>
<defs>
<linearGradient id="paint0_linear_153:39" x1="311.459" y1="-303.033" x2="-437.908" y2="2335.49" gradientUnits="userSpaceOnUse">
<stop stop-color="#2C2A69"/>
<stop offset="0.00722022" stop-color="#2C2A69"/>
<stop offset="1" stop-color="#151B2B"/>
</linearGradient>
<linearGradient id="paint1_linear_153:39" x1="286.627" y1="-310.085" x2="-462.739" y2="2328.44" gradientUnits="userSpaceOnUse">
<stop stop-color="#2C2A69"/>
<stop offset="0.00722022" stop-color="#2C2A69"/>
<stop offset="1" stop-color="#151B2B"/>
</linearGradient>
<linearGradient id="paint2_linear_153:39" x1="336.456" y1="-202.907" x2="-412.911" y2="2435.61" gradientUnits="userSpaceOnUse">
<stop stop-color="#F8A5C7"/>
<stop offset="0.00722022" stop-color="#F688B8"/>
<stop offset="1" stop-color="#F8A5C7"/>
</linearGradient>
<linearGradient id="paint3_linear_153:39" x1="257.317" y1="58.3884" x2="46.0179" y2="515.048" gradientUnits="userSpaceOnUse">
<stop stop-color="white"/>
<stop offset="0.00722022" stop-color="white"/>
<stop offset="1" stop-color="white"/>
</linearGradient>
<linearGradient id="paint4_linear_153:39" x1="298.312" y1="-43.3741" x2="4.36391" y2="1209.1" gradientUnits="userSpaceOnUse">
<stop stop-color="white"/>
<stop offset="0.00722022" stop-color="white"/>
<stop offset="1" stop-color="white"/>
</linearGradient>
<linearGradient id="paint5_linear_153:39" x1="281.704" y1="6.20542" x2="70.8688" y2="880.819" gradientUnits="userSpaceOnUse">
<stop stop-color="white"/>
<stop offset="0.00722022" stop-color="white"/>
<stop offset="1" stop-color="white"/>
</linearGradient>
<linearGradient id="paint6_linear_153:39" x1="265.358" y1="56.7854" x2="142.043" y2="546.834" gradientUnits="userSpaceOnUse">
<stop stop-color="white"/>
<stop offset="0.00722022" stop-color="white"/>
<stop offset="1" stop-color="white"/>
</linearGradient>
<linearGradient id="paint7_linear_153:39" x1="332.181" y1="-177.669" x2="-417.186" y2="2460.85" gradientUnits="userSpaceOnUse">
<stop stop-color="#F8A5C7"/>
<stop offset="0.00722022" stop-color="#F8A5C7"/>
<stop offset="1" stop-color="#F8A5C7"/>
</linearGradient>
<linearGradient id="paint8_linear_153:39" x1="214.511" y1="-330.567" x2="-534.855" y2="2307.95" gradientUnits="userSpaceOnUse">
<stop stop-color="#F8A5C7"/>
<stop offset="0.00722022" stop-color="#F8A5C7"/>
<stop offset="1" stop-color="#F688B8"/>
</linearGradient>
<linearGradient id="paint9_linear_153:39" x1="220.059" y1="-328.991" x2="-529.308" y2="2309.53" gradientUnits="userSpaceOnUse">
<stop stop-color="#F8A5C7"/>
<stop offset="0.00722022" stop-color="#F8A5C7"/>
<stop offset="1" stop-color="#F688B8"/>
</linearGradient>
</defs>
</svg>
