<svg width="54" height="38" viewBox="0 0 54 38" fill="none" xmlns="http://www.w3.org/2000/svg">
<path d="M15.6933 30.3067C12.7866 27.4267 10.9999 23.4267 10.9999 19.0001C10.9999 14.5734 12.7866 10.5734 15.6933 7.6934L19.4799 11.4801C17.5333 13.4001 16.3333 16.0667 16.3333 19.0001C16.3333 21.9334 17.5333 24.6001 19.4533 26.5467L15.6933 30.3067ZM38.3066 30.3067C41.2133 27.4267 42.9999 23.4267 42.9999 19.0001C42.9999 14.5734 41.2133 10.5734 38.3066 7.6934L34.5199 11.4801C36.4666 13.4001 37.6666 16.0667 37.6666 19.0001C37.6666 21.9334 36.4666 24.6001 34.5466 26.5467L38.3066 30.3067ZM26.9999 13.6667C24.0666 13.6667 21.6666 16.0667 21.6666 19.0001C21.6666 21.9334 24.0666 24.3334 26.9999 24.3334C29.9333 24.3334 32.3333 21.9334 32.3333 19.0001C32.3333 16.0667 29.9333 13.6667 26.9999 13.6667ZM48.3333 19.0001C48.3333 24.8934 45.9333 30.2267 42.0666 34.0667L45.8533 37.8534C50.6799 33.0267 53.6666 26.3601 53.6666 19.0001C53.6666 11.6401 50.6799 4.9734 45.8533 0.146729L42.0666 3.9334C44.0558 5.90541 45.634 8.25253 46.7097 10.8388C47.7854 13.425 48.3372 16.199 48.3333 19.0001ZM11.9333 3.9334L8.14658 0.146729C3.31992 4.9734 0.333252 11.6401 0.333252 19.0001C0.333252 26.3601 3.31992 33.0267 8.14658 37.8534L11.9333 34.0667C8.06659 30.2267 5.66659 24.8934 5.66659 19.0001C5.66659 13.1067 8.06659 7.7734 11.9333 3.9334Z" fill="white"/>
</svg>
