<svg width="503" height="357" viewBox="0 0 503 357" fill="none" xmlns="http://www.w3.org/2000/svg">
<g clip-path="url(#clip0_238:301)">
<path d="M304.007 260.572L336.647 241.61C332.667 245.376 327.869 248.935 322.254 252.198C316.635 255.466 310.506 258.256 304.007 260.572Z" fill="url(#paint0_radial_238:301)"/>
<path d="M381.611 229.589L370.981 227.367C371.879 225.079 372.574 222.772 373.076 220.45L385.2 213.406C384.982 218.842 383.79 224.273 381.611 229.589ZM118.447 203.28C121.417 186.22 134.124 169.632 156.587 156.586C179.047 143.535 207.644 136.123 237.105 134.351L223.54 142.229C201.881 145.105 181.344 151.421 164.547 161.179C147.75 170.936 136.91 182.852 132.011 195.402L118.447 203.28ZM381.337 192.985L363.443 182.655C362.039 180.824 360.494 179.022 358.808 177.247C359.143 176.784 359.32 176.288 359.343 175.795L359.353 175.784V174.207H359.345C359.322 173.192 358.642 172.179 357.307 171.407L346.369 165.094C348.313 163.603 349.142 161.78 348.845 160C348.935 159.46 348.92 158.916 348.802 158.374C365.146 168.425 375.994 180.395 381.337 192.985ZM327.332 154.106L315.261 147.141C313.903 146.356 312.118 145.965 310.332 145.965C308.552 145.965 306.769 146.356 305.421 147.141L304.746 147.532C303.413 147.156 302.068 146.796 300.715 146.45L282.818 136.123C302.291 138.853 320.929 144.141 337.102 151.979C336.816 151.968 336.529 151.961 336.243 151.961C333.012 151.966 329.784 152.677 327.332 154.106Z" fill="url(#paint1_radial_238:301)"/>
<path d="M251.986 297.442C248.282 297.442 244.599 297.363 240.939 297.209L243.484 295.734C246.308 295.826 249.144 295.875 251.973 295.875C289.361 295.875 326.705 287.633 355.076 271.151C385.614 253.413 399.631 229.684 397.165 206.41C398.974 205.042 398.789 203.058 396.623 201.807L396.439 201.702C392.725 183.376 378.711 165.61 354.409 151.585C330.109 137.56 299.375 129.5 267.717 127.408L264.665 125.647C299.229 127.457 331.353 136.123 356.268 150.503C384.435 166.763 400.02 188.378 400.15 211.368C400.276 234.358 384.939 255.975 356.954 272.235C328.971 288.49 291.688 297.442 251.986 297.442ZM102.868 212.332C102.86 212.012 102.858 211.69 102.855 211.368C102.722 188.378 118.061 166.763 146.049 150.503C174.034 134.248 211.314 125.291 251.019 125.291C251.574 125.291 252.134 125.294 252.689 125.299L249.996 126.864C212.949 127.015 176.034 135.253 147.921 151.585C119.813 167.917 105.704 189.319 105.564 210.772L102.868 212.332Z" fill="url(#paint2_radial_238:301)"/>
<path d="M252.206 327.656C252.188 327.656 252.173 327.656 252.155 327.656C252.142 327.656 252.137 327.656 252.124 327.656C198.499 327.656 148.003 315.558 109.953 293.596C71.9003 271.634 50.8443 242.428 50.6729 211.365C50.4913 180.305 71.2148 151.102 109.03 129.132C146.837 107.17 197.205 95.0748 250.845 95.0748C301.204 95.0748 348.802 105.732 385.921 125.214L382.657 127.109C345.293 107.566 298.057 97.798 250.866 97.798C200.622 97.798 150.433 108.875 112.306 131.021C36.0525 175.322 36.4591 247.404 113.209 291.701C151.587 313.853 201.886 324.93 252.132 324.925C282.552 324.925 312.959 320.864 340.673 312.741L342.988 315.121C315.225 323.319 284.307 327.656 252.206 327.656ZM419.641 275.339L415.842 273.772C449.716 243.796 456.494 206.474 436.251 173.483L440.802 172.698C447.598 183.803 451.48 195.545 452.207 207.599C449.836 208.215 448.296 209.215 448.296 210.342C448.296 211.488 449.884 212.503 452.319 213.117C451.874 235.572 440.495 256.993 419.641 275.339Z" fill="url(#paint3_radial_238:301)"/>
<path d="M252.129 344.826C237.506 344.826 223.052 344.036 208.871 342.471L209.999 339.804C223.952 341.328 238.095 342.093 252.242 342.093C310.077 342.093 367.845 329.338 411.729 303.847C499.501 252.853 499.033 169.88 410.683 118.886C366.512 93.3898 308.603 80.6431 250.766 80.6431C192.929 80.6431 135.16 93.3898 91.2732 118.886C23.9335 158.008 8.53036 215.947 44.8949 263.83L40.4366 264.682C39.6616 263.656 38.9096 262.626 38.178 261.585C26.8853 245.601 21.1148 228.702 21.0202 211.365C20.9179 194.031 26.5016 177.135 37.6127 161.146C49.1204 144.589 66.0634 129.735 87.9941 116.994C109.917 104.257 135.521 94.3896 164.074 87.6775C191.65 81.1929 220.809 77.9071 250.745 77.9071C280.682 77.9071 309.882 81.1929 337.527 87.6775C366.154 94.3896 391.873 104.255 413.937 116.991C436.013 129.733 453.13 144.589 464.817 161.143C476.105 177.137 481.88 194.034 481.975 211.365C482.069 228.699 476.491 245.596 465.387 261.585C453.885 278.142 436.927 292.998 415.006 305.732C393.073 318.476 367.482 328.336 338.926 335.053C311.35 341.538 282.196 344.824 252.27 344.824C252.262 344.824 252.257 344.824 252.249 344.824C252.209 344.826 252.17 344.826 252.129 344.826Z" fill="url(#paint4_radial_238:301)"/>
<path d="M252.321 357C219.655 356.997 187.795 353.41 157.623 346.335C126.379 339.009 98.325 328.244 74.238 314.341C50.1562 300.444 31.479 284.233 18.7257 266.167C6.40982 248.718 0.107354 230.282 -7.43475e-05 211.37C-0.102387 192.456 5.98522 174.018 18.1093 156.571C30.6528 138.501 49.1535 122.294 73.0844 108.389C84.8376 101.559 97.5576 95.4891 111.155 90.2114L111.47 91.0424C98.2457 96.1923 85.6843 102.155 74.0232 108.929C-20.9972 164.132 -22.6649 253.167 68.6492 309.9C68.6492 309.92 68.6492 309.938 68.6492 309.953C68.6492 311.194 70.6034 312.273 73.4707 312.815C74.0334 313.145 74.5987 313.477 75.1665 313.804C124.1 342.047 188.245 356.169 252.313 356.169C316.379 356.166 380.368 342.044 428.984 313.804C526.204 257.322 525.688 165.413 427.821 108.929C389.423 86.7646 341.645 73.2968 291.896 68.5279L291.566 67.6509C309.959 69.3896 327.956 72.3123 345.374 76.3984C376.618 83.7217 404.672 94.4893 428.752 108.384C452.839 122.287 471.521 138.495 484.274 156.566C496.593 174.012 502.887 192.454 502.997 211.365C503.102 230.277 497.009 248.716 484.891 266.167C472.339 284.23 453.841 300.441 429.918 314.341C405.987 328.244 378.053 339.009 346.894 346.335C316.801 353.41 284.982 356.997 252.321 357Z" fill="url(#paint5_radial_238:301)"/>
<path d="M208.687 314.492C207.14 314.492 205.587 314.152 204.408 313.472L70.427 236.143C68.0712 234.78 68.0559 232.555 70.3989 231.195L102.865 212.332C103.42 234.964 118.959 256.208 146.729 272.235C172.269 286.976 205.385 295.711 240.939 297.212L212.946 313.474C211.777 314.152 210.232 314.492 208.687 314.492ZM243.484 295.734C208.964 294.581 174.988 286.385 148.591 271.153C119.77 254.515 105.415 232.622 105.559 210.769L118.447 203.28C114.539 225.72 127.469 248.992 157.196 266.149C179.221 278.863 207.004 286.227 235.677 288.234L235.401 281.67C209.703 279.668 184.877 272.966 165.105 261.554C134.066 243.642 123.016 218.446 132.009 195.399L223.538 142.226C232.593 141.022 241.844 140.423 251.098 140.423C268.013 140.423 284.946 142.436 300.713 146.45L303.667 148.156L300.293 150.117L303.667 148.156L304.744 147.532C316.717 150.889 327.94 155.438 337.883 161.176C346.341 166.057 353.314 171.478 358.806 177.247C358.471 177.707 357.985 178.139 357.335 178.515L356.803 178.825L363.44 182.653C372.6 194.596 375.813 207.701 373.071 220.445L336.645 241.607C360.128 219.361 355.143 189.781 321.781 170.525C302.283 159.271 276.71 153.641 251.173 153.641C225.633 153.641 200.129 159.266 180.751 170.527C179.162 171.45 177.633 172.399 176.17 173.371L180.567 175.112C181.825 174.286 183.135 173.475 184.495 172.688C202.848 162.028 227.004 156.694 251.191 156.694C275.377 156.694 299.592 162.025 318.062 172.683C355.01 194.011 355.209 228.709 318.505 250.03C300.152 260.695 275.994 266.024 251.804 266.024C227.618 266.027 203.4 260.695 184.925 250.03C170.888 241.929 162.163 231.898 158.743 221.404L153.436 221.598C156.966 232.811 166.217 243.545 181.201 252.191C200.704 263.449 226.283 269.077 251.82 269.08C269.96 269.08 288.079 266.239 304.002 260.562L243.484 295.734ZM172.167 220.916L170.172 220.987C173.354 229.939 180.948 238.464 192.939 245.384C209.189 254.763 230.495 259.45 251.769 259.455C273.05 259.455 294.297 254.763 310.445 245.384C342.732 226.625 342.553 196.105 310.054 177.347C293.806 167.968 272.502 163.275 251.232 163.275C229.953 163.275 208.713 167.968 192.565 177.347C191.698 177.85 190.854 178.359 190.038 178.878L191.688 179.536C192.425 179.068 193.184 178.612 193.97 178.155C209.726 169.001 230.467 164.426 251.237 164.426C272.006 164.426 292.799 169.001 308.657 178.155C340.384 196.471 340.556 226.265 309.038 244.573C293.279 253.73 272.533 258.309 251.761 258.309C230.991 258.309 210.194 253.73 194.333 244.573C182.695 237.856 175.3 229.592 172.167 220.916ZM251.285 173.151C234.393 173.151 217.53 176.881 204.682 184.34C204.562 184.412 204.446 184.481 204.326 184.552C187.79 194.302 182.158 207.934 187.393 220.353C190.176 226.96 196.041 233.23 204.978 238.388C217.908 245.852 234.823 249.585 251.715 249.585C268.609 249.585 285.481 245.852 298.326 238.388C324.014 223.465 323.874 199.265 298.017 184.34C285.089 176.881 268.172 173.151 251.285 173.151ZM290.568 155.868L290.566 155.878L290.568 155.868ZM385.197 213.406C385.466 206.553 384.182 199.682 381.337 192.988L396.439 201.702C396.756 203.27 396.999 204.84 397.165 206.41C397.009 206.53 396.838 206.645 396.651 206.75L385.197 213.406ZM348.802 158.374C347.82 157.77 346.817 157.169 345.794 156.581C342.988 154.963 340.085 153.428 337.1 151.981C340.039 152.096 342.924 152.807 345.175 154.106C347.255 155.303 348.464 156.814 348.802 158.374ZM282.818 136.125C272.395 134.66 261.724 133.929 251.068 133.929C246.402 133.929 241.747 134.069 237.105 134.348L249.994 126.861C250.339 126.858 250.687 126.858 251.027 126.858C256.6 126.858 262.171 127.043 267.717 127.408L282.818 136.125ZM264.663 125.644C260.701 125.439 256.703 125.319 252.684 125.296L254.096 124.475C255.265 123.798 256.81 123.455 258.36 123.455C259.908 123.455 261.458 123.795 262.634 124.475L264.663 125.644Z" fill="url(#paint6_radial_238:301)"/>
<path d="M251.715 249.585C234.823 249.585 217.908 245.852 204.978 238.388C196.044 233.23 190.176 226.96 187.393 220.353C182.158 207.934 187.79 194.302 204.326 184.552C204.446 184.481 204.561 184.412 204.682 184.34C217.53 176.881 234.393 173.151 251.285 173.151C268.174 173.151 285.089 176.881 298.014 184.34C323.871 199.265 324.012 223.465 298.323 238.388C285.481 245.852 268.609 249.585 251.715 249.585Z" fill="url(#paint7_radial_238:301)"/>
<path d="M251.769 259.455C230.495 259.452 209.189 254.763 192.939 245.384C180.948 238.462 173.354 229.939 170.172 220.987L172.167 220.916C175.3 229.592 182.695 237.856 194.335 244.573C210.196 253.73 230.994 258.31 251.763 258.31C272.535 258.31 293.282 253.73 309.041 244.573C340.555 226.265 340.387 196.471 308.66 178.155C292.801 169.001 272.009 164.426 251.239 164.426C230.47 164.426 209.728 169.001 193.972 178.155C193.187 178.612 192.427 179.068 191.691 179.536L190.041 178.878C190.857 178.359 191.701 177.853 192.568 177.347C208.715 167.968 229.955 163.276 251.234 163.276C272.505 163.276 293.809 167.968 310.056 177.347C342.558 196.105 342.735 226.626 310.447 245.384C294.297 254.763 273.05 259.455 251.769 259.455Z" fill="url(#paint8_radial_238:301)"/>
<path d="M251.822 269.09C226.285 269.087 200.707 263.457 181.203 252.201C166.222 243.556 156.968 232.821 153.438 221.609L158.746 221.414C162.166 231.908 170.89 241.94 184.928 250.04C203.403 260.705 227.62 266.037 251.807 266.034C275.996 266.034 300.157 260.705 318.507 250.04C355.209 228.717 355.012 194.021 318.065 172.693C299.595 162.035 275.38 156.704 251.193 156.704C227.006 156.704 202.85 162.035 184.498 172.698C183.137 173.486 181.828 174.296 180.569 175.122L176.172 173.381C177.635 172.409 179.162 171.461 180.753 170.538C200.131 159.276 225.635 153.651 251.175 153.651C276.712 153.651 302.288 159.279 321.784 170.535C355.145 189.792 360.131 219.371 336.647 241.617L304.007 260.58C288.082 266.249 269.962 269.09 251.822 269.09Z" fill="url(#paint9_radial_238:301)"/>
<path d="M235.677 288.234C207.007 286.227 179.221 278.863 157.196 266.149C127.469 248.992 114.539 225.72 118.447 203.28L132.012 195.402C123.018 218.448 134.068 243.645 165.107 261.557C184.877 272.969 209.705 279.671 235.404 281.673L235.677 288.234ZM373.073 220.448C375.815 207.704 372.602 194.599 363.443 182.655L381.337 192.985C384.182 199.682 385.468 206.55 385.197 213.403L373.073 220.448ZM358.808 177.25C353.317 171.481 346.344 166.06 337.885 161.179C327.943 155.441 316.719 150.892 304.746 147.535L305.421 147.143C306.769 146.358 308.552 145.967 310.332 145.967C312.115 145.967 313.903 146.358 315.261 147.143L327.332 154.109C329.787 152.679 333.013 151.968 336.243 151.968C336.53 151.968 336.816 151.976 337.103 151.986C340.087 153.431 342.988 154.965 345.797 156.586C346.82 157.177 347.822 157.775 348.805 158.379C348.925 158.921 348.938 159.466 348.848 160.005C349.145 161.785 348.316 163.608 346.372 165.099L357.309 171.412C358.647 172.182 359.325 173.194 359.348 174.212H359.356V175.79L359.345 175.8C359.32 176.291 359.143 176.784 358.808 177.25ZM300.715 146.453C284.949 142.436 268.016 140.426 251.101 140.426C241.849 140.426 232.595 141.027 223.541 142.229L237.105 134.351C241.747 134.072 246.402 133.931 251.068 133.931C261.726 133.931 272.397 134.66 282.818 136.128L300.715 146.453Z" fill="url(#paint10_radial_238:301)"/>
<path d="M240.941 297.209C205.388 295.708 172.272 286.974 146.732 272.232C118.962 256.205 103.423 234.961 102.868 212.329L105.561 210.767C105.418 232.617 119.772 254.512 148.594 271.151C174.991 286.383 208.966 294.581 243.486 295.731L240.941 297.209ZM397.165 206.41C396.999 204.837 396.756 203.27 396.439 201.702L396.623 201.807C398.789 203.057 398.974 205.042 397.165 206.41ZM267.717 127.408C262.171 127.043 256.598 126.858 251.027 126.858C250.687 126.858 250.339 126.858 249.993 126.861L252.687 125.296C256.705 125.319 260.7 125.439 264.665 125.644L267.717 127.408Z" fill="url(#paint11_radial_238:301)"/>
<path d="M71.7162 227.832V230.32L75.9749 233.072L78.7195 228.357L76.6502 226.661L71.7162 227.832Z" fill="#005468"/>
<path d="M393.594 199.263V201.779L381.642 209.33L383.87 201.211L393.594 199.263Z" fill="#005468"/>
<path d="M391.863 199.347L351.807 176.229L344.707 180.354L381.936 201.84L209.05 302.28L83.9118 230.057L256.797 129.618L294.029 151.104L301.129 146.982L261.074 123.864C258.774 122.535 255.025 122.535 252.738 123.864L73.4171 228.037C71.1278 229.364 71.1432 231.535 73.4452 232.862L204.234 308.353C206.534 309.68 210.283 309.682 212.57 308.353L391.891 204.178C394.175 202.85 394.16 200.674 391.863 199.347Z" fill="#005468"/>
<path d="M391.894 201.674L212.57 305.85C210.286 307.179 206.534 307.177 204.234 305.85L73.4452 230.364C71.1432 229.034 71.1304 226.863 73.4171 225.536L252.738 121.358C255.022 120.029 258.774 120.029 261.069 121.358L301.127 144.476L294.026 148.601L288.461 151.833C288.289 151.933 288.294 152.091 288.461 152.191L338.522 181.085C338.693 181.185 338.972 181.185 339.139 181.085L344.707 177.853L351.805 173.724L391.86 196.847C394.16 198.176 394.175 200.347 391.894 201.674Z" fill="#006683"/>
<path d="M381.642 199.306L258.455 128.204L88.2627 227.076L211.45 298.178L381.642 199.306Z" fill="white"/>
<path d="M353.488 168.551L341.704 161.749C336.906 164.539 329.107 164.539 324.28 161.749C319.454 158.964 319.428 154.446 324.221 151.662L312.437 144.862C309.788 143.331 305.467 143.331 302.833 144.862L301.124 145.855L294.024 149.979L288.458 153.211C288.287 153.311 288.292 153.469 288.458 153.569L338.522 182.463C338.688 182.563 338.97 182.563 339.136 182.463L344.702 179.231L351.802 175.107L353.513 174.112C356.15 172.586 356.138 170.082 353.488 168.551Z" fill="#DEA636"/>
<path d="M341.648 151.662C336.821 148.877 329.02 148.877 324.224 151.662C319.428 154.446 319.456 158.964 324.283 161.749C329.109 164.539 336.908 164.539 341.707 161.749C346.5 158.964 346.477 154.446 341.648 151.662Z" fill="#DEA636"/>
<path d="M341.648 150.283C336.821 147.499 329.02 147.499 324.224 150.283C319.428 153.068 319.456 157.586 324.283 160.371C329.109 163.155 336.908 163.155 341.707 160.371C346.5 157.586 346.477 153.071 341.648 150.283Z" fill="#FDBD40"/>
<path d="M288.335 153.377V152.035L290.108 151.925L289.742 153.523L289.22 153.697L288.335 153.377Z" fill="#DEA636"/>
<path d="M355.483 171.45V169.908L354.109 170.054L353.263 172.107L353.038 173.67L355.483 171.45Z" fill="#DEA636"/>
<path d="M353.488 167.175L341.704 160.373C336.906 163.158 329.107 163.158 324.28 160.373C319.454 157.589 319.428 153.07 324.221 150.286L312.437 143.484C309.788 141.958 305.467 141.958 302.833 143.484L301.124 144.479L294.024 148.603L288.458 151.835C288.287 151.935 288.292 152.094 288.458 152.193L338.522 181.088C338.688 181.187 338.97 181.187 339.136 181.088L344.702 177.853L351.802 173.731L353.513 172.736C356.15 171.207 356.138 168.701 353.488 167.175Z" fill="#FDBD40"/>
<path d="M269.809 162.127C268.837 161.565 267.699 161.309 266.399 161.353C265.1 161.396 263.923 161.723 262.87 162.337L261.348 163.219C260.294 163.833 259.731 164.516 259.659 165.265C259.588 166.019 260.038 166.674 261.01 167.236C261.969 167.789 263.013 168.075 264.138 168.098C265.261 168.118 266.218 167.893 267.006 167.415L267.026 167.387L265.911 166.743C265.299 167.098 264.645 167.272 263.944 167.267C263.24 167.267 262.57 167.075 261.921 166.704C261.268 166.329 261.013 165.879 261.146 165.354C261.279 164.83 261.736 164.339 262.517 163.889L264.044 162.999C264.814 162.549 265.658 162.286 266.56 162.209C267.469 162.13 268.246 162.278 268.896 162.652C269.543 163.022 269.868 163.416 269.875 163.82C269.883 164.229 269.586 164.605 268.985 164.953L270.103 165.597L270.152 165.587C271.014 165.104 271.418 164.544 271.356 163.912C271.3 163.288 270.783 162.69 269.809 162.127Z" fill="#979797"/>
<path d="M277.541 166.592C276.536 166.012 275.372 165.743 274.05 165.781C272.73 165.822 271.546 166.142 270.507 166.751L268.985 167.633C267.942 168.239 267.389 168.924 267.328 169.689C267.269 170.453 267.74 171.123 268.742 171.703C269.783 172.304 270.975 172.591 272.313 172.565C273.656 172.545 274.85 172.228 275.894 171.622L277.416 170.739C278.462 170.128 279.004 169.438 279.043 168.661C279.083 167.881 278.582 167.19 277.541 166.592ZM269.686 171.154C269.011 170.762 268.722 170.305 268.816 169.781C268.911 169.256 269.359 168.765 270.149 168.305L271.681 167.415C272.466 166.963 273.308 166.702 274.216 166.646C275.119 166.587 275.912 166.756 276.59 167.147C277.306 167.559 277.626 168.037 277.551 168.571C277.477 169.111 277.047 169.604 276.265 170.057L274.73 170.949C273.935 171.409 273.075 171.663 272.154 171.709C271.231 171.752 270.41 171.568 269.686 171.154Z" fill="#979797"/>
<path d="M289.182 173.45L288.015 172.777L281.426 176.605L281.378 176.592L283.836 170.364L282.669 169.691L274.119 174.659L275.282 175.332L281.884 171.499L281.933 171.512L279.465 177.743L280.628 178.416L289.182 173.45Z" fill="#979797"/>
<path d="M296.963 177.945L290.271 174.081L289.363 174.611L292.123 176.206L284.483 180.645L285.647 181.318L293.287 176.879L296.057 178.474L296.963 177.945Z" fill="#979797"/>
<path d="M301.339 180.477L298.221 178.676L289.678 183.64L290.842 184.312L294.548 182.162L296.709 183.409C297.167 183.675 297.392 183.964 297.382 184.286C297.372 184.606 297.137 184.9 296.674 185.169L295.893 185.621C295.62 185.782 295.374 185.949 295.164 186.125C294.947 186.299 294.85 186.47 294.868 186.636L296.073 187.329L296.213 187.248C296.2 187.084 296.272 186.928 296.425 186.769C296.576 186.613 296.784 186.455 297.05 186.301L297.855 185.831C298.359 185.537 298.681 185.235 298.817 184.913C298.953 184.596 298.858 184.256 298.541 183.893C299.175 184.036 299.769 184.079 300.324 184.023C300.879 183.969 301.375 183.816 301.815 183.56C302.605 183.1 302.961 182.609 302.879 182.08C302.792 181.556 302.28 181.019 301.339 180.477ZM295.456 181.632L298.477 179.876L300.428 181.003C301.022 181.343 301.331 181.676 301.349 181.993C301.367 182.307 301.134 182.607 300.654 182.883C300.145 183.179 299.623 183.315 299.086 183.292C298.546 183.269 297.95 183.067 297.293 182.688L295.456 181.632Z" fill="#979797"/>
<path d="M309.629 185.253L308.629 184.678L296.753 187.726L297.94 188.411L300.958 187.603L304.562 189.682L303.163 191.428L304.35 192.113L309.629 185.253ZM302.288 187.248L307.629 185.818L307.662 185.836L305.186 188.917L302.288 187.248Z" fill="#979797"/>
<path d="M317.144 189.447C316.172 188.884 315.034 188.628 313.734 188.672C312.435 188.715 311.258 189.048 310.204 189.656L308.683 190.538C307.631 191.152 307.069 191.835 306.994 192.584C306.923 193.338 307.373 193.996 308.345 194.556C309.304 195.108 310.348 195.394 311.473 195.417C312.596 195.438 313.553 195.213 314.34 194.735L314.361 194.706L313.246 194.062C312.634 194.417 311.98 194.594 311.279 194.591C310.575 194.589 309.905 194.4 309.256 194.026C308.606 193.653 308.348 193.2 308.481 192.676C308.616 192.152 309.074 191.661 309.852 191.211L311.384 190.321C312.154 189.874 312.992 189.608 313.898 189.531C314.806 189.452 315.586 189.6 316.233 189.973C316.88 190.347 317.205 190.738 317.213 191.142C317.221 191.551 316.924 191.927 316.325 192.275L317.441 192.922L317.489 192.909C318.351 192.426 318.758 191.866 318.696 191.234C318.632 190.608 318.118 190.009 317.144 189.447Z" fill="#979797"/>
<path d="M327.408 195.517L320.72 191.653L319.809 192.185L322.571 193.778L314.929 198.217L316.095 198.89L323.735 194.451L326.5 196.046L327.408 195.517Z" fill="#979797"/>
<path d="M309.593 216.295L226.776 168.499C225.334 167.668 222.988 167.668 221.556 168.499C220.123 169.328 220.134 170.688 221.574 171.519L304.388 219.318C305.828 220.149 308.176 220.149 309.609 219.318C311.038 218.489 311.031 217.129 309.593 216.295Z" fill="#E1E1E1"/>
<path d="M299.684 222.051L216.87 174.253C215.43 173.422 213.084 173.422 211.652 174.253C210.219 175.084 210.23 176.444 211.67 177.278L294.484 225.073C295.924 225.905 298.272 225.905 299.702 225.076C301.134 224.242 301.127 222.882 299.684 222.051Z" fill="#E1E1E1"/>
<path d="M289.785 227.802L206.968 180.006C205.528 179.175 203.18 179.175 201.748 180.006C200.316 180.837 200.326 182.197 201.766 183.026L284.58 230.824C286.02 231.655 288.368 231.655 289.801 230.824C291.231 229.996 291.223 228.635 289.785 227.802Z" fill="#E1E1E1"/>
<path d="M258.409 221.164L197.065 185.759C195.622 184.931 193.271 184.931 191.844 185.759C190.414 186.59 190.422 187.951 191.862 188.784L253.206 224.191C254.649 225.022 256.999 225.022 258.427 224.191C259.854 223.358 259.849 221.997 258.409 221.164Z" fill="#E1E1E1"/>
<path d="M265.087 242.152L182.27 194.354C180.828 193.525 178.477 193.525 177.05 194.354C175.617 195.185 175.628 196.545 177.068 197.378L259.882 245.177C261.322 246.008 263.67 246.008 265.103 245.177C266.532 244.346 266.525 242.985 265.087 242.152Z" fill="#E1E1E1"/>
<path d="M255.178 247.907L172.364 200.109C170.924 199.278 168.576 199.278 167.146 200.109C165.713 200.94 165.724 202.301 167.164 203.134L249.978 250.93C251.418 251.761 253.766 251.761 255.196 250.93C256.628 250.099 256.621 248.739 255.178 247.907Z" fill="#E1E1E1"/>
<path d="M223.807 241.27L162.46 205.863C161.02 205.032 158.674 205.032 157.242 205.863C155.81 206.694 155.817 208.054 157.26 208.882L218.604 244.289C220.044 245.12 222.392 245.12 223.825 244.289C225.252 243.458 225.247 242.101 223.807 241.27Z" fill="#E1E1E1"/>
<path d="M168.161 229.19L144.816 215.717C143.565 214.994 141.522 214.994 140.281 215.717C139.035 216.441 139.043 217.62 140.294 218.343L163.642 231.821C164.892 232.545 166.936 232.545 168.177 231.821C169.425 231.095 169.417 229.914 168.161 229.19Z" fill="#E1E1E1"/>
<path d="M160.769 233.489L137.421 220.01C136.171 219.287 134.127 219.287 132.886 220.01C131.641 220.734 131.648 221.915 132.899 222.639L156.247 236.112C157.498 236.836 159.541 236.836 160.782 236.112C162.028 235.391 162.02 234.212 160.769 233.489Z" fill="#E1E1E1"/>
<path d="M228.318 263.912L214.23 255.781C211.91 255.931 209.649 256.415 207.682 257.236L218.525 263.495L227.682 266.829C227.914 266.75 228.134 266.653 228.334 266.535C229.577 265.814 229.569 264.633 228.318 263.912ZM212.928 255.026L209.654 253.137C207.559 253.538 205.569 254.152 203.771 254.978L206.623 256.624C208.524 255.804 210.687 255.272 212.928 255.026ZM208.488 252.467L204.971 250.434C203.72 249.715 201.679 249.715 200.436 250.434C199.195 251.158 199.2 252.339 200.448 253.063L202.712 254.369C204.485 253.541 206.436 252.907 208.488 252.467ZM225.523 267.052L223.264 266.231L223.796 266.538C224.285 266.819 224.891 266.991 225.523 267.052Z" fill="#E1E1E1"/>
<path d="M220.921 268.208L207.633 260.539L199.61 257.614C198.763 258.363 198.093 259.156 197.584 259.974L197.832 260.117L221.586 268.768C221.43 268.566 221.208 268.374 220.921 268.208ZM202.894 257.801L200.86 256.627C200.727 256.722 200.594 256.819 200.464 256.916L202.894 257.801ZM199.807 256.021L197.574 254.732C196.325 254.009 194.282 254.009 193.039 254.732C191.793 255.456 191.803 256.635 193.056 257.358L196.435 259.312C197.228 258.138 198.354 257.028 199.807 256.021ZM221.811 269.86L202.577 262.856L216.399 270.834C217.655 271.557 219.694 271.557 220.934 270.834C221.41 270.56 221.701 270.218 221.811 269.86Z" fill="#E1E1E1"/>
<path d="M314.241 203.167L253.219 167.947L252.101 168.594L313.123 203.817L314.241 203.167Z" fill="#979797"/>
<path d="M230.557 255.241C224.584 251.797 215.898 250.871 208.488 252.467C206.439 252.907 204.485 253.541 202.715 254.369C202.134 254.638 201.577 254.932 201.039 255.246C200.607 255.494 200.198 255.755 199.809 256.024C198.356 257.028 197.231 258.141 196.435 259.314C193.476 263.661 195.046 268.824 201.134 272.337C209.299 277.05 222.54 277.05 230.651 272.337C238.762 267.625 238.721 259.956 230.557 255.241ZM209.654 253.137C216.394 251.84 224.139 252.745 229.513 255.847C235.59 259.355 236.826 264.625 233.199 268.834L233.196 268.837L233.946 269.11L234.005 269.144L233.48 269.448L233.094 269.808L232.488 269.586C231.708 270.34 230.761 271.049 229.646 271.701L230.145 271.882L229.357 272.608L228.531 272.309C220.942 276.096 209.411 275.907 202.178 271.729C197.09 268.791 195.394 264.618 197.113 260.867L196.274 260.56L197.062 259.836L197.561 260.018L197.584 259.974C198.093 259.156 198.763 258.366 199.61 257.614L199.006 257.397L199.791 256.673L200.466 256.919C200.597 256.819 200.73 256.724 200.863 256.63C201.249 256.361 201.653 256.1 202.091 255.85C202.625 255.54 203.188 255.246 203.771 254.98C205.567 254.154 207.559 253.541 209.654 253.137Z" fill="#979797"/>
<path d="M224.95 271.003L223.589 270.509C218.136 272.616 210.762 272.225 206.03 269.494C202.899 267.686 201.449 265.17 202.052 262.664L200.684 262.171C199.781 265.065 201.367 268.008 204.989 270.097C210.381 273.209 218.867 273.577 224.95 271.003Z" fill="#979797"/>
<path d="M226.704 257.481C222.957 255.315 217.76 254.497 212.926 255.026C210.685 255.272 208.523 255.804 206.62 256.624C206.025 256.88 205.454 257.167 204.914 257.481C204.546 257.696 204.196 257.921 203.863 258.156L205.129 258.616C205.393 258.432 205.672 258.256 205.961 258.084C206.503 257.77 207.078 257.489 207.679 257.236C209.646 256.415 211.907 255.929 214.227 255.781C218.297 255.515 222.535 256.282 225.658 258.084C229.833 260.496 230.94 264.078 228.533 267.139L229.799 267.599C232.572 264.193 231.367 260.171 226.704 257.481Z" fill="#979797"/>
<path d="M230.142 271.882L229.643 271.701L225.369 270.146L224.858 269.959L221.584 268.765L197.829 260.115L197.556 260.015L197.057 259.833L196.269 260.557L197.108 260.864L200.679 262.166L202.047 262.659L202.571 262.853L221.806 269.857L223.584 270.504L224.945 270.997L228.526 272.304L229.352 272.603L230.142 271.882Z" fill="#979797"/>
<path d="M234.005 269.144L233.946 269.11L233.196 268.837L229.802 267.599L228.536 267.139L227.679 266.829L218.522 263.495L205.129 258.616L203.863 258.156L202.891 257.801L200.464 256.918L199.789 256.673L199.003 257.397L199.607 257.614L207.631 260.539L223.262 266.229L225.52 267.049L232.485 269.586L233.091 269.808L233.478 269.448L234.005 269.144Z" fill="#979797"/>
<path d="M414.725 172.161C412.287 172.161 409.842 171.627 407.982 170.553L315.88 117.395C312.166 115.255 312.146 111.741 315.837 109.599L316.949 108.954C318.794 107.88 321.234 107.346 323.674 107.346C326.112 107.346 328.557 107.88 330.416 108.954L422.518 162.112C426.232 164.257 426.253 167.766 422.562 169.908L421.449 170.553C419.605 171.627 417.167 172.161 414.725 172.161Z" fill="url(#paint12_radial_238:301)"/>
<path d="M400.206 151.48L419.607 142.027V121.284L402.529 128.283L398.129 146.282L400.206 151.48Z" fill="#00546C"/>
<path d="M327.892 10.1641L341.43 3.3855L358.054 8.162L349.094 16.5695L334.962 19.7095L327.892 10.1641Z" fill="#5F83C2"/>
<path d="M380.864 7.7452C349.672 -10.2587 324.303 4.19351 324.201 40.0249C324.099 75.8564 349.306 119.499 380.496 137.501C411.689 155.505 437.057 141.053 437.159 105.221C437.262 69.3897 412.054 25.7466 380.864 7.7452Z" fill="#00546C"/>
<path d="M364.325 15.9072C333.13 -2.09675 307.764 12.3555 307.662 48.1869C307.56 84.0184 332.762 127.661 363.957 145.663C395.15 163.667 420.518 149.215 420.62 113.383C420.72 77.5517 395.518 33.9086 364.325 15.9072ZM363.998 130.51C340.09 116.712 320.773 83.2641 320.853 55.8017C320.932 28.3419 340.374 17.265 364.282 31.0626C388.19 44.8603 407.506 78.3086 407.427 105.768C407.348 133.231 387.906 144.308 363.998 130.51Z" fill="#006683"/>
<path d="M364.282 31.0626C340.374 17.265 320.932 28.342 320.853 55.8017C320.773 83.2641 340.09 116.712 363.998 130.51C387.906 144.308 407.348 133.231 407.427 105.768C407.506 78.3086 388.19 44.8603 364.282 31.0626ZM360.813 73.9923L348.723 42.7763C348.334 41.7765 348.569 40.9122 349.244 40.8534C349.47 40.833 349.713 40.9046 349.95 41.0401C350.442 41.3239 350.92 41.8916 351.178 42.5641L363.269 73.7673C363.635 73.8798 364.013 74.046 364.402 74.271C366.789 75.6493 368.771 78.7509 369.201 81.5943L390.377 99.7005C391.484 100.649 392.167 102.337 391.899 103.454C391.666 104.413 390.812 104.651 389.875 104.111C389.714 104.019 389.556 103.907 389.392 103.766L368.19 85.6344C367.287 86.3887 365.911 86.4117 364.374 85.5219C361.67 83.9596 359.483 80.1752 359.491 77.0659C359.494 75.5879 359.995 74.5293 360.813 73.9923Z" fill="white"/>
<path d="M364.402 74.2736C364.013 74.0486 363.635 73.8824 363.269 73.7699L365.297 79.0143C365.43 79.3544 365.489 79.6792 365.484 79.963C365.87 79.5666 366.505 79.5513 367.175 79.94C367.336 80.032 367.494 80.1445 367.656 80.2852L369.198 81.602C368.771 78.7535 366.788 75.6493 364.402 74.2736ZM360.813 73.9924C359.995 74.5268 359.494 75.5879 359.486 77.071C359.478 80.1803 361.665 83.9647 364.369 85.5271C365.906 86.4169 367.282 86.3939 368.185 85.6396L366.671 84.3483C365.637 83.461 364.972 81.9268 365.113 80.817C365.018 80.8861 364.906 80.927 364.773 80.9372C364.55 80.9577 364.31 80.8861 364.07 80.7454C363.578 80.4616 363.1 79.8965 362.839 79.224L360.813 73.9924Z" fill="#006683"/>
<path d="M349.95 41.0426C349.713 40.9071 349.47 40.8355 349.244 40.856C348.569 40.9148 348.334 41.7791 348.723 42.7789L360.813 73.9949L362.839 79.224C363.103 79.8965 363.578 80.4616 364.07 80.7454C364.307 80.886 364.55 80.9576 364.773 80.9372C364.906 80.9269 365.019 80.886 365.113 80.817C365.123 80.7428 365.136 80.6661 365.154 80.592C365.218 80.326 365.331 80.1138 365.484 79.9604C365.487 79.6766 365.43 79.3544 365.297 79.0117L363.269 73.7673L351.178 42.5641C350.92 41.8941 350.442 41.3239 349.95 41.0426Z" fill="#006683"/>
<path d="M367.177 79.9348C366.505 79.5462 365.87 79.5641 365.487 79.9578C365.333 80.1113 365.221 80.3235 365.157 80.5894C365.139 80.6636 365.126 80.7403 365.116 80.8144C364.975 81.9267 365.64 83.4609 366.673 84.3457L368.188 85.637L389.389 103.769C389.553 103.909 389.714 104.022 389.873 104.114C390.806 104.653 391.663 104.413 391.896 103.457C392.165 102.339 391.484 100.652 390.374 99.7031L369.198 81.5969L367.656 80.28C367.5 80.1394 367.338 80.0269 367.177 79.9348Z" fill="#006683"/>
<path d="M45.9564 244.688C40.7 244.688 36.4387 243.164 36.4387 241.29C36.4387 239.416 40.7026 237.894 45.9564 237.894C51.2152 237.894 55.4791 239.416 55.4791 241.29C55.4791 243.164 51.2152 244.688 45.9564 244.688Z" fill="url(#paint13_radial_238:301)"/>
<path d="M46.2454 185.087C47.4527 185.343 48.6395 185.373 48.7188 187.071C48.793 188.769 48.5654 192.372 46.89 191.497C45.2146 190.625 43.772 189.564 43.6978 187.634C43.6211 185.708 45.0253 184.831 46.2454 185.087Z" fill="#FAC2B0"/>
<path d="M46.3528 193.842L47.3759 190.385L44.2503 189.444L43.4829 193.842H46.3528Z" fill="#FAC2B0"/>
<path d="M42.9458 192.625C42.4623 192.239 40.7972 193.893 40.2831 194.919C39.7715 195.949 37.8148 198.977 38.0347 201.298C38.2522 203.62 42.58 204.916 42.58 204.916L43.8001 202.694L42.9458 192.625Z" fill="#C667A7"/>
<path d="M50.343 241.231C49.389 240.74 48.3096 239.863 48.018 239.209L47.6292 241.165H46.9104L46.4219 238.329C46.4219 238.329 45.542 237.385 46.4219 235.693C46.4219 235.693 46.9104 231.977 46.3221 229.824C45.7364 227.674 44.8898 225.099 45.8336 223.082L45.6392 220.052L48.9618 221.716C48.9311 221.816 48.8083 223.762 48.7751 223.956C48.7444 224.153 48.6037 234.616 48.8032 235.527C48.903 236 49.435 237.16 50.0131 238.206C50.5528 239.175 51.1283 240.047 51.4429 240.188C52.0926 240.482 51.2971 241.72 50.343 241.231Z" fill="#FAC2B0"/>
<path d="M46.028 239.636C44.6365 239.301 43.2246 237.051 43.2246 237.051L42.9176 239.636H42.4189L41.8638 236.248C41.2218 234.857 41.9457 233.857 41.9457 233.857C42.0812 232.525 41.9457 226.858 41.7231 225.135C41.5006 223.409 42.5289 221.824 42.5289 221.824V219.297L45.5573 218.99C45.5573 218.99 45.4473 221.936 45.2811 223.074C45.1174 224.217 44.0405 234.445 44.0405 234.445C44.2861 235.455 45.2043 236.641 46.028 237.557C46.7058 238.314 47.3248 238.884 47.4476 239.019C47.7264 239.329 47.4194 239.968 46.028 239.636Z" fill="#FAC2B0"/>
<path d="M46.028 239.636C44.6365 239.301 43.2246 237.05 43.2246 237.05C43.2246 237.05 42.9662 236.511 41.8638 236.245C41.2218 234.854 41.9457 233.854 41.9457 233.854C41.9457 233.854 42.5826 233.724 42.9509 234.22C43.3167 234.713 44.483 237.299 45.409 237.475C45.6008 237.513 45.8105 237.539 46.0254 237.557C46.7032 238.314 47.3222 238.884 47.445 239.019C47.7264 239.329 47.4194 239.968 46.028 239.636Z" fill="#2C53A4"/>
<path d="M43.2245 237.053L42.9176 239.638H42.4188L41.8638 236.25C42.9662 236.513 43.2245 237.053 43.2245 237.053Z" fill="#234180"/>
<path d="M50.343 241.231C49.3889 240.74 48.3095 239.863 48.0179 239.209L47.6291 241.165H46.9104L46.4218 238.329C46.4218 238.329 45.5419 237.385 46.4218 235.693C46.849 235.782 47.4884 235.977 47.7442 236.47C48.0793 237.114 48.665 238.385 49.4733 238.385C49.66 238.385 49.8442 238.314 50.013 238.204C50.5527 239.173 51.1282 240.045 51.4428 240.185C52.0925 240.482 51.297 241.72 50.343 241.231Z" fill="#2C53A4"/>
<path d="M48.0154 239.211L47.6266 241.167H46.9079L46.4193 238.332C46.4193 238.332 47.4271 238.436 48.0154 239.211Z" fill="#234180"/>
<path d="M40.8534 204.415C40.8534 204.415 39.7766 206.73 40.4339 208.66C41.0964 210.591 42.6516 216.75 42.273 220.044C42.273 220.044 44.5162 222.396 49.018 222.21C49.018 222.21 52.1794 212.347 48.7315 206.998L40.8534 204.415Z" fill="#173660"/>
<path d="M45.0738 192.474C46.1967 192.904 49.504 194.962 50.0027 195.647C50.5015 196.335 49.6012 199.156 49.2661 200.646C48.9361 202.14 48.578 206.382 48.7341 206.995C48.8875 207.612 45.3808 208.11 43.2271 206.545C41.0708 204.983 40.856 204.415 40.856 204.415C40.856 204.415 40.6207 200.623 41.0222 196.765C41.4238 192.904 42.0863 191.339 45.0738 192.474Z" fill="#B0519E"/>
<path d="M50.6934 198.365C50.5221 199.222 49.325 203.449 49.6191 205.157C49.7189 205.719 49.9772 206.586 50.2867 207.527C49.1536 208.082 48.3556 208.246 47.8491 208.281C47.4885 207.404 47.2148 206.423 47.1739 205.379C47.0537 202.155 47.665 198.465 48.1996 197.217C48.7393 195.972 49.3889 195.486 50.0923 195.849C50.7241 196.182 50.8674 197.511 50.6934 198.365Z" fill="#C667A7"/>
<path d="M50.6832 215.84C49.8647 215.863 49.6933 215.254 49.8647 214.129C50.0361 213.007 50.2816 212.833 49.9644 212.03C49.747 211.485 48.6037 210.115 47.8491 208.284C48.3581 208.251 49.1562 208.087 50.2867 207.53C50.9211 209.46 51.7626 211.693 51.7933 212.201C51.847 212.956 51.5042 215.814 50.6832 215.84Z" fill="#FAC2B0"/>
<path d="M49.0079 185.987C49.082 186.578 48.7035 187.846 48.1177 188.577C47.5269 189.306 46.7979 191.993 47.3222 193.06C47.3222 193.06 46.207 191.722 46.0024 190.053C46.0024 190.053 46.2556 193.584 44.7926 193.584C43.3295 193.584 42.0276 192.993 42.314 191.405C42.6005 189.812 43.5392 189.321 43.5392 189.321C43.5392 189.321 41.5672 187.984 42.8537 185.299C44.1429 182.614 48.7393 183.857 49.0079 185.987Z" fill="#52260F"/>
<path d="M457.824 213.746C455.775 213.746 453.872 213.513 452.317 213.119C452.327 212.536 452.33 211.953 452.327 211.368C452.319 210.107 452.279 208.852 452.204 207.601C453.78 207.19 455.724 206.947 457.824 206.947C463.09 206.947 467.359 208.468 467.359 210.345C467.359 212.222 463.09 213.746 457.824 213.746Z" fill="url(#paint14_radial_238:301)"/>
<path d="M452.314 213.119C449.879 212.506 448.291 211.491 448.291 210.345C448.291 209.217 449.833 208.218 452.202 207.601C452.276 208.852 452.317 210.107 452.325 211.368C452.33 211.953 452.324 212.536 452.314 213.119Z" fill="url(#paint15_radial_238:301)"/>
<path d="M452.713 209.082C454.238 209.248 454.363 208.233 455.55 208.445C456.734 208.66 457.412 208.53 457.75 208.023C457.911 207.778 457.783 206.99 457.594 206.103C457.386 205.134 457.095 204.055 457.031 203.454C456.906 202.311 457.243 199.856 457.202 198.675C457.159 197.491 456.397 195.42 456.397 195.42L456.693 189.582C456.693 189.582 457.453 194.867 457.663 196.069C457.875 197.268 459.74 206.29 460.036 207.604C460.059 207.716 460.075 207.829 460.08 207.939C460.108 209.102 458.934 210.089 458.046 211.324C457.074 212.682 458.259 213.145 458.259 213.145C460.417 213.526 460.926 212.043 461.246 211.496C461.563 210.946 462.702 210.524 463.336 209.931C463.973 209.338 463.592 208.491 463.336 207.223C463.326 207.162 463.313 207.098 463.303 207.021C463.06 205.515 462.835 201.099 462.957 199.646C463.083 198.125 461.768 195.42 461.768 195.42C461.768 195.42 462.024 195.039 462.259 190.001C462.492 184.967 461.246 180.407 461.246 180.407C454.793 182.535 452.322 179.551 452.322 179.551C452.322 179.551 452.12 179.467 451.445 182.56C450.769 185.66 453.478 195.796 453.478 195.796C453.816 197.782 454.703 206.118 454.703 206.118C454.696 206.187 454.673 206.251 454.642 206.315C454.143 207.254 451.125 208.085 450.772 208.404C450.388 208.739 451.189 208.911 452.713 209.082Z" fill="#17134B"/>
<path d="M452.713 209.082C454.238 209.248 454.363 208.233 455.55 208.445C456.734 208.66 457.412 208.53 457.75 208.023C457.911 207.778 457.783 206.99 457.594 206.103C456.967 206.32 455.934 206.543 454.639 206.318C454.141 207.256 451.122 208.087 450.769 208.407C450.388 208.742 451.189 208.911 452.713 209.082Z" fill="#802A19"/>
<path d="M458.259 213.142C460.417 213.523 460.926 212.04 461.246 211.493C461.563 210.943 462.702 210.521 463.336 209.928C463.973 209.335 463.592 208.489 463.336 207.22C463.326 207.159 463.313 207.095 463.303 207.018C462.973 207.578 462.382 208.195 461.389 208.228C460.857 208.246 460.425 208.123 460.08 207.934C460.108 209.097 458.934 210.084 458.046 211.319C457.077 212.68 458.259 213.142 458.259 213.142Z" fill="#802A19"/>
<path d="M448.094 174.043C449.056 174.603 449.872 174.844 450.437 174.951C451.452 172.946 453.343 169.113 453.652 167.743C454.079 165.853 453.849 164.585 451.931 164.329C451.931 164.329 450.918 165.15 450.373 166.556C449.941 167.669 448.621 172.2 448.094 174.043Z" fill="#F79A4B"/>
<path d="M439.208 182.56C439.323 182.819 440.814 184.164 442.267 183.366C443.723 182.566 448.808 178.423 449.79 176.209C449.79 176.209 450.048 175.71 450.434 174.951C449.869 174.846 449.053 174.603 448.091 174.043C447.948 174.526 447.864 174.828 447.864 174.828C447.864 174.828 446.485 175.736 445.794 176.679C445.104 177.623 444.267 179.479 443.359 179.697C442.451 179.911 440.707 179.259 440.487 179.697C440.27 180.129 441.725 180.604 441.725 180.604C441.725 180.604 439.093 182.305 439.208 182.56Z" fill="#FAC2B0"/>
<path d="M457.43 163.048C456.049 162.598 452.189 163.938 451.928 164.329C451.667 164.72 450.938 166.715 451.194 169.126C451.452 171.537 452.071 173.389 452 175.628C451.928 177.866 451.7 180.06 451.7 180.06C451.7 180.06 452.941 182.279 456.819 182.052C460.052 181.86 461.246 180.405 461.246 180.405C461.246 180.405 461.116 174.25 461.747 171.064C462.379 167.881 462.957 167.024 461.952 166.121C460.952 165.216 459.614 163.761 457.43 163.048Z" fill="#F6923C"/>
<path d="M459.312 170.3C459.632 172.018 461.625 175.189 461.847 176.119C463.032 175.703 464.272 175.585 465.226 175.57C465.029 172.176 462.883 166.618 462.321 166.559C461.231 166.451 458.98 168.51 459.312 170.3Z" fill="#F79A4B"/>
<path d="M459.648 183.294C459.648 183.294 459.791 184.44 461.295 184.754C461.295 184.754 465.357 179.139 465.236 175.774C465.236 175.705 465.229 175.641 465.226 175.572C464.272 175.585 463.029 175.705 461.847 176.122C461.858 176.16 461.865 176.196 461.868 176.227L459.648 183.294Z" fill="#FAC2B0"/>
<path d="M459.036 156.287C458.65 155.492 457.062 155.507 456.194 155.778C455.332 156.055 454.412 156.124 453.78 155.986C453.148 155.845 452.544 156.678 452.954 157.553C453.366 158.433 453.834 158.906 454.614 158.711C455.399 158.52 455.946 162.181 457.005 162.181C458.059 162.181 459.584 161.631 459.584 159.685C459.586 157.745 459.228 156.686 459.036 156.287Z" fill="#3A3A3A"/>
<path d="M456.179 157.31C454.611 157.31 453.877 157.76 453.716 158.944C453.555 160.128 453.621 163.483 454.675 164.314C454.675 164.314 457.583 164.695 458.095 161.948C458.607 159.2 458.415 157.438 456.018 157.264L456.179 157.31Z" fill="#FAC2B0"/>
<path d="M457.824 160.731C457.824 160.731 457.417 160.772 457.351 159.956C457.282 159.141 456.939 158.716 455.87 158.87C454.798 159.021 454.059 158.939 453.524 158.402C452.99 157.867 453.383 156.768 455.018 156.701C456.652 156.632 458.271 156.893 458.653 158.348C459.039 159.801 459.029 160.427 458.507 160.731C457.98 161.033 457.824 160.731 457.824 160.731Z" fill="#3A3A3A"/>
<path d="M458.177 161.47L458.589 163.534C458.589 163.534 458.302 165.326 456.463 165.326C456.463 165.326 455.458 165.183 455.458 164.48L455.159 162.526L458.177 161.47Z" fill="#FAC2B0"/>
<path d="M457.824 160.731C457.824 160.731 458.601 159.558 459.064 160.105C459.527 160.65 458.566 161.575 457.888 161.493L457.824 160.731Z" fill="#FAC2B0"/>
<path d="M310.977 335.634C305.71 335.634 301.444 334.11 301.444 332.23C301.444 330.351 305.71 328.832 310.977 328.832C316.243 328.832 320.51 330.353 320.51 332.23C320.51 334.107 316.243 335.634 310.977 335.634Z" fill="url(#paint16_radial_238:301)"/>
<path d="M320.106 296.401C320.605 297.22 319.717 301.804 319.638 302.201C320.295 302.5 321.068 302.643 321.666 302.715C321.758 302.103 322.584 296.57 322.605 295.65C322.628 294.675 319.228 289.38 318.847 288.886C318.461 288.388 317.845 288.388 317.407 288.886C316.914 289.449 316.325 290.709 316.571 291.361C316.824 292.013 319.592 295.547 320.106 296.401Z" fill="#4F87C6"/>
<path d="M318.691 304.635C319.006 304.791 319.548 303.847 319.548 303.847C319.548 303.847 319.548 305.895 320.009 306.141C320.469 306.389 321.459 306.276 321.981 305.985C322.495 305.691 321.663 302.771 321.663 302.771C321.663 302.771 321.663 302.75 321.671 302.717C321.07 302.645 320.3 302.502 319.643 302.203L319.64 302.231C319.072 302.86 318.374 304.479 318.691 304.635Z" fill="#FAC2B0"/>
<path d="M313.087 279.124C312.021 279.515 310.256 279.218 311.248 283.954C311.248 283.954 311.68 285.976 312.148 286.051C312.616 286.125 313.816 285.787 314.509 284.795C315.202 283.805 313.087 279.124 313.087 279.124Z" fill="#FAC2B0"/>
<path d="M313.716 287.848C313.716 287.848 313.42 285.933 312.652 285.537L315.791 284.378L316.187 287.178L313.716 287.848Z" fill="#FAC2B0"/>
<path d="M315.233 286.956C314.069 287.148 311.721 287.991 310.708 288.899C309.693 289.809 309.059 291.648 309.46 293.571C309.862 295.496 310.135 297.48 309.713 298.774C309.291 300.063 308.867 301.73 308.867 301.73C308.867 301.73 314.282 303.676 317.348 301.014C317.348 301.014 316.776 298.056 317.348 296.003C317.919 293.954 319.333 291.185 318.679 288.861C318.024 286.531 315.233 286.956 315.233 286.956Z" fill="#3C77BB"/>
<path d="M300.94 298.974C301.398 300.188 301.932 300.631 301.932 300.631C301.932 300.631 306.795 298.455 307.918 297.48C309.036 296.509 311.212 292.704 311.742 291.924C312.274 291.139 311.957 289.848 311.596 289.533C310.862 288.897 310.678 288.705 309.69 290.114C308.7 291.523 307.306 294.798 306.143 295.604C304.979 296.404 301.024 298.961 301.024 298.961C301.024 298.961 300.991 298.966 300.94 298.974Z" fill="#4F87C6"/>
<path d="M298.927 302.236C299.121 302.745 300.556 303.528 300.664 303.188C300.769 302.85 300.324 302.321 300.324 302.321C300.324 302.321 301.682 301.515 301.932 300.631C301.932 300.631 301.398 300.188 300.94 298.974C300.585 299.038 299.188 299.311 298.927 299.825C298.635 300.418 298.74 301.73 298.927 302.236Z" fill="#FAC2B0"/>
<path d="M306.089 326.735C307.051 327.249 307.902 327.397 308.514 327.413C308.588 326.285 308.626 325.078 308.864 324.488C309.332 323.345 310.583 322.158 311.176 320.721C311.772 319.281 310.959 316.159 310.959 316.159C310.959 316.159 314.752 310.902 316.732 307.333C318.717 303.763 317.343 301.012 317.343 301.012L311.77 301.505C311.77 301.505 308.447 314.075 308.25 315.198C308.053 316.323 306.764 325.232 306.12 326.671L306.089 326.735Z" fill="#67481C"/>
<path d="M301.505 328.354C301.904 329.246 304.135 328.95 304.831 329.568C305.526 330.182 307.309 330.537 308.005 329.811C308.202 329.607 308.319 329.18 308.394 328.648C306.409 328.835 305.577 327.945 305.276 327.464C304.406 327.804 303.211 327.484 302.646 327.413C301.853 327.316 301.111 327.464 301.505 328.354Z" fill="#4C3718"/>
<path d="M305.278 327.464C305.577 327.945 306.411 328.835 308.396 328.648C308.45 328.277 308.486 327.85 308.516 327.413C307.905 327.395 307.053 327.249 306.091 326.735C305.902 327.111 305.616 327.336 305.278 327.464Z" fill="#FAC2B0"/>
<path d="M315.563 334.92C315.52 335.393 317.701 335.994 318.612 335.35C319.523 334.705 322.661 330.939 322.144 330.029C321.63 329.116 320.896 328.985 320.896 328.985C320.351 330.448 319.047 331.213 318.228 331.56C317.975 332.708 317.53 333.818 317.154 334.064C316.423 334.537 315.609 334.447 315.563 334.92Z" fill="#4C3718"/>
<path d="M311.775 316.77C315.479 323.91 317.586 327.952 318.231 328.901C318.272 328.96 318.305 329.031 318.333 329.113C319.236 328.313 320.124 327.776 320.124 327.776C320.124 327.776 319.006 321.457 317.241 318.918C315.479 316.382 314.65 315.911 314.65 315.911C314.65 315.911 316.254 306.402 315.694 303.824C315.131 301.239 314.65 301.285 314.65 301.285L308.867 301.733C308.867 301.73 308.076 309.626 311.775 316.77Z" fill="#805A24"/>
<path d="M318.231 331.56C319.049 331.213 320.351 330.448 320.899 328.985L320.124 327.776C320.124 327.776 319.236 328.31 318.333 329.113C318.525 329.65 318.438 330.619 318.231 331.56Z" fill="#FAC2B0"/>
<path d="M310.691 281.108C311.143 282.527 312.264 282.315 312.233 283.279C312.202 284.243 313.11 285.521 314.757 285.733C314.757 285.733 316.006 292.586 314.76 295.647C314.883 295.542 319.886 290.993 316.745 284.649L316.686 283.903C316.686 283.903 317.881 281.179 316.745 279.308C315.609 277.433 313.566 278.226 313.566 278.226C311.519 279.021 310.238 279.689 310.691 281.108Z" fill="#87574E"/>
<path d="M314.312 285.191L314.755 285.733C315.412 284.731 316.742 284.649 316.742 284.649L316.683 283.903C314.752 284.204 314.312 285.191 314.312 285.191Z" fill="#4F332E"/>
<path d="M119.734 157.745C114.467 157.745 110.201 156.223 110.201 154.347C110.201 152.467 114.467 150.943 119.734 150.943C125.001 150.943 129.27 152.467 129.27 154.347C129.27 156.226 125.001 157.745 119.734 157.745Z" fill="url(#paint17_radial_238:301)"/>
<path d="M126.162 138.168C126.039 139.142 124.819 147.893 124.883 149.174C123.637 150.094 121.893 150.025 121.893 150.025C121.893 150.025 121.709 146.427 121.619 145.238C121.527 144.049 121.131 141.61 121.189 140.659C121.251 139.708 122.307 138.132 122.307 138.132V128.927C122.307 128.927 120.885 136.519 119.665 139.357C118.447 142.19 116.197 154.139 116.197 154.139C116.767 155.748 120.987 157.584 118.624 158.548C116.261 159.512 114.869 157.021 114.214 156.719C113.562 156.42 112.13 155.891 112.979 153.347C113.828 150.8 113.662 145.913 113.866 143.262C114.071 140.605 115.593 138.033 115.593 138.033C115.593 138.033 115.511 136.662 115.593 133.929C115.675 131.195 116.941 122.547 116.941 122.547H127.354C127.354 122.55 126.282 137.189 126.162 138.168Z" fill="#212120"/>
<path d="M118.626 158.548C116.263 159.512 114.872 157.021 114.217 156.719C113.564 156.42 112.132 155.891 112.981 153.347C112.981 153.347 114.035 154.679 116.196 154.137C116.767 155.75 120.99 157.584 118.626 158.548Z" fill="#333333"/>
<path d="M129.001 152.308C128.052 153.165 126.282 152.339 125.095 152.158C123.906 151.974 123.052 152.188 122.115 151.974C121.182 151.761 121.893 150.023 121.893 150.023C121.893 150.023 123.64 150.092 124.883 149.171C124.942 150.452 129.945 151.457 129.001 152.308Z" fill="#333333"/>
<path d="M125.021 123.095L122.31 123.164C122.31 123.164 121.888 108.837 119.008 106.356C119.767 106.032 120.409 105.786 120.668 105.689C121.177 105.495 122.164 105.451 123.187 105.485C126.126 111.089 125.021 123.095 125.021 123.095Z" fill="white"/>
<path d="M116.197 124.105C114.281 122.714 110.025 120.174 110.025 119.213C110.025 117.993 113.859 110.642 114.332 109.64C114.805 108.645 115.854 107.574 117.199 108.272C118.284 108.834 118.785 110.356 118.097 111.66C117.8 112.225 114.012 117.866 114.334 118.587C114.572 119.116 116.67 120.957 117.99 122.036C117.463 122.483 116.695 123.22 116.197 124.105Z" fill="#333333"/>
<path d="M136.943 118.942C136.943 118.942 132.728 116.981 131.776 116.142C130.825 115.296 125.139 109.995 124.297 108.934C123.451 107.873 124.648 106.377 124.648 106.377C125.221 105.835 126.052 105.467 126.479 105.94C126.906 106.413 131.612 112.197 132.781 112.928C133.746 113.534 136.805 116.03 138.409 116.927C137.667 117.635 136.943 118.942 136.943 118.942Z" fill="#333333"/>
<path d="M143.934 119.297C143.962 119.622 142.222 121.632 139.964 120.686C138.769 120.182 137.997 119.725 137.529 119.405C137.767 118.691 138.728 117.607 139.081 117.237C139.125 117.247 139.166 117.257 139.202 117.257C140.207 117.341 142.141 116.17 142.793 116.769C143.445 117.364 141.35 118.157 141.35 118.157C141.35 118.157 143.908 118.97 143.934 119.297Z" fill="#FAC2B0"/>
<path d="M139.081 117.234C138.731 117.605 137.769 118.689 137.529 119.402C137.168 119.154 136.994 118.991 136.953 118.952L136.943 118.942C136.943 118.942 137.667 117.635 138.409 116.93C138.682 117.083 138.91 117.191 139.081 117.234Z" fill="white"/>
<path d="M121.33 128.769C120.304 129.27 116.657 129.932 115.7 129.283C114.741 128.631 116.614 122.228 116.66 121.292C116.703 120.361 116.66 115.505 116.227 114.071C115.795 112.636 114.654 109.491 115.153 108.558C115.491 107.934 117.486 106.996 119.01 106.356C121.888 108.839 122.312 123.164 122.312 123.164C122.312 123.164 122.356 128.267 121.33 128.769Z" fill="#333333"/>
<path d="M127.277 129.244C126.819 129.472 124.975 128.539 124.906 127.989C124.837 127.444 125.018 123.092 125.018 123.092C125.018 123.092 126.123 111.087 123.187 105.479C124.671 105.531 126.223 105.753 126.479 105.94C126.911 106.254 127.914 107.732 127.87 109.806C127.827 111.88 127.85 122.338 127.87 123.524C127.896 124.711 127.735 129.017 127.277 129.244Z" fill="#333333"/>
<path d="M122.422 107.116L123.064 108.047C123.064 108.047 123.146 106.471 122.745 105.38L122.422 107.116Z" fill="#EFEFEF"/>
<path d="M121.921 108.369C121.921 108.369 123.453 114.733 123.146 118.942L124.128 120.936L124.801 118.766C124.801 118.766 123.617 110.307 122.793 108.254L121.921 108.369Z" fill="#ED2A5B"/>
<path d="M123.121 98.7927C124.307 98.9231 125.034 99.3323 125.218 100.222C125.405 101.112 125.108 102.378 124.975 102.84C124.845 103.303 123.827 105.906 123.359 105.942C122.896 105.98 120.351 104.845 120.312 103.211C120.274 101.577 120.312 99.1993 120.796 99.051C121.279 98.9027 123.121 98.7927 123.121 98.7927Z" fill="#FAC2B0"/>
<path d="M120.443 102.549C120.443 102.549 121.627 101.268 121.627 100.353C121.627 100.353 124.556 100.774 125.19 100.097C125.19 100.097 125.118 98.1126 121.555 97.6625C117.995 97.2125 118.529 103.012 119.529 104.15L120.443 102.549Z" fill="#6B461B"/>
<path d="M119.604 102.104L119.437 105.942C119.437 105.942 119.517 107.847 122.366 107.505L122.957 104.06L119.604 102.104Z" fill="#FAC2B0"/>
<path d="M120.77 102.508C120.77 102.508 120.164 100.923 119.468 101.524C118.772 102.125 120.146 103.357 120.583 103.393L120.77 102.508Z" fill="#FAC2B0"/>
<path d="M119.437 105.38L119.008 106.354C119.008 106.354 119.895 107.942 121.361 108.443L121.921 107.167C121.921 107.17 120.161 106.845 119.437 105.38Z" fill="#EFEFEF"/>
<path d="M121.921 107.17L122.422 107.116L122.934 107.855L122.791 108.254L121.921 108.369L121.504 108.116L121.921 107.17Z" fill="#ED2A5B"/>
<path d="M119.274 127.465C118.404 127.314 118.938 126.419 118.785 126.24C118.629 126.066 117.332 125.644 117.107 124.92C117.087 124.851 117.012 124.764 116.89 124.652C116.89 124.652 117.493 123.514 118.626 122.547C118.8 122.68 118.931 122.78 119.002 122.824C119.555 123.174 120.598 124.268 120.775 125.145C120.949 126.017 120.146 127.615 119.274 127.465Z" fill="#FAC2B0"/>
<path d="M118.626 122.55C117.493 123.514 116.89 124.654 116.89 124.654C116.729 124.501 116.491 124.317 116.197 124.105C116.695 123.222 117.463 122.486 117.99 122.039C118.233 122.238 118.453 122.412 118.626 122.55Z" fill="white"/>
<path d="M351.424 243.896V243.862H350.605V243.829H350.094V243.796H349.718V243.763H349.377V243.729H349.104V243.696H348.83V243.663H348.592V243.63H348.421V243.596H348.216V243.563H348.012V243.53H347.84V243.497H347.669V243.463H347.533V243.43H347.362V243.397H347.226V243.364H347.091V243.33H346.955V243.297H346.82V243.264H346.717V243.231H346.582V243.197H346.479V243.164H346.377V243.131H346.275V243.098H346.172V243.065H346.07V243.031H345.968V242.998H345.899V242.965H345.797V242.932H345.694V242.898H345.625V242.865H345.523V242.832H345.454V242.799H345.385V242.765H345.316V242.732H345.247V242.699H345.178V242.666H345.108V242.632H345.006V242.599H344.973V242.566H344.904V242.533H344.835V242.499H344.802V242.466H344.732V242.433H344.663V242.4H344.594V242.366H344.561V242.333H344.528V242.3H344.459V242.267H344.426V242.233H344.392V242.2H344.323V242.167H344.29V242.134H344.221V242.101H344.188V242.067H344.154V242.034H344.121V242.001H344.088V241.968H344.055V241.934H344.021V241.901H343.988V241.868H343.955V241.799H343.922V241.766H343.888V241.732H343.855V241.663H343.822V241.63H343.789V241.561H343.755V241.492H343.722V241.423H343.689V241.354H343.656V241.252H343.622V241.08H343.589V240.807H343.622V240.635H343.656V240.533H343.689V240.464H343.722V240.395H343.755V240.326H343.789V240.257H343.822V240.224H343.855V240.19H343.888V240.121H343.922V240.088H343.955V240.019H344.024V239.986H344.057V239.953H344.09V239.919H344.124V239.886H344.157V239.853H344.19V239.82H344.223V239.786H344.257V239.753H344.29V239.72H344.323V239.687H344.392V239.653H344.426V239.62H344.495V239.587H344.528V239.554H344.561V239.521H344.63V239.487H344.663V239.454H344.732V239.421H344.802V239.388H344.871V239.354H344.904V239.321H344.973V239.288H345.042V239.255H345.111V239.221H345.18V239.188H345.249V239.155H345.318V239.122H345.387V239.088H345.456V239.055H345.559V239.022H345.628V238.989H345.73V238.955H345.799V238.922H345.901V238.889H346.004V238.856H346.073V238.822H346.175V238.789H346.311V238.756H346.413V238.723H346.515V238.689H346.618V238.656H346.72V238.623H346.855V238.59H346.991V238.557H347.127V238.523H347.229V238.49H347.4V238.457H347.572V238.424H347.707V238.39H347.879V238.357H348.05V238.324H348.255V238.291H348.459V238.257H348.664V238.224H348.902V238.191H349.175V238.158H349.413V238.124H349.789V238.091H350.165V238.058H350.71V238.025H353.132V238.058H353.713V238.091H354.089V238.124H354.465V238.158H354.703V238.191H354.977V238.224H355.214V238.257H355.419V238.291H355.624V238.324H355.828V238.357H356V238.39H356.171V238.424H356.307V238.457H356.478V238.49H356.613V238.523H356.749V238.557H356.885V238.59H357.02V238.623H357.122V238.656H357.258V238.689H357.36V238.723H357.463V238.756H357.565V238.789H357.667V238.822H357.77V238.856H357.872V238.889H357.974V238.922H358.043V238.955H358.146V238.989H358.215V239.022H358.317V239.055H358.386V239.088H358.455V239.122H358.557V239.155H358.626V239.188H358.696V239.221H358.765V239.255H358.834V239.288H358.903V239.321H358.972V239.354H359.005V239.388H359.074V239.421H359.143V239.454H359.176V239.487H359.245V239.521H359.315V239.554H359.348V239.587H359.381V239.62H359.45V239.653H359.483V239.687H359.517V239.72H359.586V239.753H359.619V239.786H359.652V239.82H359.685V239.853H359.719V239.886H359.752V239.919H359.785V239.953H359.818V239.986H359.852V240.019H359.885V240.052H359.918V240.086H359.951V240.119H359.985V240.188H360.018V240.221H360.051V240.29H360.084V240.323H360.118V240.392H360.151V240.495H360.184V240.564H360.217V240.666H360.251V241.211H360.217V241.313H360.184V241.415H360.151V241.484H360.118V241.553H360.084V241.622H360.051V241.656H360.018V241.689H359.985V241.758H359.951V241.791H359.918V241.86H359.849V241.893H359.816V241.927H359.783V241.96H359.749V241.993H359.716V242.026H359.683V242.06H359.65V242.093H359.616V242.126H359.583V242.159H359.55V242.193H359.481V242.226H359.448V242.259H359.414V242.292H359.345V242.326H359.312V242.359H359.243V242.392H359.21V242.425H359.141V242.459H359.072V242.492H359.038V242.525H358.969V242.558H358.9V242.591H358.831V242.625H358.762V242.658H358.693V242.691H358.624V242.724H358.555V242.758H358.486V242.791H358.417V242.824H358.314V242.857H358.245V242.891H358.143V242.924H358.074V242.957H357.972V242.99H357.903V243.024H357.8V243.057H357.698V243.09H357.596V243.123H357.493V243.157H357.391V243.19H357.289V243.223H357.153V243.256H357.018V243.29H356.915V243.323H356.78V243.356H356.644V243.389H356.509V243.422H356.337V243.456H356.202V243.489H356.03V243.522H355.859V243.555H355.654V243.589H355.45V243.622H355.245V243.655H355.007V243.688H354.769V243.722H354.496V243.755H354.155V243.788H353.779V243.821H353.268V243.855H352.449V243.888" fill="url(#paint18_radial_238:301)"/>
<path d="M356.13 237.431C356.015 237.864 355.874 238.219 355.711 238.273C355.253 238.426 354.813 238.661 353.728 237.915C352.644 237.171 352.575 235.58 352.357 234.987C352.247 234.698 352.079 234.527 351.93 234.432C351.856 233.074 351.728 231.402 351.559 230.747C351.252 229.579 350.288 223.841 350.288 223.841L346.873 220.555L351.078 219.082C351.078 219.082 352.744 220.954 353.102 221.78C353.46 222.601 353.818 232.087 354.112 233.294C354.265 233.918 355.34 235.736 356.13 237.431Z" fill="#EEB9A7"/>
<path d="M356.657 240.786C355.222 241.502 353.068 239.398 352.025 236.391C352.025 236.391 351.994 235.511 351.933 234.43C352.079 234.524 352.25 234.695 352.36 234.984C352.577 235.578 352.646 237.171 353.731 237.912C354.815 238.659 355.255 238.424 355.713 238.27C355.877 238.217 356.018 237.861 356.133 237.429C356.856 238.989 357.342 240.441 356.657 240.786Z" fill="#224D94"/>
<path d="M336.716 212.897C336.716 212.897 336.049 215.482 336.563 217.18C337.077 218.88 337.33 220.75 346.116 224.731C346.116 224.731 345.431 220.813 351.334 219.251C351.334 219.251 346.208 213.444 345.236 212.437L336.716 212.897Z" fill="#2656A5"/>
<path d="M353.623 240.144C353.531 240.617 352.958 240.797 352.958 240.797C350.285 241.679 349.278 236.554 349.278 236.554C349.278 236.554 349.421 234.775 349.278 233.959C349.132 233.151 347.868 229.865 347.6 228.832C347.331 227.797 347.413 225.314 347.413 225.314L345.927 224.646C345.6 221.969 347.705 220.553 347.705 220.553C347.705 220.553 350.252 222.519 350.771 223.47C351.291 224.424 351.27 232.082 351.334 233.22C351.398 234.355 351.779 237.626 353.623 240.144Z" fill="#FAC2B0"/>
<path d="M354.288 242.929C350.623 243.469 350.022 239.986 350.022 239.986V241.5C349.651 241.643 349.482 241.374 349.482 241.374C349.567 240.794 348.989 238.725 349.004 237.856C349.022 236.987 349.278 236.554 349.278 236.554C349.278 236.554 350.283 241.679 352.958 240.797C352.958 240.797 353.531 240.62 353.623 240.144L353.646 240.175C355.511 242.702 354.288 242.929 354.288 242.929Z" fill="#224D94"/>
<path d="M343.566 218.571L347.843 221.524C347.891 221.558 347.955 221.563 348.009 221.527L354.437 217.587C354.529 217.528 354.531 217.395 354.444 217.331L350.086 214.255C350.035 214.222 349.966 214.222 349.915 214.252L343.569 218.315C343.479 218.377 343.479 218.51 343.566 218.571Z" fill="#7D7D7D"/>
<path d="M341.3 193.62C341.3 193.62 340.85 192.525 339.489 192.876C338.128 193.226 337.829 195.566 337.829 196.085C337.826 197.366 338.323 198.169 338.323 198.787C338.323 199.404 338.044 201.076 338.044 201.076C338.044 201.076 339.448 201.508 340.568 200.994C341.684 200.48 341.3 193.62 341.3 193.62Z" fill="#513718"/>
<path d="M347.014 209.095C347.014 209.095 349.38 212.171 349.828 213.848C349.828 213.848 351.344 214.423 351.467 214.822C351.59 215.224 351.557 215.802 351.557 215.802C351.365 215.84 350.769 215.595 350.595 215.487C350.421 215.382 349.145 215.224 349.145 215.28C349.145 215.331 349.229 216.362 349.022 216.377C348.81 216.397 348.357 215.454 348.395 215.208C348.428 214.963 348.446 214.265 348.342 214.091C348.237 213.917 345.679 210.897 345.62 210.478C345.566 210.059 345.354 209.361 345.354 209.361L347.014 209.095Z" fill="#FAC2B0"/>
<path d="M344.697 200.181C344.697 200.181 346.06 200.613 346.436 202.669C346.814 204.727 347.477 208.844 347.477 208.844C347.477 208.844 347.006 210.064 345.316 209.829C345.316 209.829 344.116 204.277 343.855 202.758C343.597 201.234 343.893 199.9 344.697 200.181Z" fill="#ED6DA8"/>
<path d="M338.972 199.879C338.972 199.879 336.013 201.477 335.834 202.937C335.652 204.397 336.972 210.314 336.714 212.897C336.714 212.897 341.932 216.295 345.234 212.437C345.234 212.437 344.794 209.074 345.234 208.256C345.674 207.438 346.878 206.755 346.265 204.817C345.653 202.876 344.955 200.539 344.697 200.181C344.433 199.818 341.671 199.046 338.972 199.879Z" fill="#EE559D"/>
<path d="M339.901 198.933C339.901 198.933 339.658 199.468 338.972 199.882C338.972 199.882 339.658 202.569 341.916 202.477C344.17 202.388 341.63 196.711 341.63 196.711L339.901 198.933Z" fill="#FAC2B0"/>
<path d="M340.415 195.642L339.788 194.714C339.788 194.714 340.108 193.402 341.3 193.62L342.067 194.364C342.067 194.364 341.036 194.694 340.415 195.642Z" fill="#CE4989"/>
<path d="M346.019 197.555C346.121 198.186 346.224 198.915 345.858 199.692C345.492 200.467 344.628 202.472 343.794 202.37C342.957 202.267 341.297 201.521 341.297 200.437C341.297 199.352 341.86 197.115 342.052 197.102C342.244 197.089 344.894 196.752 345.17 196.969C345.449 197.189 346.019 197.555 346.019 197.555Z" fill="#FAC2B0"/>
<path d="M341.63 199.634C341.63 199.634 342.077 199.989 343.034 199.774C343.993 199.56 344.341 198.69 344.968 198.424C345.595 198.156 345.848 198.278 346.104 198.189C346.357 198.099 346.311 196.749 345.999 196.161C345.684 195.568 344.011 193.77 342.285 194.064C340.556 194.361 339.921 196.018 339.949 196.939C339.972 197.859 339.901 198.933 339.901 198.933C339.901 198.933 340.456 199.836 341.63 199.634Z" fill="#6B461B"/>
<path d="M341.63 199.634C341.63 199.634 341.586 198.521 340.852 198.7C340.116 198.877 340.985 200.237 341.443 200.286L341.63 199.634Z" fill="#FAC2B0"/>
<path d="M337.404 211.363L337.294 212.715C337.294 212.715 338.673 213.47 343.492 217.024C343.492 217.024 344.763 217.067 345.52 216.94C346.28 216.809 348.04 217.382 348.099 217.571C348.152 217.755 346.707 217.497 346.707 217.497C346.707 217.497 347.505 218.2 347.431 218.479C347.357 218.755 346.907 219.407 346.436 219.218C345.968 219.034 345.689 218.533 345.505 218.591C345.321 218.645 344.188 219.422 342.699 218.533C342.699 218.533 335.146 214.587 335.015 213.662C334.885 212.733 334.885 210.662 334.885 210.662C334.885 210.662 336.2 211.529 337.404 211.363Z" fill="#FAC2B0"/>
<path d="M337.258 202.556C338.376 203.127 338.581 204.635 338.456 206.044C338.325 207.453 337.527 211.539 337.527 211.539C337.527 211.539 335.348 212.038 334.639 210.785C334.639 210.785 335.335 204.975 335.491 203.666C335.647 202.354 336.558 202.201 337.258 202.556Z" fill="#ED6DA8"/>
<path d="M347.971 221.55L350.866 215.26L357.742 211.475L354.439 217.584L347.971 221.55Z" fill="#919190"/>
<path d="M77.7244 313.193C76.1897 313.193 74.7394 313.058 73.4708 312.815C71.8363 311.853 70.23 310.882 68.6493 309.9C68.7311 308.138 72.7623 306.716 77.7244 306.716C82.7377 306.716 86.8021 308.169 86.8021 309.956C86.8021 311.743 82.7377 313.193 77.7244 313.193Z" fill="url(#paint19_radial_238:301)"/>
<path d="M73.4708 312.815C70.6035 312.273 68.6493 311.196 68.6493 309.953C68.6493 309.936 68.6493 309.92 68.6493 309.9C70.2326 310.882 71.8389 311.853 73.4708 312.815Z" fill="url(#paint20_radial_238:301)"/>
<path d="M72.6906 307.486C72.6906 307.486 72.2481 309.468 72.4169 309.836C72.5909 310.207 73.5859 310.859 74.7087 310.759C75.8265 310.659 77.3177 309.652 78.1055 309.613C78.8933 309.58 80.6915 308.286 79.63 307.632C78.5736 306.98 76.3688 307.683 75.1257 307.128L72.6906 307.486Z" fill="#663017"/>
<path d="M71.9873 279.74C71.9873 279.74 71.3606 281.243 71.2788 283.964C71.1944 286.682 72.7828 293.752 72.7828 293.752C72.7828 293.752 71.7775 295.841 72.0282 297.056C72.2814 298.271 73.0743 303.998 72.9516 305.21C72.8262 306.425 72.573 307.593 72.573 307.593C72.573 307.593 74.9799 308.514 76.3151 307.345L78.8499 292.246L78.0544 280.2L71.9873 279.74Z" fill="#702B18"/>
<path d="M76.8138 308.041C76.8138 308.041 76.1974 309.792 76.3355 310.36C76.471 310.925 77.1335 311.577 78.0646 311.618C78.9931 311.662 79.5916 311.053 80.0724 311.063C80.5533 311.073 84.0857 311.94 84.7481 309.133C84.7481 309.133 84.8019 308.511 84.0217 308.384C83.2441 308.258 80.3589 308.384 79.9113 307.936L76.8138 308.041Z" fill="#663017"/>
<path d="M82.6482 280.995C82.6482 280.995 83.6125 282.959 82.2364 296.051C82.2364 296.051 82.134 301.802 80.5149 308.314C80.5149 308.314 78.241 309.519 76.7217 308.072C76.7217 308.072 77.2409 304.318 77.1386 303.558C77.0338 302.802 75.829 298.015 77.6886 296.153C77.6886 296.153 76.2766 289.986 75.9671 289.127C75.6576 288.265 73.8263 285.23 74.3608 282.08L82.6482 280.995Z" fill="#832E1B"/>
<path d="M83.4002 266.666C83.4002 266.666 84.8505 266.31 85.5308 265.05L83.8094 263.774L82.4794 265.219L83.4002 266.666Z" fill="#FAC2B0"/>
<path d="M79.6351 266.51L82.2211 265.106C82.2211 265.106 83.3133 265.441 83.4002 266.668L81.3335 268.806C81.3335 268.804 80.7555 267.055 79.6351 266.51Z" fill="#F69265"/>
<path d="M83.5179 264.428L91.1428 269.185C91.2962 269.279 91.4932 269.215 91.5623 269.049L94.2633 262.493C94.3221 262.357 94.2659 262.204 94.1405 262.132L86.1295 257.553C85.9734 257.463 85.7739 257.535 85.7125 257.706L83.3977 264.086C83.3542 264.214 83.4028 264.357 83.5179 264.428Z" fill="#383838"/>
<path d="M86.0322 258.054L83.8145 264.088C83.7915 264.157 83.8145 264.234 83.8759 264.272L91.0148 268.732C91.0966 268.783 91.2066 268.75 91.2399 268.66L93.7798 262.472C93.8105 262.401 93.7824 262.319 93.7159 262.281L86.2547 257.972C86.1729 257.923 86.0629 257.962 86.0322 258.054Z" fill="#CAEAF8"/>
<path d="M82.2185 265.103L82.6175 263.467C82.6175 263.467 83.1521 262.805 83.5358 262.759C83.9169 262.715 85.0577 262.677 85.0321 262.874C85.0091 263.071 84.4924 263.362 83.6227 263.549C83.6227 263.549 84.0115 264.661 83.8581 265.185C83.7072 265.707 83.3977 266.666 83.3977 266.666C83.3977 266.666 82.8733 265.461 82.2185 265.103Z" fill="#FAC2B0"/>
<path d="M78.218 255.65C79.167 255.883 80.0622 256.571 80.1082 257.535C80.1517 258.504 79.9983 262.454 79.4048 262.564C78.8114 262.674 76.7677 261.421 76.0464 260.128C75.32 258.831 75.8239 255.057 78.218 255.65Z" fill="#FAC2B0"/>
<path d="M73.8774 260.652L74.1025 264.076C74.1025 264.076 75.1743 265.034 78.1336 264.794C78.1336 264.794 78.1439 263.738 78.3076 263.201C78.4713 262.667 79.1056 261.557 79.1056 261.557C79.1056 261.557 75.4147 260.173 73.8774 260.652Z" fill="#FAC2B0"/>
<path d="M75.4633 263.743C75.4633 263.743 73.0999 262.28 71.9259 262.424C70.757 262.569 69.4167 265.584 69.7492 267.822C70.0843 270.061 71.5908 273.153 71.5499 274.265C71.509 275.372 71.1304 279.658 71.509 280.036C71.885 280.412 73.1792 282.253 76.9239 282.714C80.6685 283.174 82.615 281.98 82.8887 281.187C83.1573 280.392 82.7429 278.489 82.4897 277.924C82.2364 277.359 81.5484 274.347 81.9474 271.839C82.3439 269.33 82.4155 266.927 79.3359 265.106L75.4633 263.743Z" fill="#F48451"/>
<path d="M73.128 257.039C73.128 257.039 72.9745 255.732 74.3737 255.164C75.7728 254.599 78.6478 254.121 80.0137 255.586C80.0137 255.586 80.5661 256.223 78.6606 257.039C78.6606 257.039 78.5378 257.517 79.0161 258.192C79.4944 258.867 78.5736 259.325 78.4022 259.805C78.2309 260.289 77.6784 262.692 76.8957 262.692C76.1104 262.692 73.8698 262.373 73.7163 262.096C73.5577 261.818 71.2378 258.22 73.128 257.039Z" fill="#784D46"/>
<path d="M78.8907 259.435C78.8907 259.435 78.7859 258.527 78.062 258.79C77.3381 259.054 77.9085 260.281 78.5838 260.496L78.8907 259.435Z" fill="#FAC2B0"/>
<path d="M73.3352 263.385L73.8544 262.628C73.8544 262.628 74.366 263.948 79.4893 264.053C79.4893 264.053 79.7016 264.188 79.6147 264.403C79.5303 264.615 79.3384 265.101 79.3384 265.101C79.3384 265.101 78.8678 264.968 78.5941 264.988C78.3178 265.017 74.522 265.369 73.3352 263.385Z" fill="#F4A986"/>
<path d="M89.0887 269.21C89.0887 269.21 88.8841 267.819 89.0887 267.216C89.2908 266.612 89.7001 266.456 89.8587 266.011C90.0147 265.569 90.2474 263.585 90.6746 263.6C91.0966 263.62 90.8306 265.674 91.025 265.922C91.2194 266.167 92.4599 267.285 92.4088 267.673C92.3551 268.062 92.176 269.023 91.8768 269.207C91.5724 269.392 90.7002 270.56 90.7002 270.56C90.7002 270.56 89.8561 269.681 89.0887 269.21Z" fill="#FAC2B0"/>
<path d="M79.7835 268.238C80.8373 267.083 81.8119 267.392 82.2569 268.026C82.7045 268.66 85.8097 273.815 85.8097 273.815C85.8097 273.815 87.6488 270.33 89.0863 269.21C89.0863 269.21 90.6491 269.673 90.7975 270.414C90.9433 271.153 87.6053 277.812 86.7587 277.791C85.9121 277.768 85.3391 278.149 83.8837 276.84C82.4232 275.528 80.2414 272 79.6301 270.795C79.0238 269.591 79.584 268.458 79.7835 268.238Z" fill="#F69265"/>
<path d="M253.539 99.9409L253.48 100.066C253.487 99.9921 253.508 99.946 253.539 99.9409Z" fill="#FAC2B0"/>
</g>
<defs>
<radialGradient id="paint0_radial_238:301" cx="0" cy="0" r="1" gradientUnits="userSpaceOnUse" gradientTransform="translate(579.487 -183.931) rotate(151.441) scale(1007.98 983.682)">
<stop stop-color="#C4AFF8"/>
<stop offset="1" stop-color="#AD8FF5"/>
</radialGradient>
<radialGradient id="paint1_radial_238:301" cx="0" cy="0" r="1" gradientUnits="userSpaceOnUse" gradientTransform="translate(579.576 -183.979) rotate(151.442) scale(1008.08 983.78)">
<stop stop-color="#C4AFF8"/>
<stop offset="1" stop-color="#AD8FF5"/>
</radialGradient>
<radialGradient id="paint2_radial_238:301" cx="0" cy="0" r="1" gradientUnits="userSpaceOnUse" gradientTransform="translate(579.488 -183.931) rotate(151.442) scale(1007.98 983.682)">
<stop stop-color="#C4AFF8"/>
<stop offset="1" stop-color="#AD8FF5"/>
</radialGradient>
<radialGradient id="paint3_radial_238:301" cx="0" cy="0" r="1" gradientUnits="userSpaceOnUse" gradientTransform="translate(579.488 -183.931) rotate(151.442) scale(1007.98 983.682)">
<stop stop-color="#C4AFF8"/>
<stop offset="1" stop-color="#AD8FF5"/>
</radialGradient>
<radialGradient id="paint4_radial_238:301" cx="0" cy="0" r="1" gradientUnits="userSpaceOnUse" gradientTransform="translate(579.488 -183.931) rotate(151.442) scale(1007.98 983.682)">
<stop stop-color="#C4AFF8"/>
<stop offset="1" stop-color="#AD8FF5"/>
</radialGradient>
<radialGradient id="paint5_radial_238:301" cx="0" cy="0" r="1" gradientUnits="userSpaceOnUse" gradientTransform="translate(579.487 -183.931) rotate(151.442) scale(1007.98 983.682)">
<stop stop-color="#C4AFF8"/>
<stop offset="1" stop-color="#AD8FF5"/>
</radialGradient>
<radialGradient id="paint6_radial_238:301" cx="0" cy="0" r="1" gradientUnits="userSpaceOnUse" gradientTransform="translate(579.488 -183.931) rotate(151.442) scale(1007.98 983.682)">
<stop stop-color="#8D6DDA"/>
<stop offset="1" stop-color="#6B3ED7"/>
</radialGradient>
<radialGradient id="paint7_radial_238:301" cx="0" cy="0" r="1" gradientUnits="userSpaceOnUse" gradientTransform="translate(579.487 -183.931) rotate(151.441) scale(1007.98 983.682)">
<stop stop-color="#B09DDF"/>
<stop offset="1" stop-color="#9B80DC"/>
</radialGradient>
<radialGradient id="paint8_radial_238:301" cx="0" cy="0" r="1" gradientUnits="userSpaceOnUse" gradientTransform="translate(579.487 -183.931) rotate(151.441) scale(1007.98 983.682)">
<stop stop-color="#B09DDF"/>
<stop offset="1" stop-color="#9B80DC"/>
</radialGradient>
<radialGradient id="paint9_radial_238:301" cx="0" cy="0" r="1" gradientUnits="userSpaceOnUse" gradientTransform="translate(579.488 -183.931) rotate(151.442) scale(1007.98 983.682)">
<stop stop-color="#B09DDF"/>
<stop offset="1" stop-color="#9B80DC"/>
</radialGradient>
<radialGradient id="paint10_radial_238:301" cx="0" cy="0" r="1" gradientUnits="userSpaceOnUse" gradientTransform="translate(579.488 -183.931) rotate(151.442) scale(1007.98 983.682)">
<stop stop-color="#B09DDF"/>
<stop offset="1" stop-color="#9B80DC"/>
</radialGradient>
<radialGradient id="paint11_radial_238:301" cx="0" cy="0" r="1" gradientUnits="userSpaceOnUse" gradientTransform="translate(579.488 -183.931) rotate(151.442) scale(1007.98 983.682)">
<stop stop-color="#B09DDF"/>
<stop offset="1" stop-color="#9B80DC"/>
</radialGradient>
<radialGradient id="paint12_radial_238:301" cx="0" cy="0" r="1" gradientUnits="userSpaceOnUse" gradientTransform="translate(579.488 -183.931) rotate(151.442) scale(1007.98 983.682)">
<stop stop-color="#8D6DDA"/>
<stop offset="1" stop-color="#6B3ED7"/>
</radialGradient>
<radialGradient id="paint13_radial_238:301" cx="0" cy="0" r="1" gradientUnits="userSpaceOnUse" gradientTransform="translate(579.487 -183.932) rotate(151.441) scale(1007.98 983.684)">
<stop stop-color="#8D6DDA"/>
<stop offset="1" stop-color="#6B3ED7"/>
</radialGradient>
<radialGradient id="paint14_radial_238:301" cx="0" cy="0" r="1" gradientUnits="userSpaceOnUse" gradientTransform="translate(579.488 -183.929) rotate(151.442) scale(1007.98 983.679)">
<stop stop-color="#8D6DDA"/>
<stop offset="1" stop-color="#6B3ED7"/>
</radialGradient>
<radialGradient id="paint15_radial_238:301" cx="0" cy="0" r="1" gradientUnits="userSpaceOnUse" gradientTransform="translate(579.489 -183.933) rotate(151.442) scale(1007.99 983.689)">
<stop stop-color="#B09DDF"/>
<stop offset="1" stop-color="#9B80DC"/>
</radialGradient>
<radialGradient id="paint16_radial_238:301" cx="0" cy="0" r="1" gradientUnits="userSpaceOnUse" gradientTransform="translate(579.487 -183.932) rotate(151.441) scale(1007.98 983.683)">
<stop stop-color="#8D6DDA"/>
<stop offset="1" stop-color="#6B3ED7"/>
</radialGradient>
<radialGradient id="paint17_radial_238:301" cx="0" cy="0" r="1" gradientUnits="userSpaceOnUse" gradientTransform="translate(579.487 -183.93) rotate(151.442) scale(1007.98 983.681)">
<stop stop-color="#8D6DDA"/>
<stop offset="1" stop-color="#6B3ED7"/>
</radialGradient>
<radialGradient id="paint18_radial_238:301" cx="0" cy="0" r="1" gradientUnits="userSpaceOnUse" gradientTransform="translate(579.488 -183.93) rotate(151.442) scale(1007.98 983.681)">
<stop stop-color="#8D6DDA"/>
<stop offset="1" stop-color="#6B3ED7"/>
</radialGradient>
<radialGradient id="paint19_radial_238:301" cx="0" cy="0" r="1" gradientUnits="userSpaceOnUse" gradientTransform="translate(579.487 -183.929) rotate(151.442) scale(1007.98 983.68)">
<stop stop-color="#8D6DDA"/>
<stop offset="1" stop-color="#6B3ED7"/>
</radialGradient>
<radialGradient id="paint20_radial_238:301" cx="0" cy="0" r="1" gradientUnits="userSpaceOnUse" gradientTransform="translate(579.486 -183.928) rotate(151.442) scale(1007.98 983.677)">
<stop stop-color="#B09DDF"/>
<stop offset="1" stop-color="#9B80DC"/>
</radialGradient>
<clipPath id="clip0_238:301">
<rect width="503" height="357" fill="white"/>
</clipPath>
</defs>
</svg>
