<svg width="120" height="120" viewBox="0 0 120 120" fill="none" xmlns="http://www.w3.org/2000/svg">
<path d="M19.7013 100.289L19.6993 100.291L19.7013 100.289Z" fill="#4169E1" stroke="#4169E1" stroke-width="30"/>
<mask id="path-2-inside-1_222:40" fill="white">
<path d="M51.3563 107.858C51.0849 107.858 50.7951 107.812 50.4932 107.727C49.8177 107.504 49.2457 107.044 48.883 106.433C48.5202 105.821 48.3912 105.098 48.5198 104.399L55.8337 67.1616L42.5022 63.4223C42.0817 63.3036 41.6935 63.0912 41.3669 62.801C41.0403 62.5108 40.7837 62.1504 40.6164 61.7468C40.4491 61.3432 40.3754 60.9069 40.4009 60.4707C40.4264 60.0346 40.5505 59.6099 40.7637 59.2285L65.8987 13.6341C66.2431 13.032 66.7892 12.5712 67.4405 12.3328C68.0919 12.0945 68.8065 12.0941 69.4581 12.3317C70.1066 12.5694 70.647 13.0342 70.979 13.6399C71.311 14.2456 71.4121 14.9511 71.2637 15.6257L64.7184 47.9862L77.382 50.9996C78.2665 51.2406 78.9619 51.8109 79.3279 52.5765C79.5155 52.9753 79.61 53.4115 79.6042 53.8522C79.5983 54.2929 79.4924 54.7265 79.2943 55.1202L53.9519 106.247C53.7116 106.73 53.3414 107.137 52.883 107.421C52.4245 107.706 51.8959 107.857 51.3563 107.858ZM68.0734 16.0039L43.4294 60.7078L58.0114 64.6057C58.777 64.8192 59.2497 65.5878 59.0942 66.3686L51.7315 103.844L76.5615 53.7538L62.5712 50.6123C62.1858 50.5212 61.8509 50.2837 61.6375 49.9502C61.424 49.6166 61.3487 49.2131 61.4274 48.825L68.0734 16.0039Z"/>
</mask>
<path d="M51.3563 107.858C51.0849 107.858 50.7951 107.812 50.4932 107.727C49.8177 107.504 49.2457 107.044 48.883 106.433C48.5202 105.821 48.3912 105.098 48.5198 104.399L55.8337 67.1616L42.5022 63.4223C42.0817 63.3036 41.6935 63.0912 41.3669 62.801C41.0403 62.5108 40.7837 62.1504 40.6164 61.7468C40.4491 61.3432 40.3754 60.9069 40.4009 60.4707C40.4264 60.0346 40.5505 59.6099 40.7637 59.2285L65.8987 13.6341C66.2431 13.032 66.7892 12.5712 67.4405 12.3328C68.0919 12.0945 68.8065 12.0941 69.4581 12.3317C70.1066 12.5694 70.647 13.0342 70.979 13.6399C71.311 14.2456 71.4121 14.9511 71.2637 15.6257L64.7184 47.9862L77.382 50.9996C78.2665 51.2406 78.9619 51.8109 79.3279 52.5765C79.5155 52.9753 79.61 53.4115 79.6042 53.8522C79.5983 54.2929 79.4924 54.7265 79.2943 55.1202L53.9519 106.247C53.7116 106.73 53.3414 107.137 52.883 107.421C52.4245 107.706 51.8959 107.857 51.3563 107.858ZM68.0734 16.0039L43.4294 60.7078L58.0114 64.6057C58.777 64.8192 59.2497 65.5878 59.0942 66.3686L51.7315 103.844L76.5615 53.7538L62.5712 50.6123C62.1858 50.5212 61.8509 50.2837 61.6375 49.9502C61.424 49.6166 61.3487 49.2131 61.4274 48.825L68.0734 16.0039Z" fill="#4169E1"/>
<path d="M50.4932 107.727L41.1017 136.219L41.7111 136.42L42.3286 136.594L50.4932 107.727ZM48.5198 104.399L19.0823 98.6171L19.0473 98.7954L19.0144 98.9741L48.5198 104.399ZM55.8337 67.1616L85.2713 72.9435L90.6108 45.7583L63.9356 38.2763L55.8337 67.1616ZM42.5022 63.4223L34.3549 92.2948L34.3776 92.3012L34.4003 92.3076L42.5022 63.4223ZM40.7637 59.2285L66.9489 73.8687L66.9927 73.7904L67.036 73.7118L40.7637 59.2285ZM65.8987 13.6341L39.8584 -1.26232L39.7408 -1.05667L39.6264 -0.849198L65.8987 13.6341ZM69.4581 12.3317L79.7826 -15.8357L79.7589 -15.8444L79.7352 -15.8531L69.4581 12.3317ZM71.2637 15.6257L41.9648 9.17776L41.9098 9.42758L41.8591 9.67829L71.2637 15.6257ZM64.7184 47.9862L35.3138 42.0388L29.5655 70.459L57.7736 77.1713L64.7184 47.9862ZM77.382 50.9996L85.267 22.0544L84.7989 21.9269L84.3268 21.8145L77.382 50.9996ZM79.3279 52.5765L106.474 39.8053L106.434 39.7208L106.394 39.6366L79.3279 52.5765ZM79.2943 55.1202L52.4948 41.6374L52.4547 41.717L52.4152 41.7968L79.2943 55.1202ZM53.9519 106.247L80.8122 119.609L80.8216 119.59L80.831 119.571L53.9519 106.247ZM68.0734 16.0039L97.4766 21.9578L41.801 1.52069L68.0734 16.0039ZM43.4294 60.7078L17.157 46.2245L-1.34769 79.7918L35.6821 89.6902L43.4294 60.7078ZM58.0114 64.6057L66.0704 35.7084L65.9148 35.665L65.7587 35.6233L58.0114 64.6057ZM59.0942 66.3686L29.6723 60.5072L29.6646 60.5461L29.6569 60.5851L59.0942 66.3686ZM51.7315 103.844L22.2942 98.0605L78.6103 117.168L51.7315 103.844ZM76.5615 53.7538L103.44 67.0778L120.406 32.852L83.1343 24.4826L76.5615 53.7538ZM62.5712 50.6123L55.6701 79.8077L55.834 79.8465L55.9984 79.8834L62.5712 50.6123ZM61.4274 48.825L90.8285 54.7895L90.8307 54.7788L61.4274 48.825ZM51.3563 77.8577C54.3987 77.8577 56.8941 78.3601 58.6577 78.859L42.3286 136.594C44.6962 137.264 47.771 137.858 51.3563 137.858V77.8577ZM59.8846 79.2345C66.0938 81.2811 71.3519 85.5068 74.6867 91.1301L23.0792 121.735C27.1395 128.582 33.5416 133.727 41.1017 136.219L59.8846 79.2345ZM74.6867 91.1301C78.0215 96.7534 79.2075 103.394 78.0252 109.824L19.0144 98.9741C17.5749 106.803 19.0189 114.888 23.0792 121.735L74.6867 91.1301ZM77.9574 110.181L85.2713 72.9435L26.3962 61.3797L19.0823 98.6171L77.9574 110.181ZM63.9356 38.2763L50.604 34.537L34.4003 92.3076L47.7318 96.0469L63.9356 38.2763ZM50.6494 34.5498C54.5917 35.6622 58.2306 37.6536 61.2929 40.3743L21.441 85.2277C25.1564 88.5289 29.5717 90.9451 34.3549 92.2948L50.6494 34.5498ZM61.2929 40.3743C64.3551 43.0951 66.7609 46.4744 68.3295 50.2584L12.9033 73.2351C14.8065 77.8263 17.7255 81.9266 21.441 85.2277L61.2929 40.3743ZM68.3295 50.2584C69.8982 54.0425 70.5889 58.1328 70.3498 62.222L10.4521 58.7194C10.162 63.681 11 68.6439 12.9033 73.2351L68.3295 50.2584ZM70.3498 62.222C70.1106 66.3113 68.9479 70.2932 66.9489 73.8687L14.5784 44.5884C12.153 48.9265 10.7422 53.7579 10.4521 58.7194L70.3498 62.222ZM67.036 73.7118L92.171 28.1173L39.6264 -0.849198L14.4913 44.7453L67.036 73.7118ZM91.939 28.5304C88.7695 34.0711 83.7434 38.3128 77.749 40.5061L57.1321 -15.8405C49.835 -13.1705 43.7167 -8.00696 39.8584 -1.26232L91.939 28.5304ZM77.749 40.5061C71.7547 42.6995 65.1778 42.7031 59.181 40.5165L79.7352 -15.8531C72.4351 -18.5149 64.4291 -18.5104 57.1321 -15.8405L77.749 40.5061ZM59.1336 40.4991C52.967 38.2388 47.8289 33.8194 44.6719 28.0601L97.286 -0.780241C93.465 -7.75103 87.2462 -13.1 79.7826 -15.8357L59.1336 40.4991ZM44.6719 28.0601C41.515 22.3007 40.5532 15.5921 41.9648 9.17776L100.563 22.0737C102.271 14.3102 101.107 6.1905 97.286 -0.780241L44.6719 28.0601ZM41.8591 9.67829L35.3138 42.0388L94.1229 53.9336L100.668 21.5731L41.8591 9.67829ZM57.7736 77.1713L70.4372 80.1847L84.3268 21.8145L71.6632 18.8011L57.7736 77.1713ZM69.4969 79.9448C62.5167 78.0433 55.8984 73.1225 52.262 65.5163L106.394 39.6366C102.025 30.4994 94.0163 24.4378 85.267 22.0544L69.4969 79.9448ZM52.182 65.3477C50.4332 61.6303 49.5526 57.5641 49.6068 53.4565L109.602 54.2478C109.667 49.2589 108.598 44.3202 106.474 39.8053L52.182 65.3477ZM49.6068 53.4565C49.6609 49.3489 50.6485 45.3073 52.4948 41.6374L106.094 68.6029C108.336 64.1456 109.536 59.2368 109.602 54.2478L49.6068 53.4565ZM52.4152 41.7968L27.0727 92.924L80.831 119.571L106.173 68.4435L52.4152 41.7968ZM27.0916 92.886C29.334 88.3781 32.7881 84.584 37.0666 81.9294L68.6994 132.913C73.8948 129.69 78.0891 125.083 80.8122 119.609L27.0916 92.886ZM37.0666 81.9294C41.3448 79.275 46.2781 77.865 51.3133 77.8578L51.3994 137.858C57.5136 137.849 63.5042 136.137 68.6994 132.913L37.0666 81.9294ZM41.801 1.52069L17.157 46.2245L69.7017 75.191L94.3457 30.4871L41.801 1.52069ZM35.6821 89.6902L50.2642 93.5881L65.7587 35.6233L51.1766 31.7254L35.6821 89.6902ZM49.9524 93.503C35.5965 89.4993 26.763 75.111 29.6723 60.5072L88.516 72.23C91.7365 56.0645 81.9575 40.139 66.0704 35.7084L49.9524 93.503ZM29.6569 60.5851L22.2942 98.0605L81.1687 109.627L88.5314 72.152L29.6569 60.5851ZM78.6103 117.168L103.44 67.0778L49.6827 40.4297L24.8527 90.5199L78.6103 117.168ZM83.1343 24.4826L69.1439 21.3411L55.9984 79.8834L69.9888 83.0249L83.1343 24.4826ZM69.4723 21.4168C76.6684 23.1178 82.9207 27.5514 86.9064 33.7798L36.3685 66.1206C40.7812 73.0161 47.7032 77.9245 55.6701 79.8077L69.4723 21.4168ZM86.9064 33.7798C90.8922 40.0082 92.2986 47.5428 90.8285 54.7895L32.0263 42.8604C30.3987 50.8834 31.9558 59.225 36.3685 66.1206L86.9064 33.7798ZM90.8307 54.7788L97.4766 21.9578L38.6701 10.05L32.0242 42.8711L90.8307 54.7788Z" fill="#4169E1" mask="url(#path-2-inside-1_222:40)"/>
</svg>
