<svg width="123" height="115" viewBox="0 0 123 115" fill="none" xmlns="http://www.w3.org/2000/svg">
<path d="M34.3333 46.0781H30.3942C25.0186 45.8838 19.6604 46.7964 14.6522 48.7592C9.64404 50.7219 5.09266 53.6931 1.28056 57.4881L0.193893 58.7559V96.2459H18.6672V74.9653L21.1575 72.1581L22.2894 70.8451C28.1843 64.7892 35.5231 60.3329 43.6153 57.8956C39.5638 54.8128 36.3685 50.7446 34.3333 46.0781Z" fill="#4169E1"/>
<path d="M121.901 57.3521C118.088 53.5571 113.537 50.586 108.529 48.6232C103.521 46.6604 98.1625 45.7478 92.7869 45.9421C91.1383 45.9468 89.4909 46.0375 87.8517 46.2138C85.7784 50.5917 82.6703 54.399 78.7961 57.3068C87.435 59.6968 95.2608 64.3923 101.435 70.8902L102.567 72.1579L105.012 74.9652V96.291H122.851V58.6199L121.901 57.3521Z" fill="#4169E1"/>
<path d="M30.2584 37.2492H31.662C31.0098 31.6494 31.9924 25.9806 34.4911 20.927C36.9897 15.8733 40.8978 11.6509 45.7434 8.76946C43.9869 6.08607 41.5636 3.90484 38.7108 2.43938C35.8581 0.973917 32.6736 0.274458 29.4693 0.409491C26.265 0.544524 23.1507 1.50942 20.4313 3.2097C17.712 4.90998 15.4808 7.28734 13.9563 10.109C12.4318 12.9307 11.6663 16.0999 11.7346 19.3063C11.803 22.5127 12.7028 25.6464 14.3462 28.4006C15.9895 31.1547 18.3199 33.4348 21.1093 35.0177C23.8986 36.6006 27.0512 37.4319 30.2584 37.4303V37.2492Z" fill="#4169E1"/>
<path d="M90.6136 33.8535C90.6686 34.8942 90.6686 35.937 90.6136 36.9777C91.4825 37.1154 92.3601 37.1911 93.2397 37.2041H94.1C97.2931 37.0338 100.388 36.0397 103.082 34.3184C105.777 32.5972 107.98 30.2075 109.477 27.382C110.975 24.5566 111.715 21.3916 111.625 18.1952C111.536 14.9989 110.621 11.8801 108.969 9.14251C107.316 6.40491 104.983 4.14179 102.197 2.57349C99.4101 1.00518 96.265 0.18513 93.0674 0.193174C89.8698 0.201218 86.7288 1.03708 83.9501 2.61939C81.1715 4.20169 78.8499 6.47652 77.2114 9.2224C81.3094 11.898 84.6791 15.5491 87.0183 19.8481C89.3574 24.147 90.5928 28.9594 90.6136 33.8535Z" fill="#4169E1"/>
<path d="M60.9114 54.1378C72.0892 54.1378 81.1506 45.0764 81.1506 33.8986C81.1506 22.7208 72.0892 13.6594 60.9114 13.6594C49.7336 13.6594 40.6722 22.7208 40.6722 33.8986C40.6722 45.0764 49.7336 54.1378 60.9114 54.1378Z" fill="#4169E1"/>
<path d="M61.9981 64.9139C56.085 64.6751 50.1847 65.6351 44.6523 67.736C39.1199 69.8369 34.0697 73.0354 29.8056 77.1389L28.6736 78.4067V107.067C28.6913 108.001 28.8927 108.922 29.2664 109.778C29.64 110.633 30.1786 111.407 30.8514 112.055C31.5241 112.702 32.3178 113.211 33.1872 113.551C34.0565 113.892 34.9845 114.058 35.9181 114.04H87.9422C88.8758 114.058 89.8038 113.892 90.6731 113.551C91.5425 113.211 92.3362 112.702 93.0089 112.055C93.6817 111.407 94.2203 110.633 94.5939 109.778C94.9676 108.922 95.169 108.001 95.1867 107.067V78.4972L94.1 77.1389C89.8635 73.0228 84.8309 69.8153 79.3108 67.7132C73.7907 65.611 67.8994 64.6584 61.9981 64.9139Z" fill="#4169E1"/>
</svg>
