<svg width="60" height="44" viewBox="0 0 60 44" fill="none" xmlns="http://www.w3.org/2000/svg">
<path d="M13.9914 43.72C10.0447 43.72 6.8447 42.3333 4.39137 39.56C2.0447 36.68 0.871369 32.9467 0.871369 28.36C0.871369 22.3867 2.63137 16.84 6.15137 11.72C9.67137 6.49333 14.0447 2.6 19.2714 0.039999L20.2314 1.95999C17.9914 3.66666 16.018 5.85333 14.3114 8.51999C12.6047 11.1867 11.378 14.4933 10.6314 18.44L13.9914 19.24C17.7247 20.0933 20.6047 21.6933 22.6314 24.04C24.7647 26.28 25.8314 29 25.8314 32.2C25.8314 35.6133 24.658 38.3867 22.3114 40.52C20.0714 42.6533 17.298 43.72 13.9914 43.72ZM47.7514 43.72C43.8047 43.72 40.6047 42.3333 38.1514 39.56C35.8047 36.68 34.6314 32.9467 34.6314 28.36C34.6314 22.3867 36.3914 16.84 39.9114 11.72C43.4314 6.49333 47.8047 2.6 53.0314 0.039999L53.9914 1.95999C51.7514 3.66666 49.778 5.85333 48.0714 8.51999C46.3647 11.1867 45.138 14.4933 44.3914 18.44L47.7514 19.24C51.4847 20.0933 54.3647 21.6933 56.3914 24.04C58.5247 26.28 59.5914 29 59.5914 32.2C59.5914 35.6133 58.418 38.3867 56.0714 40.52C53.8314 42.6533 51.058 43.72 47.7514 43.72Z" fill="white"/>
</svg>
